<?xml version="1.0" encoding="UTF-8"?> <svg xmlns="http://www.w3.org/2000/svg" width="1053" height="737" viewBox="0 0 1053 737" fill="none"> <g clip-path="url(#clip0_686_5375)"> <path d="M578.22 584.09L50.6601 544.5C49.3367 545.483 47.7087 545.967 46.0631 545.868C44.4175 545.768 42.8599 545.091 41.6646 543.956C40.4694 542.82 39.7132 541.299 39.5295 539.661C39.3457 538.023 39.7461 536.372 40.6601 535L170.66 455C182.91 447.13 187.9 447.13 193.43 447.13L685.65 468.13C686.291 468.098 686.932 468.195 687.534 468.417C688.136 468.638 688.687 468.979 689.154 469.419C689.621 469.859 689.994 470.389 690.251 470.977C690.509 471.565 690.644 472.198 690.65 472.84L584.1 581.38C583 583.33 579.88 584.09 578.22 584.09Z" fill="white" stroke="#192140" stroke-width="2" stroke-linecap="round" stroke-linejoin="round"></path> <path d="M580.17 583.84C580.05 583.84 580.51 606.71 580.62 606.71C616.33 569 654.05 531.05 689.76 493.35C692.79 486.319 692.977 478.386 690.28 471.22L580.17 583.84Z" fill="white" stroke="#192140" stroke-width="2" stroke-linecap="round" stroke-linejoin="round"></path> <path d="M580.62 606.47L41.6701 565.31C39.1907 561.139 38.1375 556.273 38.6701 551.45C39.0569 548.43 40.0794 545.526 41.6701 542.93L580.67 584.09L580.62 606.47Z" fill="white" stroke="#192140" stroke-width="2" stroke-linecap="round" stroke-linejoin="round"></path> <path d="M245 353.14C232.265 340.638 217.781 330.054 202 321.72C182 311.17 158.55 298.85 142.46 308.54C130.4 315.81 128.03 332.1 127.39 336.45C120.91 380.95 174.89 420.04 183.26 425.9C197.376 435.775 213.032 443.243 229.59 448L201.48 464.54C191.48 464.31 141.48 462.15 108.88 423.2C74.2199 381.84 67.4999 309.2 107.22 276.02C135.36 252.52 179.09 255.23 208.89 269.32C224.844 276.995 238.63 288.53 249 302.88C247.667 319.627 246.333 336.38 245 353.14Z" fill="white" stroke="#192140" stroke-width="2" stroke-linecap="round" stroke-linejoin="round"></path> <path d="M228.16 484.28L239.59 485.44C240.61 485.508 241.62 485.21 242.44 484.6C242.867 484.279 243.263 483.917 243.62 483.52C243.939 483.175 244.236 482.811 244.51 482.43C244.786 482.078 245.043 481.71 245.28 481.33L245.42 481.14L245.94 480.22L246.57 479.1L247.2 477.99L247.83 476.88L248.46 475.76L249.09 474.65L249.72 473.54L250.35 472.43L250.9 471.34L251.34 470.21L251.51 469.07C251.521 468.833 251.47 468.598 251.361 468.387C251.252 468.176 251.09 467.998 250.89 467.87L249.75 467.53L238.33 466.44C237.667 466.405 237.006 466.539 236.41 466.83C235.846 467.094 235.329 467.449 234.88 467.88C234.52 468.214 234.186 468.575 233.88 468.96L233.13 470.07L232.7 470.7L232.43 471.17L231.8 472.29L231.16 473.4L230.53 474.51L229.89 475.62L229.26 476.74L228.62 477.85L227.99 478.96L227.74 479.39L227.38 480.07L226.88 481.2L226.58 482.33L226.75 483.5C226.899 483.74 227.107 483.937 227.353 484.074C227.6 484.211 227.878 484.282 228.16 484.28V484.28Z" fill="white" stroke="#192140" stroke-width="2" stroke-linecap="round" stroke-linejoin="round"></path> <path d="M256.78 470.57L255.99 471.67C255.722 472.027 255.471 472.397 255.24 472.78L255.19 472.85L254.6 473.85L254 475L253.37 476.12L252.74 477.23L252.11 478.34L251.48 479.45L250.85 480.57L250.26 481.57V481.64L249.69 482.76L249.29 483.88L249.16 485.03C249.172 485.284 249.25 485.53 249.387 485.744C249.524 485.958 249.715 486.133 249.94 486.25L250.79 486.5L262.55 487.62C263.175 487.648 263.798 487.531 264.37 487.28C264.973 487.042 265.531 486.704 266.02 486.28C266.424 485.957 266.796 485.595 267.13 485.2L267.9 484.1L268.46 483.31L268.64 483L269.26 481.88L269.88 480.77L270.51 479.66L271.13 478.54L271.76 477.43L272.39 476.32L273.01 475.21L273.4 474.5L273.61 474.09L274.13 472.97L274.47 471.84V470.68C274.25 469.96 273.57 469.68 272.69 469.59L261.74 468.59L260.95 468.52H260.86C259.813 468.471 258.784 468.809 257.97 469.47C257.532 469.789 257.133 470.158 256.78 470.57V470.57Z" fill="white" stroke="#192140" stroke-width="2" stroke-linecap="round" stroke-linejoin="round"></path> <path d="M279.37 473.35L278.62 474.45L278.3 474.94L277.95 475.56L277.33 476.68L276.7 477.79L276.08 478.9L275.45 480.02L274.83 481.13L274.21 482.24L273.58 483.36L273.35 483.76L272.99 484.47L272.51 485.59L272.23 486.73L272.44 487.9C272.602 488.15 272.825 488.355 273.087 488.496C273.349 488.638 273.642 488.711 273.94 488.71L286 489.79C286.933 489.828 287.856 489.577 288.64 489.07C289.134 488.769 289.591 488.41 290 488C290.358 487.664 290.692 487.303 291 486.92L291.77 485.81L292.06 485.39L292.44 484.7L293.06 483.59L293.68 482.48L294.3 481.36L294.92 480.25L295.54 479.14L296.16 478.02L296.78 476.91L297 476.52L297.36 475.79L297.83 474.67L298.11 473.53L297.88 472.36C297.684 472.107 297.429 471.906 297.139 471.772C296.848 471.638 296.53 471.575 296.21 471.59L284.15 470.59C283.289 470.545 282.435 470.761 281.7 471.21C281.203 471.499 280.749 471.856 280.35 472.27C279.996 472.604 279.669 472.966 279.37 473.35Z" fill="white" stroke="#192140" stroke-width="2" stroke-linecap="round" stroke-linejoin="round"></path> <path d="M303.29 475.06L302.55 476.17L302.04 476.93L301.85 477.28L301.23 478.39L300.61 479.5L299.99 480.62L299.37 481.73L298.76 482.85L298.14 483.96L297.52 485.07L297.1 485.82L296.92 486.19L296.39 487.31L296.06 488.44V489.6C296.179 489.959 296.41 490.27 296.72 490.486C297.03 490.703 297.402 490.813 297.78 490.8L305.34 491.42L310.18 491.82H310.47C311.495 491.793 312.486 491.443 313.3 490.82C313.73 490.499 314.129 490.137 314.49 489.74C314.802 489.397 315.089 489.033 315.35 488.65L316.12 487.54L316.25 487.35L316.76 486.43L317.37 485.32L317.99 484.2L318.6 483.09L319.22 481.98L319.83 480.86L320.45 479.75L321.06 478.64L321.18 478.42L321.62 477.52L322.06 476.39L322.29 475.25C322.309 475.037 322.284 474.823 322.217 474.62C322.15 474.417 322.042 474.23 321.9 474.07C321.459 473.679 320.889 473.465 320.3 473.47L307.91 472.47C307.22 472.445 306.534 472.586 305.91 472.88C305.337 473.127 304.807 473.465 304.34 473.88C303.956 474.242 303.605 474.637 303.29 475.06V475.06Z" fill="white" stroke="#192140" stroke-width="2" stroke-linecap="round" stroke-linejoin="round"></path> <path d="M330.78 477L330.05 478.1L329.43 479.02L329.33 479.21L328.72 480.32L328.11 481.44L327.5 482.55L326.88 483.66L326.27 484.78L325.66 485.89L325.05 487.01L324.51 488.01L324.44 488.15L323.89 489.27L323.53 490.4L323.46 491.55C323.495 491.818 323.599 492.072 323.762 492.288C323.925 492.504 324.142 492.673 324.39 492.78L325.3 493.01L338.06 494.01C338.484 494.025 338.908 493.982 339.32 493.88C340.081 493.693 340.795 493.353 341.42 492.88C341.85 492.563 342.249 492.204 342.61 491.81L343.42 490.71L344.18 489.6L344.23 489.53L344.8 488.53L345.4 487.42L346.01 486.3L346.62 485.19L347.23 484.07L347.83 482.96L348.44 481.84L349.05 480.73L349.14 480.56L349.59 479.61L350.02 478.48L350.23 477.34C350.245 477.121 350.212 476.901 350.135 476.696C350.057 476.491 349.936 476.305 349.78 476.15C349.315 475.784 348.742 475.584 348.15 475.58L335.4 474.68C334.772 474.654 334.145 474.76 333.56 474.99C332.943 475.222 332.371 475.561 331.87 475.99C331.474 476.289 331.108 476.628 330.78 477V477Z" fill="white" stroke="#192140" stroke-width="2" stroke-linecap="round" stroke-linejoin="round"></path> <path d="M355.86 478.83L355.13 479.94L354.52 480.87L354.42 481.04L353.81 482.16L353.21 483.28L352.6 484.39L352 485.5L351.4 486.62L350.79 487.73L350.18 488.85L349.62 489.85V489.93L349.07 491.05L348.7 492.18L348.63 493.33C348.654 493.578 348.735 493.817 348.867 494.029C348.999 494.24 349.178 494.419 349.39 494.55L350.54 494.88L363.63 495.8C364.064 495.817 364.499 495.769 364.92 495.66C365.684 495.473 366.401 495.133 367.03 494.66C367.463 494.345 367.861 493.987 368.22 493.59L369.04 492.49L369.8 491.39L369.88 491.27L370.42 490.27L371.02 489.16L371.62 488.04L372.22 486.93L372.82 485.81L373.42 484.7L374.02 483.59L374.62 482.47L374.77 482.2L375.16 481.35L375.6 480.23L375.82 479.08C375.858 478.658 375.736 478.237 375.48 477.9C375.243 477.667 374.961 477.485 374.652 477.365C374.342 477.245 374.012 477.188 373.68 477.2L360.61 476.34C359.926 476.312 359.244 476.432 358.61 476.69C358.006 476.932 357.446 477.27 356.95 477.69C356.549 478.032 356.184 478.414 355.86 478.83V478.83Z" fill="white" stroke="#192140" stroke-width="2" stroke-linecap="round" stroke-linejoin="round"></path> <path d="M381.47 480.67L380.75 481.78L380.23 482.57L380.06 482.88L379.46 484L378.86 485.11L378.26 486.23L377.66 487.34L377.06 488.46L376.46 489.57L375.87 490.69L375.35 491.69L375.27 491.83L374.74 492.95L374.39 494.09V495.24C374.433 495.507 374.541 495.759 374.705 495.974C374.869 496.188 375.084 496.359 375.33 496.47L376.33 496.73L389.73 497.6L390.27 497.54C391.267 497.479 392.225 497.131 393.03 496.54C393.464 496.223 393.866 495.865 394.23 495.47C394.546 495.124 394.836 494.757 395.1 494.37L395.86 493.27L396.06 492.97L396.49 492.16L397.09 491.04L397.68 489.93L398.28 488.81L398.87 487.7L399.47 486.58L400.06 485.46L400.66 484.35L400.93 483.84L401.21 483.23L401.67 482.11L401.93 480.97L401.78 479.8C401.561 479.476 401.261 479.213 400.911 479.038C400.561 478.863 400.171 478.781 399.78 478.8L386.35 478C385.542 477.974 384.741 478.153 384.02 478.52C383.464 478.771 382.951 479.108 382.5 479.52C382.119 479.868 381.774 480.253 381.47 480.67V480.67Z" fill="white" stroke="#192140" stroke-width="2" stroke-linecap="round" stroke-linejoin="round"></path> <path d="M409.81 480.39C409.352 480.695 408.929 481.051 408.55 481.45C408.22 481.793 407.916 482.161 407.64 482.55L406.92 483.65L406.57 484.18L406.27 484.76L405.67 485.88L405.08 486.99L404.48 488.11L403.89 489.23L403.3 490.34L402.71 491.46L402.11 492.57L401.71 493.33L401.54 493.69L401.04 494.81L400.74 495.94V497.1C400.891 497.501 401.167 497.843 401.527 498.075C401.888 498.307 402.313 498.418 402.74 498.39L416.48 499.22C417.496 499.247 418.497 498.976 419.36 498.44C419.86 498.146 420.32 497.79 420.73 497.38C421.091 497.046 421.425 496.685 421.73 496.3L422.48 495.19L422.89 494.59L423.16 494.08L423.74 492.97L424.33 491.85L424.92 490.73L425.51 489.62L426.09 488.5L426.68 487.39L427.27 486.27L427.73 485.39L427.84 485.15L428.35 484.03L428.68 482.9V481.74C428.608 481.418 428.439 481.126 428.196 480.902C427.953 480.679 427.647 480.535 427.32 480.49L426.45 480.35L422.01 480.11L412.73 479.59C411.698 479.548 410.678 479.828 409.81 480.39V480.39Z" fill="white" stroke="#192140" stroke-width="2" stroke-linecap="round" stroke-linejoin="round"></path> <path d="M438.38 483.59L437.66 484.7L436.94 485.8L436.89 485.88L436.35 486.88L435.76 487.99L435.18 489.11L434.59 490.23L434.01 491.34L433.42 492.46L432.84 493.57L432.25 494.69L432.06 495.06L431.71 495.81L431.27 496.94L431.06 498.08L431.37 499.26C431.59 499.547 431.876 499.777 432.203 499.932C432.53 500.087 432.889 500.161 433.25 500.15L447.35 500.92C448.035 500.93 448.714 500.805 449.35 500.55C449.989 500.312 450.587 499.975 451.12 499.55C451.55 499.232 451.949 498.874 452.31 498.48L453.05 497.37L453.8 496.27L454.38 495.15L455 494L455.58 492.89L456.16 491.77L456.74 490.66L457.32 489.54L457.9 488.42L458.48 487.31L458.65 486.97L459.01 486.19L459.42 485.06L459.63 483.92C459.658 483.502 459.545 483.087 459.31 482.74C459.05 482.457 458.73 482.236 458.374 482.092C458.018 481.948 457.634 481.886 457.25 481.91L443.18 481.2C442.57 481.175 441.96 481.26 441.38 481.45C440.711 481.668 440.087 482.007 439.54 482.45C439.111 482.785 438.722 483.167 438.38 483.59V483.59Z" fill="white" stroke="#192140" stroke-width="2" stroke-linecap="round" stroke-linejoin="round"></path> <path d="M468 483.4C467.522 483.698 467.082 484.054 466.69 484.46C466.35 484.799 466.035 485.163 465.75 485.55L465.04 486.66L464.63 487.3L464.39 487.77L463.81 488.88L463.23 490L462.65 491.12L462.07 492.23L461.5 493.35L460.92 494.46L460.34 495.58L459.82 496.58V496.7L459.3 497.82L458.97 498.96V500.11C459.037 500.481 459.217 500.822 459.486 501.087C459.754 501.352 460.098 501.528 460.47 501.59L461.18 501.69L462.62 501.76L464.82 501.87L467.01 501.98L469.21 502.09L471.4 502.2L473.6 502.31L475.6 502.41H475.81C476.748 502.4 477.668 502.148 478.48 501.68C480.081 500.746 481.363 499.352 482.16 497.68L485.29 491.58L485.87 490.46L486.44 489.34L486.95 488.34L487.01 488.21L487.5 487.08L487.84 485.95V484.79C487.802 484.524 487.696 484.273 487.533 484.059C487.37 483.846 487.156 483.677 486.91 483.57C486.439 483.369 485.933 483.263 485.42 483.26L477.32 482.88L471.03 482.59C469.963 482.558 468.909 482.84 468 483.4V483.4Z" fill="white" stroke="#192140" stroke-width="2" stroke-linecap="round" stroke-linejoin="round"></path> <path d="M515.17 484.69L514.04 484.51H513.04L510.83 484.41L508.63 484.32L499.33 483.93C498.561 483.922 497.798 484.072 497.09 484.37C496.477 484.612 495.907 484.95 495.4 485.37C494.996 485.693 494.624 486.055 494.29 486.45L493.59 487.56L492.9 488.64L488.12 498C487.19 499.78 486.99 501 487.3 501.86C487.44 502.178 487.66 502.454 487.938 502.661C488.217 502.867 488.545 502.998 488.89 503.04L489.52 503.12L491.06 503.19L493.26 503.29L495.46 503.4L497.66 503.5L499.85 503.6L502.05 503.7L504.25 503.8C505.149 503.8 506.035 503.591 506.84 503.19C508.602 502.286 510.01 500.818 510.84 499.02L515.6 489.63C516.222 488.592 516.54 487.4 516.52 486.19C516.481 485.83 516.33 485.491 516.088 485.221C515.845 484.952 515.524 484.766 515.17 484.69Z" fill="white" stroke="#192140" stroke-width="2" stroke-linecap="round" stroke-linejoin="round"></path> <path d="M545.7 486.57C545.482 486.309 545.212 486.097 544.907 485.947C544.602 485.797 544.269 485.713 543.93 485.7L543.39 485.65L541.74 485.59L539.53 485.5L537.32 485.42L535.11 485.34L532.9 485.25L530.69 485.17L528.48 485.09H528.35C527.519 485.082 526.696 485.256 525.94 485.6C524.089 486.465 522.629 487.992 521.85 489.88L517.11 499.28C516.494 500.28 516.181 501.436 516.21 502.61C516.243 502.982 516.39 503.334 516.629 503.62C516.869 503.906 517.19 504.112 517.55 504.21L518.61 504.42H519.67L521.87 504.52L524.08 504.61L526.28 504.7L528.49 504.79L530.69 504.89L532.89 504.98H533.68C534.206 504.994 534.731 504.933 535.24 504.8C536.633 504.425 537.876 503.629 538.8 502.52C539.426 501.803 539.96 501.01 540.39 500.16L542.07 496.8L545.07 490.71C546.17 488.59 546.22 487.31 545.7 486.57Z" fill="white" stroke="#192140" stroke-width="2" stroke-linecap="round" stroke-linejoin="round"></path> <path d="M225.64 490.75C224.82 490.706 224.005 490.908 223.3 491.33C221.974 492.152 220.871 493.289 220.09 494.64L219.8 495.06L216.8 499.87L214.37 503.87C213.918 504.557 213.548 505.296 213.27 506.07L213.06 506.88C212.982 507.112 212.962 507.36 213.001 507.602C213.04 507.844 213.137 508.073 213.283 508.269C213.429 508.465 213.621 508.624 213.842 508.73C214.062 508.836 214.305 508.888 214.55 508.88L237.55 511.29C239.3 511.46 241.55 510.29 243.63 506.92L249 498C250.86 494.88 250.54 493.65 249.38 493.22L248.58 493.04L225.64 490.75Z" fill="white" stroke="#192140" stroke-width="2" stroke-linecap="round" stroke-linejoin="round"></path> <path d="M248.45 512.31L260.35 513.45C262.16 513.62 264.45 512.45 266.53 509.04L271.91 500.1C274.14 496.3 273.2 495.27 271.4 495.1L259.5 494C257.72 493.83 255.61 494.84 253.5 498.37L248.12 507.26C246.06 510.67 246.68 512.14 248.45 512.31Z" fill="white" stroke="#192140" stroke-width="2" stroke-linecap="round" stroke-linejoin="round"></path> <path d="M272 514.53L284.24 515.62C286.09 515.79 288.42 514.62 290.5 511.16L295.87 502.16C298.1 498.33 297.12 497.3 295.27 497.16L283.04 496.16C281.22 496.01 279.04 497.02 276.98 500.59L271.6 509.54C269.47 512.89 270.13 514.36 272 514.53Z" fill="white" stroke="#192140" stroke-width="2" stroke-linecap="round" stroke-linejoin="round"></path> <path d="M299.09 516.9L311.69 517.9C313.6 518.06 315.97 516.83 318.05 513.39L323.41 504.31C325.64 500.45 324.61 499.42 322.7 499.31L310.11 498.31C308.24 498.17 306.05 499.2 303.95 502.79L298.58 511.79C296.51 515.27 297.21 516.74 299.09 516.9Z" fill="white" stroke="#192140" stroke-width="2" stroke-linecap="round" stroke-linejoin="round"></path> <path d="M324 518.92L336.92 519.92C338.92 520.06 341.29 518.82 343.37 515.36L348.72 506.21C350.94 502.33 349.87 501.29 347.92 501.16L335 500.23C333.07 500.08 330.84 501.14 328.76 504.75L323.4 513.85C321.28 517.29 322 518.77 324 518.92Z" fill="white" stroke="#192140" stroke-width="2" stroke-linecap="round" stroke-linejoin="round"></path> <path d="M349.46 520.83L362.71 521.78C364.71 521.92 367.17 520.66 369.24 517.17L374.58 507.96C376.79 504.05 375.69 503.01 373.68 502.88L360.45 502C358.45 501.87 356.2 502.93 354.12 506.57L348.77 515.73C346.7 519.21 347.49 520.69 349.46 520.83Z" fill="white" stroke="#192140" stroke-width="2" stroke-linecap="round" stroke-linejoin="round"></path> <path d="M375.61 522.65L389.19 523.55C391.25 523.68 393.74 522.4 395.8 518.89L401.12 509.62C403.33 505.68 402.18 504.62 400.12 504.52L386.56 503.7C384.56 503.57 382.22 504.65 380.15 508.32L374.81 517.54C372.76 521 373.58 522.52 375.61 522.65Z" fill="white" stroke="#192140" stroke-width="2" stroke-linecap="round" stroke-linejoin="round"></path> <path d="M405.72 524.58L419.67 525.42C421.78 525.54 424.31 524.25 426.37 520.71L431.67 511.37C433.87 507.37 432.67 506.37 430.56 506.25L416.64 505.48C414.55 505.36 412.21 506.48 410.14 510.15L404.82 519.45C402.77 523 403.64 524.46 405.72 524.58Z" fill="white" stroke="#192140" stroke-width="2" stroke-linecap="round" stroke-linejoin="round"></path> <path d="M433.24 526.2L434.94 526.29L437.13 526.41L439.32 526.54L441.5 526.66L443.69 526.78L445.88 526.9L447.51 526.99L448.13 526.92C449.119 526.859 450.076 526.545 450.91 526.01C452.321 525.036 453.48 523.741 454.29 522.23L459.57 512.83C460.57 510.98 460.84 509.78 460.63 509C460.525 508.663 460.321 508.366 460.044 508.147C459.768 507.927 459.432 507.796 459.08 507.77L458.36 507.69L456.9 507.62L454.71 507.51L452.52 507.39L450.32 507.28L448.13 507.18L445.93 507.06L444.1 507H443.71C442.753 507.018 441.817 507.291 441 507.79C439.518 508.755 438.32 510.098 437.53 511.68L432.24 521C431.19 522.81 430.92 524.08 431.19 524.91C431.314 525.238 431.53 525.524 431.812 525.734C432.094 525.943 432.43 526.067 432.78 526.09L433.24 526.2Z" fill="white" stroke="#192140" stroke-width="2" stroke-linecap="round" stroke-linejoin="round"></path> <path d="M476.68 508.57L474.48 508.47L472.28 508.37H472.22C471.352 508.359 470.494 508.547 469.71 508.92C467.893 509.813 466.433 511.298 465.57 513.13L460.29 522.55C459.09 524.66 458.94 526.03 459.47 526.84C459.679 527.108 459.946 527.326 460.251 527.476C460.555 527.627 460.89 527.707 461.23 527.71H461.4L463.4 527.81L465.6 527.93L467.79 528.03L469.98 528.14L472.18 528.26L474.37 528.37L475.99 528.45L476.63 528.37C477.615 528.311 478.568 528.001 479.4 527.47C480.845 526.501 482.027 525.189 482.84 523.65L488.09 514.18C489.09 512.39 489.32 511.18 489.09 510.43C489.007 510.082 488.817 509.769 488.545 509.536C488.274 509.302 487.936 509.16 487.58 509.13L486.73 509.02L485.42 508.96L483.22 508.86L481.02 508.76L478.82 508.66L476.68 508.57Z" fill="white" stroke="#192140" stroke-width="2" stroke-linecap="round" stroke-linejoin="round"></path> <path d="M530.89 510.88L529.57 510.82L527.37 510.73L525.16 510.64L522.95 510.55L520.75 510.46L518.54 510.37L516.33 510.28L514.13 510.19L511.92 510.1L509.72 510.01L507.51 509.92L505.31 509.83L503.1 509.74L500.89 509.65H500.68C499.894 509.641 499.114 509.795 498.39 510.1C496.428 510.961 494.852 512.512 493.96 514.46L488.71 523.95C487.47 526.13 487.37 527.53 487.97 528.32C488.195 528.575 488.472 528.778 488.783 528.916C489.093 529.054 489.43 529.124 489.77 529.12H489.91L491.91 529.21L494.11 529.31L496.31 529.41L498.51 529.51L500.71 529.61L502.91 529.71L505.12 529.81L507.31 529.91L509.52 530.01L511.72 530.1L513.92 530.2L516.12 530.3L518.32 530.4L520.13 530.48H520.56C521.509 530.437 522.434 530.17 523.26 529.7C524.896 528.761 526.228 527.373 527.1 525.7L532.31 516.13C533.31 514.22 533.55 513 533.31 512.21C533.179 511.887 532.962 511.606 532.681 511.4C532.4 511.193 532.067 511.068 531.72 511.04L530.89 510.88Z" fill="white" stroke="#192140" stroke-width="2" stroke-linecap="round" stroke-linejoin="round"></path> <path d="M208.13 517.77L207.27 518.82C206.97 519.2 206.67 519.51 206.36 519.97L206.29 520.05L204.93 522.05L203.45 524.18L202 526.27L200.52 528.41L200.06 529.07C199.439 529.896 198.944 530.809 198.59 531.78L198.42 532.53V533L198.48 533.34L198.61 533.56L198.75 533.76L198.94 533.89L199.13 534.01L199.33 534.09L199.78 534.2L222.65 536.79C224.4 536.99 226.78 535.79 229.18 532.34L235.44 523.23C238.05 519.37 237.24 518.3 235.49 518.12L212.6 515.67C211.319 515.63 210.073 516.093 209.13 516.96L208.64 517.37L208.13 517.77Z" fill="white" stroke="#192140" stroke-width="2" stroke-linecap="round" stroke-linejoin="round"></path> <path d="M258.19 520.37L246.33 519.21C244.56 519.04 242.33 520.05 239.89 523.68L233.63 532.8C231.23 536.25 231.71 537.8 233.48 537.95L245.33 539.18C247.13 539.37 249.55 538.18 251.96 534.67L258.23 525.51C260.84 521.62 260 520.55 258.19 520.37Z" fill="white" stroke="#192140" stroke-width="2" stroke-linecap="round" stroke-linejoin="round"></path> <path d="M282.68 522.65L270.51 521.54C268.7 521.37 266.45 522.41 264.01 526.05L257.76 535.21C255.35 538.67 255.87 540.21 257.68 540.37L269.84 541.54C271.68 541.72 274.14 540.48 276.55 537L282.8 527.79C285.41 523.88 284.52 522.81 282.68 522.65Z" fill="white" stroke="#192140" stroke-width="2" stroke-linecap="round" stroke-linejoin="round"></path> <path d="M413.49 547.37L419.74 537.8C422.34 533.8 421.24 532.68 419.14 532.56L294.4 523.68C292.53 523.52 290.24 524.56 287.8 528.23L281.54 537.46C279.14 540.95 279.69 542.46 281.54 542.64L406.29 552.17C408.42 552.31 411.09 551 413.49 547.37Z" fill="white" stroke="#192140" stroke-width="2" stroke-linecap="round" stroke-linejoin="round"></path> <path d="M445.8 534.08L445.31 534.02L443.63 533.93L441.44 533.81L439.25 533.69L437.06 533.57L434.88 533.45L432.69 533.33L431.08 533.24L430.44 533.31C429.465 533.356 428.518 533.653 427.69 534.17C426.193 535.174 424.939 536.5 424.02 538.05L417.78 547.63C415.87 550.49 415.97 552.03 417.14 552.63L418.26 552.92L419.2 552.98L421.38 553.11L423.57 553.24L425.75 553.37L427.93 553.5L430.12 553.63L432.3 553.75H432.5C433.298 553.76 434.089 553.6 434.82 553.28C436.544 552.515 438.025 551.29 439.1 549.74L439.77 548.9L446.01 539.27C447.31 537.27 447.67 535.94 447.44 535.15C447.21 534.36 446.63 534.2 445.8 534.08Z" fill="white" stroke="#192140" stroke-width="2" stroke-linecap="round" stroke-linejoin="round"></path> <path d="M463.36 535L461.17 534.89L459.17 534.79H458.98C458.066 534.796 457.165 535.015 456.35 535.43C454.536 536.389 453.034 537.846 452.02 539.63L449.24 543.92L445.78 549.27C445.075 550.228 444.583 551.326 444.34 552.49C444.243 552.898 444.31 553.328 444.527 553.687C444.744 554.047 445.094 554.306 445.5 554.41L446.37 554.57L447.63 554.64L449.82 554.76L452 554.88L454.19 555L456.38 555.12L458.57 555.24L460.76 555.36H460.93C461.739 555.367 462.539 555.203 463.28 554.88C464.99 554.132 466.46 552.928 467.53 551.4L468.28 550.4L474.51 540.72C475.76 538.72 476.12 537.47 475.93 536.72C475.74 535.97 475.16 535.72 474.34 535.56L473.72 535.49L472.16 535.41L469.97 535.3L467.77 535.19L465.58 535.08L463.36 535Z" fill="white" stroke="#192140" stroke-width="2" stroke-linecap="round" stroke-linejoin="round"></path> <path d="M518.34 537.51L517.75 537.45L516.15 537.38L513.95 537.28L511.75 537.19L509.55 537.09L507.35 536.99L505.15 536.9L502.94 536.8L500.74 536.7L498.54 536.61L496.34 536.51L494.13 536.41L491.93 536.31L489.73 536.21L487.57 536.12H487.52C486.629 536.115 485.749 536.307 484.94 536.68C482.997 537.619 481.391 539.135 480.34 541.02L479.08 543.02L474.08 550.75C473.32 551.753 472.828 552.934 472.65 554.18C472.606 554.577 472.71 554.976 472.943 555.301C473.175 555.626 473.52 555.854 473.91 555.94L474.76 556.08L476.05 556.14L478.25 556.25L480.45 556.35L482.64 556.46L484.84 556.56L487.03 556.67L489.23 556.78L491.43 556.88L493.63 556.99L495.82 557.1L498.02 557.2L500.22 557.31L502.41 557.42L504.61 557.52H504.97C505.678 557.534 506.383 557.419 507.05 557.18C508.416 556.714 509.646 555.917 510.63 554.86C511.317 554.154 511.93 553.38 512.46 552.55L518.66 542.76C519.99 540.62 520.3 539.31 519.97 538.52C519.811 538.224 519.576 537.974 519.29 537.797C519.004 537.62 518.676 537.521 518.34 537.51V537.51Z" fill="white" stroke="#192140" stroke-width="2" stroke-linecap="round" stroke-linejoin="round"></path> <path d="M674.05 470.71L265.46 455.59C261.487 455.59 257.552 454.807 253.881 453.286C250.211 451.765 246.876 449.536 244.066 446.726C241.257 443.916 239.029 440.58 237.51 436.909C235.99 433.238 235.209 429.303 235.21 425.33V176.33C235.209 172.356 235.99 168.422 237.51 164.751C239.029 161.079 241.257 157.743 244.066 154.933C246.876 152.123 250.211 149.894 253.881 148.373C257.552 146.853 261.487 146.07 265.46 146.07L696.24 114.55C700.213 114.548 704.148 115.33 707.819 116.85C711.49 118.369 714.826 120.597 717.636 123.406C720.446 126.215 722.676 129.551 724.196 133.221C725.717 136.892 726.5 140.826 726.5 144.8L704.3 440.46C704.3 448.483 701.113 456.177 695.44 461.85C689.767 467.523 682.073 470.71 674.05 470.71V470.71Z" fill="white" stroke="#192140" stroke-width="2" stroke-linecap="round" stroke-linejoin="round"></path> <path d="M682.27 444.11L261.27 432.9L267.5 173.28L697.7 138.36L682.27 444.11Z" fill="#F7FFAC" stroke="#192140" stroke-width="2" stroke-linecap="round" stroke-linejoin="round"></path> <path d="M178.23 480.47C177.165 479.595 176.283 478.519 175.634 477.303C174.986 476.087 174.583 474.755 174.449 473.383C174.316 472.012 174.454 470.627 174.855 469.309C175.257 467.99 175.914 466.764 176.79 465.7C189.827 455.276 200.805 442.511 209.16 428.06C210.4 426.788 211.997 425.923 213.74 425.58C215.115 425.379 216.517 425.485 217.847 425.889C219.176 426.294 220.4 426.987 221.43 427.92V427.92C222.495 428.796 223.377 429.873 224.026 431.09C224.675 432.306 225.077 433.639 225.211 435.012C225.345 436.384 225.207 437.769 224.805 439.089C224.403 440.408 223.746 441.635 222.87 442.7L193 479C191.235 481.152 188.689 482.516 185.919 482.792C183.15 483.068 180.384 482.232 178.23 480.47V480.47Z" fill="#E4C9FE" stroke="#192140" stroke-width="2" stroke-linecap="round" stroke-linejoin="round"></path> <path d="M290.59 406L330.23 305.96L379.05 398.77L428.47 295.71L499.89 371.71L657.79 179.3" stroke="#192140" stroke-width="21" stroke-linecap="round" stroke-linejoin="round"></path> <path d="M600.28 411.9C629.51 402.57 654.28 393.73 673.59 386.49C728.41 365.96 746.38 355.72 753.74 337.13C754.74 334.67 760.74 319.42 753.74 311.23C747.32 303.75 731.44 303.86 714.65 312.76L717.41 265.9C744.9 257.54 772.8 262.9 788.92 280.44C808.76 301.98 804.44 334.94 796.25 354.24C778.11 396.99 723.78 413.92 648.66 437.32C632.47 442.32 618.98 445.88 610.06 448.07L600.28 411.9Z" fill="white" stroke="#192140" stroke-width="2" stroke-linecap="round" stroke-linejoin="round"></path> <path d="M554.86 433.89C548.165 442.074 540.367 449.289 531.69 455.33C518.39 464.55 511.55 464.99 496.99 475.2C484.73 483.8 471.74 492.91 473.42 501.04C475.25 509.91 494.28 516.38 509.26 511.42C518.69 508.29 524.26 501.42 526.64 497.91C526.42 498.69 524.09 507.27 529.19 513.21C534.29 519.15 545.25 520.28 553.74 513.85C553.62 515.34 553.31 521.09 557.25 525.33C561.03 529.41 567.12 530.33 571.59 529.33C582.07 526.95 581.09 514.39 596.38 498.33C604.38 489.95 607.45 490.33 610.8 483.9C615.8 474.35 614.12 463.52 611.8 455.53C609 432.69 601 423.38 593.91 419.17C579.69 410.66 565.03 420.32 545.77 408.65C536.05 402.75 533.51 396.48 528.87 397.81C521.29 399.97 514.5 420.66 524.73 431.6C531.48 438.83 544.19 440.23 554.86 433.89Z" fill="#E4C9FE" stroke="#192140" stroke-width="2" stroke-linecap="round" stroke-linejoin="round"></path> <path d="M526.64 497.91C533.925 482.374 545.176 469.032 559.26 459.23Z" fill="#E4C9FE"></path> <path d="M526.64 497.91C533.925 482.374 545.176 469.032 559.26 459.23" stroke="#192140" stroke-width="2" stroke-linecap="round" stroke-linejoin="round"></path> <path d="M579.34 476.24C571.935 482.275 565.669 489.587 560.84 497.83C557.888 502.884 555.506 508.25 553.74 513.83" fill="#E4C9FE"></path> <path d="M579.34 476.24C571.935 482.275 565.669 489.587 560.84 497.83C557.888 502.884 555.506 508.25 553.74 513.83" stroke="#192140" stroke-width="2" stroke-linecap="round" stroke-linejoin="round"></path> <path d="M577.73 501.51C581.11 496.15 586.64 493.51 591.24 494.75C593.286 495.364 595.085 496.61 596.38 498.31" fill="#E4C9FE"></path> <path d="M577.73 501.51C581.11 496.15 586.64 493.51 591.24 494.75C593.286 495.364 595.085 496.61 596.38 498.31" stroke="#192140" stroke-width="2" stroke-linecap="round" stroke-linejoin="round"></path> <path d="M612.48 453.34C607.92 455.42 602.86 454.12 601.18 450.43C594.977 440.701 591.331 429.564 590.58 418.05C589.898 416.151 589.995 414.058 590.85 412.23C591.945 410.17 593.708 408.544 595.85 407.62V407.62C600.41 405.55 605.47 406.85 607.14 410.53C606.951 422.207 610.687 433.61 617.75 442.91C617.92 447.44 616 451.74 612.48 453.34Z" fill="#E4C9FE" stroke="#192140" stroke-width="2" stroke-linecap="round" stroke-linejoin="round"></path> <path d="M220.68 511C223.104 511.248 225.545 510.753 227.68 509.58C235.54 504.95 232.31 491.85 234.68 476.97C239.01 449.28 259.34 436.06 253.54 428.34C251.24 425.27 246.48 425.29 243.84 425.34C221.18 425.45 206.45 460.58 205.66 462.53C204.654 461.5 203.385 460.767 201.99 460.41C200.719 460.147 199.406 460.165 198.143 460.464C196.88 460.763 195.698 461.335 194.68 462.14C191.365 454.872 185.949 448.763 179.13 444.6C176.19 442.83 166.29 437.42 154.25 439.49C150.25 440.17 146.39 440.84 143.43 444.03C137.14 450.83 140.96 462.77 142.04 466.14C144.281 472.891 148.454 478.837 154.04 483.24C153.31 485.19 152.58 487.15 151.84 489.1C149.74 488.34 136.09 483.57 129.84 489.69C122.31 497.01 129.67 515.69 139.79 525.38C141 526.54 151.92 536.79 157.79 533C161.25 530.78 162.03 524.35 160.27 517.32L164.67 515.01C167.6 517.61 173.22 521.74 180.89 522.34C182.148 522.435 183.412 522.435 184.67 522.34C187.235 525.58 190.56 528.135 194.35 529.78C195.71 530.36 208.84 535.72 216.65 527.89C222.81 521.68 220.89 512 220.68 511Z" fill="#E4C9FE" stroke="#192140" stroke-width="2" stroke-linecap="round" stroke-linejoin="round"></path> <path d="M205.4 468.58C204.832 465.318 205.446 461.96 207.13 459.11Z" fill="#E4C9FE"></path> <path d="M205.4 468.58C204.832 465.318 205.446 461.96 207.13 459.11" stroke="#192140" stroke-width="2" stroke-linecap="round" stroke-linejoin="round"></path> <path d="M151.81 489.09C152.374 496.538 155.161 503.644 159.81 509.49C161.18 511.17 172.81 525.12 185.54 521.76C186.17 521.59 196.19 518.76 197.38 510.26C198.1 505.11 195.38 499.72 190.38 496.41" fill="#E4C9FE"></path> <path d="M151.81 489.09C152.374 496.538 155.161 503.644 159.81 509.49C161.18 511.17 172.81 525.12 185.54 521.76C186.17 521.59 196.19 518.76 197.38 510.26C198.1 505.11 195.38 499.72 190.38 496.41" stroke="#192140" stroke-width="2" stroke-linecap="round" stroke-linejoin="round"></path> <path d="M164.93 456.37C173.93 470.28 181.64 477.13 187.3 480.81C189.3 482.14 194.81 485.47 194.72 489.81C194.66 492.81 192.02 494.92 191.45 495.36C190.12 496.36 186.6 498.49 177.56 496.27C166.23 493.48 157.29 486.62 151.44 480.98" fill="#E4C9FE"></path> <path d="M164.93 456.37C173.93 470.28 181.64 477.13 187.3 480.81C189.3 482.14 194.81 485.47 194.72 489.81C194.66 492.81 192.02 494.92 191.45 495.36C190.12 496.36 186.6 498.49 177.56 496.27C166.23 493.48 157.29 486.62 151.44 480.98" stroke="#192140" stroke-width="2" stroke-linecap="round" stroke-linejoin="round"></path> <path d="M152 506.22C154.799 508.032 157.093 510.522 158.67 513.46C159.372 514.795 159.916 516.208 160.29 517.67" fill="#E4C9FE"></path> <path d="M152 506.22C154.799 508.032 157.093 510.522 158.67 513.46C159.372 514.795 159.916 516.208 160.29 517.67" stroke="#192140" stroke-width="2" stroke-linecap="round" stroke-linejoin="round"></path> <path d="M208.35 503.27C209.698 506.437 212.232 508.95 215.41 510.27C217.09 510.906 218.889 511.165 220.68 511.03" fill="#E4C9FE"></path> <path d="M208.35 503.27C209.698 506.437 212.232 508.95 215.41 510.27C217.09 510.906 218.889 511.165 220.68 511.03" stroke="#192140" stroke-width="2" stroke-linecap="round" stroke-linejoin="round"></path> </g> <defs> <clipPath id="clip0_686_5375"> <rect width="1053" height="737" fill="white"></rect> </clipPath> </defs> </svg> 