<?xml version="1.0" encoding="UTF-8"?> <svg xmlns="http://www.w3.org/2000/svg" width="185" height="30" viewBox="0 0 185 30" fill="none"> <path d="M4.89135 3.45V6.9H3.66851H2.44567V9.3V11.7H1.22284H0V15.15V18.6H1.22284H2.44567V21V23.4H3.51566H4.58564V21.3C4.58564 20.13 4.58564 19.11 4.58564 18.96C4.58564 18.84 4.12708 18.72 3.51566 18.66L2.44567 18.57V15.12V11.7H3.51566H4.55507L4.64678 9.36L4.73849 7.05L7.12303 6.96L9.47699 6.87V5.85C9.47699 4.83 9.50756 4.8 10.6998 4.8H11.9227V10.68V16.53L12.9315 16.41L13.9098 16.32L14.0015 10.56L14.0626 4.8H15.2855C16.4777 4.8 16.5083 4.83 16.5083 5.85V6.9H18.954H21.3997V9.3V11.7H22.4696H23.5396V15.15V18.6H22.4696H21.3997V21V23.4H18.954H16.5083V24.6V25.8H12.9926H9.47699V24.6V23.4H7.18417H4.89135V26.7V30H13.1455H21.3997V26.7V23.4H22.4696H23.5396V21V18.6H24.7625C25.9547 18.6 25.9853 18.57 25.9853 17.58C25.9853 16.59 26.0464 16.53 27.147 16.44C28.217 16.35 28.2781 16.29 28.3698 15.21L28.4615 14.1H27.2387H25.9853V12.9V11.7H24.7625H23.5396V9.3V6.9H22.4696H21.3997V3.45V6.70552e-07H13.1455H4.89135V3.45Z" fill="#FAFAFA"></path> <path d="M33.8477 15.0006V21.5391H34.9926H36.1375V19.0128V16.4866H39.8584H43.5793V19.0128V21.5391H44.8673H46.1553V15.0006V8.46214H44.8673H43.5793V11.137V13.8415L39.9443 13.7523L36.2806 13.6632L36.1947 11.0478L36.1088 8.46214H34.9926H33.8477V15.0006Z" fill="#FAFAFA"></path> <path d="M49.2305 15.0006V21.5391H50.599H51.9675V19.0128V16.4866H55.7689H59.5704V19.0128V21.5391H60.9389H62.3074V15.0006V8.46214H55.7689H49.2305V15.0006ZM59.5704 12.4744V13.8118H55.7689H51.9675V12.4744V11.137H55.7689H59.5704V12.4744Z" fill="#FAFAFA"></path> <path d="M63.8477 15.0006V21.5391H70.7707H77.6938V20.2016V18.8642H72.2197H66.7457V15.0006V11.137H72.2197H77.6938V9.79955V8.46214H70.7707H63.8477V15.0006Z" fill="#FAFAFA"></path> <path d="M80 15.0006V21.5391H81.1722H82.3443V19.0128V16.4866H84.8352H87.326V17.6754V18.8642H88.6447H89.9634V20.2016V21.5391H91.1355H92.3077V20.2016V18.8642H91.1355H89.9634V17.5565V16.2191L88.7326 16.13C87.5018 16.0408 87.4725 16.0111 87.3846 14.9114L87.2967 13.8118H88.6154H89.9634V12.4744V11.137H91.1355H92.3077V9.79955V8.46214H91.1355H89.9634V9.79955V11.137H88.6447H87.326V12.4744V13.8415L84.9231 13.7523L82.4908 13.6632L82.4029 11.0478L82.315 8.46214H81.1722H80V15.0006Z" fill="#FAFAFA"></path> <path d="M95.3828 15.0006V21.5391H101.921H108.46V20.2016V18.8642H103.29H98.1198V17.6754V16.5163L100.644 16.4272L103.138 16.338L103.229 15.06L103.32 13.8118H100.735H98.1198V12.4744V11.137H103.29H108.46V9.79955V8.46214H101.921H95.3828V15.0006Z" fill="#FAFAFA"></path> <path d="M110.77 15.0006V21.5391H112.138H113.507V19.0128V16.4866H116.092H118.677V17.6754V18.8642H119.893H121.109V20.2016V21.5391H122.478H123.846V20.2314V18.894L122.569 18.8048C121.292 18.7156 121.261 18.6859 121.17 17.5863L121.079 16.4866H122.448H123.846V12.4744V8.46214H117.308H110.77V15.0006ZM121.109 12.4744V13.8118H117.308H113.507V12.4744V11.137H117.308H121.109V12.4744Z" fill="#FAFAFA"></path> <path d="M126.152 15.0006V21.5391H127.398H128.643V16.338V11.1072L132.629 11.1964L136.583 11.2856L136.676 16.3975L136.738 21.5391H137.984H139.229V15.0006V8.46214H132.691H126.152V15.0006Z" fill="#FAFAFA"></path> <path d="M141.539 15.0006V21.5391H148.078H154.616V15.0006V8.46214H148.078H141.539V15.0006ZM151.879 15.0006V18.894L148.017 18.8048L144.124 18.7156L144.033 15.3275C144.002 13.4551 144.033 11.7314 144.094 11.5233C144.215 11.2261 145.219 11.137 148.078 11.137H151.879V15.0006Z" fill="#FAFAFA"></path> <path d="M157.691 15.0006V21.5391H163.845H169.999V15.0006V8.46214H163.845H157.691V15.0006ZM167.423 15.0006V18.8642H163.845H160.267V15.0006V11.137H163.845H167.423V15.0006Z" fill="#FAFAFA"></path> <path d="M172.309 15.0006V21.5391H173.597H174.885V16.338V11.1072L178.548 11.1964L182.183 11.2856L182.269 16.3975L182.326 21.5391H183.471H184.616V15.0006V8.46214H178.462H172.309V15.0006Z" fill="#FAFAFA"></path> </svg> 