<?xml version="1.0" encoding="UTF-8"?> <svg xmlns="http://www.w3.org/2000/svg" width="721" height="581" viewBox="0 0 721 581" fill="none"> <ellipse cx="382.426" cy="457.627" rx="112.105" ry="25.4864" fill="#192140"></ellipse> <path d="M543.561 376.709C539.15 379.287 535.368 382.81 532.488 387.023C531.486 388.498 521.885 403.112 528.567 414.212C529.107 415.116 533.196 421.693 537.913 421.162C544.969 420.368 544.746 404.604 554.571 401.78C557.657 400.891 562.096 401.185 563.925 403.85C565.755 406.516 564.84 410.888 561.491 414.609C557.896 410.983 552.685 409.745 548.414 411.498C542.766 413.823 541.254 420.353 541.581 424.494C541.845 427.559 543.076 430.461 545.097 432.785C543.582 434.804 542.767 437.26 542.774 439.782C543.116 449.017 557.092 454.063 558.46 454.563C574.076 460.022 589.484 449.009 591.87 447.24C592.006 452.873 593.183 463.449 600.668 472.454C602.434 474.58 610.954 484.838 618.471 482.601C621.899 481.578 623.713 478.388 624.039 477.841C628.621 469.471 619.314 459.934 613.698 441.845C608.257 424.391 614.04 425.391 609.156 413.339C601.997 395.575 587.678 391.719 587.575 376.614C587.575 372.551 588.577 370.592 587.074 367.434C582.484 357.747 564.403 358.31 562.167 358.405C553.966 358.747 544.397 361.627 543.816 365.76C543.593 367.347 544.786 368.83 544.468 372.623C544.15 373.956 543.856 375.336 543.561 376.709Z" fill="#DCF10D" stroke="#192140" stroke-width="2" stroke-linecap="round" stroke-linejoin="round"></path> <path d="M599.36 423.195C599.57 429.032 598.441 434.839 596.059 440.174C594.931 442.672 593.534 445.039 591.891 447.235" fill="#DCF10D"></path> <path d="M599.36 423.195C599.57 429.032 598.441 434.839 596.059 440.174C594.931 442.672 593.534 445.039 591.891 447.235" stroke="#192140" stroke-width="2" stroke-linecap="round" stroke-linejoin="round"></path> <path d="M545.094 432.778C549.867 439.847 557.511 444.211 565.148 443.624C576.149 442.767 586.013 431.723 585.615 417.633" fill="#DCF10D"></path> <path d="M545.094 432.778C549.867 439.847 557.511 444.211 565.148 443.624C576.149 442.767 586.013 431.723 585.615 417.633" stroke="#192140" stroke-width="2" stroke-linecap="round" stroke-linejoin="round"></path> <path d="M563.393 423.662C563.891 420.512 563.215 417.289 561.492 414.602L563.393 423.662Z" fill="#41FBED"></path> <path d="M563.393 423.662C563.891 420.512 563.215 417.289 561.492 414.602" stroke="#192140" stroke-width="2" stroke-linecap="round" stroke-linejoin="round"></path> <path d="M254.438 248.904C259.55 237.543 264.667 226.171 269.79 214.789L314.655 284.051C325.542 269.923 340.132 259.072 356.815 252.697C369.423 247.936 385.667 241.875 391.497 247.936C405.084 262.146 365.995 346.649 324.972 343.824C298.411 342 278.405 304.092 268.613 285.519C262.486 273.901 257.73 261.614 254.438 248.904Z" fill="#BC02FD" stroke="#192140" stroke-width="2" stroke-linecap="round" stroke-linejoin="round"></path> <path d="M140.802 502.015C131.741 499.206 111.067 494.256 91.2676 503.11C85.5561 505.664 70.1558 512.551 69.1853 523.738C69.0888 524.901 69.1449 526.072 69.3524 527.221C68.5569 528.077 64.0864 533.195 64.8739 540.335C65.5978 546.952 70.5535 552.664 77.4423 554.798C84.8482 563.526 91.9995 565.906 95.8018 566.699C108.378 569.397 119.539 564.319 131.598 558.416C145.169 551.768 143.085 549.641 154.667 544.135C175.254 534.297 185.984 538.645 191.704 529.799C195.904 523.293 194.09 512.702 189.166 509.171C184.242 505.641 177.393 510.147 175.882 507.767C173.432 503.935 192.587 493.597 194.528 478.888C196.628 462.862 174.227 445.756 167.553 449.144C161.396 452.262 171.602 470.954 161.229 487.179C156.075 495.263 147.858 499.563 140.802 502.015Z" fill="#BC02FD" stroke="#192140" stroke-width="2" stroke-linecap="round" stroke-linejoin="round"></path> <path d="M77.7284 555.164C76.933 551.245 79.8523 547.23 81.4831 545.263C86.0809 539.757 92.7867 538.606 95.3084 538.305" stroke="#192140" stroke-width="2" stroke-linecap="round" stroke-linejoin="round"></path> <path d="M68.6562 528.312C70.7049 525.502 73.3855 523.211 76.4828 521.623C79.5802 520.034 83.0079 519.192 86.4907 519.164" stroke="#192140" stroke-width="2" stroke-linecap="round" stroke-linejoin="round"></path> <path d="M603.203 254.822L602.742 254.537C572.029 235.638 505.321 239.462 473.08 242.414C460.663 236.694 439.527 229.506 414.907 233.639C371.459 240.93 335.36 280.448 323.762 333.399C316.362 346.56 312.036 361.218 311.105 376.279C310.174 391.34 312.662 406.416 318.385 420.385L341.827 444.757C350.684 451.516 360.693 456.623 371.371 459.832C371.371 459.832 391.664 468.559 412.736 462.505C474.655 444.734 496.507 311.954 499.243 294.309C525.268 297.229 551.618 294.246 576.324 285.582C573.27 299.862 569.717 314.672 565.665 330.011C562.112 343.371 558.4 356.19 554.528 368.466C554.528 368.466 557.758 379.946 566.007 381.763C566.325 381.834 566.572 381.866 566.85 381.914C572.154 382.38 577.48 381.326 582.203 378.875C594.429 372.711 628.491 305.741 619.065 277.576C613.656 261.511 603.203 254.822 603.203 254.822Z" fill="#BC02FD" stroke="#192140" stroke-width="2" stroke-linecap="round" stroke-linejoin="round"></path> <path d="M580.585 274.18C579.284 276.175 578.241 278.326 577.482 280.582C576.931 282.211 576.531 283.887 576.289 285.588" fill="#BC02FD"></path> <path d="M580.585 274.18C579.284 276.175 578.241 278.326 577.482 280.582C576.931 282.211 576.531 283.887 576.289 285.588" stroke="#192140" stroke-width="2" stroke-linecap="round" stroke-linejoin="round"></path> <path d="M280.878 377.578C301.361 381.188 384.727 397 404.972 431.036C407.899 435.971 414.875 447.697 410.301 456.234C408.71 459.185 404.375 464.279 387.288 465.754C367.942 467.42 348.811 463.009 316.563 448.125C298.655 439.844 281.28 430.462 264.539 420.032L280.878 377.578Z" fill="#41FBED" stroke="#192140" stroke-width="2" stroke-linecap="round" stroke-linejoin="round"></path> <path d="M286.781 406.21L365.716 441.548C370.743 436.613 378.229 435.566 383.837 438.787C390.749 442.754 391.052 451.06 391.068 451.481L409.594 457.272C412.085 452.965 413.384 448.075 413.357 443.103C413.203 437.979 411.67 432.992 408.918 428.663C398.577 411.209 367.975 397.38 367.975 397.38C346.4 387.603 325.333 376.747 304.854 364.852C301.23 372.697 297.134 380.317 292.588 387.669C290.663 390.795 288.754 403.426 286.781 406.21Z" fill="#41FBED" stroke="#192140" stroke-width="2" stroke-linecap="round" stroke-linejoin="round"></path> <path d="M304.853 364.87C303.405 364.235 301.353 363.355 298.879 362.371C281.045 355.326 233.865 336.396 208.49 355.437C207.066 356.508 203.844 360.475 197.353 368.353C189.031 378.386 181.248 388.852 174.038 399.707C159.003 423.247 152.433 453.713 149.919 467.597C149.601 470.255 148.4 482.854 156.354 490.66C166.162 500.292 187.02 499.792 202.881 484.869L241.446 414.694C247.974 416.383 254.408 418.417 260.72 420.787C267.635 423.388 274.39 426.395 280.949 429.792C283.335 428.126 298.378 417.455 296.723 404.944C296.569 403.788 296.281 402.654 295.864 401.564L291.457 398.747C290.931 398.412 290.546 397.896 290.375 397.297C290.203 396.697 290.257 396.057 290.527 395.494C293.685 388.925 301.687 371.471 304.853 364.87Z" fill="#41FBED" stroke="#192140" stroke-width="2" stroke-linecap="round" stroke-linejoin="round"></path> <path d="M209.14 423.903L221.764 425.489C221.231 403.576 227.054 394.365 233.06 390.168C238.723 386.201 243.989 387.121 250.21 381.108C255.206 376.276 260.551 367.239 258.165 360.02C254.665 349.468 235.398 344.707 221.199 348.492C203.293 353.252 192.88 371.762 183.637 388.161C180.935 392.972 178.523 397.939 176.414 403.037C179.716 400.179 183.855 398.463 188.215 398.146C192.575 397.829 196.921 398.927 200.603 401.277C204.285 403.627 207.107 407.101 208.645 411.182C210.184 415.263 210.357 419.731 209.14 423.918V423.903Z" fill="#41FBED" stroke="#192140" stroke-width="2" stroke-linecap="round" stroke-linejoin="round"></path> <path d="M150.693 463.51C149.651 469.571 148.306 476.069 146.532 482.916C144.758 489.763 142.81 496.173 140.789 502.012C150.852 500.248 161.214 501.6 170.484 505.884C175.75 508.388 180.516 511.826 184.548 516.031L207.163 477.251C196.98 468.689 184.384 463.489 171.112 462.367C170.834 467.524 168.002 472.023 163.691 473.958C163.086 474.236 156.46 477.132 152.419 473.094C150.144 470.793 149.492 467.064 150.693 463.51Z" fill="#41FBED" stroke="#192140" stroke-width="2" stroke-linecap="round" stroke-linejoin="round"></path> <path d="M249.973 402.375C246.267 405.823 243.359 410.036 241.453 414.72L249.973 402.375Z" fill="#41FBED"></path> <path d="M249.973 402.375C246.267 405.823 243.359 410.036 241.453 414.72" stroke="#192140" stroke-width="2" stroke-linecap="round" stroke-linejoin="round"></path> <path d="M438.161 412.499L423.382 419.973C423.11 420.11 422.879 420.316 422.713 420.57C422.546 420.824 422.449 421.117 422.432 421.42C422.415 421.723 422.479 422.026 422.616 422.297C422.753 422.567 422.96 422.798 423.215 422.964L437.096 431.992C437.351 432.159 437.645 432.255 437.95 432.272C438.254 432.289 438.557 432.225 438.829 432.087C439.101 431.95 439.332 431.743 439.498 431.488C439.664 431.233 439.76 430.939 439.776 430.636L440.691 414.141C440.71 413.836 440.647 413.531 440.51 413.257C440.372 412.984 440.164 412.752 439.906 412.585C439.649 412.418 439.352 412.322 439.046 412.307C438.739 412.292 438.434 412.358 438.161 412.499Z" fill="#DCF10D" stroke="#192140" stroke-width="2" stroke-linecap="round" stroke-linejoin="round"></path> <path d="M437.136 416.477L433.469 421.784" stroke="#192140" stroke-width="2" stroke-linecap="round" stroke-linejoin="round"></path> <path d="M431.898 424.872C432.136 424.872 432.328 424.681 432.328 424.444C432.328 424.207 432.136 424.016 431.898 424.016C431.661 424.016 431.469 424.207 431.469 424.444C431.469 424.681 431.661 424.872 431.898 424.872Z" stroke="#192140" stroke-width="2" stroke-linecap="round" stroke-linejoin="round"></path> <path d="M335.377 348.969C325.219 334.562 295.882 292.925 259.727 293.964C242.656 294.456 230.295 304.278 215.181 317.425C189.193 340.052 153.301 374.183 113.225 422.325C110.839 412.392 105.159 396.604 91.2145 383.378C88.9394 381.228 59.8808 354.364 34.8553 364.67C31.8007 365.932 24.0289 369.129 20.8868 376.325C9.51154 402.412 65.0673 467.945 106.503 461.391C110.985 460.681 115.356 459.399 119.509 457.575C125.873 455.06 133.748 451.323 142.817 447.007C162.274 437.741 185.828 426.189 215.077 403.848C228.867 393.309 241.875 381.791 254 369.383C265.057 372.657 276.546 375.78 288.468 378.753C312.73 384.791 335.926 389.313 357.769 392.724C352.388 377.169 344.851 362.441 335.377 348.969Z" fill="#BC02FD" stroke="#192140" stroke-width="2" stroke-linecap="round" stroke-linejoin="round"></path> <path d="M231 373.728C237.861 369.496 246.051 367.947 253.989 369.38L231 373.728Z" fill="#BC02FD"></path> <path d="M231 373.728C237.861 369.496 246.051 367.947 253.989 369.38" stroke="#192140" stroke-width="2" stroke-linecap="round" stroke-linejoin="round"></path> <path d="M469.091 266.852L473.817 269.812C477.595 272.192 482.153 271.74 483.999 268.82L493.894 253.087C495.74 250.168 494.165 245.875 490.386 243.503L485.661 240.544C481.883 238.164 477.325 238.616 475.479 241.536L465.583 257.237C463.762 260.228 465.353 264.48 469.091 266.852ZM474.143 262.687C472.695 261.775 472.09 260.125 472.798 259.006L480.117 247.399C480.825 246.28 482.575 246.106 484.022 247.018L485.08 247.684C486.528 248.589 487.133 250.239 486.425 251.358L479.106 262.965C478.398 264.084 476.648 264.258 475.201 263.346L474.143 262.687Z" fill="#41FBED" stroke="#192140" stroke-width="2" stroke-linecap="round" stroke-linejoin="round"></path> <path d="M447.58 290.237L451.558 294.149C454.739 297.282 459.274 297.838 461.708 295.386L474.785 282.2C477.22 279.749 476.615 275.226 473.441 272.093L469.464 268.181C466.282 265.047 461.74 264.492 459.306 266.943L446.26 280.122C443.81 282.581 444.406 287.103 447.58 290.237ZM453.419 287.262C452.194 286.064 451.963 284.326 452.902 283.382L462.575 273.64C463.506 272.696 465.248 272.91 466.465 274.108L467.356 274.988C468.573 276.186 468.803 277.924 467.873 278.868L458.192 288.619C457.261 289.555 455.511 289.341 454.294 288.143L453.419 287.262Z" fill="#41FBED" stroke="#192140" stroke-width="2" stroke-linecap="round" stroke-linejoin="round"></path> <path d="M424.421 310.114L427.81 314.534C430.522 318.072 434.969 319.246 437.697 317.152L452.469 305.886C455.214 303.791 455.246 299.221 452.533 295.683L449.144 291.264C446.432 287.725 441.985 286.551 439.257 288.653L424.485 299.896C421.74 302.006 421.708 306.576 424.421 310.114ZM430.61 307.964C429.568 306.608 429.576 304.862 430.61 304.053L441.532 295.723C442.59 294.929 444.284 295.373 445.326 296.73L446.121 297.722C447.156 299.079 447.148 300.832 446.121 301.633L435.192 309.964C434.142 310.757 432.439 310.321 431.397 308.956L430.61 307.964Z" fill="#41FBED" stroke="#192140" stroke-width="2" stroke-linecap="round" stroke-linejoin="round"></path> <path d="M395.686 318.94L396.871 324.375C397.818 328.73 401.334 331.666 404.714 330.928L422.875 326.961C426.256 326.223 428.229 322.098 427.274 317.75L426.089 312.315C425.142 307.96 421.626 305.024 418.253 305.762L400.085 309.729C396.704 310.451 394.731 314.576 395.686 318.94ZM402.201 319.614C401.835 317.948 402.591 316.362 403.887 316.084L417.323 313.164C418.619 312.887 419.964 314.005 420.33 315.679L420.6 316.901C420.966 318.567 420.21 320.146 418.914 320.432L405.47 323.351C404.173 323.629 402.829 322.502 402.463 320.836L402.201 319.614Z" fill="#41FBED" stroke="#192140" stroke-width="2" stroke-linecap="round" stroke-linejoin="round"></path> <path d="M371.636 260.485L383.417 246.157C385.613 243.491 384.594 239.017 381.142 236.208L376.831 232.677C373.378 229.853 368.804 229.718 366.609 232.384L354.82 246.744C352.624 249.41 353.651 253.885 357.103 256.693L361.406 260.216C364.859 263.024 369.441 263.151 371.636 260.485ZM362.806 253.345C361.486 252.258 361.096 250.552 361.939 249.529L370.69 238.929C371.533 237.906 373.283 237.953 374.611 239.04L375.574 239.834C376.902 240.913 377.292 242.626 376.449 243.642L367.699 254.242C366.855 255.265 365.097 255.217 363.777 254.13L362.806 253.345Z" fill="#41FBED" stroke="#192140" stroke-width="2" stroke-linecap="round" stroke-linejoin="round"></path> <path d="M361.728 285.17L366.93 267.367C367.901 264.059 365.212 260.361 360.916 259.116L355.571 257.529C351.275 256.283 347.019 257.958 346.025 261.274L340.823 279.077C339.852 282.386 342.549 286.083 346.836 287.328L352.19 288.915C356.501 290.161 360.757 288.487 361.728 285.17ZM350.782 281.997C349.143 281.521 348.109 280.101 348.483 278.823L352.325 265.661C352.699 264.384 354.338 263.749 355.976 264.225L357.178 264.574C358.824 265.05 359.858 266.471 359.484 267.748L355.634 280.918C355.268 282.187 353.63 282.83 351.983 282.346L350.782 281.997Z" fill="#41FBED" stroke="#192140" stroke-width="2" stroke-linecap="round" stroke-linejoin="round"></path> <path d="M368.305 303.936L357.264 289.02C355.203 286.243 350.629 286.14 347.034 288.782L342.547 292.091C338.952 294.733 337.711 299.136 339.763 301.905L350.804 316.828C352.857 319.597 357.431 319.7 361.026 317.058L365.513 313.75C369.1 311.108 370.333 306.713 368.305 303.936ZM359.173 310.711C357.789 311.727 356.039 311.687 355.251 310.624L347.082 299.596C346.286 298.525 346.771 296.843 348.147 295.827L349.15 295.09C350.534 294.074 352.284 294.114 353.071 295.177L361.209 306.245C362.005 307.316 361.519 308.998 360.143 310.013L359.173 310.711Z" fill="#41FBED" stroke="#192140" stroke-width="2" stroke-linecap="round" stroke-linejoin="round"></path> <path d="M392.741 311.286L375.328 304.78C372.091 303.574 368.169 305.978 366.626 310.143L364.669 315.356C363.078 319.529 364.462 323.893 367.7 325.099L385.113 331.604C388.35 332.81 392.272 330.414 393.815 326.241L395.772 321.029C397.339 316.863 395.979 312.5 392.741 311.286ZM388.764 321.933C388.159 323.52 386.664 324.456 385.423 323.996L372.544 319.18C371.303 318.72 370.786 317.046 371.383 315.443L371.82 314.277C372.425 312.69 373.92 311.754 375.161 312.222L388.04 317.03C389.281 317.498 389.798 319.164 389.202 320.767L388.764 321.933Z" fill="#41FBED" stroke="#192140" stroke-width="2" stroke-linecap="round" stroke-linejoin="round"></path> <path d="M387.192 102.851C385.315 43.3949 391.702 28.876 398.265 27.3607C404 26.0437 410.993 34.2075 413.96 38.825C422.471 51.9475 420.133 87.5068 417.889 88.1177C401.145 92.6241 389.865 102.779 387.192 102.851Z" fill="#BC02FD" stroke="#192140" stroke-width="2" stroke-linecap="round" stroke-linejoin="round"></path> <path d="M395.594 28.8079C399.396 25.0155 404.344 24.2221 407.303 24.96C420.166 28.2366 431.326 49.1819 435.662 82.964L417.891 88.1209C420.536 76.1661 420.515 63.7773 417.827 51.8317C415.831 43.168 411.161 32.0925 402.506 27.9272C399.11 26.3167 397.113 27.8082 395.594 28.8079Z" fill="#BC02FD" stroke="#192140" stroke-width="2" stroke-linecap="round" stroke-linejoin="round"></path> <path d="M438.155 260.314C490.242 260.314 532.466 218.2 532.466 166.251C532.466 114.301 490.242 72.1875 438.155 72.1875C386.068 72.1875 343.844 114.301 343.844 166.251C343.844 218.2 386.068 260.314 438.155 260.314Z" fill="#BC02FD" stroke="#192140" stroke-width="2" stroke-linecap="round" stroke-linejoin="round"></path> <path d="M532.354 148.825C539.514 188.724 516.747 218.959 512.873 223.934C507.93 230.264 502.187 235.931 495.787 240.793C468.065 236.478 441.53 226.521 417.83 211.541C404.758 203.229 392.693 193.437 381.875 182.361C392.762 155.107 409.526 130.575 430.979 110.504C444.105 98.1712 458.915 87.7539 474.969 79.5625C478.573 81.1493 523.779 100.841 532.354 148.825Z" fill="#41FBED" stroke="#192140" stroke-width="2" stroke-linecap="round" stroke-linejoin="round"></path> <path d="M517.058 217.508L458.917 191.327C456.208 189.787 453.829 187.729 451.917 185.272C450.004 182.815 448.596 180.006 447.773 177.006C446.949 174.006 446.726 170.874 447.116 167.788C447.507 164.702 448.503 161.722 450.048 159.02L463.936 134.727C466.562 128.301 472.146 123.945 478.255 123.62C481.735 123.493 485.158 124.526 487.984 126.555L514.56 139.313C518.172 140.384 521.536 142.158 524.456 144.533C524.456 144.533 528.791 143.621 530.255 145.2C535.823 151.237 537.112 163.923 530.565 189.137C529.515 193.326 525.013 207.908 517.058 217.508Z" fill="#41FBED" stroke="#192140" stroke-width="2" stroke-linecap="round" stroke-linejoin="round"></path> <path d="M495.789 240.791C483.218 238.75 470.85 235.623 458.823 231.445C441.028 225.035 429.955 219.544 420.219 212.769C427.211 200.249 433.837 186.738 441.864 175.25L519.589 214.126C516.111 220.501 511.674 226.307 506.432 231.342C502.319 235.126 499.145 238.34 495.789 240.791Z" fill="#41FBED" stroke="#192140" stroke-width="2" stroke-linecap="round" stroke-linejoin="round"></path> <path d="M518.722 146.657C515.492 141.976 512.233 137.316 508.945 132.678C529.365 113.311 546.881 103.815 557.62 99.0465C562.568 96.8488 565.265 95.2621 566.012 95.9523C566.76 96.6426 543.882 127.069 518.722 146.657Z" fill="#BC02FD" stroke="#192140" stroke-width="2" stroke-linecap="round" stroke-linejoin="round"></path> <path d="M508.944 132.678C528.036 120.73 546.777 108.083 565.852 96.1824C545.966 95.9603 527.272 109.329 507.33 120.619C505.208 121.814 503.143 123.028 501.133 124.26L508.944 132.678Z" fill="#BC02FD" stroke="#192140" stroke-width="2" stroke-linecap="round" stroke-linejoin="round"></path> <path d="M483.409 117.906C489.224 113.82 505.603 125.546 514.083 137.963C521.393 148.673 521.353 157.718 521.154 160.971C520.9 165.088 520.16 170.491 518.02 171.848C518.02 171.848 502.071 169.539 488.516 149.094C479.4 135.352 483.409 117.906 483.409 117.906Z" fill="#BC02FD" stroke="#192140" stroke-width="2" stroke-linecap="round" stroke-linejoin="round"></path> <path d="M518.723 146.653C531.612 136.31 543.479 124.762 554.161 112.164C558.56 106.976 562.506 101.263 566.133 96.2969C566.595 102.319 566.276 111.617 561.36 119.916C560.517 121.336 559.769 122.296 558.974 123.399C554.925 129.095 548.569 137.029 529.979 158.403C524.96 164.186 520.783 168.867 518.047 171.89C521.889 164.71 522.342 156.467 518.723 146.653Z" fill="#BC02FD" stroke="#192140" stroke-width="2" stroke-linecap="round" stroke-linejoin="round"></path> <path d="M483.41 117.907C492.301 110.339 502.386 104.291 513.256 100.008C522.317 96.4541 537.916 90.5434 557.007 93.7804C559.984 94.2834 562.923 94.9859 565.805 95.8829C538.529 104.951 510.369 114.789 485.327 142.24C482.169 134.941 481.907 126 483.41 117.907Z" fill="#41FBED" stroke="#192140" stroke-width="2" stroke-linecap="round" stroke-linejoin="round"></path> <path d="M505.923 103.217L511.38 100.766C511.292 104.931 512.021 109.074 513.528 112.96C514.103 114.446 514.797 115.884 515.604 117.26L509.9 120.973C506.613 115.668 505.212 109.413 505.923 103.217Z" fill="#BC02FD" stroke="#192140" stroke-width="2" stroke-linecap="round" stroke-linejoin="round"></path> <path d="M392.449 183.4L380.143 176.926C379.464 176.568 378.721 176.347 377.956 176.275C377.192 176.204 376.421 176.283 375.687 176.509C374.205 176.965 372.965 177.99 372.24 179.358C371.515 180.725 371.365 182.324 371.822 183.802C372.28 185.28 373.307 186.517 374.678 187.24L376.675 188.295C376.444 188.527 376.253 188.795 376.11 189.088C375.179 190.969 376.428 193.492 378.918 194.721C381.408 195.951 384.176 195.427 385.115 193.547C385.208 193.343 385.282 193.13 385.338 192.912L386.984 193.785C387.658 194.145 388.397 194.369 389.158 194.445C389.92 194.52 390.688 194.445 391.42 194.224C392.152 194.003 392.833 193.64 393.425 193.156C394.016 192.673 394.507 192.078 394.867 191.405C395.249 190.724 395.489 189.973 395.574 189.198C395.658 188.422 395.586 187.638 395.36 186.891C395.134 186.144 394.76 185.45 394.26 184.85C393.76 184.251 393.144 183.757 392.449 183.4Z" fill="#F96BFF" stroke="#192140" stroke-width="2" stroke-linecap="round" stroke-linejoin="round"></path> <path d="M472.658 134.127C473.677 134.127 474.504 133.303 474.504 132.286C474.504 131.269 473.677 130.445 472.658 130.445C471.639 130.445 470.812 131.269 470.812 132.286C470.812 133.303 471.639 134.127 472.658 134.127Z" fill="#192140" stroke="#192140" stroke-width="2" stroke-linecap="round" stroke-linejoin="round"></path> <path d="M464.002 149.455C465.021 149.455 465.847 148.631 465.847 147.614C465.847 146.598 465.021 145.773 464.002 145.773C462.983 145.773 462.156 146.598 462.156 147.614C462.156 148.631 462.983 149.455 464.002 149.455Z" fill="#192140" stroke="#192140" stroke-width="2" stroke-linecap="round" stroke-linejoin="round"></path> <path d="M467.838 141.611C468.857 141.611 469.683 140.787 469.683 139.77C469.683 138.754 468.857 137.93 467.838 137.93C466.818 137.93 465.992 138.754 465.992 139.77C465.992 140.787 466.818 141.611 467.838 141.611Z" fill="#192140" stroke="#192140" stroke-width="2" stroke-linecap="round" stroke-linejoin="round"></path> <path d="M347.428 117.502C348.732 116.113 359.893 104.562 370.839 107.703C372.359 108.152 373.802 108.829 375.118 109.711C383.073 114.876 384.743 125.039 385.539 129.918C387.925 144.453 382.071 156.655 379.231 161.748C378.236 161.748 355.923 162.137 348.74 148.65C345.288 142.16 345.622 133.004 345.773 129.053C345.917 125.155 346.472 121.284 347.428 117.502Z" fill="#41FBED" stroke="#192140" stroke-width="2" stroke-linecap="round" stroke-linejoin="round"></path> <path d="M362.379 107.816C353.987 110.855 352.396 122.184 352.038 124.929C351.466 128.976 350.193 137.822 356.445 143.344C362.698 148.866 370.955 146.819 371.559 146.652C380.309 144.383 383.38 135.87 383.817 134.601C387.317 124.493 381.654 112.172 372.76 108.419C371.79 107.999 367.208 106.063 362.379 107.816Z" fill="#192140" stroke="#192140" stroke-width="2" stroke-linecap="round" stroke-linejoin="round"></path> <path d="M360.668 122.241C363.198 122.241 365.25 120.195 365.25 117.671C365.25 115.148 363.198 113.102 360.668 113.102C358.137 113.102 356.086 115.148 356.086 117.671C356.086 120.195 358.137 122.241 360.668 122.241Z" fill="#BC02FD" stroke="#192140" stroke-width="2" stroke-linecap="round" stroke-linejoin="round"></path> <path d="M325.476 291.965C322.335 291.292 319.442 289.765 317.116 287.554C315.468 285.966 314.156 284.064 313.258 281.961" stroke="#192140" stroke-width="2" stroke-linecap="round" stroke-linejoin="round"></path> <path d="M555.704 359.94C559.867 364.608 564.93 368.391 570.591 371.064C576.252 373.737 582.394 375.245 588.652 375.498C589.854 376.01 590.94 376.758 591.844 377.698C592.748 378.639 593.453 379.752 593.915 380.97C594.378 382.189 594.589 383.488 594.535 384.79C594.482 386.092 594.165 387.37 593.604 388.546C593.043 389.723 592.249 390.775 591.271 391.638C590.292 392.501 589.149 393.158 587.909 393.57C586.67 393.981 585.359 394.139 584.057 394.033C582.755 393.927 581.488 393.559 580.332 392.953C568.205 390.611 556.866 385.261 547.36 377.395C546.158 376.883 545.072 376.135 544.168 375.195C543.264 374.254 542.559 373.141 542.097 371.923C541.634 370.704 541.423 369.405 541.477 368.103C541.53 366.801 541.847 365.523 542.408 364.347C542.969 363.17 543.763 362.118 544.741 361.255C545.72 360.392 546.863 359.735 548.103 359.323C549.342 358.912 550.653 358.754 551.955 358.86C553.257 358.966 554.524 359.334 555.68 359.94H555.704Z" fill="#41FBED" stroke="#192140" stroke-width="2" stroke-linecap="round" stroke-linejoin="round"></path> <path d="M282.389 232.656C286.849 225.739 290.116 218.125 292.054 210.132C293.892 202.508 295.793 194.629 293.264 185.632C290.241 174.866 280.536 161.426 268.811 161.244C261.095 161.125 255.582 167.091 244.867 179.032C229.292 196.407 221.17 205.118 222.14 216.82C223.413 232.196 234.725 245.675 250.642 250.642L282.389 232.656Z" fill="#DCF10D" stroke="#192140" stroke-width="2" stroke-linecap="round" stroke-linejoin="round"></path> <path d="M198.714 195.444C195.857 196.691 192.765 197.316 189.646 197.277C190.171 195.738 190.959 193.5 192.032 190.842C194.514 184.614 196.304 181.481 196.097 181.362C195.891 181.243 192.502 185.971 189.837 192.001C188.859 194.214 188.166 196.111 187.705 197.475C185.391 197.393 183.088 197.128 180.816 196.682C179.12 196.354 177.445 195.93 175.797 195.412C179.986 186.125 184.173 176.834 188.357 167.541L221.505 93.9788L230.104 93.5107C229.937 95.9939 229.984 97.2554 230.263 97.311C230.541 97.3665 231.106 96.0177 231.917 93.2727L241.678 90.2578L198.714 195.444Z" fill="white" stroke="#192140" stroke-width="2" stroke-linecap="round" stroke-linejoin="round"></path> <path d="M175.797 195.406C189.467 206.615 200.689 220.499 208.769 236.202C212.923 235.331 217.226 235.486 221.306 236.654C220.097 234.155 219.572 232.854 219.715 232.767C219.858 232.679 220.908 234.044 222.754 236.9C225.906 236.486 229.111 236.933 232.029 238.193C220.892 223.912 209.777 209.661 198.683 195.438C197.23 196.133 195.692 196.634 194.109 196.93C192.536 197.225 190.932 197.319 189.336 197.207C193.997 202.38 194.904 203.784 194.761 203.959C194.618 204.133 191.969 202.261 189.94 200.159C189.129 199.316 188.374 198.42 187.681 197.477L175.797 195.406Z" fill="white" stroke="#192140" stroke-width="2" stroke-linecap="round" stroke-linejoin="round"></path> <path d="M268.266 122.976C266.445 119.644 265.49 120.406 253.28 105.26C248.189 98.9132 244.211 93.669 241.698 90.2812L198.742 195.468C206.061 204.708 213.334 213.985 220.562 223.299C224.417 228.266 228.26 233.24 232.088 238.223C233.226 234.867 234.157 231.979 234.873 229.726C238.42 218.46 239.526 213.231 239.478 207.21C239.971 168.937 279.642 143.771 268.266 122.976Z" fill="#D7F8FF" stroke="#192140" stroke-width="2" stroke-linecap="round" stroke-linejoin="round"></path> <path d="M267.007 94.3281C252.853 102.245 240.539 113.061 230.876 126.063C208.205 156.72 208.038 189.764 208.5 201.062C219.461 213.444 230.425 225.826 241.392 238.208C240.59 227.538 241.446 216.809 243.93 206.401C246.953 193.707 251.463 185.432 257 175.285C266.227 158.338 273.919 144.668 286.957 142.574C288.534 142.321 290.135 142.241 291.73 142.336C287.256 124.667 278.797 108.25 266.999 94.3361L267.007 94.3281Z" fill="white" stroke="#192140" stroke-width="2" stroke-linecap="round" stroke-linejoin="round"></path> <path d="M238.864 220.481C238.381 219.889 237.73 219.455 236.995 219.238C236.261 219.021 235.478 219.03 234.749 219.264C234.02 219.498 233.379 219.946 232.909 220.55C232.44 221.154 232.164 221.885 232.119 222.647C226.815 216.522 221.512 210.395 216.209 204.265C216.965 202.91 217.439 201.417 217.603 199.875C217.767 198.333 217.618 196.774 217.164 195.292C216.261 192.628 214.398 190.395 211.938 189.024C212.282 180.501 213.704 172.057 216.169 163.89C217.814 158.54 219.878 153.327 222.342 148.3C226.694 139.081 233.916 124.149 248.792 110.916C252.181 107.9 255.786 105.134 259.578 102.641C260.136 103.523 260.87 104.28 261.736 104.866C262.601 105.452 263.578 105.853 264.606 106.044C267.788 106.56 270.5 104.83 270.97 103.989C271.765 103.616 279.131 118.659 285.463 132.004C282.663 131.845 280.269 133.527 279.704 135.772C279.557 136.544 279.582 137.339 279.779 138.101C279.976 138.862 280.338 139.57 280.841 140.175C272.663 147.006 265.389 154.846 259.197 163.509C254.646 169.856 247.153 180.59 242.587 196.513C240.357 204.318 239.107 212.369 238.864 220.481Z" fill="#D7F8FF" stroke="#192140" stroke-width="2" stroke-linecap="round" stroke-linejoin="round"></path> <path d="M233.299 193.467C235.07 191.403 234.391 187.923 231.781 185.695C229.171 183.466 225.62 183.333 223.848 185.396C222.077 187.46 222.756 190.939 225.366 193.168C227.976 195.396 231.527 195.53 233.299 193.467Z" fill="white" stroke="#192140" stroke-width="2" stroke-linecap="round" stroke-linejoin="round"></path> <path d="M262.976 140.646C265.361 139.334 265.949 135.838 264.29 132.837C262.631 129.837 259.352 128.468 256.967 129.781C254.582 131.093 253.994 134.589 255.653 137.589C257.312 140.589 260.591 141.958 262.976 140.646Z" fill="white" stroke="#192140" stroke-width="2" stroke-linecap="round" stroke-linejoin="round"></path> <path d="M253.104 172.823C259.321 165.58 258.082 154.347 250.337 147.733C242.591 141.119 231.272 141.628 225.055 148.87C218.837 156.113 220.076 167.346 227.822 173.961C235.567 180.575 246.886 180.066 253.104 172.823Z" fill="white" stroke="#192140" stroke-width="2" stroke-linecap="round" stroke-linejoin="round"></path> <path d="M251.487 185.704L216.168 153.072L194.992 152.858L203.512 133.936L224.631 132.016C230.59 137.236 236.818 143.083 243.15 149.597C249.609 156.23 255.368 162.727 260.483 168.932C258.079 172.258 255.963 175.783 254.159 179.468C253.109 181.681 252.226 183.736 251.487 185.704Z" fill="#192140" stroke="#192140" stroke-width="2" stroke-linecap="round" stroke-linejoin="round"></path> <path d="M224.636 132.016L216.172 153.072L224.636 132.016Z" fill="white"></path> <path d="M224.636 132.016L216.172 153.072" stroke="#192140" stroke-width="2" stroke-linecap="round" stroke-linejoin="round"></path> <path d="M286.261 243.449C280.667 244.026 275.246 245.725 270.326 248.442C265.405 251.159 261.085 254.839 257.624 259.261C256.622 259.845 255.513 260.224 254.362 260.374C253.211 260.524 252.042 260.443 250.922 260.135C249.803 259.828 248.757 259.3 247.846 258.583C246.934 257.867 246.176 256.975 245.615 255.962C245.054 254.948 244.702 253.833 244.58 252.682C244.457 251.53 244.567 250.366 244.903 249.258C245.238 248.15 245.793 247.12 246.534 246.228C247.274 245.337 248.187 244.603 249.216 244.068C257.276 236.478 267.125 231.039 277.853 228.256C278.855 227.672 279.965 227.294 281.116 227.144C282.266 226.993 283.436 227.075 284.555 227.382C285.674 227.689 286.72 228.217 287.632 228.934C288.543 229.651 289.302 230.542 289.863 231.556C290.424 232.569 290.776 233.684 290.898 234.836C291.02 235.987 290.91 237.151 290.575 238.259C290.239 239.368 289.685 240.398 288.944 241.289C288.203 242.18 287.291 242.915 286.261 243.449Z" fill="#41FBED" stroke="#192140" stroke-width="2" stroke-linecap="round" stroke-linejoin="round"></path> <path d="M284.697 182.123C280.972 175.297 276.034 169.202 270.124 164.137C265.757 160.4 259.998 157.631 248.472 152.077C245.25 150.491 242.537 149.324 240 150.403C236.333 151.99 234.821 157.472 235.124 161.59C235.649 168.778 241.782 172.856 248.798 179.132C256.723 186.251 263.78 194.277 269.822 203.044" fill="#DCF10D"></path> <path d="M284.697 182.123C280.972 175.297 276.034 169.202 270.124 164.137C265.757 160.4 259.998 157.631 248.472 152.077C245.25 150.491 242.537 149.324 240 150.403C236.333 151.99 234.821 157.472 235.124 161.59C235.649 168.778 241.782 172.856 248.798 179.132C256.723 186.251 263.78 194.277 269.822 203.044" stroke="#192140" stroke-width="2" stroke-linecap="round" stroke-linejoin="round"></path> <path d="M24.291 402.078C21.8489 395.898 16.7022 382.91 21.5625 378.443C27.1785 373.334 43.1675 382.077 51.6711 386.734C62.1913 392.561 71.8325 399.842 80.3081 408.362C98.1028 425.816 118.037 452.656 112.708 458.892C112.091 459.42 111.378 459.825 110.608 460.082C105.485 462.055 99.9019 462.518 94.5232 461.415C87.9844 460.162 42.1573 446.984 24.291 402.078Z" fill="#192140" stroke="#192140" stroke-width="2" stroke-linecap="round" stroke-linejoin="round"></path> <path d="M58.0221 364.586C53.3961 365.899 49.426 368.883 46.8855 372.956C42.3434 380.43 44.9366 388.157 45.2946 389.205" stroke="#192140" stroke-width="2" stroke-linecap="round" stroke-linejoin="round"></path> <path d="M352.578 89.5294C369.602 86.9192 401.659 136.212 387.293 159.347C382.727 166.717 373.308 171.692 364.757 170.891C348.331 169.351 338.133 146.772 336.741 130.19C335.349 113.609 341.887 91.1638 352.578 89.5294Z" fill="#192140" stroke="#192140" stroke-width="2" stroke-linecap="round" stroke-linejoin="round"></path> <path d="M353.982 98.7188C349.461 103.226 346.277 108.891 344.782 115.089C343.287 121.287 343.539 127.777 345.51 133.842" stroke="white" stroke-width="4" stroke-linecap="round" stroke-linejoin="round"></path> <path d="M488.486 181.639C486.155 198.665 429.668 215.334 411.468 195.015C405.685 188.557 403.577 178.14 406.775 170.19C412.916 154.91 437.512 151.538 453.851 154.949C470.301 158.345 489.941 170.96 488.486 181.639Z" fill="#192140" stroke="#192140" stroke-width="2" stroke-linecap="round" stroke-linejoin="round"></path> <path d="M420.984 164.609C417.944 166.768 415.618 169.782 414.302 173.265C411.224 181.651 415.718 189.133 416.346 190.124" stroke="white" stroke-width="4" stroke-linecap="round" stroke-linejoin="round"></path> <path d="M382.406 155.602C391.489 158.653 399.802 163.631 406.772 170.192" stroke="#192140" stroke-width="4" stroke-linecap="round" stroke-linejoin="round"></path> <path d="M73.1797 331.179C88.6764 336.014 105.024 337.52 121.147 335.598C159.059 330.997 183.265 308.433 191.148 300.341C192.644 283.886 194.144 267.434 195.651 250.984C188.416 258.888 180.004 265.633 170.713 270.985C159.393 277.491 150.253 279.903 139.053 282.886C120.367 287.821 105.118 291.613 94.6415 283.616C93.3715 282.644 92.2136 281.535 91.1892 280.308C81.382 295.677 75.2224 313.076 73.1797 331.179Z" fill="white" stroke="#192140" stroke-width="2" stroke-linecap="round" stroke-linejoin="round"></path> <path d="M181.887 270.945C181.6 271.475 181.483 272.079 181.553 272.677C181.623 273.274 181.875 273.836 182.277 274.285C182.866 274.814 183.641 275.09 184.433 275.053C185.225 275.015 185.971 274.669 186.508 274.087C185.713 281.513 184.981 286.384 184.217 293.811C182.828 294.167 181.524 294.801 180.387 295.673C179.249 296.546 178.301 297.64 177.599 298.888C176.382 301.179 176.061 303.84 176.7 306.354C162.732 316.874 134.946 334.17 100.804 331.163C96.6296 330.795 92.4858 330.138 88.4028 329.195C88.6471 328.258 88.6941 327.281 88.5407 326.325C88.3874 325.369 88.0371 324.456 87.5119 323.642C85.8653 321.261 82.9618 320.468 82.0868 320.674H82.0391C82.0391 320.674 84.8709 312.098 89.2938 298.777C92.7223 300.546 96.453 299.57 97.8928 297.254C99.1656 295.175 98.2031 292.652 98.0519 292.271C101.395 293.072 104.797 293.603 108.226 293.858C118.321 294.652 125.814 292.795 136.823 289.994C145.243 287.952 153.472 285.194 161.419 281.751C168.513 278.686 175.357 275.073 181.887 270.945Z" fill="#D7F8FF" stroke="#192140" stroke-width="2" stroke-linecap="round" stroke-linejoin="round"></path> <path d="M169.433 296.24C170.155 292.89 168.871 289.774 166.564 289.279C164.258 288.785 161.802 291.1 161.081 294.45C160.359 297.8 161.643 300.916 163.95 301.411C166.256 301.905 168.711 299.59 169.433 296.24Z" fill="white" stroke="#192140" stroke-width="2" stroke-linecap="round" stroke-linejoin="round"></path> <path d="M108.591 309.979C109.759 306.758 108.908 303.499 106.691 302.699C104.473 301.899 101.728 303.861 100.56 307.082C99.3922 310.303 100.243 313.563 102.461 314.363C104.678 315.163 107.423 313.2 108.591 309.979Z" fill="white" stroke="#192140" stroke-width="1.9992" stroke-linecap="round" stroke-linejoin="round"></path> <path d="M145.177 312.599C147.686 304.792 144.822 296.898 138.781 294.967C132.74 293.036 125.809 297.799 123.3 305.606C120.791 313.413 123.655 321.308 129.696 323.239C135.738 325.17 142.669 320.406 145.177 312.599Z" fill="white" stroke="#192140" stroke-width="2" stroke-linecap="round" stroke-linejoin="round"></path> <path d="M682.085 218.56C668.509 222.8 654.186 224.125 640.06 222.447C606.809 218.401 585.586 198.646 578.641 191.505C577.326 177.076 576 162.65 574.664 148.227C581.008 155.18 588.393 161.113 596.555 165.816C606.483 171.52 614.493 173.639 624.317 176.233C640.704 180.565 654.076 183.905 663.256 176.876C664.371 176.022 665.387 175.048 666.287 173.972C674.889 187.452 680.292 202.713 682.085 218.591V218.56Z" fill="white" stroke="#192140" stroke-width="2" stroke-linecap="round" stroke-linejoin="round"></path> <path d="M586.799 165.742C587.053 166.206 587.157 166.737 587.097 167.263C587.037 167.788 586.816 168.282 586.465 168.678C585.945 169.138 585.265 169.377 584.57 169.343C583.876 169.309 583.222 169.004 582.75 168.495C583.418 175.009 584.086 179.277 584.755 185.791C585.973 186.105 587.115 186.661 588.113 187.425C589.111 188.19 589.944 189.148 590.562 190.242C591.629 192.25 591.912 194.582 591.357 196.787C603.599 206.014 627.949 221.184 657.898 218.55C661.559 218.227 665.193 217.649 668.772 216.82C668.563 216.001 668.526 215.148 668.663 214.313C668.8 213.479 669.108 212.682 669.568 211.972C671.008 209.846 673.545 209.188 674.341 209.37C674.341 209.37 671.867 201.857 667.977 190.178C664.97 191.765 661.693 190.892 660.444 188.845C659.322 187.021 660.165 184.807 660.301 184.474C657.372 185.186 654.389 185.658 651.383 185.886C642.522 186.576 635.951 184.958 626.302 182.506C618.921 180.712 611.707 178.294 604.737 175.279C598.518 172.569 592.521 169.38 586.799 165.742Z" fill="#D7F8FF" stroke="#192140" stroke-width="2" stroke-linecap="round" stroke-linejoin="round"></path> <path d="M603.909 192.945C605.937 192.512 607.068 189.773 606.435 186.827C605.802 183.881 603.645 181.844 601.617 182.278C599.589 182.711 598.458 185.45 599.091 188.396C599.724 191.342 601.881 193.379 603.909 192.945Z" fill="white" stroke="#192140" stroke-width="2.00449" stroke-linecap="round" stroke-linejoin="round"></path> <path d="M656.139 205.493C658.084 204.791 658.83 201.932 657.805 199.106C656.781 196.281 654.373 194.559 652.428 195.261C650.483 195.962 649.737 198.822 650.762 201.647C651.786 204.473 654.194 206.194 656.139 205.493Z" fill="white" stroke="#192140" stroke-width="1.9992" stroke-linecap="round" stroke-linejoin="round"></path> <path d="M632.566 211.575C637.862 209.882 640.372 202.958 638.172 196.111C635.972 189.264 629.895 185.085 624.598 186.778C619.302 188.471 616.791 195.395 618.992 202.242C621.192 209.089 627.269 213.268 632.566 211.575Z" fill="white" stroke="#192140" stroke-width="2" stroke-linecap="round" stroke-linejoin="round"></path> <path d="M181.577 116.63C175.161 125.41 166.959 132.739 157.506 138.139C135.233 150.793 113.103 148.286 105.586 147.088L83.3125 122.263C90.3864 123.639 97.6306 123.92 104.79 123.096C113.54 122.089 119.403 119.74 126.634 116.868C138.693 112.068 148.446 108.038 150.872 99.5329C151.167 98.4978 151.349 97.4337 151.413 96.3594C162.882 100.742 173.198 107.675 181.577 116.63Z" fill="white" stroke="#192140" stroke-width="2" stroke-linecap="round" stroke-linejoin="round"></path> <path d="M98.7881 127.515C99.157 127.684 99.4639 127.964 99.6663 128.315C99.8687 128.666 99.9565 129.071 99.9177 129.475C99.8121 130.001 99.5014 130.463 99.0539 130.761C98.6064 131.058 98.0587 131.166 97.5312 131.061C100.928 134.759 103.29 137.083 106.687 140.788C107.53 140.429 108.436 140.241 109.352 140.237C110.269 140.232 111.177 140.41 112.023 140.76C112.87 141.111 113.638 141.626 114.281 142.277C114.925 142.928 115.432 143.7 115.771 144.549C127.528 144.644 149.46 142.883 166.682 127.634C168.784 125.766 170.756 123.757 172.584 121.62C172.083 121.21 171.67 120.702 171.372 120.128C171.074 119.554 170.896 118.925 170.85 118.28C170.809 117.558 170.945 116.838 171.247 116.181C171.55 115.524 172.008 114.951 172.584 114.511C172.584 114.511 167.62 111.013 159.856 105.602C158.719 107.918 156.317 108.894 154.614 108.212C154.096 107.951 153.641 107.581 153.279 107.128C152.918 106.674 152.66 106.148 152.522 105.586C151.045 107.357 149.427 109.007 147.686 110.521C142.555 114.972 137.774 116.971 130.71 119.851C125.352 122.113 119.808 123.913 114.141 125.23C109.09 126.386 103.957 127.15 98.7881 127.515Z" fill="#D7F8FF" stroke="#192140" stroke-width="2" stroke-linecap="round" stroke-linejoin="round"></path> <path d="M120.686 136.759C121.733 135.571 121.176 133.376 119.443 131.859C117.71 130.341 115.457 130.074 114.411 131.262C113.364 132.451 113.921 134.645 115.654 136.163C117.387 137.681 119.64 137.948 120.686 136.759Z" fill="white" stroke="#192140" stroke-width="2" stroke-linecap="round" stroke-linejoin="round"></path> <path d="M159.224 119.583C160.098 118.263 159.246 116.166 157.322 114.898C155.397 113.63 153.128 113.673 152.254 114.993C151.38 116.313 152.232 118.41 154.157 119.678C156.081 120.946 158.35 120.903 159.224 119.583Z" fill="white" stroke="#192140" stroke-width="2" stroke-linecap="round" stroke-linejoin="round"></path> <path d="M147.919 134.864C150.403 131.41 148.779 126.008 144.291 122.798C139.804 119.587 134.153 119.785 131.669 123.239C129.185 126.692 130.81 132.095 135.297 135.305C139.784 138.515 145.436 138.317 147.919 134.864Z" fill="white" stroke="#192140" stroke-width="2" stroke-linecap="round" stroke-linejoin="round"></path> <path d="M184.286 521.307C183.792 519.2 184.045 516.988 185.002 515.047L184.286 521.307Z" fill="#BC02FD"></path> <path d="M184.286 521.307C183.792 519.2 184.045 516.988 185.002 515.047" stroke="#192140" stroke-width="2" stroke-linecap="round" stroke-linejoin="round"></path> </svg> 