<?xml version="1.0" encoding="UTF-8"?> <svg xmlns="http://www.w3.org/2000/svg" width="84" height="29" viewBox="0 0 84 29" fill="none"> <path d="M35.3633 11.4874C34.6838 10.8239 33.8771 10.2976 32.9892 9.93851C32.1013 9.57941 31.1496 9.39456 30.1885 9.39453H19.515V28.4459H26.8328V16.539H29.1785C29.8253 16.539 30.4484 16.7889 30.9051 17.2357L33.433 19.7014C33.66 19.9225 33.8403 20.185 33.9634 20.474C34.0866 20.763 34.1502 21.0729 34.1506 21.3859V28.4449H41.4683V20.3991C41.4671 18.5044 40.6952 16.6878 39.3224 15.3484L35.3633 11.4874ZM73.1797 9.39453V16.4545C73.1797 17.0858 72.9198 17.6912 72.4611 18.138L69.9322 20.6038C69.4749 21.0503 68.8545 21.3013 68.2076 21.3014H64.6925C65.4539 20.1507 65.8599 18.8103 65.8619 17.4404V9.39453H58.5441V16.4545C58.5441 17.0858 58.2833 17.6912 57.8255 18.138L55.2957 20.6038C54.8386 21.0501 54.2186 21.301 53.5721 21.3014H51.2254V9.39549H43.9076V28.4449H54.583C56.5246 28.4449 58.3867 27.6921 59.7598 26.352L62.204 23.967V28.4449H69.2196C71.1608 28.4447 73.0225 27.6919 74.3953 26.352L78.3525 22.492C79.7256 21.1525 80.4975 19.3354 80.4984 17.4404V9.39453H73.1806H73.1797ZM0 16.539H4.87851V28.4449H12.1963V16.539H17.0748V9.39453H0V16.539Z" fill="#FF4422"></path> </svg> 