<?xml version="1.0" encoding="UTF-8"?> <svg xmlns="http://www.w3.org/2000/svg" width="1053" height="737" viewBox="0 0 1053 737" fill="none"> <g clip-path="url(#clip0_686_5405)"> <path d="M723 359.15H317.1C309.939 359.15 303.072 361.995 298.008 367.058C292.945 372.121 290.1 378.989 290.1 386.15V560.15C290.1 567.311 292.945 574.178 298.008 579.242C303.072 584.305 309.939 587.15 317.1 587.15H639.24C645.241 595.671 652.234 603.449 660.07 610.32C670.44 619.41 690.55 634.09 696.25 629.32C699.25 626.78 696.51 620.13 693.86 607.54C692.446 600.803 691.411 593.993 690.76 587.14H723C730.161 587.14 737.028 584.295 742.092 579.232C747.155 574.168 750 567.301 750 560.14V386.14C749.997 378.981 747.152 372.116 742.088 367.055C737.025 361.993 730.159 359.15 723 359.15V359.15Z" fill="#E4C9FE" stroke="#192140" stroke-width="2" stroke-linecap="round" stroke-linejoin="round"></path> <path d="M518.14 146.57H98.73C91.5691 146.57 84.7016 149.415 79.6381 154.478C74.5746 159.542 71.73 166.409 71.73 173.57V301.2C71.73 308.361 74.5746 315.228 79.6381 320.292C84.7016 325.355 91.5691 328.2 98.73 328.2H104.93C104.319 336.075 103.197 343.901 101.57 351.63C98.93 364.22 96.14 370.86 99.19 373.41C104.89 378.17 124.99 363.49 135.37 354.41C144.131 346.725 151.838 337.915 158.29 328.21H518.14C525.301 328.21 532.168 325.365 537.232 320.302C542.295 315.238 545.14 308.371 545.14 301.21V173.59C545.143 170.043 544.446 166.53 543.09 163.251C541.735 159.973 539.746 156.995 537.239 154.485C534.731 151.976 531.754 149.985 528.477 148.627C525.2 147.269 521.687 146.57 518.14 146.57Z" fill="#D7F8FF" stroke="#192140" stroke-width="2" stroke-linecap="round" stroke-linejoin="round"></path> <path d="M262.44 310.8C280.672 309.765 298.768 307.026 316.49 302.62C343.82 295.82 347.01 290.8 360.9 288.3C402.08 280.91 446.05 312.14 468.71 342.35C493.71 375.75 497.35 414.03 490.62 422.7C488.946 424.945 486.588 426.584 483.9 427.37C477.16 428.84 470.9 422.32 469.58 420.94C469.78 422.17 470.7 428.47 466.95 432.34C462.38 437.06 452.09 436.92 444.17 429.42C443.77 435.11 441.12 437.55 440.37 438.18C435.37 442.41 425.16 441.18 416.99 433.18C414.266 435.657 410.944 437.38 407.35 438.18C395.69 440.61 381.89 431.99 372.97 416.56C330.83 395.21 308.17 390.89 295.16 391.14C284.913 391.561 274.672 390.184 264.9 387.07C258.293 384.921 251.972 381.972 246.08 378.29C251.533 355.79 256.987 333.293 262.44 310.8Z" fill="#F7FFAC" stroke="#192140" stroke-width="2" stroke-linecap="round" stroke-linejoin="round"></path> <path d="M699.74 380.92C694.26 371.98 662.01 321.16 602.88 313.18C586.815 311.086 570.493 312.236 554.88 316.56L556.32 379.84C571.935 376.997 588.046 378.985 602.501 385.539C616.957 392.093 629.069 402.901 637.22 416.52" fill="#E4C9FE"></path> <path d="M699.74 380.92C694.26 371.98 662.01 321.16 602.88 313.18C586.815 311.086 570.493 312.236 554.88 316.56L556.32 379.84C571.935 376.997 588.046 378.985 602.501 385.539C616.957 392.093 629.069 402.901 637.22 416.52" stroke="#192140" stroke-width="2" stroke-linecap="round" stroke-linejoin="round"></path> <path d="M172.24 291C171.82 296.7 170.02 328.69 193.9 354.76C211.62 374.12 233.33 379.12 240.9 380.5L256.41 311.85C247.62 308.64 240.063 302.745 234.81 295C224.54 279.57 228.01 263.12 228.7 260.12" fill="#D7F8FF"></path> <path d="M172.24 291C171.82 296.7 170.02 328.69 193.9 354.76C211.62 374.12 233.33 379.12 240.9 380.5L256.41 311.85C247.62 308.64 240.063 302.745 234.81 295C224.54 279.57 228.01 263.12 228.7 260.12" stroke="#192140" stroke-width="2" stroke-linecap="round" stroke-linejoin="round"></path> <path d="M240.15 387.15L238.88 386.82C232.88 385.25 229.45 378.14 231.32 370.94C229.521 348.575 235.305 326.256 247.74 307.58C248.525 304.193 250.516 301.207 253.34 299.18C254.571 298.255 255.99 297.613 257.498 297.301C259.005 296.988 260.563 297.011 262.06 297.37L263.34 297.7C269.34 299.27 272.76 306.38 270.89 313.58C264.518 323.861 259.883 335.122 257.17 346.91C254.886 356.737 253.977 366.833 254.47 376.91C254.559 378.954 254.128 380.986 253.216 382.817C252.305 384.649 250.944 386.219 249.26 387.38C247.907 388.297 246.302 388.768 244.668 388.727C243.034 388.686 241.455 388.134 240.15 387.15V387.15Z" fill="white" stroke="#192140" stroke-width="2" stroke-linecap="round" stroke-linejoin="round"></path> <path d="M550.45 323.3C547.862 317.616 544.794 312.163 541.28 307C533.28 309.32 520.88 311.65 507.28 308C492.99 304.15 491.64 297.55 474.61 290.59C462.61 285.7 451.99 284.71 430.72 282.75C411.12 280.93 401.32 280.03 394.79 281.9C388.42 283.72 385.34 285.96 351.02 316.34C340.37 325.77 335.02 330.55 335.85 333.65C337.79 341.32 361.01 344.85 379.47 338.17C388.394 334.827 396.318 329.261 402.49 322C412.41 329.49 420.6 331.3 426.27 331.57C432.62 331.86 436.8 330.25 442.46 333.04C447.29 335.41 448.17 338.52 453 343.34C457.954 348.18 463.868 351.928 470.36 354.34C478.347 365.742 484.721 378.193 489.3 391.34C491.069 396.474 492.555 401.702 493.75 407C510.151 405.812 525.679 399.157 537.85 388.1L559.67 386.48C561.36 372.08 561.83 348.24 550.45 323.3Z" fill="#F7FFAC" stroke="#192140" stroke-width="2" stroke-linecap="round" stroke-linejoin="round"></path> <path d="M541.92 370.48C542.646 372.7 542.945 375.038 542.8 377.37C542.501 381.269 541.007 384.982 538.52 388" fill="white"></path> <path d="M541.92 370.48C542.646 372.7 542.945 375.038 542.8 377.37C542.501 381.269 541.007 384.982 538.52 388" stroke="#192140" stroke-width="2" stroke-linecap="round" stroke-linejoin="round"></path> <path d="M520.38 316.84C515.149 314.787 510.387 311.699 506.38 307.76Z" fill="white"></path> <path d="M520.38 316.84C515.149 314.787 510.387 311.699 506.38 307.76" stroke="#192140" stroke-width="2" stroke-linecap="round" stroke-linejoin="round"></path> <path d="M321.1 392.72C317.93 387.44 315.82 386.05 313.76 385.86C310.06 385.5 306.31 389 304.89 392.48C301.81 400.02 308.89 409.16 313.89 413.42C314.42 413.87 323.65 421.67 327.49 418.98C331.94 415.86 326 400.88 321.1 392.72Z" fill="#F7FFAC" stroke="#192140" stroke-width="2" stroke-linecap="round" stroke-linejoin="round"></path> <path d="M338.6 391.18C333.74 386.4 328.75 381.49 324.05 382.78C317.7 384.53 315.05 396.78 316.36 405.78C318.1 417.95 328.01 430.99 341.36 432.16C343.3 432.33 351.92 433.16 355.56 428.16C361.82 419.42 348 400.38 338.6 391.18Z" fill="#F7FFAC" stroke="#192140" stroke-width="2" stroke-linecap="round" stroke-linejoin="round"></path> <path d="M377.72 422.6C373.761 417.09 370.089 411.379 366.72 405.49C361.31 396.01 360.16 392.1 355.31 389.6C350.78 387.26 343.84 386.6 340.04 390.21C336.82 393.28 337.12 398.21 337.39 401.82C338.14 411.82 343.94 428.82 357.39 431.56C363 432.69 371.67 431.68 375.93 426.06C376.706 425.009 377.31 423.841 377.72 422.6Z" fill="#F7FFAC" stroke="#192140" stroke-width="2" stroke-linecap="round" stroke-linejoin="round"></path> <path d="M107.14 191.78H506.39" stroke="#192140" stroke-width="11" stroke-linecap="round" stroke-linejoin="round"></path> <path d="M107.14 228.81H506.39" stroke="#192140" stroke-width="11" stroke-linecap="round" stroke-linejoin="round"></path> <path d="M329.05 476.2H708.17" stroke="#192140" stroke-width="11" stroke-linecap="round" stroke-linejoin="round"></path> <path d="M329.05 513.23H560.58" stroke="#192140" stroke-width="11" stroke-linecap="round" stroke-linejoin="round"></path> <path d="M568.78 390.64L570.06 390.38C576.18 389.15 579.91 382.06 578.4 374.55C581.279 351.685 576.598 328.506 565.07 308.55C564.479 305.026 562.64 301.832 559.89 299.55C558.721 298.53 557.338 297.785 555.842 297.37C554.347 296.955 552.778 296.88 551.25 297.15L549.96 297.41C543.85 298.65 540.11 305.74 541.63 313.24C552.467 333.45 557.101 356.409 554.95 379.24C554.761 381.33 555.091 383.434 555.911 385.365C556.731 387.296 558.015 388.995 559.65 390.31C560.937 391.334 562.518 391.918 564.161 391.978C565.804 392.037 567.423 391.568 568.78 390.64V390.64Z" fill="white" stroke="#192140" stroke-width="2" stroke-linecap="round" stroke-linejoin="round"></path> <path d="M469.58 420.94C465.569 410.583 460.992 400.455 455.87 390.6C451.23 381.36 448.56 376.08 444.02 369.95C437.335 360.979 429.078 353.295 419.65 347.27" stroke="#192140" stroke-width="2" stroke-linecap="round" stroke-linejoin="round"></path> <path d="M444.17 429.42C441.24 424.93 437.53 418.23 433.31 410.27C428.84 401.85 428.24 399.55 424.9 394.8C420.79 388.96 417.4 386.35 408.9 378.8C404.26 374.69 397.4 368.48 389.06 360.47" stroke="#192140" stroke-width="2" stroke-linecap="round" stroke-linejoin="round"></path> <path d="M417 433.22C413.501 427.059 409.422 421.246 404.82 415.86C402.9 413.62 401.24 411.86 398.98 409.49C393.26 403.49 388.36 398.77 384.92 395.56" stroke="#192140" stroke-width="2" stroke-linecap="round" stroke-linejoin="round"></path> </g> <defs> <clipPath id="clip0_686_5405"> <rect width="1053" height="737" fill="white"></rect> </clipPath> </defs> </svg> 