<?xml version="1.0" encoding="UTF-8"?> <svg xmlns="http://www.w3.org/2000/svg" width="36" height="36" viewBox="0 0 36 36" fill="none"> <g clip-path="url(#clip0_4822_80593)"> <path d="M17.6538 35.3077C27.4038 35.3077 35.3077 27.4038 35.3077 17.6538C35.3077 7.90389 27.4038 0 17.6538 0C7.90389 0 0 7.90389 0 17.6538C0 27.4038 7.90389 35.3077 17.6538 35.3077Z" fill="#192140"></path> <path d="M25.7088 12.5923C22.8842 8.23767 17.1172 6.94304 12.6449 9.64993C8.29029 12.3569 6.87801 18.2415 9.70264 22.5961L9.93803 22.9492L8.99647 26.4799L12.5272 25.5384L12.8803 25.7738C14.4103 26.5977 16.058 27.0684 17.7057 27.0684C19.4711 27.0684 21.2365 26.5977 22.7665 25.6561C27.1211 22.8315 28.4157 17.0645 25.7088 12.5923ZM23.2372 21.6545C22.7665 22.3607 22.178 22.8315 21.3542 22.9492C20.8834 22.9492 20.2949 23.1845 17.9411 22.2431C15.9403 21.3015 14.2926 19.7715 13.1157 18.0061C12.4096 17.1823 12.0565 16.1231 11.9388 15.0638C11.9388 14.1223 12.2919 13.2984 12.8803 12.7099C13.1157 12.4745 13.3511 12.3569 13.5865 12.3569H14.1749C14.4103 12.3569 14.6457 12.3569 14.7634 12.8277C14.9988 13.4161 15.5872 14.8284 15.5872 14.9461C15.7049 15.0638 15.7049 15.2992 15.5872 15.4169C15.7049 15.6523 15.5872 15.8877 15.4696 16.0053C15.3519 16.1231 15.2342 16.3584 15.1165 16.4761C14.8811 16.5938 14.7634 16.8292 14.8811 17.0645C15.3519 17.7707 15.9403 18.4769 16.5288 19.0653C17.2349 19.6538 17.9411 20.1245 18.7649 20.4777C19.0003 20.5953 19.2357 20.5953 19.3534 20.3599C19.4711 20.1245 20.0596 19.5361 20.2949 19.3007C20.5303 19.0653 20.648 19.0653 20.8834 19.1831L22.7665 20.1245C23.0019 20.2423 23.2373 20.3599 23.3549 20.4777C23.4726 20.8307 23.4726 21.3015 23.2372 21.6545Z" fill="#D7F8FF"></path> </g> <defs> <clipPath id="clip0_4822_80593"> <rect width="36" height="36" fill="white"></rect> </clipPath> </defs> </svg> 