<?xml version="1.0" encoding="UTF-8"?> <svg xmlns="http://www.w3.org/2000/svg" width="36" height="36" viewBox="0 0 36 36" fill="none"> <g clip-path="url(#clip0_4822_80595)"> <mask id="mask0_4822_80595" style="mask-type:luminance" maskUnits="userSpaceOnUse" x="0" y="0" width="36" height="36"> <path d="M36 0H0V36H36V0Z" fill="white"></path> </mask> <g mask="url(#mask0_4822_80595)"> <path d="M18 36C27.9411 36 36 27.9411 36 18C36 8.05888 27.9411 0 18 0C8.05888 0 0 8.05888 0 18C0 27.9411 8.05888 36 18 36Z" fill="#192140"></path> <path d="M24.4883 23.2658L25.2715 18.3683H20.57V14.9394C20.57 13.5679 21.0596 12.49 23.2143 12.49H25.4675V7.98463C24.1935 7.78851 22.8233 7.59375 21.5479 7.59375C17.5322 7.59375 14.6905 10.0433 14.6905 14.4512V18.3696H10.2852V23.2672H14.6905V35.7094C16.6298 36.1012 18.6305 36.1038 20.57 35.712L20.5673 23.2699L24.4883 23.2658Z" fill="#D7F8FF"></path> </g> </g> <defs> <clipPath id="clip0_4822_80595"> <rect width="36" height="36" fill="white"></rect> </clipPath> </defs> </svg> 