<?xml version="1.0" encoding="UTF-8"?> <svg xmlns="http://www.w3.org/2000/svg" width="1053" height="737" viewBox="0 0 1053 737" fill="none"> <g clip-path="url(#clip0_686_5407)"> <path d="M488.38 170.1L306.61 176.37C300.632 176.574 294.877 178.688 290.188 182.4C285.498 186.112 282.121 191.229 280.55 197L266.06 250.54H293L300.79 215.81C303.33 204.47 311.71 196.45 321.44 196.05L465.44 190.05C474.6 189.67 481.91 199.18 480.92 210.18L477.28 250.54H501.46L507.93 191.11C508.22 188.404 507.925 185.668 507.065 183.086C506.205 180.505 504.801 178.138 502.948 176.146C501.094 174.154 498.834 172.583 496.321 171.54C493.807 170.497 491.1 170.006 488.38 170.1V170.1Z" fill="#D7F8FF" stroke="#192140" stroke-width="2" stroke-linecap="round" stroke-linejoin="round"></path> <path d="M123.54 431C117.42 487.62 111.303 544.237 105.19 600.85C104.848 604.027 105.144 607.24 106.061 610.301C106.977 613.362 108.495 616.21 110.527 618.676C112.558 621.143 115.062 623.178 117.891 624.664C120.719 626.151 123.816 627.057 127 627.33L549.61 664.33C551.646 664.508 553.696 664.268 555.636 663.625C557.576 662.982 559.364 661.95 560.89 660.591C562.416 659.232 563.649 657.576 564.512 655.724C565.375 653.872 565.851 651.863 565.91 649.82L571.35 461.47L123.54 431Z" fill="#D7F8FF" stroke="#192140" stroke-width="2" stroke-linecap="round" stroke-linejoin="round"></path> <path d="M565.48 649.65C561.225 596.287 560.223 542.715 562.48 489.23C567.13 378.96 587.26 231.29 607.24 231.49C626.66 231.69 643.6 371.49 645.65 476.7C646.548 522.666 644.742 568.646 640.24 614.4C640.1 617.559 639.49 620.68 638.43 623.66C633.53 637.38 620.3 643.66 605.88 650.19C593.54 655.8 575.15 664.19 568.18 657.08C566.1 655 565.56 652 565.48 649.65Z" fill="#D7F8FF" stroke="#192140" stroke-width="2" stroke-linecap="round" stroke-linejoin="round"></path> <path d="M177.53 244.82C184.174 243.066 191.132 242.854 197.87 244.2C213.59 247 314.93 245.08 607.24 231.49C584.13 346.07 572.24 415.42 572.13 438.97C572.13 442.73 572.34 454.91 564.28 463.05C554.6 472.81 538.52 471.19 534.08 470.85C474.91 466.31 233.53 459.44 132.18 455.59C129.152 455.472 126.181 454.73 123.453 453.411C120.726 452.091 118.3 450.222 116.328 447.921C114.357 445.619 112.882 442.936 111.996 440.038C111.11 437.14 110.832 434.09 111.18 431.08C113.76 409.24 117.51 385.75 122.87 360.95C129.937 328.246 139.191 296.054 150.57 264.59C156.92 247 173.37 246 177.53 244.82Z" fill="#D7F8FF" stroke="#192140" stroke-width="2" stroke-linecap="round" stroke-linejoin="round"></path> <path d="M264.91 481.88L271.91 444.16C272.335 441.863 273.551 439.787 275.347 438.293C277.142 436.799 279.404 435.981 281.74 435.98H369.64C371.038 435.98 372.42 436.273 373.697 436.84C374.974 437.407 376.119 438.235 377.056 439.272C377.994 440.308 378.704 441.53 379.14 442.857C379.577 444.185 379.73 445.589 379.59 446.98L375.4 487.59C375.148 490.112 373.947 492.445 372.04 494.116C370.134 495.787 367.664 496.671 365.13 496.59L274.44 493.7C272.998 493.656 271.583 493.301 270.292 492.66C269 492.018 267.863 491.104 266.957 489.981C266.052 488.858 265.4 487.553 265.047 486.155C264.694 484.756 264.647 483.298 264.91 481.88Z" fill="#F7FFAC" stroke="#192140" stroke-width="2" stroke-linecap="round" stroke-linejoin="round"></path> <path d="M473.54 79.6699C411.54 107.39 368.16 136.55 352.14 154.4C344.44 162.98 336.66 176.09 332.82 182.53C322.67 199.61 321.62 205.87 323.36 211.34C324.27 214.061 325.776 216.545 327.769 218.609C329.763 220.673 332.192 222.266 334.88 223.27C343.29 226.34 353.68 222.85 360.39 214.22C360.51 214.87 362.39 224.45 371.5 228.22C374.805 229.541 378.417 229.893 381.914 229.236C385.412 228.579 388.65 226.94 391.25 224.51C392.591 226.168 394.283 227.508 396.204 228.433C398.125 229.358 400.228 229.846 402.36 229.86C409.71 229.74 413.61 223.71 413.88 223.28C415.23 224.7 419.33 228.64 425.4 229.04C430.61 229.38 434.48 226.94 436.99 225.31C450.15 216.75 454.87 197.21 455.85 192.83L454.65 190.83C465.224 184.319 474.047 175.322 480.351 164.622C486.655 153.923 490.249 141.845 490.82 129.44L473.54 79.6699Z" fill="#E4C9FE" stroke="#192140" stroke-width="2" stroke-linecap="round" stroke-linejoin="round"></path> <path d="M383.46 146.08C379.793 147.545 376.306 149.427 373.07 151.69C369.328 154.381 365.918 157.507 362.91 161C356.46 168.83 353.56 190.22 360.73 215.6" fill="#E4C9FE"></path> <path d="M383.46 146.08C379.793 147.545 376.306 149.427 373.07 151.69C369.328 154.381 365.918 157.507 362.91 161C356.46 168.83 353.56 190.22 360.73 215.6" stroke="#192140" stroke-width="2" stroke-linecap="round" stroke-linejoin="round"></path> <path d="M394.89 154.69C389.89 157.03 377.61 163.69 374.58 175.94C372.32 185.12 376.18 193.7 382.67 208.09C385.365 214.048 388.483 219.806 392 225.32" fill="#E4C9FE"></path> <path d="M394.89 154.69C389.89 157.03 377.61 163.69 374.58 175.94C372.32 185.12 376.18 193.7 382.67 208.09C385.365 214.048 388.483 219.806 392 225.32" stroke="#192140" stroke-width="2" stroke-linecap="round" stroke-linejoin="round"></path> <path d="M414.45 177.07C412.4 178.34 397.77 187.64 398.84 198.88C399.15 202.16 400.74 204.95 403.16 209.22C406.089 214.362 409.695 219.087 413.88 223.27" fill="#E4C9FE"></path> <path d="M414.45 177.07C412.4 178.34 397.77 187.64 398.84 198.88C399.15 202.16 400.74 204.95 403.16 209.22C406.089 214.362 409.695 219.087 413.88 223.27" stroke="#192140" stroke-width="2" stroke-linecap="round" stroke-linejoin="round"></path> <path d="M345.06 200.2C347.434 199.752 349.719 198.924 351.83 197.75C353.384 196.891 354.827 195.846 356.13 194.64" fill="#F7FFAC"></path> <path d="M345.06 200.2C347.434 199.752 349.719 198.924 351.83 197.75C353.384 196.891 354.827 195.846 356.13 194.64" stroke="#192140" stroke-width="2" stroke-linecap="round" stroke-linejoin="round"></path> <path d="M430.24 202.83C431 201.5 436.31 192.2 444 190C446.069 189.317 448.285 189.209 450.41 189.69C452.462 190.211 454.33 191.287 455.81 192.8" fill="#E4C9FE"></path> <path d="M430.24 202.83C431 201.5 436.31 192.2 444 190C446.069 189.317 448.285 189.209 450.41 189.69C452.462 190.211 454.33 191.287 455.81 192.8" stroke="#192140" stroke-width="2" stroke-linecap="round" stroke-linejoin="round"></path> <path d="M469.22 86.6201C549.22 48.3601 638.33 58.5301 690.65 110.31C741.5 160.64 739.43 232.31 739.02 246.56C737.09 313.56 700.72 359.73 682.45 382.89C657.33 414.75 630.37 450.39 611.89 462.11C608.64 455.59 601.49 423.99 604.22 403.35C605.573 393.244 609.001 383.527 614.29 374.81C628.05 364.96 655.22 342.6 671.44 304.22C676.19 292.98 692.63 249.32 676.16 198.79C672.89 188.79 665.16 165.71 646.08 146.45C593.84 93.5801 504.14 117.26 498.33 118.88L469.22 86.6201Z" fill="#F7FFAC" stroke="#192140" stroke-width="2" stroke-linecap="round" stroke-linejoin="round"></path> <path d="M502.5 135.8L503.38 135.09C507.55 131.72 507.77 125.09 503.87 120.25C497.7 102.567 485.579 87.5761 469.58 77.8401C467.814 75.5268 465.245 73.9602 462.38 73.4501C461.096 73.1939 459.771 73.2186 458.497 73.5224C457.224 73.8261 456.031 74.4019 455 75.2101L454.13 75.9201C449.96 79.2901 449.74 85.9201 453.64 90.7501C469.211 100.969 481.197 115.801 487.92 133.17C488.55 134.761 489.583 136.16 490.917 137.231C492.251 138.303 493.841 139.009 495.53 139.28C496.908 139.474 498.312 139.245 499.556 138.624C500.801 138.002 501.827 137.018 502.5 135.8V135.8Z" fill="white" stroke="#192140" stroke-width="2" stroke-linecap="round" stroke-linejoin="round"></path> </g> <defs> <clipPath id="clip0_686_5407"> <rect width="1053" height="737" fill="white"></rect> </clipPath> </defs> </svg> 