<?xml version="1.0" encoding="UTF-8"?> <svg xmlns="http://www.w3.org/2000/svg" width="1053" height="737" viewBox="0 0 1053 737" fill="none"> <g clip-path="url(#clip0_686_5406)"> <path d="M417.78 648.46C581.538 648.46 714.29 515.708 714.29 351.95C714.29 188.192 581.538 55.4399 417.78 55.4399C254.022 55.4399 121.27 188.192 121.27 351.95C121.27 515.708 254.022 648.46 417.78 648.46Z" fill="white" stroke="#192140" stroke-width="2" stroke-linecap="round" stroke-linejoin="round"></path> <path d="M490.92 64.54C508.59 77.74 511.82 87.26 510.92 93.81C508.48 112.31 472.92 110.2 454.25 140.29C453.05 142.23 438.14 167.08 447.64 194.15C449.54 199.58 455.17 215.64 469.87 222.69C495.3 234.89 522.27 207.89 534.79 218.87C545.96 228.67 527.57 252.87 540.25 269.75C550.73 283.75 568.89 271.35 593.17 285.81C627 306 633 338.61 646.11 335.9C656.11 333.83 653.45 314.05 671 295.32C682.06 283.53 695.43 278.19 704.35 275.56C696.987 248.284 685.831 222.175 671.21 198C655.927 172.649 636.96 149.712 614.93 129.94C569.22 89.16 520.31 72.08 490.92 64.54Z" fill="#F7FFAC" stroke="#192140" stroke-width="2" stroke-linecap="round" stroke-linejoin="round"></path> <path d="M693.46 461.33C680.15 462.4 665.46 461.1 657.31 451.64C648.06 440.95 654.93 428.7 645.06 415.56C637.16 405.05 621.06 396.73 607.62 399.91C587.33 404.7 591.62 431.29 566.09 447.56C544.38 461.37 527.97 450.65 517.09 465.09C507.53 477.82 509.29 500.81 519.98 510.6C522.98 513.32 534.28 516.78 556.82 523.6C566.64 526.6 570.54 527.6 572.71 531.55C576.79 538.9 568.8 545.48 569.82 558.28C569.92 559.46 571.63 575.04 584.27 582.84C588.585 585.433 593.498 586.866 598.53 587C640.898 554.4 673.692 510.979 693.46 461.31V461.33Z" fill="#F7FFAC" stroke="#192140" stroke-width="2" stroke-linecap="round" stroke-linejoin="round"></path> <path d="M342.72 638.87C345.152 631.834 346.793 624.549 347.61 617.15C349.67 598.44 344.68 594.52 347 584.75C351.39 566.27 372.5 568.75 386.71 545.93C388.14 543.63 403.86 517.82 394.65 504.46C383.26 487.94 348.23 511.46 318.76 492.1C299.59 479.52 305.25 463.66 282.59 448.87C266.36 438.28 240.5 431.44 230.66 441.4C217.29 454.93 245.35 487.46 229.41 507.83C220.84 518.78 205.06 519.18 197.88 536.22C196.35 539.882 195.409 543.764 195.09 547.72C234.105 592.15 285.519 623.894 342.72 638.87V638.87Z" fill="#F7FFAC" stroke="#192140" stroke-width="2" stroke-linecap="round" stroke-linejoin="round"></path> <path d="M250.18 360C272.18 379.82 266.59 398.64 289.78 409.89C305.26 417.41 316.67 413.33 323.04 423.35C329.92 434.18 320.13 444.52 327.04 458.2C331.81 467.71 343.71 477.02 353.96 475.62C371.03 473.29 368.18 443.35 394.35 405.14C417.25 371.69 436.13 370.26 437.11 348.92C438.11 327.02 418.87 314.8 426.02 299.03C431.16 287.7 442.82 290.19 450.57 279.23C462.99 261.67 451.42 229.23 437.9 210.34C412.33 174.56 366.9 169.13 334.16 165.2C308.78 162.2 238.94 153.79 216.97 188.2C206.04 205.28 215.03 220.29 197.97 242.84C184.6 260.5 173.09 259.2 167.88 273.72C161.3 292.03 171.97 315.36 185.3 329.15C207.08 351.66 225.29 337.57 250.18 360Z" fill="#F7FFAC" stroke="#192140" stroke-width="2" stroke-linecap="round" stroke-linejoin="round"></path> <path d="M125.32 401.06C125.59 404.36 126.58 406.58 128.32 407.75C137.96 414.323 170.52 387.253 226 326.54L262.9 370.4C257.617 381.615 251.324 392.326 244.1 402.4C241.02 406.71 183.88 484.57 126.33 474.23C120.112 473.208 114.144 471.019 108.74 467.78C86.5298 453.87 74.8198 418.55 86.9998 390.42C95.9998 369.59 114.86 360.32 121.31 357.5C121.46 366.13 122 375.42 123.11 385.26C123.74 390.75 124.49 396 125.32 401.06Z" fill="#D7F8FF" stroke="#192140" stroke-width="2" stroke-linecap="round" stroke-linejoin="round"></path> <path d="M115.64 395.35C116.029 397.922 117.061 400.354 118.64 402.42C120.629 404.94 123.334 406.798 126.4 407.75C128.21 408.37 130.108 408.691 132.02 408.7" stroke="#192140" stroke-width="2" stroke-linecap="round" stroke-linejoin="round"></path> <path d="M296.38 344.75C297.677 347.771 299.91 350.295 302.75 351.95C304.472 352.922 306.374 353.535 308.34 353.75" fill="white"></path> <path d="M296.38 344.75C297.677 347.771 299.91 350.295 302.75 351.95C304.472 352.922 306.374 353.535 308.34 353.75" stroke="#192140" stroke-width="2" stroke-linecap="round" stroke-linejoin="round"></path> <path d="M275.92 369.51L308.34 353.75C345.86 367.75 373.53 366.34 392.08 362.3C422.4 355.71 436.22 340.3 465.21 345.44C479.39 347.94 492.37 354.49 500.65 347.62C506.3 342.92 507.73 333.62 506.24 327.84C499.5 301.51 421.74 301.06 409.64 301.07C406.81 297.34 401.94 289.64 402.89 280.36C404.74 262.22 427.89 247.56 446.56 252.45C460.47 256.1 466.95 269.32 468.17 271.81C476.11 288.03 469.71 303.68 468.66 306.14C479.311 307.89 489.508 311.738 498.66 317.46C506.154 302.543 509.713 285.959 509 269.28C508.38 256.33 507.24 232.61 489 218.53C478.29 210.25 466.2 208.79 459.53 208.53C465.9 204.75 476.53 198.33 489.27 189.84C528.73 163.61 557.4 144.08 554.27 126.47C554.15 125.78 552.97 119.6 547.78 116.03C522.42 98.5701 441.9 171.15 441.05 170.03C440.59 169.42 467.18 148.03 486.53 117.8C492.18 108.96 498.62 97.1901 494.16 90.3501C492.16 87.2201 488.53 86.2301 487.1 85.8301C468.66 80.7301 438.79 114.12 434.75 118.71C439.88 105.47 440.17 94.2301 435.12 90.7101C434.086 90.0151 432.883 89.6142 431.64 89.5501C416.676 98.936 402.315 109.25 388.64 120.43C380.07 127.43 375.02 131.56 370.33 136.68C350.92 157.88 358.33 178.09 345.78 201.2C334.02 222.83 309.65 243.34 261.38 283.45C246.78 295.59 234.53 305.33 226.26 311.82L275.92 369.51Z" fill="#D7F8FF" stroke="#192140" stroke-width="2" stroke-linecap="round" stroke-linejoin="round"></path> <path d="M384.3 289.71C388.268 294.811 393.773 298.5 400 300.23C403.148 301.063 406.415 301.347 409.66 301.07" fill="#D7F8FF"></path> <path d="M384.3 289.71C388.268 294.811 393.773 298.5 400 300.23C403.148 301.063 406.415 301.347 409.66 301.07" stroke="#192140" stroke-width="2" stroke-linecap="round" stroke-linejoin="round"></path> <path d="M381.64 236C389.64 228.42 407.14 214 433.2 209.44C441.912 207.916 450.794 207.61 459.59 208.53" fill="#D7F8FF"></path> <path d="M381.64 236C389.64 228.42 407.14 214 433.2 209.44C441.912 207.916 450.794 207.61 459.59 208.53" stroke="#192140" stroke-width="2" stroke-linecap="round" stroke-linejoin="round"></path> <path d="M399 205.33C411.124 191.458 425.334 179.559 441.12 170.06Z" fill="#D7F8FF"></path> <path d="M399 205.33C411.124 191.458 425.334 179.559 441.12 170.06" stroke="#192140" stroke-width="2" stroke-linecap="round" stroke-linejoin="round"></path> <path d="M376.66 179.35C386.478 166.574 397.096 154.433 408.45 143C417.45 133.89 426.37 125.84 434.85 118.76" fill="#D7F8FF"></path> <path d="M376.66 179.35C386.478 166.574 397.096 154.433 408.45 143C417.45 133.89 426.37 125.84 434.85 118.76" stroke="#192140" stroke-width="2" stroke-linecap="round" stroke-linejoin="round"></path> <path d="M217.15 304.44L216.15 305.26C211.29 309.19 211.26 317.2 216.07 323.15C224.095 344.762 238.967 363.157 258.42 375.53C260.582 378.359 263.68 380.326 267.16 381.08C268.668 381.445 270.239 381.466 271.757 381.142C273.275 380.818 274.701 380.158 275.93 379.21L276.93 378.38C281.78 374.46 281.81 366.45 277 360.49C258.041 347.579 243.313 329.362 234.66 308.12C233.859 306.18 232.593 304.466 230.972 303.132C229.352 301.798 227.428 300.884 225.37 300.47C223.755 300.169 222.087 300.391 220.608 301.106C219.129 301.82 217.917 302.988 217.15 304.44V304.44Z" fill="white" stroke="#192140" stroke-width="2" stroke-linecap="round" stroke-linejoin="round"></path> <path d="M475.89 307.79C478.57 305.73 484.96 301.45 493.42 301.65C506.61 301.96 521.54 313.08 521.54 329.77C521.54 346.06 507.3 357.86 493.42 357.88C480.73 357.88 472.53 348.06 471.3 346.54L459.48 345.32L451.42 344.48C451.927 350.596 453.128 356.635 455 362.48C457.31 369.69 462.17 381.27 484.87 406.05C491.75 413.55 501.35 423.45 513.65 434.43C516.65 428.43 520.82 419.93 525.32 409.55C541.6 372 549.74 353.19 546.57 333C545.74 327.69 540.57 299.22 516.88 287.37C501.3 279.6 485.97 283.11 483.61 283.68C471.824 286.673 461.521 293.835 454.61 303.84L475.89 307.79Z" fill="#E4C9FE" stroke="#192140" stroke-width="2" stroke-linecap="round" stroke-linejoin="round"></path> </g> <defs> <clipPath id="clip0_686_5406"> <rect width="1053" height="737" fill="white"></rect> </clipPath> </defs> </svg> 