<?xml version="1.0" encoding="UTF-8"?> <svg xmlns="http://www.w3.org/2000/svg" width="65" height="88" viewBox="0 0 65 88" fill="none"> <path d="M5.16087 31.9651C6.00906 32.8527 7.66413 33.8295 8.8896 33.4373C10.7705 32.8362 9.4266 29.7132 11.4287 25.6885C13.3564 21.7883 15.5732 22.8097 18.239 18.205C19.6297 15.8053 19.9656 13.9127 22.4827 12.0999C23.9477 11.0362 25.5119 10.4562 25.7267 10.6746C25.9415 10.893 24.2066 11.9191 24.0496 13.5769C23.9395 14.7345 24.705 15.2206 25.2062 16.4181C26.4895 19.4472 24.1212 22.3824 24.6141 22.5796C25.1071 22.7768 26.5419 20.0295 29.8079 16.7281C31.4437 15.0679 32.0771 14.7416 33.085 13.861C33.085 13.861 33.6991 13.3186 34.3546 12.6376C36.1997 10.7216 36.4392 0.00940777 36.5246 1.52528e-05C36.61 -0.00937726 38.8792 5.16589 38.2788 13.0016C37.9897 16.7821 37.1194 20.0014 39.4712 22.225C40.179 22.8943 41.4953 23.7654 42.4096 23.4555C43.4809 23.0915 43.2909 21.3586 43.759 18.6676C44.4392 14.7627 45.9924 11.7829 46.2981 11.8369C46.6588 11.9027 44.4089 16.1363 46.2513 20.5485C47.6888 23.9932 50.0901 23.8758 51.3955 27.1631C53.2268 31.7796 50.3407 36.6731 50.6161 36.7341C50.7786 36.7693 51.211 35.074 52.6154 33.0687C53.2288 32.2027 53.9429 31.3917 54.7469 30.6478C53.9208 32.3196 53.1249 34.7288 54.0529 37.1826C54.5239 38.4271 55.0196 38.5915 55.518 39.8595C56.9693 43.5766 54.6285 47.0447 55.0829 47.2255C55.3913 47.35 56.6856 45.8707 60.5906 39.7585C60.3401 40.9222 60.1818 42.0989 60.117 43.2807C59.8416 48.5147 61.7693 49.6887 61.1937 53.2414C60.5521 57.2661 57.476 59.68 58.4123 60.3938C58.9934 60.8353 60.4639 60.1262 60.709 60.0064C62.3448 59.2151 63.2922 57.5479 63.1572 55.653C64.6939 57.1112 65.0051 58.3017 64.9996 59.1306C65.0156 60.8483 64.5996 62.5489 63.7796 64.118C62.0167 67.3996 61.9412 70.6482 59.3294 74.2454C51.8044 84.6096 39.8024 90.1118 25.7956 87.2447C19.4485 85.9454 11.3075 80.2003 11.3075 80.2003C8.22557 78.4869 5.63689 76.2026 3.73437 73.5175C2.35744 71.5568 -1.47043 66.3863 0.603225 61.6337C1.18429 60.3023 2.06827 59.4476 2.37946 57.5244C2.79254 54.9791 1.85073 52.746 0.955719 51.215C5.83006 55.4957 7.45208 56.1578 7.96154 55.8455C8.9612 55.235 5.48307 51.0765 3.54159 44.7154C0.561912 34.9848 4.00424 26.7241 4.09237 26.7311C4.18049 26.7381 3.16432 29.8752 5.16087 31.9651Z" fill="#FF5C28"></path> </svg> 