<?xml version="1.0" encoding="UTF-8"?> <svg xmlns="http://www.w3.org/2000/svg" width="86" height="29" viewBox="0 0 86 29" fill="none"> <path fill-rule="evenodd" clip-rule="evenodd" d="M47.2163 6.24371C46.5483 6.3702 45.2168 6.61692 44.2575 6.79192C43.2983 6.96698 42.4503 7.13609 42.3732 7.16783C42.2579 7.21524 42.2331 7.27338 42.2331 7.49677V7.76811L42.6536 7.83836C43.8201 8.03338 44.2283 8.59485 44.3528 10.1754C44.4523 11.4389 44.4902 18.3284 44.4227 22.8837C44.3864 25.3309 44.3639 27.3403 44.3728 27.3489C44.3816 27.3576 44.8778 27.4611 45.4755 27.5789C47.3361 27.9455 47.9467 28.0076 49.708 28.0092C51.1247 28.0104 51.365 27.9958 51.931 27.8733C53.6642 27.4985 54.9401 26.8232 56.035 25.7014C57.0473 24.6641 57.7128 23.3156 58.0681 21.5814C58.1907 20.9825 58.2094 20.7061 58.208 19.5088C58.2067 18.3125 58.1879 18.0431 58.0677 17.5001C57.5792 15.2925 56.3781 13.6239 54.6644 12.7721C53.1762 12.0323 50.9404 12.0909 49.251 12.9139C49.0152 13.0288 48.8072 13.1228 48.7889 13.1228C48.7706 13.1228 48.7698 11.5202 48.7872 9.5614L48.8188 6L48.6249 6.00688C48.5183 6.01062 47.8844 6.11722 47.2163 6.24371ZM0 6.82895C0 7.22641 0.0149498 7.28953 0.109009 7.28996C0.612567 7.29211 1.31826 7.43058 1.6527 7.59287C2.10972 7.81466 2.24103 7.9471 2.48453 8.4317C3.01437 9.48606 3.15234 11.6428 3.09504 17.9727C3.04788 23.1755 2.97718 24.2544 2.61428 25.3105C2.32189 26.1613 1.96191 26.4318 0.816756 26.6612C0.392369 26.7462 0.0350073 26.8158 0.0225492 26.8158C0.0101534 26.8158 0 26.9954 0 27.2149V27.614H5.57502H11.15V27.2205V26.8271L10.5427 26.7255C9.55464 26.5601 9.36179 26.5067 9.07345 26.3184C8.40943 25.8848 8.12078 25.0641 7.97408 23.1924C7.9017 22.269 7.81119 19.4883 7.81518 18.3114L7.81748 17.636L8.68955 17.6562C10.199 17.6912 10.7779 17.7571 11.1323 17.9341C11.8224 18.2788 12.2931 19.0985 12.6094 20.5066C12.6464 20.6711 12.6586 20.6754 13.0822 20.6754H13.5171V17.0888V13.5022L13.137 13.4813C12.928 13.4699 12.7279 13.4783 12.6924 13.5001C12.6569 13.5219 12.5638 13.7893 12.4856 14.0943C12.1977 15.217 11.646 15.9927 10.9584 16.2417C10.6775 16.3434 10.3509 16.38 9.25347 16.4328C8.50685 16.4687 7.86956 16.482 7.83723 16.4624C7.77419 16.424 7.81181 13.4112 7.91372 10.3289C7.94611 9.34956 7.97271 8.4013 7.9729 8.22176L7.97321 7.89528L10.2312 7.91499L12.4893 7.9347L12.9462 8.09895C14.4419 8.63673 15.4316 9.794 16.232 11.9408C16.4051 12.4054 16.4946 12.5702 16.5737 12.5702C16.6326 12.5702 16.8661 12.5137 17.0926 12.4448L17.5045 12.3194L17.4727 10.9865C17.4553 10.2534 17.4239 8.91439 17.403 8.01096L17.365 6.36842H8.68251H0V6.82895ZM22.1504 12.0937C20.2336 12.2511 18.6767 12.9743 17.4201 14.291C16.6599 15.0876 16.1159 16.0115 15.769 17.0954C15.4038 18.2365 15.3544 18.6035 15.3574 20.1535C15.3598 21.3829 15.3783 21.6493 15.501 22.2105C15.8614 23.8594 16.4472 25.0272 17.4058 26.0076C18.4682 27.0942 19.7228 27.7181 21.3346 27.9614C22.0876 28.0751 23.8525 28.0389 24.4802 27.8968C25.5794 27.648 26.5746 27.2212 27.2947 26.6897C29.2389 25.2544 30.2798 23.1302 30.3789 20.3958C30.4579 18.2141 29.9915 16.3526 28.9951 14.8729C28.4554 14.0714 27.4182 13.1899 26.5047 12.7565C25.3356 12.2017 23.7588 11.9618 22.1504 12.0937ZM40.6447 12.1086C39.7289 12.3526 39.2905 12.6021 38.5926 13.2763C38.0995 13.7528 37.5268 14.5297 37.2404 15.1107C37.1634 15.2669 37.0778 15.3947 37.0503 15.3947C37.0227 15.3947 37.0138 15.1254 37.0305 14.796C37.1224 12.9887 37.1267 12.0789 37.0433 12.0789C36.9115 12.0789 30.901 13.2654 30.6314 13.3447C30.5474 13.3693 30.5224 13.4438 30.5224 13.67V13.9633L31.0284 14.0338C32.1296 14.1874 32.4273 14.5862 32.592 16.1282C32.6866 17.0135 32.6857 23.0474 32.5908 24.4218C32.4746 26.1053 32.1601 26.5768 31.0399 26.7475C30.7936 26.7851 30.5764 26.8158 30.5572 26.8158C30.5381 26.8158 30.5224 26.9922 30.5224 27.2077C30.5224 27.5623 30.5358 27.6032 30.6626 27.6367C30.8457 27.6851 39.3559 27.6851 39.539 27.6367C39.6655 27.6033 39.6792 27.5621 39.6792 27.213V26.8263L39.1964 26.7861C38.0292 26.6889 37.673 26.5384 37.4137 26.0326C37.0676 25.3571 36.9753 24.0838 36.9721 19.9359C36.9692 16.2517 36.9262 16.5316 37.545 16.2065C38.5636 15.6713 39.8847 15.7005 41.0793 16.2846C41.3868 16.435 41.6578 16.5381 41.6814 16.5137C41.705 16.4892 42.0357 15.6542 42.4161 14.6579C42.7965 13.6616 43.1352 12.783 43.1688 12.7054C43.2023 12.6279 43.2297 12.5274 43.2297 12.4823C43.2297 12.3989 42.7789 12.1994 42.3265 12.0826C41.9819 11.9936 41.0205 12.0085 40.6447 12.1086ZM79.7321 12.0772C77.7066 12.2809 76.219 13.0756 75.3187 14.4349C74.4254 15.784 74.3173 17.6086 75.0493 18.9849C75.599 20.0183 76.6663 20.7912 78.3429 21.37C79.6934 21.8361 80.5492 22.2808 81.1119 22.8086C81.5889 23.2559 81.7497 23.6233 81.7507 24.2675C81.7522 25.3111 81.223 26.0775 80.2394 26.4558C79.7796 26.6327 78.8233 26.6473 78.2683 26.4859C77.7813 26.3443 77.1369 25.9671 76.7587 25.6023C76.1737 25.038 75.5851 24.0717 75.1472 22.9569C74.9745 22.517 74.9655 22.5067 74.7816 22.5371C74.6779 22.5541 74.5153 22.5978 74.4202 22.634L74.2473 22.6999L74.2792 23.5144C74.2968 23.9624 74.3261 24.9506 74.3443 25.7105C74.3733 26.9256 74.3903 27.1017 74.4852 27.1717C74.5446 27.2154 74.8594 27.3319 75.1849 27.4304C77.6059 28.1635 80.7497 28.2433 82.4533 27.6151C83.8246 27.1093 84.8623 26.2337 85.402 25.1272C85.7911 24.3292 85.8649 23.973 85.8664 22.886C85.8676 22.045 85.8503 21.8818 85.7182 21.4842C85.4228 20.5952 84.7308 19.7926 83.783 19.2396C83.5004 19.0748 82.6745 18.6858 81.9478 18.3754C79.4886 17.3248 78.7166 16.7147 78.5525 15.6922C78.4364 14.9675 78.7501 14.0572 79.2574 13.6475C79.7186 13.275 80.0633 13.1565 80.6664 13.163C82.2527 13.18 83.3528 14.1706 84.1988 16.3437C84.3177 16.6492 84.4339 16.9188 84.457 16.943C84.4801 16.9671 84.6248 16.9503 84.7785 16.9057L85.0579 16.8246L85.0786 16.3706C85.09 16.1209 85.0799 15.221 85.0561 14.3708L85.013 12.825L84.5994 12.6743C83.3563 12.2214 81.0781 11.9419 79.7321 12.0772ZM65.6232 12.1769C63.2886 12.5846 61.4262 14.019 60.3987 16.2009C59.829 17.4107 59.6177 18.3238 59.5692 19.7851C59.5144 21.4402 59.7442 22.6414 60.3591 23.914C61.6245 26.5325 64.0975 28.0434 67.1182 28.0434C68.7328 28.0434 70.1208 27.6365 71.4252 26.781C71.9523 26.4353 72.7683 25.6999 72.972 25.3872C73.0807 25.2203 73.0796 25.2131 72.9106 24.9727C72.816 24.8382 72.7252 24.7281 72.7088 24.7281C72.6924 24.7281 72.4713 24.8557 72.2173 25.0117C71.6743 25.3453 71.0385 25.6112 70.5688 25.7009C69.2828 25.9467 67.9927 25.7938 66.9002 25.266C66.4693 25.0578 66.2663 24.9067 65.8101 24.4546C65.2068 23.8568 64.8893 23.3799 64.5957 22.6306C64.297 21.8682 64.1472 21.1055 64.1125 20.1688L64.0812 19.3246H68.6767H73.2722L73.2341 18.4496C73.1289 16.0291 72.1189 14.0146 70.4719 12.9401C69.5204 12.3193 68.5667 12.0785 67.0871 12.0854C66.5524 12.0879 65.8992 12.1288 65.6232 12.1769ZM23.5712 13.2697C24.012 13.5244 24.2604 13.7641 24.5475 14.2123C25.4218 15.577 25.8622 18.0081 25.7616 20.9144C25.6588 23.8869 25.2389 25.5227 24.3477 26.4232C23.9696 26.8052 23.604 26.9623 23.0284 26.9899C22.5834 27.0113 22.508 26.9968 22.1432 26.8198C21.8842 26.6941 21.6442 26.5142 21.4585 26.3066C20.3199 25.0334 19.7441 21.849 19.9961 18.2193C20.2111 15.1225 20.84 13.6091 22.1058 13.1425C22.247 13.0904 22.5085 13.0673 22.8057 13.0805C23.1858 13.0974 23.338 13.135 23.5712 13.2697ZM67.4239 13.2481C68.1459 13.7286 68.6047 15.1468 68.6872 17.1535L68.7254 18.0834L68.0776 18.1187C67.7212 18.1381 66.6758 18.1678 65.7544 18.1847L64.0791 18.2153L64.1205 17.6834C64.2079 16.5635 64.5819 15.1938 65.02 14.3902C65.299 13.8782 65.8005 13.3483 66.164 13.1811C66.5387 13.0088 67.11 13.0392 67.4239 13.2481ZM51.1664 14.0397C52.3425 14.5437 53.1295 15.8549 53.4901 17.9115C53.6188 18.6458 53.634 20.7553 53.5166 21.5965C53.2473 23.526 52.6426 25.1264 51.8526 26.0006C51.1486 26.7797 50.4228 27.0332 49.2825 26.8982C49.0014 26.865 48.9411 26.8347 48.8898 26.7021C48.8072 26.4878 48.7179 18.9689 48.7661 16.2865L48.8048 14.1388L49.3342 13.9986C49.9944 13.8237 50.6991 13.8396 51.1664 14.0397Z" fill="#3C5F8E"></path> </svg> 