<?xml version="1.0" encoding="UTF-8"?> <svg xmlns="http://www.w3.org/2000/svg" width="186" height="186" viewBox="0 0 186 186" fill="none"> <path d="M84.1628 175.416C81.5928 177.511 77.8067 176.94 75.9699 174.18C40.9734 121.584 51.8097 50.6527 100.959 10.5847C103.529 8.48958 107.315 9.06002 109.151 11.8205C144.148 64.4169 133.312 135.347 84.1628 175.416Z" fill="#192140"></path> <path d="M37.3054 154.98C33.9877 155.171 31.2528 152.477 31.3948 149.157C34.0991 85.8978 84.5926 34.6885 147.86 31.0444C151.178 30.8533 153.913 33.5476 153.771 36.8678C151.067 100.127 100.573 151.336 37.3054 154.98Z" fill="#192140"></path> <path d="M138 162.535C137.319 165.788 134.005 167.726 130.837 166.723C70.4702 147.619 34.1964 85.5205 47.1735 23.4906C47.854 20.2378 51.1681 18.2999 54.3365 19.3026C114.703 38.4062 150.977 100.505 138 162.535Z" fill="#192140"></path> <path d="M11.3088 110.863C8.51824 109.067 7.89058 105.287 9.94967 102.685C49.4358 52.7852 120.487 40.8494 173.807 75.1555C176.597 76.9509 177.225 80.7315 175.166 83.3336C135.68 133.233 64.6288 145.169 11.3088 110.863Z" fill="#192140"></path> <path d="M16.4961 59.702C15.3063 56.6165 17.0136 53.2029 20.1956 52.3028C81.437 34.9793 145.821 67.0717 168.657 126.296C169.847 129.382 168.14 132.795 164.958 133.695C103.717 151.019 39.3332 118.927 16.4961 59.702Z" fill="#192140"></path> </svg> 