<?xml version="1.0" encoding="UTF-8"?> <svg xmlns="http://www.w3.org/2000/svg" width="534" height="401" viewBox="0 0 534 401" fill="none"> <path d="M533.991 171.773H339.759V122.702H533.991V171.773Z" fill="#E669A2"></path> <path d="M508.794 171.783H339.79V49.0526H508.794V171.783Z" fill="#F3BE26"></path> <path d="M438.939 171.775H339.759V0H438.939V171.775Z" fill="#EE9C34"></path> <path d="M458.452 171.766H339.759V19.1585H458.452V171.766Z" fill="#E4C9FF"></path> <path d="M339.759 19.1897V171.753H438.956V19.1897H339.759Z" fill="#E3721C"></path> <path d="M240.309 171.77H339.765V196.308H240.309V171.77Z" fill="#AD1B02"></path> <path d="M339.759 49.0057V171.747H458.536V49.0057H339.759Z" fill="#E88D14"></path> <path d="M339.759 49.0057V171.747H438.956V49.0057H339.759Z" fill="#D85604"></path> <path d="M401.782 171.77H339.759V98.1052H401.782V171.77Z" fill="#C14303"></path> <path d="M339.759 122.733V171.753H508.848V122.733H339.759Z" fill="#DB4E18"></path> <path d="M339.759 122.733V171.753H458.536V122.733H339.759Z" fill="#D1390D"></path> <path d="M339.759 122.733V171.753H438.956V122.733H339.759Z" fill="#C22303"></path> <path d="M339.759 122.733V171.753H401.87V122.733H339.759Z" fill="#AD1B02"></path> <path d="M361.399 264.196C344.477 267.166 335.452 279.786 335.452 301.685C335.452 323.956 347.485 338.803 365.16 338.803C373.809 338.803 381.33 335.834 397.124 328.039C397.124 346.227 397.124 346.227 397.124 346.227C377.946 355.135 366.664 357.362 351.622 357.362C334.7 357.362 322.666 353.279 313.265 343.258C303.487 333.607 298.222 320.987 298.222 306.511C298.222 274.96 322.29 253.061 357.263 253.061C380.202 253.061 396.372 263.825 396.372 279.043C396.372 289.065 388.851 296.118 377.946 296.118C372.305 296.118 367.792 294.262 361.399 290.921" fill="#192140"></path> <path d="M276.78 306.511C292.198 287.581 297.839 279.786 297.839 270.506C297.839 261.227 290.318 253.061 279.788 253.061C273.771 253.061 268.131 256.401 265.498 259.371C265.498 298.345 265.498 298.345 265.498 298.345C240.303 331.751 240.303 331.751 240.303 331.751C240.303 256.03 240.303 256.03 240.303 256.03C216.235 256.03 216.235 256.03 216.235 256.03C176.374 320.987 176.374 320.987 176.374 320.987C176.374 256.03 176.374 256.03 176.374 256.03C162.836 256.03 162.836 256.03 162.836 256.03C126.359 264.196 126.359 264.196 126.359 264.196C126.359 273.476 126.359 273.476 126.359 273.476C146.289 275.332 146.289 275.332 146.289 275.332C146.289 355.878 146.289 355.878 146.289 355.878C171.485 355.878 171.485 355.878 171.485 355.878C209.842 293.519 209.842 293.519 209.842 293.519C209.842 355.878 209.842 355.878 209.842 355.878C238.046 355.878 238.046 355.878 238.046 355.878" fill="#192140"></path> <path d="M50.015 343.265C53.0235 343.265 53.7756 343.265 55.6558 343.265C75.9627 343.265 87.2443 331.016 87.2443 306.518C87.2443 286.104 78.219 274.968 61.2966 274.968C59.0403 274.968 55.6558 275.339 50.015 276.453V343.265ZM50.015 387.064C66.5614 390.776 66.5614 390.776 66.5614 390.776C66.5614 400.056 66.5614 400.056 66.5614 400.056C1.50421 400.056 1.50422 400.056 1.50422 400.056C1.50422 390.776 1.50422 390.776 1.50422 390.776C16.5463 387.064 16.5463 387.064 16.5463 387.064C16.5463 274.968 16.5463 274.968 16.5463 274.968C-2.03703e-06 274.968 0 274.968 0 274.968C0 265.689 0 265.689 0 265.689C39.4855 253.811 39.4856 253.811 39.4856 253.811C50.015 253.811 50.015 253.811 50.015 253.811C50.015 267.173 50.015 267.173 50.015 267.173C68.4416 256.038 74.8345 254.182 84.6119 254.182C106.423 254.182 122.969 274.226 122.969 302.064C122.969 333.986 100.782 355.885 66.9374 355.885C63.1769 355.885 56.784 355.514 50.015 355.143" fill="#192140"></path> </svg> 