<?xml version="1.0" encoding="UTF-8"?> <svg xmlns="http://www.w3.org/2000/svg" width="36" height="36" viewBox="0 0 36 36" fill="none"> <g clip-path="url(#clip0_4822_80643)"> <rect width="36" height="36" rx="18" fill="#192140"></rect> <path d="M18 33C26.2843 33 33 26.2843 33 18C33 9.71573 26.2843 3 18 3C9.71573 3 3 9.71573 3 18C3 26.2843 9.71573 33 18 33Z" fill="#D7F8FF"></path> <path d="M18 0C8.05878 0 0 8.05878 0 18C0 27.9411 8.05878 36 18 36C27.9411 36 36 27.9411 36 18C36 8.05878 27.941 0 18 0ZM13.1975 26.7021H9.24546V13.9341H13.1975V26.7021ZM11.2027 12.262C9.91197 12.262 8.86563 11.2072 8.86563 9.90609C8.86563 8.60493 9.91212 7.5501 11.2027 7.5501C12.4932 7.5501 13.5396 8.60493 13.5396 9.90609C13.5397 11.2072 12.4933 12.262 11.2027 12.262ZM28.0079 26.7021H24.075V19.9999C24.075 18.1618 23.3768 17.1357 21.9233 17.1357C20.3414 17.1357 19.5149 18.2043 19.5149 19.9999V26.7021H15.7244V13.9341H19.5149V15.6537C19.5149 15.6537 20.6551 13.5446 23.3625 13.5446C26.0699 13.5446 28.008 15.1978 28.008 18.6176L28.0079 26.7021Z" fill="#192140"></path> </g> <defs> <clipPath id="clip0_4822_80643"> <rect width="36" height="36" rx="18" fill="white"></rect> </clipPath> </defs> </svg> 