<?xml version="1.0" encoding="UTF-8"?> <svg xmlns="http://www.w3.org/2000/svg" width="164" height="39" viewBox="0 0 164 39" fill="none"> <g clip-path="url(#clip0_4244_15031)"> <path d="M56.0043 10.168C59.9499 10.168 63.3808 11.706 66.0398 14.2693C68.4415 16.918 70.157 20.3358 70.157 24.2662V27.9403V34.6904C70.157 36.8265 68.6131 38.3645 66.4687 38.3645C63.2093 38.3645 59.521 38.3645 56.0043 38.3645C52.0587 38.3645 48.6277 36.8265 45.9687 34.2632C43.3097 31.6144 41.8516 28.1966 41.8516 24.2662C41.8516 20.3358 43.3955 16.918 45.9687 14.2693C48.6277 11.706 52.1445 10.168 56.0043 10.168ZM55.8327 32.3834H56.0901C58.2344 32.3834 60.2072 31.5289 61.7511 29.991C63.0378 28.7093 64.1528 26.4878 64.1528 24.3517C64.1528 22.2156 63.0378 19.994 61.7511 18.7124C60.2072 17.1744 58.2344 16.3199 55.8327 16.3199C53.6884 16.3199 51.7156 17.1744 50.1716 18.7124C48.6277 19.994 47.77 22.2156 47.77 24.3517C47.77 26.4878 48.6277 28.7093 50.1716 29.991C51.7156 31.5289 53.6026 32.3834 55.8327 32.3834Z" fill="#E52319"></path> <path d="M15.9463 20.4227C15.5175 17.6031 13.5447 16.0651 10.9714 16.0651C8.31243 16.0651 6.4254 17.6031 5.99653 20.1664C5.73921 20.5936 5.73921 22.8151 5.73921 23.4133V35.5463C5.73921 37.0843 4.4526 38.1951 2.90867 38.1951C1.36474 38.1951 0.078125 37.0843 0.078125 35.5463V21.2772C0.078125 13.929 4.88147 10.4258 10.9714 10.4258C14.0593 10.4258 17.3187 11.5366 18.8626 14.5271C20.5781 11.4511 23.8375 10.4258 26.9254 10.4258C33.0154 10.4258 37.8187 13.929 37.8187 21.2772V35.6317C37.8187 37.1697 36.5321 38.2805 34.9882 38.2805C33.4442 38.2805 32.1576 37.1697 32.1576 35.6317V23.4987C32.1576 22.8151 31.9003 20.6791 31.9003 20.2518C31.4714 17.6031 29.4986 16.1505 26.9254 16.1505C24.3522 16.1505 22.3794 17.6885 21.9505 20.5082C21.6932 21.1917 21.6932 22.0462 21.6932 22.9006C21.6932 27.0019 21.6932 31.6159 21.6932 35.7172C21.6932 37.2552 20.5781 38.3659 18.8626 38.3659C17.3187 38.3659 16.0321 37.2552 16.0321 35.7172C16.0321 31.6159 16.0321 27.0019 16.0321 22.9006C15.9463 21.9607 16.1179 21.1063 15.9463 20.4227Z" fill="#020203"></path> <path d="M103.781 13.2464C103.781 11.7084 105.068 10.5977 106.612 10.5977C108.156 10.5977 109.442 11.7084 109.442 13.2464V35.6327C109.442 37.1707 108.156 38.2815 106.612 38.2815C105.068 38.2815 103.781 37.1707 103.781 35.6327V13.2464Z" fill="#020203"></path> <path d="M106.607 7.0064C108.549 7.0064 110.123 5.43796 110.123 3.5032C110.123 1.56844 108.549 0 106.607 0C104.664 0 103.09 1.56844 103.09 3.5032C103.09 5.43796 104.664 7.0064 106.607 7.0064Z" fill="#020203"></path> <path d="M75.0423 15.2091C74.1846 14.0983 74.3561 12.1331 75.4712 11.2787C76.7578 10.4242 78.5591 10.5951 79.4168 11.7059L86.1929 19.9939L92.5402 11.7059C93.6553 10.5951 95.3708 10.4242 96.4858 11.2787C97.7724 12.3894 98.0298 14.0983 96.9147 15.2091L89.7097 24.3516L97.0863 33.665C98.2013 34.9466 97.944 36.7409 96.6574 37.7663C95.3708 38.6207 93.5695 38.4498 92.7118 37.339L85.9356 28.4529L79.4168 37.339C78.3017 38.4498 76.5863 38.6207 75.4712 37.7663C74.1846 36.6555 73.9273 34.9466 74.785 33.665L82.1616 24.3516L75.0423 15.2091Z" fill="#020203"></path> <path d="M131.481 20.4227C131.053 17.6031 129.08 16.0651 126.507 16.0651C123.848 16.0651 121.961 17.6031 121.532 20.1664C121.532 20.8499 121.274 22.8151 121.274 23.4133V35.5463C121.274 37.0843 120.159 38.1951 118.444 38.1951C116.9 38.1951 115.613 37.0843 115.613 35.5463V21.2772C115.613 13.929 120.417 10.4258 126.507 10.4258C129.594 10.4258 132.854 11.5366 134.569 14.5271C136.113 11.4511 139.373 10.4258 142.461 10.4258C148.551 10.4258 153.354 13.929 153.354 21.2772V35.6317C153.354 37.1697 152.067 38.2805 150.523 38.2805C148.979 38.2805 147.693 37.1697 147.693 35.6317V23.4987C147.693 22.8151 147.693 20.6791 147.435 20.2518C147.007 17.6031 145.034 16.1505 142.461 16.1505C140.059 16.1505 137.915 17.6885 137.486 20.5082C137.228 21.1917 137.486 22.0462 137.486 22.9006C137.486 27.0019 137.486 31.6159 137.486 35.7172C137.486 37.2552 136.199 38.3659 134.655 38.3659C133.111 38.3659 131.825 37.2552 131.825 35.7172C131.825 31.6159 131.825 27.0019 131.825 22.9006C131.825 22.0462 131.825 21.1917 131.825 20.5082H131.481V20.4227Z" fill="#020203"></path> <path d="M161.256 5.46755C161.17 4.61311 160.398 3.75867 159.54 3.84412C159.025 3.92956 158.511 3.84412 157.996 3.84412C157.653 3.84412 157.31 3.84412 156.967 3.84412C156.967 3.92956 156.967 4.015 156.967 4.015C156.967 5.55299 156.967 7.09098 156.967 8.62897C156.967 8.88531 157.053 9.05619 157.224 9.22708C157.396 9.39797 157.567 9.39797 157.825 9.39797C158.082 9.31253 158.168 9.14164 158.168 8.88531C158.168 8.71442 158.168 8.54353 158.168 8.37264C158.168 8.03087 158.082 7.68909 158.253 7.43276C158.597 7.34732 158.854 7.43276 159.025 7.77454C159.111 7.94542 159.283 8.11631 159.454 8.2872C159.712 8.62897 159.969 8.97075 160.226 9.22708C160.484 9.48341 160.827 9.48341 161.084 9.22708C161.256 9.05619 161.341 8.71442 161.17 8.45809C161.084 8.37264 160.998 8.2872 160.912 8.20176C160.655 7.94542 160.398 7.68909 160.141 7.43276C160.912 7.00554 161.341 6.40743 161.256 5.46755ZM159.54 6.32199C159.111 6.32199 158.682 6.32199 158.168 6.32199C158.168 5.89477 158.168 5.55299 158.168 5.12577C158.597 5.12577 159.111 5.12577 159.54 5.12577C159.969 5.12577 160.141 5.46755 160.141 5.72388C160.226 6.06566 159.883 6.32199 159.54 6.32199ZM162.714 3.50234C162.113 2.81879 161.427 2.22068 160.484 2.04979C159.883 1.87891 159.283 1.87891 158.768 1.87891C158.339 1.87891 157.996 1.96435 157.567 2.04979C156.624 2.22068 155.938 2.81879 155.337 3.50234C154.394 4.61311 153.879 5.89477 154.136 7.43276C154.565 10.0815 156.795 11.705 159.369 11.5341C161.599 11.3632 163.486 9.82519 163.915 7.43276C164.172 5.89477 163.743 4.61311 162.714 3.50234ZM160.312 10.167C160.141 10.2524 159.883 10.2524 159.712 10.3379C159.626 10.3379 159.54 10.3379 159.454 10.3379C159.369 10.3379 159.197 10.3379 159.111 10.3379C159.111 10.3379 159.111 10.3379 159.025 10.3379C156.881 10.3379 155.423 8.45809 155.337 6.49288C155.337 4.86944 156.795 2.98968 158.768 2.90423C158.854 2.90423 158.854 2.90423 158.94 2.90423H159.025C159.197 2.90423 159.369 2.90423 159.54 2.90423C161.427 3.07512 162.8 4.95489 162.8 6.49288C162.714 8.11631 161.77 9.56886 160.312 10.167Z" fill="black"></path> </g> <defs> <clipPath id="clip0_4244_15031"> <rect width="164" height="38.4498" fill="white"></rect> </clipPath> </defs> </svg> 