<?xml version="1.0" encoding="UTF-8"?> <svg xmlns="http://www.w3.org/2000/svg" width="138" height="35" viewBox="0 0 138 35" fill="none"> <path d="M0.201244 25.4395L1.93811 25.1604V9.0037L0 8.75004L0.100622 7H12.2324L11.9303 11.8953L9.51413 11.8192L9.3631 8.75004H5.61289V16.0294H7.24877L7.62642 14.3556L9.3127 14.4063V19.4284H7.62642L7.22375 17.7035H5.58769V25.4141H9.3631L9.71555 22.0661L12.2576 22.1423L12.4588 27.2403H0.126004L0.201244 25.4395ZM13.5916 27.2657L13.6672 25.7693L15.0262 25.4902V15.294L13.4406 15.1417V13.62L17.4174 13.0367L17.7194 13.899V14.4823C18.6758 13.4678 19.8336 12.859 21.3186 12.859C23.4834 12.859 25.094 14.1781 25.094 16.7904V25.4649L26.5289 25.7439L26.4533 27.2403H21.7213V17.5514C21.7213 16.1562 21.218 15.37 19.9594 15.37C19.5315 15.37 19.2295 15.4462 18.9024 15.5729C18.7012 15.7506 18.4996 16.0042 18.3235 16.2325V25.5156L19.7582 25.7947L19.6576 27.2911H13.5916V27.2657ZM89.629 27.2657L89.6794 25.7693L91.0384 25.4902V15.294L89.4528 15.1417V13.62L93.4296 13.0367L93.7317 13.899V14.4823C94.688 13.4678 95.8458 12.859 97.3308 12.859C99.4956 12.859 101.106 14.1781 101.106 16.7904V25.4649L102.541 25.7439L102.465 27.2403H97.7589V17.5514C97.7589 16.1562 97.2554 15.37 95.9968 15.37C95.569 15.37 95.2669 15.4462 94.9398 15.5729C94.7384 15.7506 94.537 16.0042 94.361 16.2325V25.5156L95.7956 25.7947L95.6948 27.2911H89.629V27.2657ZM34.0293 26.9866C33.4756 27.2149 32.494 27.4687 31.2104 27.4687C29.5239 27.4687 27.9633 26.7078 27.9633 24.2221V15.2939L26.3526 15.0404L26.4281 13.265L28.2403 13.1888L29.0205 10.4749L31.3362 10.3734V13.2902H33.828L33.6518 15.0658L31.3612 15.3194V24.2473C31.3612 24.9829 31.7641 25.4649 32.5192 25.4649H33.8783L34.0293 26.9866ZM128.239 27.2657L128.289 25.7947L129.573 25.4902V15.294L128.063 15.1417V13.62L132.191 13.0367L132.468 14.0257V14.3556C133.55 13.5438 135.01 13.0113 136.772 13.0113L137.376 13.5438L136.948 17.3991L134.683 17.3231L134.456 15.2687C133.928 15.3446 133.424 15.4969 132.996 15.8012V25.5156L134.431 25.8201L134.33 27.2911H128.239V27.2657ZM68.9647 27.2657L69.0403 25.7947L70.3239 25.4902V15.294L68.8137 15.1417V13.62L72.9415 13.0367L73.2184 14.0257V14.3556C74.3007 13.5438 75.7606 13.0113 77.5225 13.0113L78.1265 13.5438L77.6483 17.3991L75.3829 17.3231L75.1563 15.2687C74.628 15.3446 74.1245 15.4969 73.6966 15.8012V25.5156L75.1313 25.8201L75.0307 27.2911H68.9647V27.2657ZM35.036 27.2657L35.1116 25.7947L36.3952 25.4902V15.294L34.885 15.1417V13.62L39.0129 13.0367L39.2897 14.0257V14.3556C40.3721 13.5438 41.8319 13.0113 43.5686 13.0113L44.1727 13.5438L43.7448 17.3991L41.4795 17.3231L41.2528 15.2687C40.7244 15.3446 40.2211 15.4969 39.7932 15.8012V25.5156L41.2278 25.8201L41.1272 27.2911H35.036V27.2657ZM48.0739 21.0515C48.0739 23.4865 49.1309 25.3635 51.2202 25.3635C52.3026 25.3635 53.1583 25.1352 54.1651 24.6531L54.744 25.9976C53.712 26.8345 52.2018 27.4686 50.3141 27.4686C46.6393 27.4686 44.5251 24.2727 44.5251 20.1638C44.5251 16.6637 46.0604 12.8336 50.2637 12.8336C53.9387 12.8336 55.3229 16.2577 55.3229 20.0624L54.9704 20.9755L48.0739 21.0515ZM48.0237 19.4284L52.2522 19.2253C52.1766 17.526 51.8243 14.8375 50.1631 14.8375C49.7604 14.8375 49.4835 14.9135 48.9801 15.1671C48.3006 16.3341 48.0237 18.4391 48.0237 19.4284ZM106.568 21.0515C106.568 23.4865 107.625 25.3635 109.714 25.3635C110.797 25.3635 111.653 25.1352 112.659 24.6531L113.238 25.9976C112.206 26.8345 110.696 27.4686 108.808 27.4686C105.133 27.4686 103.019 24.2727 103.019 20.1638C103.019 16.6637 104.555 12.8336 108.758 12.8336C112.433 12.8336 113.817 16.2577 113.817 20.0624L113.465 20.9755L106.568 21.0515ZM106.518 19.4284L110.746 19.2253C110.671 17.526 110.318 14.8375 108.657 14.8375C108.255 14.8375 107.978 14.9135 107.474 15.1671C106.795 16.3341 106.518 18.4391 106.518 19.4284ZM82.0026 21.0515C82.0026 23.4865 83.0596 25.3635 85.1489 25.3635C86.2312 25.3635 87.087 25.1352 88.0936 24.6531L88.6725 25.9976C87.6407 26.8345 86.1304 27.4686 84.2427 27.4686C80.5678 27.4686 78.4538 24.2727 78.4538 20.1638C78.4538 16.6637 79.9891 12.8336 84.1923 12.8336C87.8671 12.8336 89.2515 16.2577 89.2515 20.0624L88.8991 20.9755L82.0026 21.0515ZM81.9522 19.4284L86.1808 19.2253C86.1052 17.526 85.753 14.8375 84.0917 14.8375C83.689 14.8375 83.412 14.9135 82.9087 15.1671C82.2292 16.3341 81.9272 18.4391 81.9522 19.4284ZM123.331 27.2657L122.979 26.0483C122.047 26.9359 121.141 27.4686 119.732 27.4686C117.567 27.4686 115.629 26.378 115.629 23.3596V14.939L114.044 14.7867V13.4425L118.624 12.9098L118.977 14.1273V22.9537C118.977 24.5008 119.606 25.3126 120.839 25.3126C121.192 25.3126 121.645 25.2618 122.047 25.1097C122.284 24.8707 122.495 24.6071 122.677 24.3233V14.9388L121.041 14.7867V13.4425L125.672 12.9098L126.024 14.1273V25.4902L127.459 25.7693L127.283 27.2657H123.331ZM62.1942 25.4395C61.4643 25.4395 60.8852 25.3127 60.4323 25.0591V16.1054C60.6335 15.801 60.8602 15.5221 61.0868 15.2685C61.5147 15.1162 61.8921 15.0656 62.345 15.0656C64.2329 15.0656 64.56 16.9931 64.56 20.4426C64.56 23.7654 64.0567 24.6785 63.9309 25.0589C63.4022 25.3126 62.8485 25.4393 62.194 25.4393L62.1942 25.4395ZM67.8321 19.8341C67.8321 15.5477 66.5737 12.859 63.4274 12.859C61.3383 12.859 60.3567 14.0765 59.954 14.5838V14.1017L59.6016 12.8844L55.4989 13.4678V14.9388L57.0848 15.1417V32.44L55.7256 32.7189L55.65 34.1647H61.7159L61.8165 32.7189L60.3819 32.44V26.9614C60.9608 27.2911 61.7663 27.4939 62.6471 27.4939C67.7817 27.4939 67.8321 22.2436 67.8321 19.8341Z" fill="#FAFAFA"></path> </svg> 