<?xml version="1.0" encoding="UTF-8"?> <svg xmlns="http://www.w3.org/2000/svg" width="96" height="33" viewBox="0 0 96 33" fill="none"> <path d="M89.3266 7L83.8634 19.9786H89.9795L95.4427 7H89.3266ZM82.0133 24.6474C82.0133 26.4465 83.4281 27.9456 85.3652 27.9456C87.3459 27.9456 88.826 26.4036 88.826 24.5404C88.826 22.7199 87.4112 21.2422 85.4741 21.2422C83.4934 21.2422 82.0133 22.827 82.0133 24.6474ZM76.4849 20.5354C76.4849 18.9292 75.266 17.6442 73.5683 17.6442C71.8923 17.6442 70.6517 18.9292 70.6517 20.5354C70.6517 22.1417 71.8923 23.4267 73.5683 23.4267C75.266 23.4267 76.4849 22.1417 76.4849 20.5354ZM60.0301 20.5354C60.0301 18.9292 58.8112 17.6442 57.1135 17.6442C55.4375 17.6442 54.1969 18.9292 54.1969 20.5354C54.1969 22.1417 55.4158 23.4267 57.1135 23.4267C58.8112 23.4267 60.0301 22.1417 60.0301 20.5354ZM24.7263 23.4695C23.0068 23.4695 21.7009 22.1845 21.7009 20.514C21.7009 18.8649 23.0068 17.5585 24.7263 17.5585C26.4022 17.5585 27.7299 18.8435 27.7299 20.514C27.7299 22.1845 26.424 23.4695 24.7263 23.4695ZM0.109375 13.3394L6.33434 27.7957L4.09248 33H9.55564L17.8483 13.3394H12.4069L9.03327 21.7562L5.68137 13.3394H0.109375ZM64.9056 20.5354C64.9056 24.8188 61.5537 28.0527 57.1135 28.0527C52.6733 28.0527 49.3214 24.8188 49.3214 20.5354C49.3214 16.2521 52.6733 13.0181 57.1135 13.0181C61.5754 12.9967 64.9056 16.2306 64.9056 20.5354ZM81.3604 20.5354C81.3604 24.8188 78.0085 28.0527 73.5683 28.0527C69.1281 28.0527 65.7762 24.8188 65.7762 20.5354C65.7762 16.2521 69.1281 13.0181 73.5683 13.0181C78.0085 13.0181 81.3604 16.2306 81.3604 20.5354ZM34.3031 7V27.6886H39.4398V20.0428C39.4398 18.5651 40.1581 17.6656 41.3334 17.6656C42.4652 17.6656 43.0964 18.4366 43.0964 19.8715V27.6886H48.2331V18.6722C48.2331 15.1812 46.3177 13.0181 43.227 13.0181C41.5728 13.0181 40.2887 13.6392 39.3963 14.7529V7H34.3031ZM27.6211 13.3394V14.6886C26.8375 13.682 25.3792 12.9967 23.7033 12.9967C19.7202 12.9967 16.7601 16.4662 16.7601 20.514C16.7601 24.6903 19.6984 28.0313 23.7033 28.0313C25.3792 28.0313 26.8375 27.3674 27.6211 26.318V27.6672H32.5837V13.3394H27.6211Z" fill="#6001D2"></path> </svg> 