<?xml version="1.0" encoding="UTF-8"?> <svg xmlns="http://www.w3.org/2000/svg" width="372" height="88" viewBox="0 0 372 88" fill="none"> <path d="M162.29 87.15C162.29 69.57 176.54 55.32 194.12 55.32C194.12 72.9 179.87 87.15 162.29 87.15Z" fill="white"></path> <path d="M0 85.94V24.37H14.07V34.63H14.71C15.83 31.08 17.76 28.34 20.48 26.41C23.23 24.46 26.37 23.48 29.9 23.48C30.7 23.48 31.6 23.52 32.59 23.6C33.61 23.65 34.45 23.75 35.12 23.88V37.23C34.51 37.02 33.53 36.83 32.19 36.67C30.88 36.48 29.61 36.39 28.38 36.39C25.73 36.39 23.36 36.96 21.25 38.11C19.17 39.23 17.52 40.8 16.32 42.8C15.12 44.8 14.52 47.12 14.52 49.73V85.93H0V85.94Z" fill="white"></path> <path d="M92.47 54.68C92.47 49.28 91.72 44.63 90.22 40.73C88.73 36.8 86.67 33.57 84.05 31.03C81.46 28.49 78.47 26.62 75.07 25.42C71.7 24.19 68.12 23.57 64.33 23.57C58.45 23.57 53.33 24.92 48.98 27.62C44.62 30.29 41.23 34.04 38.8 38.85C36.39 43.63 35.19 49.19 35.19 55.52C35.19 61.96 36.39 67.56 38.8 72.32C41.2 77.05 44.63 80.71 49.1 83.3C53.59 85.86 58.92 87.15 65.09 87.15C69.87 87.15 74.12 86.43 77.84 84.98C81.55 83.51 84.6 81.45 86.98 78.81C89.38 76.14 91.01 73.01 91.87 69.43L78.32 67.91C77.68 69.64 76.73 71.1 75.47 72.28C74.22 73.45 72.73 74.35 71.02 74.96C69.31 75.55 67.4 75.84 65.29 75.84C62.14 75.84 59.39 75.18 57.03 73.84C54.68 72.48 52.85 70.53 51.54 67.99C50.27 65.51 49.63 62.56 49.59 59.13H92.47V54.68ZM49.61 49.35C49.74 46.94 50.36 44.7 51.46 42.65C52.72 40.33 54.47 38.46 56.71 37.04C58.96 35.6 61.56 34.88 64.53 34.88C67.31 34.88 69.74 35.5 71.82 36.76C73.94 38.02 75.58 39.74 76.76 41.93C77.93 44.1 78.53 46.57 78.56 49.35H49.61Z" fill="white"></path> <path d="M117.36 19.52V24.37H130.11V35.6H117.36V85.94H102.81V35.6H93.71V24.37H102.81V18.56C102.81 14.42 103.67 10.97 105.38 8.22C107.12 5.47 109.44 3.41 112.35 2.05C115.27 0.68 118.5 0 122.05 0C124.57 0 126.8 0.2 128.75 0.6C130.7 1.01 132.14 1.37 133.08 1.69L130.19 12.91C129.58 12.72 128.8 12.54 127.87 12.35C126.93 12.14 125.89 12.03 124.74 12.03C122.04 12.03 120.13 12.68 119.01 13.99C117.91 15.28 117.36 17.12 117.36 19.52Z" fill="white"></path> <path d="M226.83 87.15C220.68 87.15 215.41 85.8 211 83.1C206.62 80.4 203.24 76.67 200.86 71.92C198.51 67.14 197.33 61.63 197.33 55.4C197.33 49.15 198.53 43.63 200.94 38.85C203.34 34.04 206.74 30.3 211.12 27.63C215.53 24.93 220.74 23.58 226.75 23.58C231.75 23.58 236.17 24.5 240.02 26.35C243.89 28.17 246.98 30.75 249.28 34.09C251.58 37.4 252.89 41.28 253.21 45.71H239.34C238.78 42.74 237.44 40.27 235.33 38.29C233.25 36.29 230.45 35.28 226.95 35.28C223.98 35.28 221.38 36.08 219.13 37.69C216.89 39.27 215.14 41.54 213.88 44.5C212.65 47.47 212.04 51.02 212.04 55.16C212.04 59.36 212.65 62.96 213.88 65.98C215.11 68.97 216.83 71.28 219.05 72.91C221.29 74.51 223.93 75.31 226.95 75.31C229.09 75.31 231 74.91 232.68 74.11C234.39 73.28 235.82 72.09 236.97 70.54C238.12 68.99 238.91 67.11 239.34 64.89H253.21C252.86 69.25 251.58 73.11 249.36 76.47C247.14 79.81 244.12 82.43 240.3 84.33C236.48 86.21 231.99 87.15 226.83 87.15Z" fill="white"></path> <path d="M297.95 60.05V24.37H312.46V85.94H298.39V75H297.75C296.36 78.45 294.08 81.27 290.9 83.46C287.75 85.65 283.86 86.75 279.24 86.75C275.21 86.75 271.64 85.85 268.54 84.06C265.47 82.24 263.06 79.61 261.32 76.16C259.58 72.69 258.71 68.49 258.71 63.57V24.37H273.22V61.33C273.22 65.23 274.29 68.33 276.43 70.63C278.57 72.93 281.37 74.08 284.85 74.08C286.99 74.08 289.06 73.56 291.06 72.52C293.06 71.48 294.71 69.93 295.99 67.87C297.29 65.78 297.95 63.18 297.95 60.05Z" fill="white"></path> <path d="M369.7 40.65L356.47 42.09C356.1 40.75 355.44 39.5 354.51 38.32C353.6 37.14 352.37 36.2 350.82 35.47C349.27 34.75 347.37 34.39 345.13 34.39C342.11 34.39 339.57 35.04 337.51 36.35C335.48 37.66 334.48 39.36 334.5 41.44C334.47 43.23 335.13 44.69 336.46 45.81C337.82 46.93 340.07 47.85 343.19 48.58L353.69 50.82C359.52 52.08 363.84 54.07 366.68 56.79C369.54 59.52 370.98 63.08 371.01 67.49C370.98 71.36 369.85 74.79 367.6 77.75C365.38 80.69 362.3 82.99 358.34 84.64C354.39 86.3 349.84 87.13 344.71 87.13C337.17 87.13 331.11 85.55 326.51 82.4C321.91 79.22 319.17 74.8 318.29 69.13L332.44 67.77C333.08 70.55 334.44 72.65 336.53 74.06C338.61 75.48 341.33 76.18 344.67 76.18C348.12 76.18 350.88 75.47 352.97 74.06C355.08 72.64 356.14 70.89 356.14 68.81C356.14 67.05 355.46 65.59 354.1 64.44C352.76 63.29 350.68 62.41 347.85 61.79L337.35 59.59C331.44 58.36 327.08 56.29 324.24 53.38C321.41 50.44 320 46.73 320.03 42.24C320 38.45 321.03 35.16 323.12 32.38C325.23 29.57 328.16 27.41 331.9 25.89C335.67 24.34 340.01 23.57 344.93 23.57C352.14 23.57 357.82 25.11 361.97 28.18C366.13 31.26 368.71 35.41 369.7 40.65Z" fill="white"></path> <path d="M194.12 55.32C176.54 55.32 162.29 41.07 162.29 23.49C179.87 23.49 194.12 37.74 194.12 55.32Z" fill="white"></path> <path d="M162.34 23.49C162.34 41.07 148.09 55.32 130.51 55.32C130.51 37.74 144.76 23.49 162.34 23.49Z" fill="white"></path> <path d="M130.51 55.32C148.09 55.32 162.34 69.57 162.34 87.15C144.76 87.15 130.51 72.9 130.51 55.32Z" fill="white"></path> </svg> 