<?xml version="1.0" encoding="UTF-8"?> <svg xmlns="http://www.w3.org/2000/svg" width="32" height="32" viewBox="0 0 32 32" fill="none"> <path d="M16.3632 2.33413L19.8156 9.42092C20.2325 10.2766 21.0383 10.8698 21.9704 11.0069L29.69 12.1433C30.4724 12.2585 30.7849 13.2327 30.2187 13.7918L24.6327 19.3082C23.9582 19.9742 23.6505 20.9339 23.8097 21.8743L25.1284 29.6635C25.262 30.453 24.444 31.055 23.7442 30.6822L16.8395 27.0048C16.0059 26.5607 15.0098 26.5607 14.1761 27.0048L7.27143 30.6822C6.57159 31.055 5.75365 30.453 5.88731 29.6635L7.20599 21.8743C7.36521 20.9339 7.05743 19.9742 6.38294 19.3082L0.796934 13.7918C0.230756 13.2327 0.543176 12.2585 1.32562 12.1433L9.04528 11.0069C9.97737 10.8698 10.7832 10.2766 11.2 9.42092L14.6524 2.33413C15.0023 1.61584 16.0133 1.61584 16.3632 2.33413Z" fill="#192140"></path> </svg> 