<?xml version="1.0" encoding="UTF-8"?> <svg xmlns="http://www.w3.org/2000/svg" width="344" height="82" viewBox="0 0 344 82" fill="none"> <g clip-path="url(#clip0_0_3)"> <path d="M0 79.4716V22.5358H13.011V32.0235H13.6028C14.6385 28.7407 16.4233 26.2069 18.9385 24.4222C21.4815 22.619 24.3852 21.7127 27.6495 21.7127C28.3893 21.7127 29.2216 21.7497 30.137 21.8237C31.0803 21.8699 31.857 21.9624 32.4766 22.0826V34.4278C31.9125 34.2336 31.0063 34.0579 29.7671 33.91C28.5557 33.7343 27.3813 33.651 26.2439 33.651C23.7934 33.651 21.6018 34.1781 19.6506 35.2416C17.7271 36.2773 16.2013 37.7291 15.0916 39.5786C13.982 41.428 13.4271 43.5734 13.4271 45.987V79.4623H0V79.4716Z" fill="#DCF10D"></path> <path d="M85.5124 50.5643C85.5124 45.5707 84.8189 41.2707 83.4318 37.6643C82.0539 34.0301 80.1489 31.0432 77.7262 28.6944C75.3311 26.3455 72.5661 24.6163 69.4221 23.5066C66.3057 22.3692 62.9952 21.7958 59.4904 21.7958C54.053 21.7958 49.3184 23.0442 45.2958 25.541C41.2639 28.0101 38.1291 31.4778 35.882 35.9258C33.6534 40.346 32.5437 45.4875 32.5437 51.3411C32.5437 57.2963 33.6534 62.4748 35.882 66.8766C38.1014 71.2506 41.2732 74.6351 45.4067 77.0301C49.5588 79.3974 54.4876 80.5904 60.1932 80.5904C64.6134 80.5904 68.5436 79.9245 71.9836 78.5837C75.4143 77.2243 78.2348 75.3194 80.4356 72.8781C82.6551 70.409 84.1623 67.5146 84.9576 64.2041L72.4274 62.7986C71.8356 64.3984 70.9571 65.7484 69.7919 66.8396C68.636 67.9215 67.2582 68.7538 65.6769 69.3179C64.0956 69.8635 62.3294 70.1316 60.3782 70.1316C57.4653 70.1316 54.9222 69.5213 52.7399 68.2822C50.5668 67.0245 48.8745 65.2213 47.6631 62.8725C46.4887 60.5791 45.8969 57.8512 45.8599 54.6793H85.5124V50.5643ZM45.8784 45.6355C45.9986 43.4069 46.5719 41.3354 47.5891 39.4397C48.7543 37.2944 50.3726 35.5651 52.444 34.252C54.5246 32.9204 56.9289 32.2546 59.6754 32.2546C62.2461 32.2546 64.4932 32.8279 66.4167 33.9931C68.3771 35.1582 69.8937 36.7488 70.9849 38.7739C72.0668 40.7806 72.6216 43.0647 72.6494 45.6355H45.8784Z" fill="#DCF10D"></path> <path d="M108.523 18.0508V22.5357H120.313V32.9205H108.523V79.4715H95.068V32.9205H86.6529V22.5357H95.068V17.163C95.068 13.3346 95.8632 10.1443 97.4445 7.6013C99.0536 5.05829 101.199 3.15334 103.89 1.8957C106.59 0.628818 109.577 0 112.86 0C115.19 0 117.252 0.184947 119.056 0.55484C120.859 0.93398 122.19 1.26688 123.06 1.5628L120.387 11.9383C119.823 11.7626 119.102 11.5962 118.242 11.4205C117.373 11.2263 116.411 11.1245 115.347 11.1245C112.851 11.1245 111.084 11.7256 110.049 12.937C109.031 14.1299 108.523 15.8314 108.523 18.0508Z" fill="#DCF10D"></path> <path d="M209.757 80.5905C204.07 80.5905 199.197 79.3421 195.119 76.8453C191.069 74.3485 187.943 70.8993 185.742 66.5068C183.569 62.0866 182.478 56.9913 182.478 51.2302C182.478 45.4506 183.587 40.3461 185.816 35.9259C188.035 31.4779 191.18 28.0194 195.23 25.5504C199.308 23.0536 204.126 21.8052 209.683 21.8052C214.307 21.8052 218.394 22.6559 221.955 24.3667C225.533 26.0497 228.391 28.4355 230.518 31.5241C232.645 34.585 233.856 38.173 234.152 42.2695H221.326C220.808 39.5231 219.569 37.239 217.618 35.408C215.694 33.5586 213.105 32.6246 209.868 32.6246C207.122 32.6246 204.718 33.3644 202.637 34.8532C200.566 36.3143 198.947 38.4134 197.782 41.1506C196.645 43.8971 196.081 47.1799 196.081 51.0083C196.081 54.8921 196.645 58.2212 197.782 61.0139C198.92 63.7788 200.51 65.915 202.563 67.4223C204.634 68.9018 207.076 69.6416 209.868 69.6416C211.847 69.6416 213.614 69.2717 215.167 68.5319C216.748 67.7644 218.071 66.664 219.134 65.2306C220.198 63.7973 220.928 62.0588 221.326 60.0059H234.152C233.828 64.0377 232.645 67.6072 230.592 70.7143C228.539 73.8029 225.746 76.2257 222.214 77.9827C218.681 79.7212 214.529 80.5905 209.757 80.5905Z" fill="#DCF10D"></path> <path d="M275.524 55.5302V22.5357H288.942V79.4715H275.931V69.355H275.339C274.054 72.5453 271.946 75.153 269.005 77.1782C266.092 79.2034 262.495 80.2206 258.222 80.2206C254.496 80.2206 251.195 79.3883 248.328 77.733C245.489 76.05 243.26 73.618 241.651 70.4277C240.042 67.2188 239.238 63.335 239.238 58.7853V22.5357H252.656V56.7139C252.656 60.3203 253.645 63.187 255.624 65.3139C257.603 67.4408 260.192 68.5042 263.41 68.5042C265.389 68.5042 267.303 68.0233 269.153 67.0616C271.002 66.0999 272.528 64.6666 273.712 62.7616C274.914 60.8289 275.524 58.4246 275.524 55.5302Z" fill="#DCF10D"></path> <path d="M341.873 37.5903L329.638 38.9219C329.296 37.6828 328.686 36.5268 327.826 35.4357C326.984 34.3445 325.847 33.4752 324.414 32.8002C322.98 32.1344 321.223 31.8015 319.152 31.8015C316.359 31.8015 314.01 32.4025 312.106 33.6139C310.228 34.8253 309.304 36.3974 309.322 38.3208C309.294 39.9761 309.905 41.3262 311.135 42.3619C312.392 43.3976 314.473 44.2484 317.358 44.9234L327.068 46.9948C332.459 48.16 336.454 50.0002 339.08 52.5155C341.725 55.04 343.056 58.332 343.084 62.4101C343.056 65.9888 342.011 69.1607 339.931 71.8979C337.878 74.6166 335.03 76.7435 331.368 78.2693C327.715 79.8043 323.507 80.5719 318.764 80.5719C311.791 80.5719 306.187 79.1108 301.933 76.1979C297.68 73.2572 295.146 69.1699 294.332 63.9267L307.417 62.669C308.009 65.2398 309.267 67.1817 311.199 68.4856C313.123 69.7987 315.638 70.446 318.727 70.446C321.917 70.446 324.469 69.7895 326.402 68.4856C328.353 67.1725 329.333 65.5542 329.333 63.6308C329.333 62.0032 328.704 60.6531 327.447 59.5897C326.208 58.5262 324.284 57.7125 321.667 57.1391L311.958 55.1047C306.492 53.9673 302.461 52.0531 299.834 49.3621C297.217 46.6434 295.913 43.2127 295.941 39.0606C295.913 35.5559 296.866 32.5135 298.799 29.9427C300.75 27.3442 303.459 25.3468 306.918 23.9412C310.404 22.5079 314.417 21.7958 318.967 21.7958C325.634 21.7958 330.887 23.2199 334.724 26.0589C338.571 28.907 340.957 32.7447 341.873 37.5903Z" fill="#DCF10D"></path> <path d="M179.509 51.1562C163.252 51.1562 150.075 37.9788 150.075 21.722C166.332 21.722 179.509 34.8994 179.509 51.1562Z" fill="#DCF10D"></path> <path d="M150.075 80.5904C150.075 64.3336 163.252 51.1562 179.509 51.1562C179.509 67.413 166.332 80.5904 150.075 80.5904Z" fill="#DCF10D"></path> <path d="M150.124 21.722C150.124 37.9788 136.947 51.1562 120.69 51.1562C120.69 34.8994 133.868 21.722 150.124 21.722Z" fill="#DCF10D"></path> <path d="M120.69 51.1562C136.947 51.1562 150.124 64.3336 150.124 80.5904C133.868 80.5904 120.69 67.413 120.69 51.1562Z" fill="#DCF10D"></path> </g> <defs> <clipPath id="clip0_0_3"> <rect width="85.9259" height="20.3266" fill="white" transform="scale(4.00346)"></rect> </clipPath> </defs> </svg> 