<?xml version="1.0" encoding="UTF-8"?> <svg xmlns="http://www.w3.org/2000/svg" width="36" height="36" viewBox="0 0 36 36" fill="none"> <g clip-path="url(#clip0_4822_80596)"> <g clip-path="url(#clip1_4822_80596)"> <path d="M31.5 0H4.5C2.01472 0 0 2.01472 0 4.5V31.5C0 33.9853 2.01472 36 4.5 36H31.5C33.9853 36 36 33.9853 36 31.5V4.5C36 2.01472 33.9853 0 31.5 0Z" fill="#192140"></path> <path d="M14.4001 18.0002C14.4001 16.0121 16.0114 14.3999 17.9997 14.3999C19.9879 14.3999 21.6001 16.0121 21.6001 18.0002C21.6001 19.9883 19.9879 21.6005 17.9997 21.6005C16.0114 21.6005 14.4001 19.9883 14.4001 18.0002ZM12.4537 18.0002C12.4537 21.0631 14.9367 23.5458 17.9997 23.5458C21.0627 23.5458 23.5455 21.0631 23.5455 18.0002C23.5455 14.9373 21.0627 12.4545 17.9997 12.4545C14.9367 12.4545 12.4537 14.9372 12.4537 18.0002ZM22.4692 12.2346C22.469 12.491 22.5449 12.7416 22.6873 12.9548C22.8296 13.1679 23.032 13.3341 23.2687 13.4323C23.5055 13.5305 23.7661 13.5562 24.0175 13.5063C24.2689 13.4565 24.4999 13.3331 24.6813 13.152C24.8626 12.9708 24.9861 12.7399 25.0363 12.4885C25.0864 12.2371 25.0608 11.9765 24.9628 11.7396C24.8648 11.5028 24.6987 11.3003 24.4857 11.1579C24.2726 11.0153 24.0221 10.9392 23.7657 10.9392H23.7652C23.4216 10.9393 23.0921 11.0759 22.8491 11.3187C22.6061 11.5617 22.4694 11.8911 22.4692 12.2346ZM13.6363 26.7912C12.5833 26.7433 12.0109 26.5679 11.6306 26.4197C11.1264 26.2234 10.7666 25.9896 10.3883 25.6119C10.01 25.2342 9.77586 24.8747 9.58041 24.3705C9.43215 23.9903 9.25674 23.4178 9.20889 22.3648C9.15651 21.2265 9.14607 20.8845 9.14607 18.0003C9.14607 15.1163 9.15738 14.7753 9.20889 13.6359C9.25683 12.5829 9.43353 12.0115 9.58041 11.6303C9.77673 11.126 10.0105 10.7663 10.3883 10.388C10.766 10.0098 11.1255 9.77561 11.6306 9.58019C12.0108 9.4319 12.5833 9.25652 13.6363 9.20867C14.7747 9.15629 15.1167 9.14585 17.9997 9.14585C20.8826 9.14585 21.2249 9.15698 22.3643 9.20882C23.4173 9.25679 23.9887 9.43346 24.37 9.58034C24.8743 9.77579 25.234 10.0104 25.6123 10.3882C25.9906 10.766 26.2239 11.1262 26.4202 11.6304C26.5685 12.0106 26.7439 12.5831 26.7917 13.6361C26.8441 14.7754 26.8546 15.1164 26.8546 18.0006C26.8546 20.8846 26.8441 21.2257 26.7917 22.365C26.7438 23.418 26.5675 23.9903 26.4202 24.3706C26.2239 24.8749 25.9901 25.2347 25.6123 25.612C25.2346 25.9894 24.8743 26.2236 24.37 26.4199C23.9899 26.5681 23.4173 26.7435 22.3643 26.7914C21.2259 26.8438 20.8839 26.8542 17.9997 26.8542C15.1154 26.8542 14.7744 26.8436 13.6363 26.7912ZM13.5468 7.2656C12.397 7.31798 11.6114 7.50026 10.9253 7.76723C10.2151 8.04296 9.61317 8.41283 9.01206 9.01295C8.41095 9.6131 8.04201 10.2151 7.76628 10.9261C7.49928 11.6126 7.317 12.3979 7.26462 13.5475C7.2114 14.6991 7.19922 15.0672 7.19922 18.0002C7.19922 20.9331 7.2114 21.3013 7.26462 22.4529C7.317 23.6027 7.49928 24.3877 7.76628 25.0743C8.04201 25.7844 8.41104 26.3876 9.01206 26.9874C9.61308 27.5873 10.2143 27.9567 10.9253 28.2332C11.6127 28.5001 12.397 28.6824 13.5468 28.7348C14.699 28.7872 15.0666 28.8002 17.9997 28.8002C20.9327 28.8002 21.3009 28.788 22.4525 28.7348C23.6023 28.6824 24.3875 28.5001 25.0741 28.2332C25.7842 27.9567 26.3861 27.5876 26.9873 26.9874C27.5884 26.3873 27.9565 25.7844 28.2331 25.0743C28.5 24.3877 28.6832 23.6025 28.7347 22.4529C28.7871 21.3004 28.7992 20.9331 28.7992 18.0002C28.7992 15.0672 28.7871 14.6991 28.7347 13.5475C28.6823 12.3977 28.5 11.6122 28.2331 10.9261C27.9565 10.216 27.5874 9.61406 26.9873 9.01295C26.3871 8.41187 25.7842 8.04296 25.0749 7.76723C24.3875 7.50026 23.6022 7.31711 22.4533 7.2656C21.3016 7.21298 20.9336 7.2002 18.001 7.2002C15.0683 7.2002 14.6994 7.21238 13.5473 7.2656" fill="#D7F8FF"></path> </g> </g> <defs> <clipPath id="clip0_4822_80596"> <rect width="36" height="36" rx="18" fill="white"></rect> </clipPath> <clipPath id="clip1_4822_80596"> <rect width="36" height="36" fill="white"></rect> </clipPath> </defs> </svg> 