<?xml version="1.0" encoding="UTF-8"?> <svg xmlns="http://www.w3.org/2000/svg" width="700" height="235" viewBox="0 0 700 235" fill="none"> <path d="M297.891 120.06C297.891 152.558 272.182 176.506 240.63 176.506C209.079 176.506 183.37 152.558 183.37 120.06C183.37 87.3322 209.079 63.6136 240.63 63.6136C272.182 63.6136 297.891 87.3322 297.891 120.06ZM272.825 120.06C272.825 99.7514 257.924 85.8562 240.63 85.8562C223.336 85.8562 208.436 99.7514 208.436 120.06C208.436 140.165 223.336 154.263 240.63 154.263C257.924 154.263 272.825 140.139 272.825 120.06Z" fill="#EA4335"></path> <path d="M421.429 120.06C421.429 152.558 395.72 176.506 364.169 176.506C332.618 176.506 306.908 152.558 306.908 120.06C306.908 87.3577 332.618 63.6136 364.169 63.6136C395.72 63.6136 421.429 87.3322 421.429 120.06ZM396.363 120.06C396.363 99.7514 381.463 85.8562 364.169 85.8562C346.875 85.8562 331.974 99.7514 331.974 120.06C331.974 140.165 346.875 154.263 364.169 154.263C381.463 154.263 396.363 140.139 396.363 120.06Z" fill="#FBBC05"></path> <path d="M539.779 67.0238V168.362C539.779 210.048 514.919 227.073 485.529 227.073C457.864 227.073 441.213 208.775 434.934 193.811L456.757 184.828C460.643 194.015 470.165 204.856 485.504 204.856C504.316 204.856 515.974 193.379 515.974 171.772V163.654H515.099C509.489 170.5 498.68 176.481 485.04 176.481C456.5 176.481 430.353 151.897 430.353 120.263C430.353 88.4011 456.5 63.6136 485.04 63.6136C498.654 63.6136 509.463 69.5942 515.099 76.2364H515.974V67.0493H539.779V67.0238ZM517.75 120.263C517.75 100.388 504.342 85.8562 487.279 85.8562C469.985 85.8562 455.496 100.388 455.496 120.263C455.496 139.936 469.985 154.263 487.279 154.263C504.342 154.263 517.75 139.936 517.75 120.263Z" fill="#4285F4"></path> <path d="M579.059 7.61175V173.031H554.611V7.61175H579.059Z" fill="#34A853"></path> <path d="M674.367 138.632L693.823 151.458C687.544 160.645 672.412 176.475 646.265 176.475C613.838 176.475 589.622 151.687 589.622 120.029C589.622 86.4611 614.044 63.5824 643.46 63.5824C673.081 63.5824 687.569 86.8938 692.305 99.4911L694.904 105.904L618.599 137.156C624.441 148.481 633.526 154.258 646.265 154.258C659.029 154.258 667.882 148.048 674.367 138.632ZM614.482 118.323L665.489 97.3788C662.684 90.3294 654.243 85.4177 644.309 85.4177C631.57 85.4177 613.838 96.539 614.482 118.323Z" fill="#EA4335"></path> <path d="M90.8304 105.377V81.429H172.436C173.234 85.6026 173.646 90.5398 173.646 95.8841C173.646 113.851 168.679 136.068 152.672 151.898C137.102 167.931 117.209 176.481 90.8561 176.481C42.011 176.481 0.937793 137.137 0.937793 88.8347C0.937793 40.5322 42.011 1.18787 90.8561 1.18787C117.878 1.18787 137.128 11.6729 151.591 25.3391L134.503 42.2373C124.132 32.6175 110.08 25.1355 90.8304 25.1355C55.1616 25.1355 27.2648 53.5622 27.2648 88.8347C27.2648 124.107 55.1616 152.534 90.8304 152.534C113.966 152.534 127.143 143.347 135.584 134.999C142.429 128.23 146.933 118.559 148.709 105.351L90.8304 105.377Z" fill="#4285F4"></path> </svg> 