<?xml version="1.0" encoding="UTF-8"?> <svg xmlns="http://www.w3.org/2000/svg" width="888" height="390" viewBox="0 0 888 390" fill="none"> <g clip-path="url(#clip0_476_4725)"> <path d="M323.032 348.932L322.574 337.975H278.752L278.296 348.932C278.524 349.008 278.752 349.084 278.979 349.084C280.201 349.084 281.036 347.414 281.874 345.964C283.622 342.921 285.6 342.238 289.026 342.238H294.652V388.644C296.63 388.264 298.609 388.11 300.741 388.11C302.335 388.11 304.847 388.264 306.596 388.641V342.238H312.23C316.035 342.238 317.783 342.999 319.604 346.192C320.368 347.563 321.203 349.005 322.347 349.005C322.574 349.005 322.802 349.005 323.03 348.932H323.032ZM359.85 367.646C359.85 374.188 358.251 385.451 349.578 385.451C339.838 385.451 338.169 375.635 338.169 367.952C338.169 360.878 339.767 350.149 348.895 350.149C357.952 350.149 359.85 360.572 359.85 367.646ZM371.793 368.025C371.793 354.409 363.047 346.04 349.505 346.04C337.103 346.04 326.222 353.954 326.222 367.112C326.222 381.112 334.976 389.628 348.741 389.628C361.676 389.628 371.793 381.418 371.793 368.025ZM408.006 376.47C408.006 382.332 405.114 384.839 399.48 384.839C396.29 384.839 394.919 384.533 394.919 381.947V368.711H396.439C398.496 368.711 400.93 368.865 401.995 369.09C405.648 369.852 408.006 372.437 408.006 376.47ZM405.572 356.995C405.572 363.006 402.45 364.754 396.819 364.754C396.138 364.754 395.529 364.754 394.921 364.678V351.975C394.921 350.832 395.377 350.678 397.282 350.678C401.16 350.678 405.572 351.669 405.572 356.995ZM419.871 377.234C419.871 370.003 412.724 365.976 406.329 365.44C411.505 364.984 416.524 361.564 416.524 355.93C416.524 351.062 412.117 348.626 407.778 347.791C404.279 347.108 401.537 347.108 397.127 347.108H379.097C379.097 348.55 381.075 349.312 381.984 350.298C383.661 352.054 383.739 354.715 383.739 357.073V388.644H401.231C407.014 388.644 410.518 388.264 413.711 386.665C417.136 384.996 419.871 381.874 419.871 377.234ZM450.7 372.209H437.616L444.54 356.003L450.7 372.209ZM468.885 388.644L454.204 352.049C452.906 348.778 452.072 347.105 448.874 347.105H436.629C436.629 349.382 440.657 348.856 440.657 352.049C440.657 353.268 439.822 355.322 439.291 356.615L425.442 388.644H430.618L435.716 376.7H452.299L456.942 388.641C458.839 388.262 460.896 388.186 462.722 388.186C464.772 388.186 466.828 388.337 468.885 388.641V388.644ZM511.326 358.594L510.869 349.157C507.676 347.257 503.185 346.344 498.996 346.344C486.524 346.344 475.341 354.561 475.341 367.797C475.341 381.646 485.765 389.327 498.852 389.327C502.73 389.327 508.435 388.338 511.096 385.674V379.592C508.435 382.481 505.164 384.687 500.825 384.687C491.09 384.687 487.285 375.713 487.285 367.19C487.285 359.429 491.163 350.377 499.838 350.377C502.044 350.377 503.871 350.832 505.315 351.975C506.535 352.886 507.296 354.331 508.205 356.689C508.66 358.06 509.576 358.821 510.562 358.821C510.869 358.821 511.096 358.745 511.326 358.594ZM557.186 358.594L556.73 349.157C553.538 347.257 549.047 346.344 544.865 346.344C532.385 346.344 521.203 354.561 521.203 367.797C521.203 381.646 531.626 389.327 544.706 389.327C548.592 389.327 554.302 388.338 556.958 385.674V379.592C554.302 382.481 551.025 384.687 546.692 384.687C536.952 384.687 533.147 375.713 533.147 367.19C533.147 359.429 537.025 350.377 545.7 350.377C547.906 350.377 549.733 350.832 551.18 351.975C552.394 352.886 553.158 354.331 554.066 356.689C554.522 358.06 555.438 358.821 556.429 358.821C556.73 358.821 556.961 358.745 557.188 358.594H557.186ZM600.695 367.646C600.695 374.188 599.098 385.451 590.423 385.451C580.686 385.451 579.014 375.635 579.014 367.952C579.014 360.878 580.607 350.149 589.74 350.149C598.792 350.149 600.695 360.572 600.695 367.646ZM612.641 368.025C612.641 354.409 603.887 346.04 590.352 346.04C577.951 346.04 567.07 353.954 567.07 367.112C567.07 381.112 575.816 389.628 589.586 389.628C602.524 389.628 612.641 381.418 612.641 368.025ZM134.462 296.5C134.462 303.652 131.042 307.224 124.801 307.224C121.074 307.224 119.475 306.85 119.475 303.725V286.763H121.302C125.18 286.763 129.972 287.296 132.56 290.638C133.796 292.343 134.461 294.395 134.462 296.5ZM131.571 273.218C131.571 280.066 128.221 282.426 121.681 282.426C120.92 282.426 120.234 282.426 119.475 282.272V266.144C119.475 264.773 120.006 264.474 122.21 264.474C127.692 264.474 131.571 267.591 131.571 273.22V273.218ZM147.17 297.413C147.17 288.589 138.872 283.949 131.571 283.264C137.503 282.727 143.213 278.315 143.213 271.469C143.213 265.458 138.189 262.493 133.169 261.502C129.213 260.667 126.015 260.667 120.996 260.667H102.434C102.434 262.418 104.946 263.409 105.933 264.545C107.681 266.529 107.759 269.491 107.759 272.762V311.335H125.714C132.335 311.335 136.289 310.88 140.015 308.978C143.899 306.852 147.17 303.04 147.17 297.413ZM180.749 281.129C180.749 285.999 178.849 290.034 173.367 290.034C171.545 290.034 169.567 289.955 169.567 287.977V273.903C170.326 273.675 171.616 273.524 173.673 273.524C175.651 273.524 177.556 274.131 178.621 275.196C180.063 276.567 180.746 278.695 180.746 281.129H180.749ZM203.88 310.88C203.88 310.652 203.723 310.571 203.424 310.495C202.966 310.42 202.582 310.344 202.124 310.268C199.769 309.736 197.256 307.91 194.749 305.246C192.386 302.891 189.424 299.164 185.996 295.202L182.196 290.79C186.375 289.348 192.159 285.771 192.159 279.988C192.159 277.48 191.172 275.196 189.652 273.749C185.996 270.328 180.291 269.792 174.892 269.792H153.664C153.664 271.391 155.263 271.469 156.556 272.911C157.547 273.977 158.385 275.803 158.385 279.459V311.335C160.211 310.951 162.417 310.88 164.09 310.88C165.608 310.88 167.743 310.951 169.569 311.335V293.608C170.632 293.682 171.469 293.912 172.684 295.05C176.112 298.478 180.218 306.688 185.622 309.658C188.741 311.409 193.915 311.715 196.348 311.715C198.251 311.715 202.127 311.563 203.576 311.335C203.804 311.259 203.88 311.103 203.88 310.88ZM222.259 311.335V271.012C222.259 270.253 221.88 269.797 221.118 269.797H206.362C206.362 271.239 207.879 271.391 209.175 272.917C210.237 274.06 211.08 275.882 211.08 279.765V311.335C212.674 311.029 214.649 310.88 216.633 310.88C218.384 310.88 220.739 311.029 222.259 311.335ZM269.852 279.38L269.543 269.792H232.725L232.346 279.456C232.498 279.456 232.725 279.532 232.877 279.532C233.712 279.532 234.324 278.697 234.853 277.711C236.452 274.741 237.439 273.903 241.17 273.903H245.504V311.335C247.181 311.029 249.309 310.88 251.138 310.88C252.428 310.88 255.166 311.029 256.686 311.335V273.903H261.025C265.131 273.903 265.973 274.968 267.567 277.933C268.022 278.844 268.63 279.459 269.315 279.459C269.543 279.459 269.7 279.459 269.852 279.383V279.38ZM291.442 311.335V271.012C291.442 270.253 291.062 269.797 290.298 269.797H275.539C275.539 271.239 277.062 271.391 278.352 272.917C279.417 274.06 280.257 275.882 280.257 279.765V311.335C281.851 311.029 283.829 310.88 285.808 310.88C287.561 310.88 289.919 311.029 291.439 311.335H291.442ZM332.411 299.847C332.411 285.776 313.697 286.919 313.697 277.938C313.697 274.515 317.196 272.767 320.087 272.767C321.838 272.767 323.28 273.147 324.272 273.675C326.02 274.589 327.085 276.188 327.692 277.632C328.606 279.843 329.291 280.752 330.662 280.752C330.89 280.752 331.118 280.676 331.345 280.524L330.662 271.168C327.313 269.721 323.966 269.036 319.784 269.036C316.055 269.036 312.556 269.797 309.738 271.168C305.859 273.068 303.119 276.646 303.119 280.6C303.119 294.823 321.459 293.001 321.459 302.66C321.459 306.238 318.182 308.064 314.911 308.064C309.131 308.064 305.323 304.183 302.282 299.619V309.051C306.694 311.335 310.58 312.17 315.675 312.17C324.957 312.17 332.411 307.609 332.411 299.85V299.847ZM382.841 311.335V269.797H371.654V286.611H354.997V270.943C354.997 270.331 354.618 269.8 353.854 269.8H339.175C339.175 271.394 340.845 271.472 342.216 273.22C343.203 274.591 343.815 276.269 343.815 279.689V311.338C345.637 310.958 347.615 310.883 349.52 310.883C351.347 310.883 353.168 310.958 354.997 311.338V291.104H371.654V311.338C373.481 310.958 375.459 310.883 377.364 310.883C379.191 310.883 381.012 310.958 382.841 311.338V311.335ZM446.678 291.552H430.628L439.146 270.784L446.678 291.552ZM466.155 311.335L449.268 266.673C447.819 262.719 446.678 260.667 443.03 260.667H430.55C430.55 263.48 434.734 262.488 434.734 266.673C434.734 268.198 433.821 270.705 433.135 272.304L416.78 311.335H422.56L428.645 296.343H448.428L453.825 311.335C455.782 310.957 457.772 310.778 459.765 310.802C462.12 310.802 463.947 310.953 466.155 311.335ZM526.784 311.335L521.153 281.356C520.697 278.928 520.242 275.882 520.242 273.296C520.242 272.155 520.394 270.705 521.001 269.797H513.011C510.428 269.797 509.819 270.86 508.751 273.147L499.396 293.302L489.504 271.545C488.896 270.098 488.517 269.8 486.918 269.8H474.367C474.367 271.014 475.503 271.621 476.801 272.61C477.864 273.445 478.929 274.741 478.929 277.101C478.929 277.86 478.701 279.307 478.549 280.066L471.552 311.335H476.644L482.812 282.044L495.74 312.021L509.819 281.435L515.597 311.335C517.117 311.029 519.402 310.88 521.302 310.88C523.058 310.88 525.185 311.029 526.784 311.335ZM568.196 302.433C567.979 302.34 567.748 302.289 567.513 302.281C564.922 302.281 566.448 307.002 558.987 307.002H549.629V291.253H564.163V286.684H549.629V274.06H561.35C563.171 274.06 564.998 274.591 566.063 275.426L565.835 269.797H533.731C533.731 271.318 535.249 271.548 536.547 272.917C537.612 274.06 538.447 275.803 538.447 279.537V307.915C538.447 311.029 538.675 311.335 541.946 311.335H565.456C567.126 311.335 567.434 309.964 567.662 307.682L568.196 302.433ZM601.175 281.129C601.175 285.999 599.275 290.034 593.793 290.034C591.972 290.034 589.988 289.955 589.988 287.977V273.903C590.752 273.675 592.042 273.524 594.099 273.524C596.078 273.524 597.978 274.131 599.045 275.196C600.495 276.567 601.175 278.695 601.175 281.129ZM624.306 310.88C624.306 310.652 624.149 310.571 623.843 310.495C623.39 310.42 623.013 310.344 622.55 310.268C620.195 309.736 617.685 307.91 615.173 305.246C612.818 302.891 609.848 299.164 606.422 295.202L602.622 290.79C606.807 289.348 612.585 285.771 612.585 279.988C612.585 277.48 611.598 275.196 610.075 273.749C606.422 270.328 600.717 269.792 595.319 269.792H574.093C574.093 271.391 575.687 271.469 576.985 272.911C577.976 273.977 578.806 275.803 578.806 279.459V311.335C580.635 310.951 582.841 310.88 584.516 310.88C586.036 310.88 588.167 310.951 589.988 311.335V293.608C591.058 293.682 591.893 293.912 593.113 295.05C596.533 298.478 600.644 306.688 606.043 309.658C609.162 311.409 614.333 311.715 616.772 311.715C618.672 311.715 622.55 311.563 623.997 311.335C624.225 311.259 624.306 311.103 624.306 310.88ZM642.681 311.335V271.012C642.681 270.253 642.301 269.797 641.54 269.797H626.78C626.78 271.239 628.301 271.391 629.594 272.917C630.664 274.06 631.499 275.882 631.499 279.765V311.335C633.097 311.029 635.076 310.88 637.054 310.88C638.802 310.88 641.16 311.029 642.681 311.335ZM690.278 281.285L689.82 271.849C686.627 269.949 682.129 269.036 677.947 269.036C665.475 269.036 654.293 277.253 654.293 290.489C654.293 304.338 664.716 312.018 677.795 312.018C681.679 312.018 687.384 311.029 690.048 308.365V302.283C687.384 305.175 684.115 307.381 679.776 307.381C670.036 307.381 666.236 298.4 666.236 289.882C666.236 282.12 670.115 273.068 678.79 273.068C680.996 273.068 682.817 273.524 684.264 274.667C685.484 275.58 686.243 277.023 687.156 279.38C687.611 280.752 688.527 281.513 689.514 281.513C689.817 281.513 690.045 281.437 690.275 281.285H690.278ZM722.215 294.901H709.128L716.055 278.695L722.215 294.901ZM740.4 311.335L725.714 274.741C724.424 271.469 723.586 269.792 720.389 269.792H708.144C708.144 272.077 712.172 271.548 712.172 274.741C712.172 275.96 711.337 278.009 710.8 279.307L696.957 311.335H702.133L707.228 299.392H723.809L728.454 311.335C730.354 310.951 732.411 310.88 734.232 310.88C736.289 310.88 738.343 311.029 740.4 311.335ZM785.503 311.335V269.797H780.256L780.711 297.565L759.03 271.168C758.266 270.177 757.58 269.797 756.288 269.797H744.574C744.574 271.239 746.55 272.003 747.463 272.995C749.133 274.741 749.29 276.873 749.29 279.765V311.335H754.461L754.082 281.971L773.023 305.403C774.166 306.845 775.993 308.671 777.286 309.435C779.191 310.574 781.548 311.335 784.516 311.335H785.503Z" fill="#17468B"></path> <path d="M445.875 46.2355L438.723 211.093L407.441 130.111L423.741 211.996L372.915 143.96L408.754 213.944L282.981 125.009L393.795 217.4L323.054 191.056L379.893 223.795C327.033 223.795 263.746 181.994 244.309 95.2647C244.309 95.2647 357.298 96.5625 395.019 146.798C387.918 76.0426 436.775 9.34217 445.875 0.234581C454.975 9.33964 503.832 76.0426 496.73 146.798C534.451 96.5625 647.443 95.2647 647.443 95.2647C628.006 181.994 564.716 223.795 511.857 223.795L568.696 191.059L497.95 217.4L608.769 125.009L482.996 213.944L518.829 143.957L468.011 211.994L484.311 130.109L453.024 211.09L445.875 46.2355Z" fill="#FAB41D"></path> </g> <defs> <clipPath id="clip0_476_4725"> <rect width="221.802" height="97.3765" fill="white" transform="scale(4.00352)"></rect> </clipPath> </defs> </svg> 