<?xml version="1.0" encoding="UTF-8"?> <svg xmlns="http://www.w3.org/2000/svg" width="1053" height="737" viewBox="0 0 1053 737" fill="none"> <g clip-path="url(#clip0_686_5404)"> <path d="M251 311.48C257.21 304.42 271.22 311.62 292 309.69C318.06 307.28 338.05 292.16 351.1 279.38C346.626 312.433 342.153 345.483 337.68 378.53C315.401 380.417 292.969 377.871 271.68 371.04C246.23 331.3 246.14 317.05 251 311.48Z" fill="white" stroke="#192140" stroke-width="2" stroke-linecap="round" stroke-linejoin="round"></path> <path d="M523.51 608.46C515.456 587.896 511.368 565.994 511.46 543.91C504.56 553.8 494.46 571.57 500.65 586.22C500.88 586.77 501.14 587.31 501.42 587.84C510.331 592.841 517.908 599.914 523.51 608.46V608.46Z" fill="#D7F8FF" stroke="#192140" stroke-width="2" stroke-linecap="round" stroke-linejoin="round"></path> <path d="M599.79 248.67C587.66 246.83 576.42 241.209 567.67 232.61L553.93 326.78C558.325 307.974 566.233 290.169 577.24 274.3C583.764 264.932 591.329 256.333 599.79 248.67V248.67Z" fill="#D7F8FF" stroke="#192140" stroke-width="2" stroke-linecap="round" stroke-linejoin="round"></path> <path d="M496.65 229C505.468 222.292 515.613 217.537 526.41 215.05C525.9 220.83 525.05 229.21 523.63 239.29C520.3 262.94 516.75 275.29 517.63 275.5C518.63 275.78 526.01 256.6 530.22 233.44C531.76 224.97 532.54 217.82 532.97 212.73C547.021 209.867 561.399 208.948 575.7 210C569.033 245.64 562.39 281.287 555.77 316.94C538.23 410.98 520.693 505.05 503.16 599.15L473.87 608C472.377 599.26 471.137 594.927 470.15 595C469.163 595.073 468.39 600.187 467.83 610.34L436.67 628.94C456.67 495.647 476.663 362.333 496.65 229Z" fill="#D7F8FF" stroke="#192140" stroke-width="2" stroke-linecap="round" stroke-linejoin="round"></path> <path d="M575.7 210C544.359 194.845 514.837 176.186 487.7 154.38C465.989 136.932 445.907 117.549 427.7 96.4702C414.1 102.964 399.117 106.027 384.06 105.39C390.327 113.044 393.227 117.087 392.76 117.52C392.293 117.954 387.627 114.034 378.76 105.76C374.686 107.346 370.456 108.496 366.14 109.19C359.356 110.277 352.44 110.236 345.67 109.07L496.67 229.07C505.549 221.818 516.158 216.994 527.46 215.07C507.04 201.07 502.62 197 503.08 196.24C503.72 195.19 514.15 199.78 522.9 205.36C526.394 207.601 529.735 210.073 532.9 212.76L575.7 210Z" fill="#D7F8FF" stroke="#192140" stroke-width="2" stroke-linecap="round" stroke-linejoin="round"></path> <path d="M317.55 538.05C326.63 548.05 329.27 544.61 384.15 586.8C407 604.38 425.15 619.29 436.67 628.91C456.67 495.623 476.67 362.33 496.67 229.03C463.65 203.17 430.76 177.16 398 151C380.54 137.053 363.107 123.053 345.7 109C344.59 121.55 343.8 132.31 343.24 140.72C340.46 182.72 341.05 201.72 346.24 222.48C376.57 355.27 260.81 475.56 317.55 538.05Z" fill="white" stroke="#192140" stroke-width="2" stroke-linecap="round" stroke-linejoin="round"></path> <path d="M345.91 636C374.31 609.48 415.55 563.67 443.91 496C496.39 370.94 469.22 256.5 458.14 217.79L313.46 116.79C325.194 153.045 331.265 190.894 331.46 229C331.67 275.4 323.05 307.83 312.46 347.59C294.86 414 279.8 467.7 236.59 485.86C231.349 488.055 225.883 489.668 220.29 490.67C250.548 548.049 293.514 597.757 345.91 636V636Z" fill="#D7F8FF" stroke="#192140" stroke-width="2" stroke-linecap="round" stroke-linejoin="round"></path> <path d="M337.11 176C339.275 177.645 341.887 178.597 344.603 178.732C347.319 178.868 350.012 178.18 352.331 176.758C354.649 175.337 356.484 173.249 357.595 170.767C358.707 168.286 359.043 165.526 358.56 162.85L428.9 213.13C428.22 215.55 424.28 230.44 433.28 244.95C438.636 253.403 446.939 259.567 456.58 262.25C462.537 292.028 464.714 322.438 463.06 352.76C461.67 378.2 457.92 396.89 454.86 411.86C447.58 447.4 435.2 505.11 394.99 563.33C385.823 576.601 375.706 589.191 364.72 601C363.56 599.86 355.87 592.56 344.49 593.42C333.11 594.28 325.19 602.56 324.2 605.88C324.188 605.934 324.156 605.98 324.11 606.01C321.57 608.01 283.62 562.11 250.57 521.24C260.37 519.44 267.21 511.63 267.28 503.37C267.35 495.11 260.53 489.75 259.67 489.09C282.154 458.615 300.66 425.397 314.74 390.24C325.1 364.34 341.96 321.08 344.36 262.15C345.527 233.244 343.092 204.305 337.11 176Z" fill="white" stroke="#192140" stroke-width="2" stroke-linecap="round" stroke-linejoin="round"></path> <path d="M418.41 284.888C422.787 276.271 417.518 264.807 406.641 259.281C395.764 253.756 383.398 256.262 379.021 264.879C374.643 273.496 379.912 284.961 390.789 290.486C401.666 296.011 414.032 293.505 418.41 284.888Z" fill="#D7F8FF" stroke="#192140" stroke-width="2" stroke-linecap="round" stroke-linejoin="round"></path> <path d="M350.764 504.955C357.888 498.423 356.978 485.838 348.733 476.846C340.487 467.854 328.029 465.86 320.905 472.392C313.782 478.924 314.691 491.509 322.936 500.501C331.182 509.493 343.641 511.487 350.764 504.955Z" fill="#D7F8FF" stroke="#192140" stroke-width="2" stroke-linecap="round" stroke-linejoin="round"></path> <path d="M444.889 412.246C460.262 381.984 446.559 344.159 414.282 327.763C382.006 311.367 343.378 322.608 328.005 352.871C312.632 383.133 326.335 420.958 358.612 437.354C390.888 453.75 429.516 442.509 444.889 412.246Z" fill="#D7F8FF" stroke="#192140" stroke-width="2" stroke-linecap="round" stroke-linejoin="round"></path> <path d="M322.74 306.89L472 390.2L545.25 373.2L531.72 445.8L460.47 470.11C435.53 457.04 409.14 442.03 381.79 424.79C353.96 407.25 328.63 389.59 305.79 372.43C310 347.5 322.74 306.89 322.74 306.89Z" fill="#F7FFAC" stroke="#192140" stroke-width="2" stroke-linecap="round" stroke-linejoin="round"></path> <path d="M460.49 470.14C464.33 443.474 468.174 416.827 472.02 390.2Z" fill="#F7FFAC"></path> <path d="M460.49 470.14C464.33 443.474 468.174 416.827 472.02 390.2" stroke="#192140" stroke-width="2" stroke-linecap="round" stroke-linejoin="round"></path> <path d="M268.84 371.7L267.62 371.79C266.246 371.891 264.865 371.72 263.557 371.287C262.248 370.854 261.038 370.168 259.995 369.267C258.953 368.366 258.097 367.269 257.479 366.037C256.86 364.806 256.49 363.465 256.39 362.09L252.65 311.24C252.549 309.865 252.721 308.482 253.154 307.173C253.587 305.863 254.275 304.652 255.176 303.608C256.078 302.565 257.177 301.709 258.409 301.09C259.642 300.47 260.984 300.1 262.36 300L263.57 299.91C264.945 299.808 266.327 299.978 267.637 300.41C268.946 300.843 270.157 301.529 271.201 302.43C272.245 303.331 273.101 304.429 273.721 305.661C274.34 306.893 274.71 308.235 274.81 309.61C269.878 326.455 271.203 344.515 278.54 360.46C279.18 361.882 279.4 363.457 279.175 365C278.951 366.543 278.29 367.99 277.271 369.171C276.253 370.351 274.918 371.216 273.424 371.664C271.931 372.113 270.341 372.125 268.84 371.7Z" fill="#E4C9FE" stroke="#192140" stroke-width="2" stroke-linecap="round" stroke-linejoin="round"></path> <path d="M257.87 331.16C260.077 328.467 261.634 325.302 262.42 321.91C265.75 306.91 251.28 293.09 248.52 290.46C247.718 289.696 246.877 288.975 246 288.3C243.94 286.7 242.41 285.51 241.83 285.1C241.83 285.1 240.78 284.36 230.52 276.94C219.95 269.3 226.29 256.51 221.63 232.52C217.75 212.6 212.63 207.9 209.48 205.8C208.48 205.1 201.12 200.33 194.26 202.75C181.88 207.11 181.17 231.28 180.97 238.18C180.7 247.18 181.71 265.71 195.09 287.46C186.246 284.614 176.959 283.394 167.68 283.86C154.24 284.58 126.74 289.72 123.39 305.18C122.82 307.77 122.31 313.57 128.16 322.1L125.6 323.73C124.09 324.95 119.32 329.13 118.4 335.91C117.31 344.02 122.2 352.51 130.75 356.91C129 358.641 127.872 360.901 127.54 363.34C127.368 365.516 127.793 367.698 128.77 369.65C129.746 371.603 131.236 373.252 133.08 374.42C132.057 378.257 132.249 382.317 133.63 386.04C138 396.85 153.19 399.75 169.89 402.93C181.22 405.09 187.59 406.23 196.19 404.31C204.198 402.471 211.621 398.667 217.79 393.24C222.65 395.425 227.974 396.377 233.29 396.01C250.07 394.7 264.82 378.49 266.79 360.85C268.5 345.81 260.38 334.42 257.87 331.16Z" fill="#E4C9FE" stroke="#192140" stroke-width="2" stroke-linecap="round" stroke-linejoin="round"></path> <path d="M218.18 393.27C220.4 389.27 219.87 385 217.45 383C216.185 382.044 214.61 381.591 213.03 381.73" fill="#E4C9FE"></path> <path d="M218.18 393.27C220.4 389.27 219.87 385 217.45 383C216.185 382.044 214.61 381.591 213.03 381.73" stroke="#192140" stroke-width="2" stroke-linecap="round" stroke-linejoin="round"></path> <path d="M133.12 374.39C142.91 380.39 158.9 388.39 178.68 390.02C187.848 390.812 197.08 389.657 205.77 386.63C216.49 382.81 218.71 379.06 219.47 377.24C220.9 373.77 221.47 367.53 217.21 364.24C214 361.73 209.06 361.68 204.97 364.24" fill="#E4C9FE"></path> <path d="M133.12 374.39C142.91 380.39 158.9 388.39 178.68 390.02C187.848 390.812 197.08 389.657 205.77 386.63C216.49 382.81 218.71 379.06 219.47 377.24C220.9 373.77 221.47 367.53 217.21 364.24C214 361.73 209.06 361.68 204.97 364.24" stroke="#192140" stroke-width="2" stroke-linecap="round" stroke-linejoin="round"></path> <path d="M182.59 341C184.75 339.45 195.45 332.15 207.97 335.37C210.56 336.04 220.6 338.63 223.04 346.82C225.04 353.63 220.55 360 219.47 361.52C213.98 369.24 204.89 371.09 197.88 372.52C190.226 374.013 182.367 374.135 174.67 372.88C165.1 371.47 148.57 367.72 129.32 356.06" fill="#E4C9FE"></path> <path d="M182.59 341C184.75 339.45 195.45 332.15 207.97 335.37C210.56 336.04 220.6 338.63 223.04 346.82C225.04 353.63 220.55 360 219.47 361.52C213.98 369.24 204.89 371.09 197.88 372.52C190.226 374.013 182.367 374.135 174.67 372.88C165.1 371.47 148.57 367.72 129.32 356.06" stroke="#192140" stroke-width="2" stroke-linecap="round" stroke-linejoin="round"></path> <path d="M158.31 304.35C175.9 313.23 187.54 314.35 195.13 313.48C200.045 312.882 205.03 313.26 209.8 314.59C213.63 315.68 220.32 317.59 222.25 322.64C224.64 328.92 218.33 336.33 217.25 337.58C205.95 350.85 183.72 348.72 177.79 348.15C152.21 345.7 134.91 329.3 128.19 322.15" fill="#E4C9FE"></path> <path d="M158.31 304.35C175.9 313.23 187.54 314.35 195.13 313.48C200.045 312.882 205.03 313.26 209.8 314.59C213.63 315.68 220.32 317.59 222.25 322.64C224.64 328.92 218.33 336.33 217.25 337.58C205.95 350.85 183.72 348.72 177.79 348.15C152.21 345.7 134.91 329.3 128.19 322.15" stroke="#192140" stroke-width="2" stroke-linecap="round" stroke-linejoin="round"></path> <path d="M241.85 330.73C244.029 332.695 246.838 333.818 249.771 333.897C252.704 333.976 255.569 333.005 257.85 331.16" fill="#E4C9FE"></path> <path d="M241.85 330.73C244.029 332.695 246.838 333.818 249.771 333.897C252.704 333.976 255.569 333.005 257.85 331.16" stroke="#192140" stroke-width="2" stroke-linecap="round" stroke-linejoin="round"></path> </g> <defs> <clipPath id="clip0_686_5404"> <rect width="1053" height="737" fill="white"></rect> </clipPath> </defs> </svg> 