<?xml version="1.0" encoding="UTF-8"?> <svg xmlns="http://www.w3.org/2000/svg" width="321" height="427" viewBox="0 0 321 427" fill="none"> <path d="M81.4322 241.468C83.0422 245.535 87.9214 247.11 89.7394 247.695C100.583 251.192 113.626 243.762 120.452 234.781C124.91 228.94 125.901 222.283 127.947 208.972C131.533 185.517 127.317 174.996 133.346 164.063C134.173 162.552 137.309 157.247 135.798 155.756C134.981 154.934 133.093 155.588 132.434 155.815C123.241 158.991 114.131 192.021 95.3964 216.546C87.5499 226.83 78.7622 234.657 81.4322 241.468Z" fill="#BC02FD" stroke="#192140" stroke-width="0.990719" stroke-linecap="round" stroke-linejoin="round"></path> <path d="M98.7739 225.678L77.8207 236.567C75.6891 237.674 74.8594 240.3 75.967 242.432L75.969 242.436C77.0766 244.567 79.7025 245.398 81.8341 244.29L102.787 233.401C104.919 232.293 105.749 229.667 104.641 227.536L104.638 227.531C103.531 225.4 100.905 224.57 98.7739 225.678Z" fill="#41FBED" stroke="#192140" stroke-width="0.990719" stroke-linecap="round" stroke-linejoin="round"></path> <path d="M228.643 152.521C228.058 150.981 227.216 148.365 228.108 147.701C228.455 147.444 229.535 147.141 233.641 150.485C245.203 159.897 246.317 170.091 255.695 173.767C256.948 174.262 260.891 175.793 263.397 173.98C266.147 171.999 265.656 167.045 265.3 163.434C264.761 158.298 263.11 153.342 260.46 148.91L278.417 141.306C280.676 145.501 282.37 149.977 283.455 154.616C284.589 159.486 288.537 176.457 279.081 188.197C276.766 191.173 273.755 193.534 270.313 195.072C262.119 198.659 254.332 195.969 252.331 195.246C251.281 194.864 246.575 193.081 241.612 187.984C230.01 176.046 228.826 158.138 228.643 152.521Z" fill="#BC02FD" stroke="#192140" stroke-width="0.990719" stroke-linecap="round" stroke-linejoin="round"></path> <path d="M281.3 135.164C283.356 130.334 286.179 121.73 284.817 111.347C284.178 106.443 282.87 103.198 280.502 97.4421C275.053 84.2111 269.381 70.4054 256.368 62.9155C255.898 62.648 245.396 56.6988 242.622 59.7205C240.7 61.8059 243.355 67.2103 244.381 69.1323C243.266 68.8301 237.446 67.3341 235.905 69.6277C234.528 71.6685 237.173 75.7701 239.744 79.2178C248.13 90.4823 252.623 90.3634 253.168 95.2031C253.718 100.246 249.012 102.089 249.651 109.569C249.929 112.764 251.048 115.547 250.771 115.642C250.246 115.83 247.799 105.829 245.02 105.893C242.047 105.962 237.792 117.286 240.066 127.471C242.726 139.409 253.381 145.566 256.036 147.008C262.988 144.829 269.691 141.923 276.034 138.339C277.897 137.314 279.635 136.224 281.3 135.164Z" fill="#DCF10B" stroke="#192140" stroke-width="0.990719" stroke-linecap="round" stroke-linejoin="round"></path> <path d="M282.127 144.585L260.361 153.735C259.304 154.145 258.129 154.126 257.085 153.683C256.042 153.24 255.212 152.407 254.772 151.362C254.333 150.317 254.319 149.142 254.732 148.086C255.146 147.031 255.955 146.178 256.988 145.71L278.783 136.56C279.848 136.116 281.045 136.111 282.113 136.548C283.181 136.984 284.032 137.826 284.48 138.889C284.701 139.417 284.815 139.984 284.816 140.556C284.817 141.129 284.706 141.696 284.487 142.226C284.268 142.755 283.947 143.236 283.542 143.641C283.137 144.046 282.657 144.367 282.127 144.585Z" fill="#41FBED" stroke="#192140" stroke-width="0.990719" stroke-linecap="round" stroke-linejoin="round"></path> <path d="M272.19 91.5274C266.741 86.1428 260.108 83.2747 256.046 85.2958C248.373 89.1051 251.509 109.524 256.205 110.708C258.612 111.312 262.58 107.156 263.561 102.718C264.047 100.347 263.766 97.8834 262.758 95.6835L268.837 99.359" fill="#DCF10B"></path> <path d="M272.19 91.5274C266.741 86.1428 260.108 83.2747 256.046 85.2958C248.373 89.1051 251.509 109.524 256.205 110.708C258.612 111.312 262.58 107.156 263.561 102.718C264.047 100.347 263.766 97.8834 262.758 95.6835L268.837 99.359" stroke="#192140" stroke-width="0.990719" stroke-linecap="round" stroke-linejoin="round"></path> <path d="M266.949 87.3516C263.502 82.4045 259.221 78.0954 254.298 74.6159C251.206 72.4408 247.883 70.6134 244.39 69.167" fill="#DCF10B"></path> <path d="M266.949 87.3516C263.502 82.4045 259.221 78.0954 254.298 74.6159C251.206 72.4408 247.883 70.6134 244.39 69.167" stroke="#192140" stroke-width="0.990719" stroke-linecap="round" stroke-linejoin="round"></path> <path d="M247.65 122.537C247.65 122.26 247.477 117.99 250.771 115.661C253.634 113.64 257.859 113.962 260.802 116.652" fill="#DCF10B"></path> <path d="M247.65 122.537C247.65 122.26 247.477 117.99 250.771 115.661C253.634 113.64 257.859 113.962 260.802 116.652" stroke="#192140" stroke-width="0.990719" stroke-linecap="round" stroke-linejoin="round"></path> <path d="M139.612 146.909C119.748 166.49 122.562 196.103 124.167 212.97C125.477 226.438 129.133 239.574 134.971 251.781C133.03 257.644 130.671 263.361 127.912 268.886C121.383 281.959 116.519 286.105 107.959 298.87C95.9909 316.703 90.007 325.62 90.532 337.013C90.6014 338.459 91.5921 354.643 103.763 362.435C116.4 370.519 133.846 364.911 143.015 358.561C147.206 355.653 147.692 353.964 160.041 343.433C164.895 339.296 168.957 336.002 171.697 333.862C170.26 339.597 167.883 345.053 164.663 350.011C159.214 358.343 153.72 361.295 153.73 368.102C153.73 369.231 153.73 373.838 156.994 376.027C159.011 377.375 161.349 377.167 162.419 377.018C162.711 377.543 165.148 381.744 170.191 382.497C172.772 382.851 175.394 382.264 177.577 380.842C179.114 381.92 180.927 382.538 182.803 382.625C194.057 382.873 205.371 359.562 206.778 339.415C207.709 326.041 204.564 309.902 195.256 302.57C193.209 300.986 190.917 299.746 188.47 298.9C180.108 296.235 172.291 299.752 169.393 301.099C159.451 305.741 159.08 311.645 146.656 319.259C143.803 321.003 140.822 322.53 137.74 323.826C143.052 303.374 155.297 285.398 172.385 272.968C185.344 275.808 198.764 275.808 211.722 272.968L229.059 288.155L258.692 264.784C254.56 259.461 250.433 254.133 246.308 248.799C249.374 236.38 253.327 212.895 245.916 185.586C241.899 170.775 237.352 154.027 222.332 142.49C199.551 125.053 160.908 125.91 139.612 146.909Z" fill="#BC02FD" stroke="#192140" stroke-width="0.990719" stroke-linecap="round" stroke-linejoin="round"></path> <path d="M165.252 368.687C163.94 369.826 163 371.332 162.552 373.011C162.217 374.308 162.19 375.665 162.473 376.974" fill="#BC02FD"></path> <path d="M165.252 368.687C163.94 369.826 163 371.332 162.552 373.011C162.217 374.308 162.19 375.665 162.473 376.974" stroke="#192140" stroke-width="0.990719" stroke-linecap="round" stroke-linejoin="round"></path> <path d="M180.202 372.332C178.892 373.472 177.953 374.978 177.507 376.657C177.168 377.952 177.14 379.31 177.423 380.619" fill="#BC02FD"></path> <path d="M180.202 372.332C178.892 373.472 177.953 374.978 177.507 376.657C177.168 377.952 177.14 379.31 177.423 380.619" stroke="#192140" stroke-width="0.990719" stroke-linecap="round" stroke-linejoin="round"></path> <path d="M162.265 268.807C171.335 273.318 181.325 275.676 191.455 275.696C201.586 275.715 211.585 273.397 220.673 268.921" fill="#BC02FD"></path> <path d="M162.265 268.807C171.335 273.318 181.325 275.676 191.455 275.696C201.586 275.715 211.585 273.397 220.673 268.921" stroke="#192140" stroke-width="0.990719" stroke-linecap="round" stroke-linejoin="round"></path> <path d="M183.749 330.098C177.975 330.146 172.45 332.459 168.363 336.537" stroke="#192140" stroke-width="0.990719" stroke-linecap="round" stroke-linejoin="round"></path> <path d="M136.947 334.214C136.28 329.918 136.778 325.522 138.389 321.483L136.947 334.214Z" fill="#BC02FD"></path> <path d="M136.947 334.214C136.28 329.918 136.778 325.522 138.389 321.483" stroke="#192140" stroke-width="0.990719" stroke-linecap="round" stroke-linejoin="round"></path> <path d="M86.6137 230.783C89.6849 231.511 94.1035 232.021 98.5023 230.189C102.366 228.574 103.04 226.453 109.965 219.91C115.468 214.713 118.237 212.138 121.829 210.622C129.755 207.258 135.263 210.161 138.225 206.05C138.895 205.067 139.325 203.941 139.48 202.763C139.636 201.584 139.513 200.386 139.122 199.263C136.883 193.185 125.569 192.303 119.441 192.942C108.627 194.072 101.474 201.235 98.7946 204.261C97.4408 201.778 96.4119 199.131 95.7333 196.385C93.5041 187.33 95.6936 179.171 101.861 155.27C104.055 146.765 105.105 142.47 102.852 140.246C100.241 137.67 94.4652 138.631 90.5914 140.637C78.9753 146.661 77.6229 165.623 77.1523 172.271C76.7957 177.225 77.0533 180.568 76.9542 180.573C76.7115 180.573 70.7721 160.368 77.2762 141.588C78.4353 138.235 80.8081 132.573 78.4452 130.195C76.3746 128.105 71.7579 129.65 71.4161 129.769C60.1417 133.683 58.1206 155.033 57.7788 158.634C57.0105 167.183 58.022 175.799 60.751 183.937C57.4023 166.733 55.832 154.503 55.0197 145.982C54.7373 143.01 54.3162 138.057 51.9336 137.328C49.0011 136.452 43.889 142.282 41.6004 148.197C38.3756 156.558 40.8425 164.94 43.7305 174.292C46.6779 183.848 50.5119 190.941 50.2741 191.055C49.8927 191.238 37.3948 174.005 33.2734 164.563C32.8276 163.533 31.4951 160.338 29.0331 159.912C28.4461 159.841 27.8507 159.891 27.283 160.055C26.7154 160.22 26.1868 160.498 25.7291 160.873C21.1668 164.702 27.6065 184.011 38.6084 198.763C42.8735 204.484 43.8642 204.212 46.7125 209.042C52.5825 218.998 50.4326 223.63 56.0054 231.382C57.7095 233.755 62.3906 240.2 70.2371 241.463C71.9263 241.735 77.4842 242.632 82.0217 238.922C84.4574 236.83 86.0827 233.95 86.6137 230.783Z" fill="#DCF10B" stroke="#192140" stroke-width="0.990719" stroke-linecap="round" stroke-linejoin="round"></path> <path d="M77.1326 220.827C78.096 223.871 79.9938 226.534 82.5563 228.439C85.1188 230.344 88.2162 231.393 91.4088 231.437" fill="#DCF10B"></path> <path d="M77.1326 220.827C78.096 223.871 79.9938 226.534 82.5563 228.439C85.1188 230.344 88.2162 231.393 91.4088 231.437" stroke="#192140" stroke-width="0.990719" stroke-linecap="round" stroke-linejoin="round"></path> <path d="M46.7026 196.836C50.4282 191.768 55.4626 187.808 61.2662 185.381C67.0698 182.954 73.4243 182.152 79.649 183.06" fill="#DCF10D"></path> <path d="M46.7026 196.836C50.4282 191.768 55.4626 187.808 61.2662 185.381C67.0698 182.954 73.4243 182.152 79.649 183.06" stroke="#192140" stroke-width="0.990719" stroke-linecap="round" stroke-linejoin="round"></path> <path d="M205.574 350.953C201.012 349.11 195.637 352.909 195.266 353.182C184.819 360.776 188.44 381.61 188.995 384.801C192.323 403.907 206.099 426.302 220.202 425.311C223.798 425.053 226.667 423.33 228.579 421.844C229.332 422.403 232.963 424.964 237.773 424.211C242.191 423.518 245.921 420.293 247.526 415.855C248.581 415.815 251.4 415.577 253.233 413.487C255.739 410.633 254.679 406.329 254.491 405.561C252.232 396.387 236.945 399.835 225.934 388.288C219.846 381.922 214.719 370.599 212.138 362.108C210.845 357.853 209.676 352.602 205.574 350.953Z" fill="#BC02FD" stroke="#192140" stroke-width="0.990719" stroke-linecap="round" stroke-linejoin="round"></path> <path d="M207.456 357.972L203.915 358.051C202.447 362.843 202.244 367.933 203.323 372.828C204.403 377.722 206.729 382.254 210.077 385.984L213.807 384.166C210.749 380.616 208.578 376.389 207.475 371.834C206.371 367.28 206.364 362.529 207.456 357.972Z" fill="#192140" stroke="#192140" stroke-width="0.990719" stroke-linecap="round" stroke-linejoin="round"></path> <path d="M242.761 382.487C243.969 382.18 245.733 381.729 247.818 381.155C254.833 379.233 259.93 377.836 265.255 375.567C269.445 373.773 273.457 371.589 277.238 369.043C279.188 366.031 280.669 362.741 281.632 359.285C282.251 356.991 283.564 349.452 280.299 342.938C276.297 334.962 266.167 330.291 255.006 331.222C248.475 338.831 240.579 345.152 231.724 349.858C231.014 355.87 230.969 361.942 231.59 367.963C232.428 375.929 233.914 378.475 235.851 380.075C238.159 382.007 240.948 382.418 242.761 382.487Z" fill="#41FBED" stroke="#192140" stroke-width="0.990719" stroke-linecap="round" stroke-linejoin="round"></path> <path d="M265.324 336.111C269.672 338.794 273.599 342.104 276.98 345.934C278.263 345.86 286.001 345.27 291.202 338.692C293.687 335.503 295.11 331.616 295.269 327.576C292.536 316.103 287.478 305.313 280.408 295.873C278.385 295.672 276.345 295.71 274.33 295.987C263.551 297.473 256.854 305.518 254.798 308.024C252.213 311.184 250.13 314.723 248.621 318.516C250.559 321.268 252.204 324.215 253.53 327.309C254.109 328.661 254.595 329.969 255.016 331.222C258.622 332.467 262.079 334.107 265.324 336.111Z" fill="#41FBED" stroke="#192140" stroke-width="0.990719" stroke-linecap="round" stroke-linejoin="round"></path> <path d="M250.573 321.489C259.95 317.154 262.055 314.692 261.753 313.201C261.51 311.993 259.569 310.863 259.93 309.238C260.087 308.671 260.437 308.177 260.921 307.842C263.764 305.583 279.655 296.285 280.398 295.854L257.453 263.2L229.054 288.156L250.573 321.489Z" fill="#41FBED" stroke="#192140" stroke-width="0.990719" stroke-linecap="round" stroke-linejoin="round"></path> <path d="M250.573 321.489C259.95 317.154 262.055 314.692 261.753 313.201C261.52 312.042 259.593 310.943 259.93 309.239C260.071 308.697 260.343 308.199 260.723 307.787C261.298 307.132 262.061 306.671 262.907 306.464L249.775 288.339C247.878 289.984 245.159 289.751 243.831 288.265C242.345 286.606 242.712 283.44 245.119 281.934L241.542 277.169L229.054 288.156L250.573 321.489Z" fill="#41FBED" stroke="#192140" stroke-width="0.990719" stroke-linecap="round" stroke-linejoin="round"></path> <path d="M231.709 349.873L239.779 369.687C235.89 370.554 234.147 374.17 234.989 376.26C235.722 378.093 238.679 379.396 241.785 378.38C242.112 379.753 242.434 381.125 242.776 382.497C233.271 384.563 223.502 385.129 213.822 384.176C210.686 380.672 208.465 376.447 207.358 371.876C206.249 367.306 206.289 362.533 207.472 357.982C210.994 357.065 214.679 356 218.503 354.752C223.224 353.191 227.633 351.547 231.709 349.873Z" fill="#41FBED" stroke="#192140" stroke-width="0.990719" stroke-linecap="round" stroke-linejoin="round"></path> <path d="M295.234 327.111C290.984 325.229 288.101 325.555 286.392 326.056C277.04 328.78 277.644 343.928 265.949 350.67C263.206 352.219 260.168 353.172 257.032 353.469L256.765 358.918C258.048 358.745 266.796 357.675 272.74 363.713C274.373 365.389 275.625 367.399 276.411 369.603C283.879 364.447 289.607 357.148 292.842 348.669C295.409 341.791 296.23 334.384 295.234 327.111Z" fill="#41FBED" stroke="#192140" stroke-width="0.990719" stroke-linecap="round" stroke-linejoin="round"></path> <path d="M239.303 375.552C240.02 375.552 240.601 374.971 240.601 374.254C240.601 373.538 240.02 372.957 239.303 372.957C238.586 372.957 238.005 373.538 238.005 374.254C238.005 374.971 238.586 375.552 239.303 375.552Z" fill="#192140" stroke="#192140" stroke-width="0.990719" stroke-linecap="round" stroke-linejoin="round"></path> <path d="M246.679 286.729C247.396 286.729 247.977 286.148 247.977 285.431C247.977 284.714 247.396 284.133 246.679 284.133C245.962 284.133 245.381 284.714 245.381 285.431C245.381 286.148 245.962 286.729 246.679 286.729Z" fill="#192140" stroke="#192140" stroke-width="0.990719" stroke-linecap="round" stroke-linejoin="round"></path> <path d="M264.205 311.457C264.922 311.457 265.503 310.876 265.503 310.16C265.503 309.443 264.922 308.862 264.205 308.862C263.488 308.862 262.907 309.443 262.907 310.16C262.907 310.876 263.488 311.457 264.205 311.457Z" fill="#192140" stroke="#192140" stroke-width="0.990719" stroke-linecap="round" stroke-linejoin="round"></path> <path d="M228.361 412.635C229.071 413.291 229.629 414.094 229.996 414.988C230.363 415.882 230.531 416.846 230.486 417.811C230.359 419.349 229.682 420.789 228.579 421.868" fill="#BC02FD"></path> <path d="M228.361 412.635C229.071 413.291 229.629 414.094 229.996 414.988C230.363 415.882 230.531 416.846 230.486 417.811C230.359 419.349 229.682 420.789 228.579 421.868" stroke="#192140" stroke-width="0.990719" stroke-linecap="round" stroke-linejoin="round"></path> <path d="M244.738 407.587C245.904 408.589 246.778 409.888 247.268 411.345C247.758 412.803 247.845 414.366 247.521 415.869" fill="#BC02FD"></path> <path d="M244.738 407.587C245.904 408.589 246.778 409.888 247.268 411.345C247.758 412.803 247.845 414.366 247.521 415.869" stroke="#192140" stroke-width="0.990719" stroke-linecap="round" stroke-linejoin="round"></path> <path d="M143.293 166.728L137.125 156.925C135.981 155.102 133.162 154.825 130.785 156.306L127.847 158.153C125.494 159.639 124.514 162.314 125.663 164.137L131.825 173.94C132.974 175.763 135.813 176.041 138.166 174.56L141.103 172.707C143.461 171.226 144.437 168.551 143.293 166.728ZM137.304 170.522C136.402 171.092 135.322 170.983 134.871 170.285L130.314 163.038C129.873 162.334 130.25 161.309 131.151 160.739L131.81 160.328C132.712 159.758 133.792 159.862 134.242 160.566L138.8 167.813C139.241 168.511 138.864 169.542 137.963 170.106L137.304 170.522Z" fill="#41FBED" stroke="#192140" stroke-width="0.990719" stroke-linecap="round" stroke-linejoin="round"></path> <path d="M156.93 178.676L148.786 170.448C147.27 168.917 144.437 169.264 142.46 171.221L139.984 173.663C138.002 175.62 137.631 178.443 139.146 179.979L147.29 188.207C148.806 189.737 151.634 189.391 153.616 187.434L156.093 184.992C158.069 183.035 158.446 180.212 156.93 178.676ZM151.907 183.684C151.149 184.432 150.059 184.566 149.48 183.981L143.456 177.893C142.877 177.304 143.02 176.219 143.778 175.471L144.333 174.921C145.091 174.173 146.176 174.039 146.755 174.629L152.779 180.712C153.363 181.301 153.22 182.386 152.462 183.134L151.907 183.684Z" fill="#41FBED" stroke="#192140" stroke-width="0.990719" stroke-linecap="round" stroke-linejoin="round"></path> <path d="M171.667 190.862L162.478 183.833C160.769 182.52 158.02 183.254 156.321 185.463L154.2 188.237C152.511 190.446 152.531 193.299 154.24 194.607L163.439 201.612C165.153 202.919 167.897 202.186 169.596 199.977L171.706 197.218C173.376 195.023 173.376 192.17 171.667 190.862ZM167.382 196.509C166.733 197.361 165.673 197.639 165.019 197.138L158.213 191.937C157.559 191.442 157.554 190.342 158.213 189.495L158.708 188.876C159.357 188.029 160.412 187.746 161.071 188.247L167.872 193.448C168.531 193.943 168.536 195.043 167.872 195.895L167.382 196.509Z" fill="#41FBED" stroke="#192140" stroke-width="0.990719" stroke-linecap="round" stroke-linejoin="round"></path> <path d="M187.34 193.586L175.793 192.694C173.648 192.531 171.731 194.646 171.523 197.42L171.256 200.888C171.043 203.662 172.613 206.044 174.763 206.208L186.305 207.09C188.455 207.258 190.367 205.143 190.58 202.369L190.842 198.901C191.055 196.132 189.485 193.75 187.34 193.586ZM186.845 200.655C186.76 201.72 186.027 202.532 185.205 202.468L176.665 201.814C175.843 201.755 175.238 200.823 175.323 199.773L175.382 199C175.461 197.935 176.194 197.123 177.022 197.187L185.557 197.841C186.384 197.906 186.983 198.832 186.904 199.882L186.845 200.655Z" fill="#41FBED" stroke="#192140" stroke-width="0.990719" stroke-linecap="round" stroke-linejoin="round"></path> <path d="M225.329 160.497L228.797 160.447C231.576 160.413 233.81 158.634 233.78 156.484L233.622 144.908C233.622 142.753 231.318 141.039 228.534 141.079L225.067 141.123C222.288 141.163 220.054 142.936 220.084 145.086L220.242 156.663C220.272 158.813 222.545 160.527 225.329 160.497ZM226.553 156.603C225.483 156.603 224.611 155.959 224.601 155.117L224.482 146.557C224.482 145.73 225.329 145.071 226.394 145.037H227.177C228.242 145.037 229.114 145.681 229.129 146.523L229.243 155.088C229.243 155.915 228.396 156.574 227.331 156.608L226.553 156.603Z" fill="#41FBED" stroke="#192140" stroke-width="0.990719" stroke-linecap="round" stroke-linejoin="round"></path> <path d="M220.777 175.546L223.828 177.205C226.27 178.533 229.089 178.077 230.119 176.185L235.652 166.015C236.678 164.123 235.533 161.512 233.091 160.179L230.04 158.515C227.598 157.187 224.779 157.643 223.749 159.535L218.216 169.71C217.19 171.602 218.335 174.218 220.777 175.546ZM223.749 172.752C222.813 172.256 222.372 171.241 222.758 170.513L226.875 162.973C227.271 162.25 228.361 162.077 229.287 162.582L229.971 162.958C230.907 163.454 231.348 164.469 230.961 165.192L226.865 172.717C226.473 173.44 225.379 173.619 224.457 173.108L223.749 172.752Z" fill="#41FBED" stroke="#192140" stroke-width="0.990719" stroke-linecap="round" stroke-linejoin="round"></path> <path d="M209.186 191.645L211.979 193.71C214.218 195.36 217.067 195.296 218.35 193.562L225.225 184.274C226.508 182.54 225.721 179.816 223.492 178.146L220.698 176.081C218.464 174.431 215.61 174.495 214.332 176.224L207.452 185.542C206.174 187.246 206.946 189.995 209.186 191.645ZM212.514 189.287C211.657 188.653 211.36 187.598 211.851 186.934L216.938 180.048C217.433 179.38 218.523 179.355 219.38 179.989L220.004 180.455C220.866 181.089 221.163 182.139 220.673 182.803L215.586 189.693C215.09 190.357 214 190.382 213.143 189.748L212.514 189.287Z" fill="#41FBED" stroke="#192140" stroke-width="0.990719" stroke-linecap="round" stroke-linejoin="round"></path> <path d="M191.268 198.575L192.487 201.829C193.478 204.435 195.89 205.931 197.906 205.178L208.75 201.116C210.766 200.358 211.613 197.648 210.637 195.033L209.418 191.778C208.428 189.173 206.015 187.677 203.999 188.43L193.156 192.492C191.14 193.245 190.293 195.969 191.268 198.575ZM195.345 198.411C194.974 197.42 195.296 196.365 196.068 196.078L204.088 193.071C204.861 192.784 205.792 193.358 206.169 194.359L206.441 195.087C206.813 196.078 206.491 197.133 205.718 197.42L197.698 200.422C196.925 200.715 195.994 200.14 195.618 199.139L195.345 198.411Z" fill="#41FBED" stroke="#192140" stroke-width="0.990719" stroke-linecap="round" stroke-linejoin="round"></path> <path d="M217.973 226.452L222.607 232.322C223.086 232.995 223.973 233.265 224.766 233.038L226.66 232.497C227.673 232.207 228.151 231.212 227.886 230.287C227.836 230.111 227.729 229.903 227.578 229.708L208.209 205.657C207.686 204.996 206.799 204.726 206.006 204.953L203.892 205.558C203.099 205.785 202.489 206.484 202.395 207.321L198.682 237.977C198.657 238.223 198.676 238.456 198.727 238.632C198.991 239.557 199.923 240.148 200.936 239.858L202.522 239.404C203.315 239.177 203.925 238.478 203.974 237.654L204.802 230.221L217.973 226.452ZM206.821 212.297L214.453 221.979L205.423 224.563L206.821 212.297Z" fill="#41FBED"></path> <path d="M217.973 226.452L218.376 226.133C218.247 225.969 218.031 225.9 217.831 225.958L217.973 226.452ZM222.607 232.322L223.026 232.024C223.021 232.017 223.016 232.01 223.011 232.003L222.607 232.322ZM227.578 229.708L227.984 229.393C227.982 229.39 227.98 229.388 227.978 229.385L227.578 229.708ZM208.209 205.657L207.805 205.976L207.808 205.98L208.209 205.657ZM202.394 207.321L202.905 207.383L202.906 207.379L202.394 207.321ZM198.682 237.977L198.171 237.916C198.171 237.919 198.17 237.922 198.17 237.925L198.682 237.977ZM203.974 237.654L203.463 237.597C203.462 237.606 203.461 237.615 203.46 237.623L203.974 237.654ZM204.802 230.222L204.66 229.727C204.46 229.784 204.313 229.957 204.29 230.165L204.802 230.222ZM206.821 212.297L207.225 211.978C207.096 211.814 206.88 211.745 206.68 211.802C206.479 211.859 206.333 212.031 206.309 212.239L206.821 212.297ZM214.453 221.979L214.594 222.474C214.759 222.427 214.889 222.301 214.942 222.137C214.995 221.974 214.963 221.795 214.857 221.661L214.453 221.979ZM205.423 224.564L204.911 224.505C204.892 224.676 204.958 224.845 205.09 224.956C205.221 225.067 205.399 225.106 205.564 225.058L205.423 224.564ZM217.568 226.771L222.203 232.641L223.011 232.003L218.376 226.133L217.568 226.771ZM222.187 232.621C222.804 233.487 223.924 233.815 224.908 233.534L224.624 232.544C224.021 232.716 223.367 232.503 223.026 232.024L222.187 232.621ZM224.908 233.534L226.801 232.992L226.518 232.002L224.624 232.544L224.908 233.534ZM226.801 232.992C228.105 232.619 228.719 231.327 228.381 230.146L227.391 230.429C227.583 231.097 227.242 231.795 226.518 232.002L226.801 232.992ZM228.381 230.146C228.309 229.895 228.168 229.63 227.984 229.393L227.17 230.023C227.289 230.177 227.362 230.327 227.391 230.429L228.381 230.146ZM227.978 229.385L208.61 205.334L207.808 205.98L227.176 230.031L227.978 229.385ZM208.612 205.338C207.957 204.509 206.853 204.175 205.864 204.458L206.147 205.448C206.744 205.277 207.415 205.483 207.805 205.976L208.612 205.338ZM205.864 204.458L203.75 205.063L204.033 206.053L206.147 205.448L205.864 204.458ZM203.75 205.063C202.761 205.346 202.001 206.214 201.883 207.264L202.906 207.379C202.976 206.753 203.436 206.224 204.033 206.053L203.75 205.063ZM201.883 207.259L198.171 237.916L199.193 238.039L202.905 207.383L201.883 207.259ZM198.17 237.925C198.139 238.224 198.16 238.524 198.231 238.774L199.221 238.491C199.192 238.389 199.174 238.223 199.194 238.03L198.17 237.925ZM198.231 238.774C198.569 239.955 199.775 240.726 201.077 240.353L200.794 239.363C200.071 239.57 199.412 239.159 199.221 238.491L198.231 238.774ZM201.077 240.353L202.663 239.899L202.38 238.91L200.794 239.363L201.077 240.353ZM202.663 239.899C203.646 239.618 204.424 238.748 204.488 237.686L203.46 237.623C203.425 238.21 202.982 238.737 202.38 238.91L202.663 239.899ZM204.486 237.711L205.314 230.279L204.29 230.165L203.463 237.597L204.486 237.711ZM204.944 230.716L218.114 226.947L217.831 225.958L204.66 229.727L204.944 230.716ZM206.416 212.616L214.048 222.298L214.857 221.661L207.225 211.978L206.416 212.616ZM214.311 221.484L205.281 224.069L205.564 225.058L214.594 222.474L214.311 221.484ZM205.934 224.622L207.332 212.355L206.309 212.239L204.911 224.505L205.934 224.622Z" fill="#192140"></path> <path d="M173.229 209.164C172.267 209.164 171.534 209.942 171.534 210.859V239.54C171.534 240.456 172.313 241.235 173.229 241.235C176.207 241.281 179.002 241.327 180.606 241.327C192.839 241.327 198.978 233.904 198.978 224.879C198.978 216.403 193.801 209.026 180.972 209.026C179.094 209.026 175.749 209.118 173.229 209.164ZM177.169 214.432C178.452 214.341 179.552 214.295 180.881 214.295C188.532 214.295 193.022 218.418 193.022 224.879C193.022 231.659 188.532 236.058 180.789 236.058C180.01 236.058 178.727 236.058 177.169 235.966V214.432Z" fill="#41FBED"></path> <path d="M173.229 209.164V209.678C173.232 209.678 173.235 209.678 173.239 209.678L173.229 209.164ZM173.229 241.235L173.237 240.721C173.235 240.721 173.232 240.721 173.229 240.721V241.235ZM177.169 214.432L177.133 213.919C176.863 213.938 176.655 214.162 176.655 214.432H177.169ZM177.169 235.966H176.655C176.655 236.239 176.867 236.464 177.139 236.48L177.169 235.966ZM173.229 208.649C171.974 208.649 171.019 209.667 171.019 210.859H172.049C172.049 210.218 172.561 209.678 173.229 209.678V208.649ZM171.019 210.859V239.54H172.049V210.859H171.019ZM171.019 239.54C171.019 240.741 172.029 241.75 173.229 241.75V240.721C172.597 240.721 172.049 240.172 172.049 239.54H171.019ZM173.221 241.75C176.197 241.795 178.997 241.842 180.606 241.842V240.812C179.007 240.812 176.218 240.766 173.237 240.721L173.221 241.75ZM180.606 241.842C186.828 241.842 191.56 239.952 194.738 236.856C197.916 233.762 199.493 229.51 199.493 224.879H198.463C198.463 229.274 196.97 233.246 194.02 236.119C191.071 238.991 186.616 240.812 180.606 240.812V241.842ZM199.493 224.879C199.493 220.538 198.166 216.432 195.15 213.41C192.132 210.386 187.486 208.511 180.972 208.511V209.541C187.287 209.541 191.644 211.354 194.422 214.138C197.202 216.923 198.463 220.743 198.463 224.879H199.493ZM180.972 208.511C179.088 208.511 175.73 208.603 173.22 208.649L173.239 209.678C175.769 209.632 179.1 209.541 180.972 209.541V208.511ZM177.206 214.946C178.479 214.855 179.566 214.81 180.881 214.81V213.78C179.538 213.78 178.426 213.826 177.133 213.919L177.206 214.946ZM180.881 214.81C184.618 214.81 187.519 215.816 189.48 217.55C191.433 219.277 192.507 221.774 192.507 224.879H193.537C193.537 221.523 192.367 218.729 190.162 216.779C187.964 214.835 184.795 213.78 180.881 213.78V214.81ZM192.507 224.879C192.507 228.152 191.427 230.8 189.458 232.634C187.486 234.472 184.565 235.543 180.789 235.543V236.573C184.756 236.573 187.952 235.445 190.16 233.388C192.372 231.327 193.537 228.387 193.537 224.879H192.507ZM180.789 235.543C180.011 235.543 178.741 235.543 177.2 235.452L177.139 236.48C178.713 236.573 180.009 236.573 180.789 236.573V235.543ZM177.684 235.966V214.432H176.655V235.966H177.684Z" fill="#192140"></path> <path d="M179.236 206.268H179.484C180.14 206.268 180.771 206.529 181.235 206.993C181.699 207.457 181.96 208.088 181.96 208.744H176.749C176.749 208.418 176.814 208.095 176.939 207.794C177.064 207.493 177.247 207.22 177.478 206.989C177.709 206.759 177.983 206.577 178.285 206.453C178.587 206.33 178.91 206.266 179.236 206.268Z" fill="#41FBED" stroke="#192140" stroke-width="0.990719" stroke-linecap="round" stroke-linejoin="round"></path> <path d="M203.831 203.078L204.066 203C204.691 202.796 205.371 202.847 205.957 203.144C206.543 203.441 206.987 203.958 207.192 204.582L202.24 206.206C202.138 205.896 202.099 205.569 202.124 205.244C202.149 204.919 202.238 204.602 202.386 204.311C202.534 204.021 202.737 203.762 202.986 203.551C203.233 203.339 203.521 203.178 203.831 203.078Z" fill="#41FBED" stroke="#192140" stroke-width="0.990719" stroke-linecap="round" stroke-linejoin="round"></path> <path d="M115.533 81.0607C100.558 51.0221 96.5009 26.041 102.188 22.2169C104.015 20.9884 127.119 29.8305 145.779 48.8821L115.533 81.0607Z" fill="#BC02FD" stroke="#192140" stroke-width="0.990719" stroke-linecap="round" stroke-linejoin="round"></path> <path d="M176.913 41.0403C166.04 41.0234 155.334 43.7187 145.764 48.8818C142.549 44.3141 138.787 40.1551 134.564 36.4978C129.7 32.2972 121.254 25.1838 108.444 22.7912C106.446 22.4172 104.426 22.1725 102.396 22.0581C114.309 31.3015 126.46 40.9709 135.585 55.6584C127.922 61.846 121.742 69.6722 117.501 78.5614C113.259 87.4511 111.063 97.178 111.074 107.027C111.074 143.476 140.558 173.024 176.923 173.024C213.287 173.024 242.771 143.476 242.771 107.027C242.771 70.5787 213.277 41.0403 176.913 41.0403Z" fill="#BC02FD" stroke="#192140" stroke-width="0.990719" stroke-linecap="round" stroke-linejoin="round"></path> <path d="M168.338 41.6102L174.614 77.2762C179.494 77.6626 225.394 81.0409 228.262 69.93C230.422 61.5634 208.274 44.7062 185.121 41.5458C179.55 40.7983 173.903 40.8201 168.338 41.6102Z" fill="#41FBED" stroke="#192140" stroke-width="0.990719" stroke-linecap="round" stroke-linejoin="round"></path> <path d="M216.135 54.1578L205.267 50.8835C209.522 33.7787 219.484 12.0225 223.779 5.69675C225.76 2.78406 226.696 0.956186 227.375 1.06516C230.471 1.57043 223.006 35.1707 216.135 54.1578Z" fill="#BC02FD" stroke="#192140" stroke-width="0.990719" stroke-linecap="round" stroke-linejoin="round"></path> <path d="M205.51 50.9576C211.083 37.7019 221.054 14.1773 227.37 1.22363C215.977 8.4856 210.409 21.9891 203.36 34.9378C202.612 36.31 197.911 47.5299 197.222 48.8871C199.774 49.3082 202.959 50.5267 205.51 50.9576Z" fill="#BC02FD" stroke="#192140" stroke-width="0.990719" stroke-linecap="round" stroke-linejoin="round"></path> <path d="M190.055 43.2647C189.064 44.6913 194.285 50.5117 199.397 54.5043C210.384 63.084 224.66 66.1998 225.819 63.9162C226.563 62.4548 222.01 58.7297 219.083 56.3322C216.606 54.3111 213.416 52.1415 205.213 48.4659C196.093 44.3693 190.912 42.051 190.055 43.2647Z" fill="#BC02FD" stroke="#192140" stroke-width="0.990719" stroke-linecap="round" stroke-linejoin="round"></path> <path d="M215.754 53.8704C218.726 45.2016 225.428 24.5005 226.87 13.1667C227.4 8.97592 227.479 4.70099 227.643 0.886719C229.882 5.47091 231.487 10.3387 232.413 15.3562C234.27 25.5209 232.794 33.6498 230.639 44.8895C229.234 52.2307 227.326 59.4669 224.928 66.5466C224.398 61.6029 221.54 57.3676 215.754 53.8704Z" fill="#BC02FD" stroke="#192140" stroke-width="0.990719" stroke-linecap="round" stroke-linejoin="round"></path> <path d="M188.801 42.1852C191.049 35.0278 194.491 28.3018 198.981 22.2916C202.785 17.1844 209.438 8.48095 221.525 3.00723C223.412 2.15233 225.349 1.41291 227.325 0.792969C215.253 15.3565 202.959 31.3517 199.134 54.158C194.557 51.7357 191.016 46.7326 188.801 42.1852Z" fill="#41FBED" stroke="#192140" stroke-width="0.990719" stroke-linecap="round" stroke-linejoin="round"></path> <path d="M196.024 26.6105L198.198 23.3857C199.77 25.5064 201.761 27.2802 204.049 28.5969C204.952 29.121 205.894 29.5748 206.867 29.9542L205.024 33.8923C203.096 33.2117 201.298 32.2066 199.709 30.9202C198.234 29.714 196.986 28.2546 196.024 26.6105Z" fill="#BC02FD" stroke="#192140" stroke-width="0.990719" stroke-linecap="round" stroke-linejoin="round"></path> <path d="M194.557 122.27C194.493 121.63 194.303 121.009 193.998 120.442C193.693 119.875 193.279 119.374 192.78 118.968C192.282 118.562 191.708 118.258 191.091 118.074C190.475 117.89 189.828 117.829 189.188 117.896L173.529 119.53C172.235 119.665 171.048 120.308 170.228 121.319C169.408 122.329 169.023 123.624 169.158 124.917C169.292 126.211 169.935 127.399 170.946 128.219C171.956 129.039 173.251 129.424 174.545 129.289L177.443 128.987C177.438 129.073 177.438 129.159 177.443 129.244C177.443 131.226 179.677 132.851 182.431 132.851C185.185 132.851 187.419 131.236 187.419 129.244C187.415 128.804 187.305 128.37 187.097 127.981L190.223 127.654C190.861 127.586 191.48 127.392 192.043 127.084C192.607 126.777 193.104 126.361 193.507 125.861C193.909 125.361 194.209 124.786 194.389 124.17C194.57 123.554 194.627 122.908 194.557 122.27Z" fill="#F96BFF" stroke="#192140" stroke-width="0.990719" stroke-linecap="round" stroke-linejoin="round"></path> <path d="M245.32 95.185C244.98 95.24 244.63 95.1568 244.351 94.9542C244.071 94.7516 243.882 94.4464 243.828 94.1051L242.028 82.8951C241.973 82.5538 242.057 82.2051 242.259 81.9252C242.461 81.6448 242.767 81.4571 243.108 81.4021C243.788 81.2931 244.483 81.3189 245.154 81.4784C245.824 81.6379 246.456 81.9277 247.014 82.3314C247.572 82.7351 248.045 83.2448 248.407 83.8314C248.768 84.4179 249.01 85.0703 249.119 85.7504L249.669 89.1738C249.778 89.8539 249.752 90.5494 249.592 91.2191C249.433 91.8894 249.143 92.5219 248.739 93.0802C248.336 93.638 247.826 94.1116 247.239 94.4727C246.653 94.8338 246.001 95.076 245.32 95.185Z" fill="#BC02FD" stroke="#192140" stroke-width="0.990719" stroke-linecap="round" stroke-linejoin="round"></path> <path d="M234.552 68.8177L231.388 69.3255C228.544 69.7822 226.608 72.4581 227.064 75.3025L231.283 101.582C231.74 104.426 234.416 106.362 237.26 105.905L240.425 105.397C243.269 104.941 245.204 102.265 244.748 99.4205L240.529 73.1412C240.073 70.2969 237.397 68.361 234.552 68.8177Z" fill="#BC02FD" stroke="#192140" stroke-width="0.990719" stroke-linecap="round" stroke-linejoin="round"></path> <path d="M109.958 86.5877L106.794 87.0955C103.949 87.5522 102.014 90.2281 102.47 93.0725L106.689 119.352C107.146 122.196 109.821 124.132 112.666 123.675L115.83 123.167C118.675 122.711 120.61 120.035 120.154 117.191L115.935 90.9112C115.478 88.0669 112.803 86.131 109.958 86.5877Z" fill="#BC02FD" stroke="#192140" stroke-width="0.990719" stroke-linecap="round" stroke-linejoin="round"></path> <path d="M103.044 100.887C103.386 100.831 103.736 100.914 104.017 101.117C104.298 101.32 104.487 101.626 104.542 101.968L106.359 113.208C106.414 113.55 106.331 113.901 106.128 114.181C105.926 114.462 105.62 114.651 105.277 114.707C103.9 114.929 102.49 114.596 101.359 113.779C100.228 112.962 99.4673 111.73 99.2449 110.352L98.6901 106.919C98.4672 105.542 98.8011 104.133 99.6174 103.002C100.434 101.87 101.667 101.109 103.044 100.887Z" fill="#BC02FD" stroke="#192140" stroke-width="0.993538" stroke-linecap="round" stroke-linejoin="round"></path> <path d="M220.965 121.635C214.367 122.695 208.229 123.879 203.821 122.195C190.723 117.187 187.855 117.737 178.859 119.109C169.943 120.486 168.457 123.141 157.029 130.661C151.942 134.009 147.592 133.95 137.71 134.48C136.308 134.554 128.888 135.035 121.972 130.022C119.727 128.402 117.825 126.354 116.373 123.997C114.921 121.64 113.948 119.019 113.512 116.286L111.57 104.169C111.13 101.436 111.233 98.6423 111.873 95.9485C112.513 93.2548 113.678 90.7136 115.3 88.4701C116.923 86.2266 118.971 84.3249 121.329 82.8735C123.687 81.4216 126.307 80.4487 129.041 80.0104L211.647 66.7496C214.381 66.3077 217.175 66.4088 219.87 67.0473C222.565 67.6858 225.108 68.8494 227.353 70.4707C229.598 72.0925 231.501 74.1408 232.954 76.4982C234.407 78.8557 235.381 81.4766 235.821 84.211L237.773 96.3473C239.61 107.845 232.462 119.788 220.965 121.635Z" fill="#BC02FD" stroke="#192140" stroke-width="0.990719" stroke-linecap="round" stroke-linejoin="round"></path> <path d="M209.895 55.7745L127.291 69.0352C115.795 70.8804 107.971 81.6961 109.817 93.1929L111.761 105.307C113.607 116.804 124.423 124.627 135.919 122.782L218.523 109.521C230.019 107.676 237.843 96.8601 235.997 85.3638L234.052 73.2488C232.207 61.7525 221.391 53.9292 209.895 55.7745Z" fill="#192140" stroke="#192140" stroke-width="0.990719" stroke-linecap="round" stroke-linejoin="round"></path> <path d="M194.746 119.159C201.394 120.065 220.505 121.77 233.438 109.663C234.921 108.278 236.274 106.761 237.481 105.13C236.794 108.323 235.418 111.328 233.448 113.933C224.908 125.034 208.23 123.082 206.238 122.82C202.222 122.286 198.331 121.047 194.746 119.159Z" fill="#BC02FD" stroke="#192140" stroke-width="0.990719" stroke-linecap="round" stroke-linejoin="round"></path> <path d="M117.509 125.643C120.995 127.128 124.618 128.266 128.328 129.041C141.532 131.75 155.266 129.844 167.233 123.642C163.793 127.388 159.613 130.38 154.958 132.429C149.756 134.713 144.092 135.746 138.418 135.446C135.644 135.283 130.918 134.951 125.653 132.172C122.555 130.522 119.793 128.307 117.509 125.643Z" fill="#BC02FD" stroke="#192140" stroke-width="0.990719" stroke-linecap="round" stroke-linejoin="round"></path> <path opacity="0.34" d="M7.01925 203.756C5.17651 171.039 3.33214 138.319 1.48608 105.596C26.5577 111.352 52.2015 114.243 77.925 114.215C104.795 114.181 131.566 110.964 157.678 104.63V205.292C131.062 212.036 103.636 215.037 76.1913 214.208C52.8009 213.479 29.5804 209.971 7.01925 203.756Z" fill="#D7F8FF"></path> <path d="M7.01925 203.756C5.17651 171.039 3.33214 138.319 1.48608 105.596C26.5577 111.352 52.2015 114.243 77.925 114.215C104.795 114.181 131.566 110.964 157.678 104.63V205.292C131.062 212.036 103.636 215.037 76.1913 214.208C52.8009 213.479 29.5804 209.971 7.01925 203.756Z" stroke="#192140" stroke-width="0.990719" stroke-linecap="round" stroke-linejoin="round"></path> <path opacity="0.25" d="M137.066 132.38H118.099V189.287H137.066V132.38Z" fill="#192140"></path> <path opacity="0.5" d="M106.245 144.318H87.2773V192.18H106.245V144.318Z" fill="#7C4FAB"></path> <path opacity="0.25" d="M76.7364 159.481H57.769V194.246H76.7364V159.481Z" fill="#192140"></path> <path opacity="0.5" d="M46.1775 168.249H27.2102V189.812H46.1775V168.249Z" fill="#7C4FAB"></path> <path opacity="0.3" d="M18.249 191.655C44.7864 199.615 72.5557 202.653 100.186 200.621C117.087 199.347 133.789 196.167 149.975 191.14" stroke="#192140" stroke-width="0.990719" stroke-linecap="round" stroke-linejoin="round"></path> <path opacity="0.25" d="M282.424 191.407C283.371 191.407 284.138 190.64 284.138 189.693C284.138 188.746 283.371 187.979 282.424 187.979C281.478 187.979 280.71 188.746 280.71 189.693C280.71 190.64 281.478 191.407 282.424 191.407Z" fill="#192140" stroke="#192140" stroke-width="0.49536" stroke-miterlimit="10"></path> <path opacity="0.34" d="M238.109 185.126L233.81 276.41C249.738 277.022 265.56 273.575 279.791 266.395C294.022 259.214 306.195 248.535 315.167 235.36L318.333 146.195C308.525 158.053 296.285 167.665 282.44 174.38C268.595 181.096 253.468 184.759 238.085 185.121L238.109 185.126Z" fill="#D7F8FF"></path> <path opacity="0.5" d="M297.27 165.668L300.242 123.201C303.709 124.03 306.956 125.6 309.758 127.803C311.21 128.952 316.337 133.123 317.971 140.246C318.516 142.179 318.646 144.204 318.353 146.191C318.011 148.222 316.976 151.214 311.566 156.172C307.315 160.05 302.493 163.253 297.27 165.668Z" fill="#BFFFED"></path> <path opacity="0.25" d="M317.848 171.974C317.293 187.561 316.739 203.15 316.188 218.741C306.476 230.02 294.835 239.483 281.81 246.689C279.076 248.175 252.916 262.575 247.918 256.556C245.045 253.089 249.027 242.686 256.146 238.129C263.437 233.468 268.99 238.173 273.914 233.854C280.819 227.791 273.067 215.739 280.824 207.857C284.242 204.39 290.023 202.379 294.313 203.895C299.435 205.727 300.015 211.741 302.209 211.464C305.88 210.998 303.492 194.374 313.072 178.562C314.478 176.237 316.076 174.033 317.848 171.974Z" fill="#192140"></path> <path opacity="0.25" d="M250.122 212.866L266.791 223.268C272.022 210.141 277.251 197.013 282.479 183.882L303.284 197.525" stroke="#192140" stroke-width="0.49536" stroke-miterlimit="10"></path> <path opacity="0.25" d="M266.82 224.507C267.767 224.507 268.534 223.74 268.534 222.793C268.534 221.846 267.767 221.079 266.82 221.079C265.874 221.079 265.106 221.846 265.106 222.793C265.106 223.74 265.874 224.507 266.82 224.507Z" fill="#192140" stroke="#192140" stroke-width="0.49536" stroke-miterlimit="10"></path> <path opacity="0.25" d="M303.284 199.046C304.23 199.046 304.998 198.278 304.998 197.332C304.998 196.385 304.23 195.618 303.284 195.618C302.337 195.618 301.57 196.385 301.57 197.332C301.57 198.278 302.337 199.046 303.284 199.046Z" fill="#192140" stroke="#192140" stroke-width="0.49536" stroke-miterlimit="10"></path> <path d="M297.27 165.668C301.847 163.464 307.643 160.061 312.716 155.092C315.42 152.442 317.04 150.208 317.838 147.29C318.369 145.302 318.484 143.226 318.174 141.192" stroke="#192140" stroke-width="0.990719" stroke-linecap="round" stroke-linejoin="round"></path> <path d="M317.971 140.237C316.039 131.974 309.104 125.43 300.237 123.201C299.247 137.359 298.256 151.514 297.265 165.668C293.009 168.662 288.538 171.339 283.89 173.678C269.662 180.826 254.028 184.735 238.109 185.126L233.81 276.411C249.738 277.022 265.56 273.576 279.791 266.395C294.022 259.215 306.195 248.536 315.167 235.36C316.208 206.118 317.246 176.875 318.283 147.632C318.643 145.169 318.537 142.66 317.971 140.237Z" stroke="#192140" stroke-width="0.990719" stroke-linecap="round" stroke-linejoin="round"></path> </svg> 