<?xml version="1.0" encoding="UTF-8"?> <svg xmlns="http://www.w3.org/2000/svg" width="60" height="60" viewBox="0 0 60 60" fill="none"> <path d="M30 60C46.5685 60 60 46.5685 60 30C60 13.4315 46.5685 0 30 0C13.4315 0 0 13.4315 0 30C0 46.5685 13.4315 60 30 60Z" fill="#E4C9FF"></path> <path d="M30.0008 52.8738C42.6332 52.8738 52.8738 42.6332 52.8738 30.0008C52.8738 17.3685 42.6332 7.12793 30.0008 7.12793C17.3685 7.12793 7.12793 17.3685 7.12793 30.0008C7.12793 42.6332 17.3685 52.8738 30.0008 52.8738Z" fill="#D7F8FF"></path> <path d="M31.0804 46.3603C35.1857 45.8899 39.2142 43.4794 41.1597 39.6834C44.3444 33.4715 40.2849 26.7965 38.4143 23.7125C37.8067 22.7131 36.8366 21.3587 36.5841 21.4869C36.3315 21.615 37.0178 22.8998 36.9757 24.4977C36.9318 26.2163 36.0789 27.5762 35.4054 28.4254C35.6207 26.8805 35.4406 25.3061 34.8819 23.8497C34.0473 21.7651 32.8155 21.1794 31.9535 19.5083C31.2689 18.1887 30.7217 16.0198 31.7466 12.46C30.9633 12.6833 26.5706 14.1475 24.2938 18.8037C22.3317 22.8065 23.2267 26.5457 23.4866 27.4993C22.1133 26.1043 21.2 24.3223 20.8693 22.3929C19.8554 23.4068 17.3918 26.1431 16.6469 30.4277C16.4639 31.4893 15.4956 37.1009 19.4289 41.7754C23.8856 47.0576 30.6448 46.4005 31.0804 46.3603Z" fill="#DCF10D" stroke="#192140" stroke-width="0.5" stroke-linecap="round" stroke-linejoin="round"></path> <path d="M34.4762 11.9082C32.8601 13.1894 32.5343 14.2052 32.5654 14.9208C32.6167 16.1544 33.7295 16.6504 33.9546 18.5118C34.0937 19.6612 33.7844 20.43 33.9546 20.4812C34.1797 20.5471 35.0528 19.3098 35.1717 17.8163C35.2724 16.4802 34.6812 15.9861 34.4762 14.11C34.397 13.3782 34.397 12.64 34.4762 11.9082Z" fill="#DCF10D" stroke="#192140" stroke-width="0.5" stroke-linecap="round" stroke-linejoin="round"></path> <path d="M29.7272 24.5361C24.8093 29.0093 24.0863 32.1098 24.3975 34.1524C24.6171 35.5837 25.4627 37.2639 25.2083 37.3956C24.9539 37.5274 23.8393 35.9314 22.9497 34.5569C22.6269 35.8137 22.6471 37.134 23.0083 38.3803C23.6141 40.4046 25.4279 43.0091 28.5101 43.3623C31.089 43.6552 33.5232 42.255 34.7074 40.2344C36.5102 37.1595 34.7751 33.7497 34.6507 33.5136C33.386 31.1343 31.4514 31.0501 30.3056 28.4749C29.777 27.2336 29.5778 25.8769 29.7272 24.5361Z" fill="#E4C9FF" stroke="#192140" stroke-width="0.5" stroke-linecap="round" stroke-linejoin="round"></path> </svg> 