<?xml version="1.0" encoding="UTF-8"?> <svg xmlns="http://www.w3.org/2000/svg" width="1040" height="320" viewBox="0 0 1040 320" fill="none"> <path d="M110.331 0H141.999V5.94667H136.035C134.992 5.94667 133.173 7.14667 130.552 9.52C127.93 11.8933 126.62 13.76 126.62 14.9867V105.653C126.62 106.907 127.93 108.72 130.552 111.12C133.173 113.52 134.992 114.72 136.035 114.72H141.999V120.64H95.2725V114.667H101.237C102.28 114.667 104.072 113.467 106.586 111.067C109.101 108.667 110.358 106.853 110.358 105.6V17.8133L66.4393 122.8L22.5744 16V105.627C22.5744 106.88 23.8315 108.693 26.319 111.093C28.8064 113.493 30.6252 114.693 31.6683 114.693H37.6062V120.613H0V114.667H5.96456C7.22167 114.667 9.09395 113.467 11.6082 111.067C14.1224 108.667 15.3527 106.853 15.3527 105.6V14.9867C15.3527 13.76 14.0956 11.92 11.6082 9.52C9.1207 7.12 7.22167 5.94667 5.96456 5.94667H0V0H35.0919L71.4677 90.32H72.4039L110.331 0ZM185.57 108.427C190.907 108.744 196.226 107.561 200.923 105.013C204.819 102.353 208.035 98.8184 210.311 94.6933H215.339C213.105 102.44 208.828 109.447 202.956 114.987C196.513 120.314 188.282 123.002 179.926 122.507C174.959 122.686 170.018 121.704 165.499 119.639C160.98 117.574 157.008 114.483 153.902 110.613C147.385 102.586 143.944 92.5106 144.193 82.1867C143.902 76.6615 144.72 71.134 146.598 65.9278C148.477 60.7216 151.378 55.9413 155.132 51.8667C158.49 48.266 162.566 45.4049 167.099 43.467C171.631 41.5291 176.52 40.5571 181.451 40.6133C186.813 40.4907 192.145 41.4523 197.125 43.44C201.644 45.3601 205.784 48.0692 209.348 51.44L197.927 69.3333L193.22 69.6267C194.288 64.3015 193.966 58.7918 192.284 53.6267C191.284 51.223 189.505 49.223 187.231 47.9466C184.957 46.6703 182.319 46.1914 179.739 46.5867C176.377 46.3736 173.017 47.0389 169.991 48.5167C166.966 49.9946 164.379 52.2339 162.487 55.0133C158.45 61.7008 156.487 69.4294 156.844 77.2267C156.618 85.3058 159.346 93.1913 164.52 99.4133C167.121 102.4 170.365 104.762 174.01 106.323C177.655 107.884 181.607 108.603 185.57 108.427ZM263.297 120.613H215.955V114.667H221.999C223.256 114.667 225.129 113.467 227.643 111.067C230.157 108.667 231.387 106.853 231.387 105.6V14.9867C231.387 13.76 230.157 11.92 227.643 9.52C225.129 7.12 223.176 5.94667 221.999 5.94667H215.955V0H263.297V5.94667H257.332C256.075 5.94667 254.203 7.14667 251.688 9.52C249.174 11.8933 247.944 13.76 247.944 14.9867V64.3733L291.194 16.24C292.023 15.2 291.194 13.2267 289 10.32C286.807 7.41333 285.015 5.94667 283.972 5.94667H278.168V0H322.033V5.94667H316.068C313.122 6.95661 310.417 8.56366 308.124 10.6667C303.925 13.8933 301.438 16 300.582 16.7733L271.16 48.32L313.474 104.32C315.527 106.706 317.893 108.804 320.508 110.56C322.609 112.486 325.139 113.884 327.89 114.64H336.663C338.74 114.211 340.619 113.115 342.013 111.52C344.313 109.413 345.463 107.653 345.463 106.187V56.88C345.463 55.6267 344.313 53.9467 342.013 51.8667C340.619 50.272 338.74 49.1761 336.663 48.7467H331.929V42.8H359.826V106.24C359.826 107.707 361.03 109.467 363.437 111.573C364.822 113.086 366.614 114.169 368.599 114.693H378.335C379.378 114.693 381.01 113.653 383.337 111.573C385.664 109.493 386.787 107.707 386.787 106.24V56.88C386.787 55.6267 385.637 53.9467 383.337 51.8667C381.036 49.7867 379.378 48.7467 378.335 48.7467H373.307V42.8H398.074L401.204 58.6667C405.456 54.1894 410.014 50.0105 414.845 46.16C419.75 42.4828 425.776 40.5997 431.909 40.8267C434.789 40.7746 437.65 41.3028 440.32 42.3797C442.99 43.4565 445.415 45.0597 447.449 47.0933C449.589 49.2089 451.265 51.7451 452.37 54.5408C453.476 57.3365 453.986 60.3307 453.868 63.3333V106.24C453.868 107.707 455.018 109.467 457.319 111.573C459.619 113.68 461.277 114.693 462.32 114.693H467.349V120.613H426.292V114.667H430.625C432.7 114.232 434.577 113.137 435.975 111.547C438.275 109.44 439.425 107.68 439.425 106.213V64.3733C439.578 60.8728 438.457 57.4352 436.269 54.6933C435.095 53.3945 433.639 52.3805 432.012 51.7288C430.385 51.0772 428.629 50.8051 426.881 50.9333C420.68 51.1216 414.698 53.259 409.789 57.04C404.066 61.0933 401.204 64.48 401.204 67.2V106.24C401.204 107.707 402.354 109.467 404.654 111.573C406.047 113.168 407.926 114.264 410.003 114.693H414.39V120.613H302.24L260.167 60.32L247.944 73.44V105.627C247.944 106.88 249.174 108.693 251.688 111.093C254.203 113.493 256.075 114.693 257.332 114.693H263.297V120.613ZM305.289 256.613L304.915 256.24C308.9 259.573 312.939 262.907 317.004 266.24C321.07 269.573 325.403 272.8 330.003 275.947H337.198V282.187H324.039C318.681 282.277 313.358 281.326 308.365 279.387C303.033 277.007 298.155 273.723 293.949 269.68C289.205 274.443 283.484 278.127 277.178 280.48C269.883 283.01 262.192 284.22 254.47 284.053C244.655 284.105 235.153 280.609 227.723 274.213C223.878 271.12 220.802 267.184 218.732 262.712C216.663 258.239 215.658 253.35 215.794 248.427C215.715 241.103 217.559 233.886 221.143 227.493C224.621 221.352 229.494 216.109 235.373 212.187C232.56 208.626 230.189 204.741 228.312 200.613C226.46 196.275 225.548 191.595 225.637 186.88C225.413 183.206 225.996 179.527 227.345 176.1C228.694 172.674 230.776 169.582 233.447 167.04C239.42 162.081 247.057 159.565 254.818 160C259.289 159.85 263.752 160.481 268.004 161.867C270.793 163.01 273.763 163.651 276.777 163.76C277.936 163.788 279.094 163.681 280.227 163.44C281.176 163.129 281.964 162.459 282.421 161.573H287.77V190H282.421C281.59 184.13 278.756 178.724 274.397 174.693C271.966 171.8 268.919 169.484 265.476 167.915C262.033 166.347 258.282 165.565 254.497 165.627C249 165.325 243.567 166.927 239.117 170.16C237.251 171.68 235.767 173.615 234.787 175.811C233.807 178.006 233.357 180.4 233.474 182.8C233.442 187.501 235.114 192.056 238.181 195.627C241.557 199.55 245.872 202.558 250.726 204.373C258.446 212.729 266.8 221.111 275.787 229.52C284.774 237.929 293.342 245.796 301.491 253.12C303.722 249.555 305.365 245.657 306.359 241.573C307.339 237.197 307.815 232.724 307.777 228.24C307.885 225.832 307.479 223.429 306.584 221.19C305.69 218.951 304.327 216.927 302.588 215.253C298.757 211.884 293.753 210.151 288.653 210.427V204.373H331.662V210H326.981C325.938 210 323.878 211.76 320.856 215.333C318.603 217.436 317.022 220.153 316.309 223.147V223.467C316.102 229.468 315.048 235.411 313.18 241.12C311.382 246.649 308.719 251.86 305.289 256.56V256.613ZM264.233 274.747C269.179 274.813 274.102 274.075 278.81 272.56C282.985 271.163 286.939 269.179 290.552 266.667L289.616 266.053C280.7 258.124 271.927 250 263.297 241.68C254.666 233.36 246.303 224.604 238.208 215.413C235.219 218.535 232.786 222.143 231.013 226.08C229.147 230.849 228.291 235.952 228.499 241.067C228.62 245.539 229.705 249.933 231.68 253.95C233.655 257.966 236.475 261.512 239.947 264.347C246.41 270.772 255.107 274.468 264.233 274.667V274.747ZM351.053 23.76H350.732C348.104 23.7836 345.575 22.767 343.698 20.9333C342.734 20.0671 341.967 19.0046 341.451 17.8177C340.934 16.6308 340.678 15.3471 340.702 14.0533V13.76C340.626 12.3888 340.855 11.0179 341.373 9.74537C341.891 8.47289 342.685 7.33045 343.698 6.4C345.766 4.69145 348.367 3.75646 351.053 3.75646C353.739 3.75646 356.34 4.69145 358.409 6.4C359.422 7.33045 360.216 8.47289 360.733 9.74537C361.251 11.0179 361.48 12.3888 361.404 13.76H361.083C361.297 13.76 361.404 13.76 361.404 14.0533C361.428 15.3471 361.173 16.6308 360.656 17.8177C360.139 19.0046 359.373 20.0671 358.409 20.9333C356.625 22.7274 354.202 23.7438 351.668 23.76H351.053ZM430.625 274.053C439.226 274.548 447.768 272.367 455.072 267.813C461.396 263.067 466.449 256.838 469.783 249.68H476.095C472.633 259.831 466.183 268.706 457.586 275.147C448.745 281.457 438.07 284.698 427.202 284.373C419.281 284.657 411.401 283.12 404.171 279.884C396.941 276.647 390.554 271.796 385.503 265.707C375.031 253.251 369.46 237.422 369.829 221.173C369.407 205.362 374.503 189.895 384.246 177.413C388.974 171.476 395.046 166.74 401.964 163.593C408.882 160.446 416.449 158.977 424.045 159.307C429.708 159.178 435.346 160.081 440.682 161.973C445.17 163.739 449.953 164.644 454.778 164.64C456.282 164.713 457.783 164.44 459.164 163.84C460.329 163.244 461.386 162.46 462.294 161.52H466.68V204.053H461.331C460.426 195.471 457.055 187.331 451.622 180.613C448.72 176.156 444.714 172.521 439.991 170.059C435.268 167.597 429.988 166.392 424.661 166.56C420.118 166.319 415.574 167.014 411.313 168.602C407.052 170.189 403.164 172.635 399.893 175.787C392.982 184.081 389.197 194.524 389.194 205.307V204.693C388.98 206.987 388.82 209.28 388.713 211.573C388.713 213.867 388.552 216.24 388.552 218.747C388.552 221.653 388.552 224.64 388.873 227.653C389.194 230.667 389.301 233.44 389.488 235.947C390.323 246.085 394.64 255.627 401.712 262.96C405.48 266.73 410.002 269.666 414.983 271.577C419.965 273.488 425.295 274.332 430.625 274.053ZM529.589 98.7467C529.775 102.001 529.238 105.256 528.018 108.28C526.797 111.303 524.922 114.021 522.528 116.24C517.532 120.53 511.089 122.77 504.5 122.507C500.198 122.636 495.918 121.836 491.956 120.16C488.83 118.641 485.403 117.839 481.926 117.813C480.731 117.698 479.53 117.969 478.502 118.587L475.988 120.613H472.35V93.12H477.058C477.931 98.4784 480.51 103.415 484.413 107.2C486.893 110.096 490.004 112.39 493.509 113.906C497.013 115.422 500.818 116.12 504.634 115.947C508.555 116.15 512.457 115.284 515.921 113.44C517.256 112.592 518.338 111.403 519.053 109.995C519.768 108.588 520.091 107.014 519.987 105.44C520.13 103.564 519.754 101.684 518.9 100.006C518.047 98.3271 516.748 96.914 515.145 95.92C511.976 93.9767 508.678 92.2484 505.276 90.7467C502.334 89.52 499.686 88.3733 497.252 87.3333C494.818 86.2933 492.063 85.1467 488.934 83.8933C484.505 81.8534 480.475 79.0454 477.031 75.6C475.425 73.8582 474.181 71.8156 473.373 69.5908C472.565 67.366 472.208 65.0034 472.324 62.64C472.128 59.6765 472.59 56.7063 473.676 53.9409C474.763 51.1755 476.447 48.6828 478.609 46.64C482.63 43.7976 487.297 41.9954 492.189 41.3949C497.082 40.7945 502.047 41.4148 506.64 43.2C509.325 44.5316 512.28 45.2339 515.279 45.2533C516.195 45.283 517.106 45.1195 517.954 44.7733C518.729 44.4301 519.348 43.8125 519.692 43.04H523.758V67.04H519.05C518.29 62.2997 516.043 57.9214 512.631 54.5333C510.537 51.9794 507.876 49.9446 504.86 48.5889C501.843 47.2332 498.552 46.5934 495.246 46.72C491.62 46.4243 488.007 47.4264 485.055 49.5467C483.997 50.4155 483.151 51.5128 482.581 52.7555C482.011 53.9982 481.732 55.3539 481.765 56.72C481.669 58.1567 481.934 59.5948 482.536 60.9035C483.139 62.2122 484.06 63.3499 485.216 64.2133C488.18 66.2659 491.322 68.0507 494.604 69.5467C497.546 70.7733 500.301 71.92 502.922 72.96L511.535 76.4C516.03 78.2833 520.165 80.9266 523.758 84.2133C525.741 86.0496 527.301 88.2925 528.33 90.7877C529.36 93.2828 529.835 95.9709 529.723 98.6667L529.589 98.7467ZM550.104 213.12C554.09 217 557.202 221.682 559.231 226.855C561.261 232.028 562.161 237.573 561.872 243.12C562.156 248.69 561.255 254.258 559.226 259.456C557.198 264.654 554.089 269.366 550.104 273.28C542.903 280.411 533.158 284.401 523.009 284.373C512.748 284.449 502.878 280.458 495.567 273.28C491.586 269.363 488.482 264.651 486.458 259.453C484.435 254.255 483.537 248.689 483.825 243.12C483.524 237.824 484.318 232.522 486.156 227.544C487.994 222.566 490.839 218.017 494.512 214.18C498.186 210.342 502.61 207.298 507.512 205.235C512.414 203.172 517.689 202.134 523.009 202.187C533.175 202.114 542.96 206.042 550.237 213.12H550.104ZM546.332 256V256.613C546.546 254.32 546.68 252.027 546.787 249.733C546.894 247.44 546.948 245.147 546.948 242.853C546.948 240.56 546.948 238.347 546.787 236.16C546.627 233.973 546.546 231.92 546.332 230.053C545.845 224.348 543.474 218.966 539.592 214.747C537.38 212.74 534.779 211.206 531.951 210.238C529.122 209.271 526.125 208.89 523.143 209.12C520.224 208.914 517.294 209.307 514.534 210.275C511.773 211.243 509.242 212.765 507.095 214.747C503.255 218.866 500.885 224.134 500.354 229.733V229.333C499.939 231.499 499.679 233.691 499.579 235.893C499.579 238.187 499.418 240.48 499.418 242.747C499.418 245.013 499.418 247.28 499.579 249.467C499.672 251.52 499.931 253.562 500.354 255.573C500.974 261.149 503.332 266.39 507.095 270.56C509.195 272.628 511.711 274.227 514.478 275.253C517.244 276.278 520.198 276.705 523.143 276.507C526.165 276.771 529.208 276.392 532.072 275.394C534.935 274.397 537.554 272.803 539.753 270.72C543.416 266.607 545.714 261.466 546.332 256ZM572.036 122.667C567.091 122.76 562.189 121.725 557.706 119.641C553.224 117.556 549.278 114.478 546.172 110.64C539.395 102.657 535.771 92.4832 535.981 82.0267C535.657 71.3065 539.347 60.8499 546.332 52.6933C549.433 48.9202 553.366 45.9124 557.825 43.9048C562.283 41.8973 567.147 40.9442 572.036 41.12C575.831 40.9091 579.627 41.5143 583.167 42.8946C586.706 44.275 589.907 46.3981 592.551 49.12C597.461 54.3563 600.31 61.1835 600.575 68.3467L600.896 73.9733L548.847 78.1333C548.952 85.6234 551.591 92.8586 556.336 98.6667C558.72 101.859 561.849 104.424 565.452 106.138C569.054 107.853 573.022 108.666 577.011 108.507C582.398 108.809 587.765 107.628 592.524 105.093C596.4 102.574 599.582 99.1268 601.779 95.0667H606.486C604.494 102.773 600.359 109.761 594.557 115.227C588.243 120.404 580.196 123.006 572.036 122.507V122.667ZM571.715 47.04C568.297 46.7555 564.863 47.369 561.756 48.8194C558.65 50.2698 555.978 52.5065 554.009 55.3067C550.478 60.4357 548.467 66.4517 548.205 72.6667L587.389 69.3333C588.059 64.1046 587.463 58.7918 585.65 53.84C583.938 49.2178 579.293 46.8978 571.715 46.88V47.04ZM666.372 276.373C667.63 276.373 669.341 275.28 671.535 273.093C673.728 270.907 674.824 269.2 674.824 267.947V225.28C674.966 221.95 673.913 218.68 671.856 216.053C670.642 214.771 669.152 213.78 667.497 213.156C665.843 212.533 664.068 212.292 662.307 212.453C656.757 212.637 651.416 214.611 647.088 218.08C641.97 221.849 639.412 224.978 639.412 227.467V268.08C639.412 269.333 640.508 271.04 642.701 273.227C644.895 275.413 646.526 276.507 647.569 276.507H652.277V282.453H612.156V276.507H616.543C617.8 276.507 619.512 275.413 621.705 273.227C623.898 271.04 624.995 269.333 624.995 268.08V225.413C625.167 221.955 624.053 218.556 621.866 215.867C620.662 214.609 619.193 213.633 617.564 213.01C615.936 212.388 614.19 212.134 612.451 212.267C606.756 212.453 601.291 214.548 596.938 218.213C591.82 222.16 589.261 225.493 589.261 228.213V268.213C589.261 269.467 590.358 271.173 592.551 273.36C594.744 275.547 596.483 276.64 597.74 276.64H602.126V282.587H562.006V276.64H566.714C567.757 276.64 569.388 275.547 571.555 273.36C573.721 271.173 574.845 269.467 574.845 268.213V218.427C574.845 217.2 573.748 215.52 571.555 213.44C569.361 211.36 567.757 210.32 566.714 210.32H562.006V204.373H586.078L589.208 219.387C593.808 214.587 597.99 210.569 601.752 207.333C606.337 203.838 612.041 202.122 617.8 202.507C622.725 202.408 627.553 203.884 631.575 206.72C633.576 208.161 635.253 210.004 636.497 212.131C637.741 214.257 638.524 216.62 638.796 219.067C643.584 214.48 647.997 210.613 651.956 207.493C656.489 204.19 662.021 202.534 667.63 202.8C673.308 202.661 678.816 204.737 682.982 208.587C685.141 210.722 686.817 213.292 687.901 216.124C688.985 218.957 689.451 221.987 689.268 225.013V267.68C689.268 268.933 690.364 270.64 692.558 272.827C694.751 275.013 696.356 276.107 697.399 276.107H702.106V282.053H661.986V276.107L666.372 276.373ZM614.029 57.7067C612.721 55.6664 611.075 53.8628 609.161 52.3733C606.486 50.08 604.721 48.9333 603.811 48.9333H600.361V42.8H642.675V48.7467H637.673C636.63 48.7467 635.266 49.7867 633.607 51.8667C632.206 53.3215 631.322 55.1955 631.093 57.2L649.816 95.6267L667.068 57.4933C667.077 56.4456 666.873 55.4069 666.468 54.4399C666.064 53.4729 665.467 52.5975 664.714 51.8667C662.931 49.7867 661.513 48.7467 660.461 48.7467H655.299V42.8H686.968V48.7467H683.517C682.474 48.7467 680.843 49.84 678.649 52.0267C676.929 53.5865 675.498 55.4371 674.423 57.4933L647.676 114.053L624.674 158.133L617.854 154.667L641.658 111.84L614.029 57.7067ZM756.028 202.4C760.399 202.228 764.745 203.136 768.679 205.044C772.613 206.951 776.013 209.799 778.576 213.333C784.305 221.795 787.121 231.884 786.6 242.08C787.021 252.813 783.818 263.376 777.506 272.08C774.901 275.792 771.428 278.816 767.388 280.888C763.347 282.961 758.86 284.02 754.316 283.973C748.57 284.263 742.861 282.902 737.867 280.053C733.45 277.073 729.839 273.052 727.355 268.347V305.84C727.355 307.307 728.506 309.067 730.806 311.173C733.106 313.28 734.791 314.293 735.834 314.293H740.889V320H699.592V314.053H704.621C706.647 313.628 708.467 312.527 709.783 310.933C711.528 309.645 712.706 307.734 713.073 305.6V218.427C713.073 217.2 711.976 215.52 709.783 213.44C708.467 211.846 706.647 210.746 704.621 210.32H699.592V204.053H724.975L727.489 220.32C730.345 214.835 734.483 210.116 739.552 206.56C744.495 203.523 750.225 202.002 756.028 202.187V202.4ZM771.702 254.907V255.2L772.317 248.96C772.531 246.887 772.638 244.804 772.638 242.72C772.642 240.893 772.534 239.067 772.317 237.253C772.103 235.467 771.889 233.76 771.702 232.08C771.188 226.61 768.993 221.432 765.416 217.253C763.701 215.46 761.619 214.056 759.312 213.136C757.004 212.216 754.525 211.801 752.043 211.92C749.151 211.798 746.265 212.276 743.567 213.322C740.869 214.369 738.418 215.962 736.369 218C732.283 222.285 729.276 227.476 727.596 233.147V253.467C727.564 256.381 728.131 259.272 729.263 261.959C730.394 264.647 732.067 267.075 734.176 269.093C736.258 271.223 738.757 272.905 741.517 274.033C744.278 275.162 747.241 275.713 750.224 275.653H750.545C753.325 275.865 756.117 275.456 758.717 274.455C761.318 273.454 763.661 271.886 765.577 269.867C769.083 265.527 771.216 260.245 771.702 254.693V254.907ZM948.793 268.027C948.793 269.28 949.943 270.987 952.243 273.173C954.544 275.36 956.202 276.453 957.245 276.453H961.953V282.4H920.896V276.453H925.443C926.513 276.453 928.118 275.36 930.471 273.173C932.825 270.987 933.922 269.28 933.922 268.027V225.627C934.032 222.211 932.986 218.858 930.953 216.107C929.839 214.761 928.416 213.703 926.805 213.021C925.195 212.338 923.443 212.052 921.698 212.187C915.478 212.389 909.488 214.577 904.607 218.427C898.848 222.622 895.977 225.956 895.995 228.427V267.813C895.995 269.28 897.145 271.04 899.445 273.147C900.838 274.741 902.717 275.837 904.794 276.267H909.395V282.213H842.849L840.655 265.973C837.359 270.293 833.689 274.317 829.689 278C825.62 281.815 820.215 283.891 814.631 283.787C811.999 283.805 809.391 283.288 806.967 282.265C804.543 281.242 802.354 279.737 800.535 277.84C798.544 275.83 796.988 273.435 795.962 270.803C794.937 268.17 794.463 265.356 794.57 262.533C794.271 259.219 794.921 255.889 796.446 252.929C797.971 249.969 800.307 247.501 803.183 245.813C808.424 242.789 814.071 240.526 819.953 239.093L840.334 235.013L840.655 225.653C840.891 220.936 839.323 216.304 836.269 212.693C834.235 210.885 831.845 209.52 829.253 208.684C826.66 207.849 823.921 207.561 821.21 207.84C818.581 207.525 815.915 207.941 813.507 209.042C811.1 210.144 809.045 211.887 807.569 214.08C806.396 216.66 805.857 219.481 805.997 222.31C806.136 225.139 806.951 227.894 808.372 230.347H802.728L792.029 214.72C796.314 210.519 801.419 207.24 807.028 205.089C812.637 202.937 818.63 201.959 824.634 202.213C832.309 201.952 839.874 204.087 846.272 208.32C849.123 210.272 851.426 212.919 852.962 216.009C854.497 219.099 855.215 222.529 855.045 225.973V267.84C855.045 269.093 856.195 270.747 858.496 272.827C860.796 274.907 862.454 275.973 863.497 275.973H872.912C874.995 275.542 876.876 274.436 878.261 272.827C880.562 270.747 881.712 269.093 881.712 267.84V218.427C881.712 217.2 880.562 215.52 878.261 213.44C876.868 211.845 874.989 210.749 872.912 210.32H868.205V204.053H892.972L896.102 220.32C900.292 215.876 904.759 211.698 909.475 207.813C914.415 204.083 920.51 202.196 926.7 202.48C929.574 202.428 932.428 202.954 935.094 204.026C937.759 205.098 940.18 206.694 942.213 208.72C944.363 210.835 946.047 213.375 947.157 216.176C948.267 218.976 948.779 221.977 948.659 224.987L948.793 268.027ZM840.655 240.32L821.932 245.013C817.912 245.665 814.248 247.704 811.581 250.773C809.642 253.574 808.649 256.918 808.746 260.32V260.613C808.722 262.205 809.015 263.786 809.607 265.264C810.199 266.742 811.079 268.089 812.197 269.227C813.278 270.384 814.592 271.301 816.053 271.917C817.514 272.532 819.089 272.833 820.675 272.8H821.13C825.329 272.631 829.331 270.977 832.417 268.133C835.598 265.596 838.313 262.529 840.441 259.067L840.655 240.32ZM1040 204.373V210.32H1036.23C1035.4 210.32 1033.88 211.413 1031.68 213.6C1030.02 215.182 1028.5 216.904 1027.13 218.747L1000.82 275.627L977.305 319.387L970.726 315.947L994.236 273.12L966.66 219.067C965.344 217.033 963.699 215.231 961.792 213.733C959.117 211.44 957.459 210.293 956.63 210.293H952.859V204.373H995.172V210.32H990.465C989.422 210.32 988.004 211.36 986.239 213.44C984.77 214.866 983.827 216.746 983.564 218.773L1002.29 257.227L1019.62 218.667C1019.62 217.663 1019.41 216.67 1019.01 215.752C1018.6 214.834 1018.01 214.01 1017.27 213.333C1015.5 211.253 1014.08 210.213 1013.04 210.213H1008.04V204.373H1040Z" fill="#192140"></path> </svg> 