<?xml version="1.0" encoding="UTF-8"?> <svg xmlns="http://www.w3.org/2000/svg" width="30" height="30" viewBox="0 0 30 30" fill="none"> <g clip-path="url(#clip0_6130_74359)"> <path d="M14.7115 29.423C22.8365 29.423 29.423 22.8365 29.423 14.7115C29.423 6.58657 22.8365 0 14.7115 0C6.58657 0 0 6.58657 0 14.7115C0 22.8365 6.58657 29.423 14.7115 29.423Z" fill="#192140"></path> <path d="M20.8333 8.83486L18.3288 21.9099C18.3288 21.9099 17.9784 22.8164 17.0157 22.3817L11.2371 17.7935L11.2104 17.78C11.9909 17.0542 18.0437 11.4186 18.3082 11.1631C18.7177 10.7675 18.4635 10.5319 17.988 10.8308L9.04733 16.7105L5.59803 15.5086C5.59803 15.5086 5.05521 15.3087 5.00299 14.8739C4.95009 14.4385 5.6159 14.2029 5.6159 14.2029L19.6776 8.49046C19.6776 8.49046 20.8333 7.96462 20.8333 8.83486V8.83486Z" fill="#D7F8FF"></path> </g> <defs> <clipPath id="clip0_6130_74359"> <rect width="30" height="30" fill="white"></rect> </clipPath> </defs> </svg> 