<?xml version="1.0" encoding="UTF-8"?> <svg xmlns="http://www.w3.org/2000/svg" width="372" height="88" viewBox="0 0 372 88" fill="none"> <path d="M0 85.94V24.37H14.07V34.63H14.71C15.83 31.08 17.76 28.34 20.48 26.41C23.23 24.46 26.37 23.48 29.9 23.48C30.7 23.48 31.6 23.52 32.59 23.6C33.61 23.65 34.45 23.75 35.12 23.88V37.23C34.51 37.02 33.53 36.83 32.19 36.67C30.88 36.48 29.61 36.39 28.38 36.39C25.73 36.39 23.36 36.96 21.25 38.11C19.17 39.23 17.52 40.8 16.32 42.8C15.12 44.8 14.52 47.12 14.52 49.73V85.93H0V85.94Z" fill="#192140"></path> <path d="M92.4699 54.6799C92.4699 49.2799 91.7199 44.6299 90.2199 40.7299C88.7299 36.7999 86.6699 33.5699 84.0499 31.0299C81.4599 28.4899 78.4699 26.6199 75.0699 25.4199C71.6999 24.1899 68.1199 23.5699 64.3299 23.5699C58.4499 23.5699 53.3299 24.9199 48.9799 27.6199C44.6199 30.2899 41.2299 34.0399 38.7999 38.8499C36.3899 43.6299 35.1899 49.1899 35.1899 55.5199C35.1899 61.9599 36.3899 67.5599 38.7999 72.3199C41.1999 77.0499 44.6299 80.7099 49.0999 83.2999C53.5899 85.8599 58.9199 87.1499 65.0899 87.1499C69.8699 87.1499 74.1199 86.4299 77.8399 84.9799C81.5499 83.5099 84.5999 81.4499 86.9799 78.8099C89.38 76.1399 91.0099 73.0099 91.8699 69.4299L78.3199 67.91C77.6799 69.64 76.7299 71.0999 75.4699 72.2799C74.2199 73.4499 72.7299 74.3499 71.0199 74.9599C69.3099 75.5499 67.3999 75.8399 65.2899 75.8399C62.1399 75.8399 59.3899 75.1799 57.0299 73.8399C54.6799 72.4799 52.8499 70.5299 51.5399 67.9899C50.2699 65.5099 49.6299 62.5599 49.5899 59.1299H92.4699V54.6799ZM49.6099 49.3499C49.7399 46.9399 50.3599 44.6999 51.4599 42.6499C52.7199 40.3299 54.4699 38.4599 56.7099 37.0399C58.9599 35.5999 61.5599 34.8799 64.5299 34.8799C67.3099 34.8799 69.7399 35.4999 71.8199 36.7599C73.9399 38.0199 75.5799 39.7399 76.7599 41.9299C77.9299 44.0999 78.5299 46.5699 78.5599 49.3499H49.6099Z" fill="#192140"></path> <path d="M117.36 19.52V24.37H130.11V35.6H117.36V85.94H102.81V35.6H93.71V24.37H102.81V18.56C102.81 14.42 103.67 10.97 105.38 8.22C107.12 5.47 109.44 3.41 112.35 2.05C115.27 0.68 118.5 0 122.05 0C124.57 0 126.8 0.2 128.75 0.6C130.7 1.01 132.14 1.37 133.08 1.69L130.19 12.91C129.58 12.72 128.8 12.54 127.87 12.35C126.93 12.14 125.89 12.03 124.74 12.03C122.04 12.03 120.13 12.68 119.01 13.99C117.91 15.28 117.36 17.12 117.36 19.52Z" fill="#192140"></path> <path d="M226.83 87.15C220.68 87.15 215.41 85.8 211 83.1C206.62 80.4 203.24 76.67 200.86 71.92C198.51 67.14 197.33 61.63 197.33 55.4C197.33 49.15 198.53 43.63 200.94 38.85C203.34 34.04 206.74 30.3 211.12 27.63C215.53 24.93 220.74 23.58 226.75 23.58C231.75 23.58 236.17 24.5 240.02 26.35C243.89 28.17 246.98 30.75 249.28 34.09C251.58 37.4 252.89 41.28 253.21 45.71H239.34C238.78 42.74 237.44 40.27 235.33 38.29C233.25 36.29 230.45 35.28 226.95 35.28C223.98 35.28 221.38 36.08 219.13 37.69C216.89 39.27 215.14 41.54 213.88 44.5C212.65 47.47 212.04 51.02 212.04 55.16C212.04 59.36 212.65 62.96 213.88 65.98C215.11 68.97 216.83 71.28 219.05 72.91C221.29 74.51 223.93 75.31 226.95 75.31C229.09 75.31 231 74.91 232.68 74.11C234.39 73.28 235.82 72.09 236.97 70.54C238.12 68.99 238.91 67.11 239.34 64.89H253.21C252.86 69.25 251.58 73.11 249.36 76.47C247.14 79.81 244.12 82.43 240.3 84.33C236.48 86.21 231.99 87.15 226.83 87.15Z" fill="#192140"></path> <path d="M297.95 60.05V24.37H312.46V85.94H298.39V75H297.75C296.36 78.45 294.08 81.27 290.9 83.46C287.75 85.65 283.86 86.75 279.24 86.75C275.21 86.75 271.64 85.85 268.54 84.06C265.47 82.24 263.06 79.61 261.32 76.16C259.58 72.69 258.71 68.49 258.71 63.57V24.37H273.22V61.33C273.22 65.23 274.29 68.33 276.43 70.63C278.57 72.93 281.37 74.08 284.85 74.08C286.99 74.08 289.06 73.56 291.06 72.52C293.06 71.48 294.71 69.93 295.99 67.87C297.29 65.78 297.95 63.18 297.95 60.05Z" fill="#192140"></path> <path d="M369.7 40.6499L356.47 42.0899C356.1 40.7499 355.44 39.4999 354.51 38.3199C353.6 37.1399 352.37 36.1999 350.82 35.4699C349.27 34.7499 347.37 34.3899 345.13 34.3899C342.11 34.3899 339.57 35.0399 337.51 36.3499C335.48 37.6599 334.48 39.3599 334.5 41.4399C334.47 43.2299 335.13 44.6899 336.46 45.8099C337.82 46.9299 340.07 47.8499 343.19 48.5799L353.69 50.8199C359.52 52.0799 363.84 54.0699 366.68 56.7899C369.54 59.5199 370.98 63.0799 371.01 67.4899C370.98 71.3599 369.85 74.7899 367.6 77.7499C365.38 80.6899 362.3 82.9899 358.34 84.6399C354.39 86.2999 349.84 87.1299 344.71 87.1299C337.17 87.1299 331.11 85.5499 326.51 82.3999C321.91 79.2199 319.17 74.7999 318.29 69.1299L332.44 67.7699C333.08 70.5499 334.44 72.6499 336.53 74.0599C338.61 75.4799 341.33 76.1799 344.67 76.1799C348.12 76.1799 350.88 75.4699 352.97 74.0599C355.08 72.6399 356.14 70.8899 356.14 68.8099C356.14 67.0499 355.46 65.5899 354.1 64.4399C352.76 63.2899 350.68 62.4099 347.85 61.7899L337.35 59.5899C331.44 58.3599 327.08 56.2899 324.24 53.3799C321.41 50.4399 320 46.7299 320.03 42.2399C320 38.4499 321.03 35.1599 323.12 32.3799C325.23 29.5699 328.16 27.4099 331.9 25.8899C335.67 24.3399 340.01 23.5699 344.93 23.5699C352.14 23.5699 357.82 25.1099 361.97 28.1799C366.13 31.2599 368.71 35.4099 369.7 40.6499Z" fill="#192140"></path> <path d="M194.12 55.32C176.54 55.32 162.29 41.07 162.29 23.49C179.87 23.49 194.12 37.74 194.12 55.32Z" fill="#192140"></path> <path d="M162.29 87.1499C162.29 69.5699 176.54 55.32 194.12 55.32C194.12 72.9 179.87 87.1499 162.29 87.1499Z" fill="#192140"></path> <path d="M162.34 23.49C162.34 41.07 148.09 55.32 130.51 55.32C130.51 37.74 144.76 23.49 162.34 23.49Z" fill="#192140"></path> <path d="M130.51 55.32C148.09 55.32 162.34 69.5699 162.34 87.1499C144.76 87.1499 130.51 72.9 130.51 55.32Z" fill="#192140"></path> </svg> 