<?xml version="1.0" encoding="UTF-8"?> <svg xmlns="http://www.w3.org/2000/svg" width="1053" height="737" viewBox="0 0 1053 737" fill="none"> <g clip-path="url(#clip0_686_5408)"> <path d="M529.81 550.47C545.577 545.096 559.017 534.466 567.88 520.362C576.742 506.258 580.488 489.537 578.49 473L639.19 484.41C637.031 501.924 632.597 519.083 626 535.45C602.61 593.19 558.35 625 537 638.22C534.613 608.973 532.217 579.723 529.81 550.47Z" fill="#D7F8FF" stroke="#192140" stroke-width="2" stroke-linecap="round" stroke-linejoin="round"></path> <path d="M156.84 415.72H553.38V612.1C553.369 624.541 548.42 636.468 539.621 645.262C530.821 654.056 518.89 658.997 506.45 659H203.78C197.616 659 191.512 657.786 185.817 655.427C180.122 653.068 174.947 649.61 170.588 645.252C166.229 640.893 162.772 635.718 160.413 630.023C158.054 624.328 156.84 618.224 156.84 612.06V415.72Z" fill="#E4C9FE" stroke="#192140" stroke-width="2" stroke-linecap="round" stroke-linejoin="round"></path> <path d="M156.84 415.72L200.19 382.94H522.67C532.91 393.873 543.147 404.8 553.38 415.72H156.84Z" fill="white" stroke="#192140" stroke-width="2" stroke-linecap="round" stroke-linejoin="round"></path> <path d="M506.09 399.33C506.09 405.24 492.68 410.02 476.14 410.02C459.6 410.02 446.2 405.24 446.2 399.33C446.2 393.42 459.6 388.63 476.14 388.63C492.68 388.63 506.09 393.42 506.09 399.33Z" fill="#192140" stroke="#192140" stroke-width="2" stroke-linecap="round" stroke-linejoin="round"></path> <path d="M216.23 398.89C216.16 341.47 214.23 296.13 212.62 266.32C209.81 214.77 205.94 175.25 223.87 132.05C230.24 116.675 239.37 102.597 250.81 90.5099C257.7 83.0799 274.61 65.2799 302.69 55.1999C320.38 48.8499 334.8 48.3399 347.36 47.9999C369 47.4099 420.65 45.9999 459 80.4199C472.89 92.8699 479.71 105.23 487.1 118.61C498.53 139.29 504.62 159.21 503.1 288.73C503.05 292.27 502.84 300.53 497.23 306.67C488.29 316.45 468.63 317.54 459.04 308.83C452.61 302.98 452.04 293.92 451.84 290.09C448.08 215.69 451.94 182.97 439.59 156.8C425.76 127.47 392.59 107.22 361.05 105.64C336.55 104.41 317.89 114.71 310.61 119.33C261.52 150.51 265.08 219.04 265.31 222.41C267.58 260.41 269.06 299.82 269.54 340.53C269.78 360.53 269.78 380.223 269.54 399.61C260.068 404.769 249.286 407.027 238.54 406.1C230.666 405.356 223.05 402.895 216.23 398.89Z" fill="white" stroke="#192140" stroke-width="2" stroke-linecap="round" stroke-linejoin="round"></path> <path d="M356.77 628.56C441.949 628.56 511 590.854 511 544.34C511 497.827 441.949 460.12 356.77 460.12C271.591 460.12 202.54 497.827 202.54 544.34C202.54 590.854 271.591 628.56 356.77 628.56Z" fill="white" stroke="#192140" stroke-width="2" stroke-linecap="round" stroke-linejoin="round"></path> <path d="M286.21 554.289C285.854 554.645 285.675 555.121 285.675 555.597C285.675 556.251 285.973 556.905 286.448 557.321C290.55 561.125 294.236 562.374 298.754 562.374C306.542 562.374 312.666 557.618 312.666 550.603C312.666 536.751 293.82 539.486 293.82 530.865C293.82 528.131 296.02 526.288 299.646 526.288C301.43 526.288 303.391 526.763 305.591 527.833C305.948 528.012 306.304 528.071 306.661 528.071C307.434 528.071 308.147 527.655 308.623 526.882L309.753 524.92C309.931 524.623 310.05 524.266 310.05 523.91C310.05 523.137 309.634 522.364 308.98 522.007C305.829 520.224 302.856 519.451 299.052 519.451C290.966 519.451 286.091 524.683 286.091 530.925C286.091 544.479 304.937 542.458 304.937 550.662C304.937 553.813 302.321 555.537 298.873 555.537C296.555 555.537 293.998 554.408 291.323 552.208C290.847 551.792 290.253 551.554 289.658 551.554C289.123 551.554 288.648 551.732 288.172 552.208L286.21 554.289ZM345.003 551.078L348.689 560.055C349.046 561.066 350.056 561.72 351.126 561.72H353.683C355.05 561.72 356.001 560.65 356.001 559.401C356.001 559.164 355.942 558.866 355.823 558.569L340.247 521.651C339.831 520.64 338.82 519.986 337.75 519.986H334.897C333.827 519.986 332.816 520.64 332.4 521.651L316.824 558.569C316.705 558.866 316.645 559.164 316.645 559.401C316.645 560.65 317.597 561.72 318.964 561.72H321.104C322.174 561.72 323.185 561.066 323.542 560.055L327.228 551.078H345.003ZM336.145 529.439L342.209 544.242H330.022L336.145 529.439ZM361.566 521.77C361.209 520.759 360.199 520.105 359.129 520.105H356.572C355.264 520.105 354.254 521.175 354.254 522.364C354.254 522.661 354.313 522.959 354.432 523.256L369.532 560.174C369.948 561.185 370.959 561.839 372.029 561.839H373.991C375.061 561.839 376.072 561.185 376.428 560.174L391.172 523.256C391.291 522.959 391.35 522.721 391.35 522.424C391.35 521.235 390.34 520.105 388.972 520.105H386.892C385.822 520.105 384.87 520.818 384.454 521.77L373.278 550.96L361.566 521.77ZM422.585 557.083C422.585 555.894 421.574 554.883 420.385 554.883H405.225V544.123H418.007C419.196 544.123 420.207 543.112 420.207 541.923V539.486C420.207 538.297 419.196 537.286 418.007 537.286H405.225V526.942H419.791C420.98 526.942 421.99 525.931 421.99 524.742V522.305C421.99 521.116 420.98 520.105 419.791 520.105H400.113C398.924 520.105 397.913 521.116 397.913 522.305V559.52C397.913 560.709 398.924 561.72 400.113 561.72H420.385C421.574 561.72 422.585 560.709 422.585 559.52V557.083Z" fill="#192140"></path> <path d="M286.21 554.289L286.917 554.996C286.924 554.989 286.931 554.982 286.938 554.975L286.21 554.289ZM286.448 557.321L287.128 556.587C287.121 556.581 287.114 556.574 287.107 556.568L286.448 557.321ZM305.591 527.833L306.038 526.939L306.028 526.934L305.591 527.833ZM308.623 526.882L309.475 527.406C309.48 527.398 309.485 527.39 309.49 527.381L308.623 526.882ZM309.753 524.92L308.895 524.406C308.892 524.411 308.889 524.416 308.886 524.421L309.753 524.92ZM308.98 522.007L308.487 522.878C308.492 522.88 308.496 522.883 308.501 522.885L308.98 522.007ZM291.323 552.208L290.664 552.961C290.672 552.967 290.68 552.974 290.688 552.98L291.323 552.208ZM288.172 552.208L287.465 551.501C287.458 551.508 287.451 551.515 287.445 551.522L288.172 552.208ZM285.503 553.582C284.947 554.138 284.675 554.874 284.675 555.597H286.675C286.675 555.368 286.761 555.153 286.917 554.996L285.503 553.582ZM284.675 555.597C284.675 556.534 285.094 557.464 285.79 558.073L287.107 556.568C286.851 556.345 286.675 555.967 286.675 555.597H284.675ZM285.768 558.054C290.053 562.029 293.982 563.374 298.754 563.374V561.374C294.49 561.374 291.047 560.222 287.128 556.587L285.768 558.054ZM298.754 563.374C306.906 563.374 313.666 558.342 313.666 550.603H311.666C311.666 556.894 306.179 561.374 298.754 561.374V563.374ZM313.666 550.603C313.666 546.878 312.385 544.203 310.44 542.192C308.532 540.22 306.024 538.93 303.654 537.861C301.21 536.758 298.994 535.917 297.317 534.805C295.703 533.733 294.82 532.557 294.82 530.865H292.82C292.82 533.484 294.293 535.198 296.212 536.471C298.069 537.703 300.564 538.661 302.832 539.684C305.173 540.74 307.377 541.902 309.002 543.583C310.59 545.224 311.666 547.402 311.666 550.603H313.666ZM294.82 530.865C294.82 529.791 295.24 528.938 295.998 528.332C296.777 527.708 297.992 527.288 299.646 527.288V525.288C297.673 525.288 295.975 525.789 294.748 526.77C293.5 527.769 292.82 529.205 292.82 530.865H294.82ZM299.646 527.288C301.247 527.288 303.059 527.714 305.154 528.733L306.028 526.934C303.723 525.813 301.612 525.288 299.646 525.288V527.288ZM305.144 528.728C305.67 528.991 306.187 529.071 306.661 529.071V527.071C306.421 527.071 306.225 527.033 306.038 526.939L305.144 528.728ZM306.661 529.071C307.827 529.071 308.842 528.434 309.475 527.406L307.771 526.358C307.452 526.877 307.041 527.071 306.661 527.071V529.071ZM309.49 527.381L310.619 525.419L308.886 524.421L307.756 526.383L309.49 527.381ZM310.61 525.435C310.863 525.014 311.05 524.481 311.05 523.91H309.05C309.05 524.052 308.999 524.233 308.895 524.406L310.61 525.435ZM311.05 523.91C311.05 522.816 310.472 521.682 309.459 521.129L308.501 522.885C308.795 523.046 309.05 523.457 309.05 523.91H311.05ZM309.472 521.137C306.165 519.265 303.022 518.451 299.052 518.451V520.451C302.691 520.451 305.492 521.183 308.487 522.878L309.472 521.137ZM299.052 518.451C290.477 518.451 285.091 524.07 285.091 530.925H287.091C287.091 525.296 291.456 520.451 299.052 520.451V518.451ZM285.091 530.925C285.091 534.581 286.376 537.241 288.314 539.265C290.217 541.252 292.718 542.59 295.089 543.705C297.531 544.853 299.754 545.734 301.438 546.856C303.073 547.944 303.937 549.09 303.937 550.662H305.937C305.937 548.132 304.445 546.454 302.547 545.191C300.698 543.96 298.208 542.961 295.94 541.895C293.599 540.795 291.389 539.585 289.758 537.882C288.163 536.216 287.091 534.046 287.091 530.925H285.091ZM303.937 550.662C303.937 551.927 303.428 552.85 302.593 553.485C301.728 554.143 300.444 554.537 298.873 554.537V556.537C300.75 556.537 302.498 556.069 303.803 555.077C305.138 554.062 305.937 552.549 305.937 550.662H303.937ZM298.873 554.537C296.877 554.537 294.54 553.559 291.958 551.436L290.688 552.98C293.456 555.257 296.232 556.537 298.873 556.537V554.537ZM291.982 551.455C291.342 550.896 290.518 550.554 289.658 550.554V552.554C289.988 552.554 290.353 552.688 290.664 552.961L291.982 551.455ZM289.658 550.554C288.846 550.554 288.119 550.847 287.465 551.501L288.879 552.915C289.176 552.618 289.401 552.554 289.658 552.554V550.554ZM287.445 551.522L285.483 553.603L286.938 554.975L288.9 552.894L287.445 551.522ZM345.003 551.078L345.928 550.699C345.774 550.323 345.409 550.078 345.003 550.078V551.078ZM348.689 560.055L349.632 559.723C349.626 559.707 349.62 559.691 349.614 559.676L348.689 560.055ZM355.823 558.569L356.751 558.198C356.749 558.192 356.747 558.186 356.744 558.18L355.823 558.569ZM340.247 521.651L339.322 522.031L339.326 522.039L340.247 521.651ZM332.4 521.651L333.321 522.039L333.324 522.031L332.4 521.651ZM316.824 558.569L315.902 558.18C315.9 558.186 315.898 558.192 315.895 558.198L316.824 558.569ZM323.542 560.055L322.617 559.676C322.61 559.691 322.604 559.707 322.599 559.723L323.542 560.055ZM327.228 551.078V550.078C326.822 550.078 326.457 550.323 326.302 550.699L327.228 551.078ZM336.145 529.439L337.07 529.06C336.917 528.685 336.552 528.439 336.147 528.439C335.742 528.438 335.376 528.682 335.221 529.056L336.145 529.439ZM342.209 544.242V545.242C342.542 545.242 342.854 545.076 343.039 544.799C343.225 544.522 343.261 544.171 343.134 543.863L342.209 544.242ZM330.022 544.242L329.098 543.859C328.97 544.168 329.005 544.52 329.19 544.797C329.376 545.075 329.688 545.242 330.022 545.242V544.242ZM344.078 551.458L347.764 560.435L349.614 559.676L345.928 550.699L344.078 551.458ZM347.746 560.388C348.257 561.835 349.672 562.72 351.126 562.72V560.72C350.441 560.72 349.835 560.297 349.632 559.723L347.746 560.388ZM351.126 562.72H353.683V560.72H351.126V562.72ZM353.683 562.72C355.636 562.72 357.001 561.168 357.001 559.401H355.001C355.001 560.132 354.465 560.72 353.683 560.72V562.72ZM357.001 559.401C357.001 559.014 356.909 558.59 356.751 558.198L354.895 558.941C354.975 559.142 355.001 559.313 355.001 559.401H357.001ZM356.744 558.18L341.168 521.262L339.326 522.039L354.902 558.958L356.744 558.18ZM341.172 521.27C340.598 519.876 339.216 518.986 337.75 518.986V520.986C338.425 520.986 339.064 521.404 339.322 522.031L341.172 521.27ZM337.75 518.986H334.897V520.986H337.75V518.986ZM334.897 518.986C333.431 518.986 332.049 519.876 331.475 521.27L333.324 522.031C333.583 521.404 334.222 520.986 334.897 520.986V518.986ZM331.478 521.262L315.902 558.18L317.745 558.958L333.321 522.039L331.478 521.262ZM315.895 558.198C315.738 558.59 315.645 559.014 315.645 559.401H317.645C317.645 559.313 317.672 559.142 317.752 558.941L315.895 558.198ZM315.645 559.401C315.645 561.168 317.011 562.72 318.964 562.72V560.72C318.182 560.72 317.645 560.132 317.645 559.401H315.645ZM318.964 562.72H321.104V560.72H318.964V562.72ZM321.104 562.72C322.559 562.72 323.974 561.835 324.485 560.388L322.599 559.723C322.396 560.297 321.79 560.72 321.104 560.72V562.72ZM324.467 560.435L328.153 551.458L326.302 550.699L322.617 559.676L324.467 560.435ZM327.228 552.078H345.003V550.078H327.228V552.078ZM335.22 529.818L341.284 544.621L343.134 543.863L337.07 529.06L335.22 529.818ZM342.209 543.242H330.022V545.242H342.209V543.242ZM330.946 544.624L337.069 529.821L335.221 529.056L329.098 543.859L330.946 544.624ZM361.566 521.77L360.623 522.102C360.628 522.116 360.633 522.129 360.638 522.142L361.566 521.77ZM354.432 523.256L353.503 523.627L353.506 523.634L354.432 523.256ZM369.532 560.174L368.607 560.553L368.608 560.555L369.532 560.174ZM376.428 560.174L375.5 559.803C375.495 559.816 375.49 559.829 375.485 559.841L376.428 560.174ZM391.172 523.256L390.244 522.884L390.243 522.885L391.172 523.256ZM384.454 521.77L383.538 521.369C383.532 521.383 383.526 521.397 383.52 521.412L384.454 521.77ZM373.278 550.96L372.35 551.332C372.503 551.714 372.874 551.963 373.286 551.959C373.697 551.956 374.064 551.701 374.212 551.317L373.278 550.96ZM362.509 521.437C361.998 519.99 360.583 519.105 359.129 519.105V521.105C359.814 521.105 360.42 521.528 360.623 522.102L362.509 521.437ZM359.129 519.105H356.572V521.105H359.129V519.105ZM356.572 519.105C354.712 519.105 353.254 520.623 353.254 522.364H355.254C355.254 521.727 355.817 521.105 356.572 521.105V519.105ZM353.254 522.364C353.254 522.798 353.341 523.221 353.503 523.627L355.36 522.884C355.285 522.696 355.254 522.525 355.254 522.364H353.254ZM353.506 523.634L368.607 560.553L370.458 559.796L355.358 522.877L353.506 523.634ZM368.608 560.555C369.182 561.949 370.564 562.839 372.029 562.839V560.839C371.355 560.839 370.715 560.421 370.457 559.794L368.608 560.555ZM372.029 562.839H373.991V560.839H372.029V562.839ZM373.991 562.839C375.446 562.839 376.861 561.954 377.371 560.507L375.485 559.841C375.283 560.416 374.677 560.839 373.991 560.839V562.839ZM377.357 560.545L392.101 523.627L390.243 522.885L375.5 559.803L377.357 560.545ZM392.101 523.627C392.251 523.25 392.35 522.884 392.35 522.424H390.35C390.35 522.558 390.331 522.667 390.244 522.884L392.101 523.627ZM392.35 522.424C392.35 520.699 390.908 519.105 388.972 519.105V521.105C389.771 521.105 390.35 521.77 390.35 522.424H392.35ZM388.972 519.105H386.892V521.105H388.972V519.105ZM386.892 519.105C385.373 519.105 384.092 520.102 383.538 521.369L385.37 522.17C385.649 521.534 386.27 521.105 386.892 521.105V519.105ZM383.52 521.412L372.344 550.602L374.212 551.317L385.388 522.127L383.52 521.412ZM374.206 550.587L362.494 521.397L360.638 522.142L372.35 551.332L374.206 550.587ZM405.225 554.883H404.225C404.225 555.436 404.673 555.883 405.225 555.883V554.883ZM405.225 544.123V543.123C404.673 543.123 404.225 543.57 404.225 544.123H405.225ZM405.225 537.286H404.225C404.225 537.838 404.673 538.286 405.225 538.286V537.286ZM405.225 526.942V525.942C404.673 525.942 404.225 526.389 404.225 526.942H405.225ZM423.585 557.083C423.585 555.342 422.127 553.883 420.385 553.883V555.883C421.022 555.883 421.585 556.446 421.585 557.083H423.585ZM420.385 553.883H405.225V555.883H420.385V553.883ZM406.225 554.883V544.123H404.225V554.883H406.225ZM405.225 545.123H418.007V543.123H405.225V545.123ZM418.007 545.123C419.749 545.123 421.207 543.664 421.207 541.923H419.207C419.207 542.56 418.644 543.123 418.007 543.123V545.123ZM421.207 541.923V539.486H419.207V541.923H421.207ZM421.207 539.486C421.207 537.744 419.749 536.286 418.007 536.286V538.286C418.644 538.286 419.207 538.849 419.207 539.486H421.207ZM418.007 536.286H405.225V538.286H418.007V536.286ZM406.225 537.286V526.942H404.225V537.286H406.225ZM405.225 527.942H419.791V525.942H405.225V527.942ZM419.791 527.942C421.532 527.942 422.99 526.483 422.99 524.742H420.99C420.99 525.379 420.427 525.942 419.791 525.942V527.942ZM422.99 524.742V522.305H420.99V524.742H422.99ZM422.99 522.305C422.99 520.563 421.532 519.105 419.791 519.105V521.105C420.427 521.105 420.99 521.668 420.99 522.305H422.99ZM419.791 519.105H400.113V521.105H419.791V519.105ZM400.113 519.105C398.371 519.105 396.913 520.563 396.913 522.305H398.913C398.913 521.668 399.476 521.105 400.113 521.105V519.105ZM396.913 522.305V559.52H398.913V522.305H396.913ZM396.913 559.52C396.913 561.262 398.372 562.72 400.113 562.72V560.72C399.476 560.72 398.913 560.157 398.913 559.52H396.913ZM400.113 562.72H420.385V560.72H400.113V562.72ZM420.385 562.72C422.127 562.72 423.585 561.262 423.585 559.52H421.585C421.585 560.157 421.022 560.72 420.385 560.72V562.72ZM423.585 559.52V557.083H421.585V559.52H423.585Z" fill="#192140"></path> <path d="M346.795 466.74V479.265C346.795 479.765 347.22 480.19 347.72 480.19H348.745C349.245 480.19 349.67 479.765 349.67 479.265V463.515C349.67 463.015 349.37 462.64 348.87 462.64H348.245C347.645 462.64 347.22 462.915 346.82 463.215L343.595 465.665C343.37 465.84 343.245 466.09 343.245 466.365C343.245 466.565 343.32 466.765 343.445 466.915L344.07 467.665C344.27 467.89 344.545 467.99 344.82 467.99C344.995 467.99 345.195 467.94 345.37 467.815L346.795 466.74ZM364.089 478.44C364.089 477.94 363.664 477.515 363.164 477.515H356.814C358.189 476.39 363.414 471.965 363.414 467.065C363.414 464.74 361.789 462.49 358.464 462.49C355.989 462.49 354.539 463.44 353.389 465.615C353.314 465.74 353.289 465.865 353.289 465.99C353.289 466.315 353.489 466.665 353.789 466.815L354.464 467.165C354.614 467.24 354.789 467.29 354.939 467.29C355.289 467.29 355.589 467.115 355.789 466.79C356.464 465.79 357.114 465.365 358.139 465.365C359.589 465.365 360.364 466.24 360.364 467.64C360.364 470.765 356.639 474.49 353.764 477.215C353.239 477.715 352.914 478.165 352.914 478.74V479.265C352.914 479.765 353.339 480.19 353.839 480.19H363.164C363.664 480.19 364.089 479.765 364.089 479.265V478.44Z" fill="#192140"></path> <path d="M350.025 611.03C350.825 608.005 353.05 605.905 355.525 604.905C355.925 604.755 356.175 604.43 356.175 604.03C356.175 603.93 356.15 603.805 356.1 603.68L355.825 602.955C355.7 602.63 355.4 602.455 355 602.455C354.875 602.455 354.7 602.48 354.55 602.53C350.725 603.93 346.625 608.055 346.625 614.03C346.625 617.555 348.975 620.505 352.875 620.505C355.675 620.505 358.525 618.43 358.525 614.755C358.525 611.555 356.3 609.405 353.625 609.405C351.875 609.405 350.75 610.03 350.025 611.03ZM349.675 614.055C350.125 613.105 351.075 612.08 352.65 612.08C354.5 612.08 355.475 613.355 355.475 614.955C355.475 616.355 354.5 617.63 352.9 617.63C350.8 617.63 349.675 616.055 349.675 614.055Z" fill="#192140"></path> <path d="M493.475 525.565C491.5 525.565 490.075 526.365 488.775 527.49C488.575 527.665 488.45 527.94 488.45 528.215C488.45 528.415 488.525 528.64 488.675 528.79L489.2 529.365C489.4 529.59 489.675 529.715 489.95 529.715C490.175 529.715 490.375 529.64 490.55 529.515C491.375 528.865 492.175 528.44 493.2 528.44C494.7 528.44 495.425 529.315 495.425 530.565C495.425 532.065 494.15 532.965 492.625 532.965C492.025 532.965 491.6 533.39 491.6 533.89V534.915C491.6 535.415 492.025 535.84 492.525 535.84H492.85C494.875 535.84 496.1 536.715 496.1 538.315C496.1 539.64 495.15 540.74 493.275 540.74C492.05 540.74 491 540.115 490 539.365C489.825 539.24 489.625 539.165 489.425 539.165C489.15 539.165 488.9 539.29 488.7 539.515L488.1 540.29C487.95 540.44 487.9 540.665 487.9 540.865C487.9 541.14 488 541.415 488.225 541.59C489.85 542.915 491.175 543.615 493.45 543.615C496.675 543.615 499.175 541.64 499.175 538.415C499.175 536.34 498 534.615 495.825 534.19C497.6 533.39 498.5 531.99 498.5 530.015C498.5 527.265 496.475 525.565 493.475 525.565Z" fill="#192140"></path> <path d="M225.26 535.24C224.61 538.215 222.91 540.04 219.585 541.14C219.21 541.265 218.91 541.615 218.91 542.04C218.91 542.115 218.91 542.19 218.935 542.29L219.11 542.915C219.21 543.315 219.585 543.565 220.01 543.565C220.06 543.565 220.135 543.565 220.21 543.54C225.31 542.365 228.66 538.59 228.66 532.24C228.66 528.34 226.36 525.565 222.46 525.565C219.66 525.565 216.66 527.715 216.66 531.39C216.66 534.49 218.985 536.815 221.935 536.815C223.41 536.815 224.535 536.24 225.26 535.24ZM225.61 532.215C225.16 533.165 224.21 534.115 222.635 534.115C220.785 534.115 219.71 532.715 219.71 531.19C219.71 529.79 220.835 528.44 222.46 528.44C224.56 528.44 225.61 530.215 225.61 532.215Z" fill="#192140"></path> <path d="M242.61 487.71L253.25 498.34" stroke="#192140" stroke-width="2" stroke-linecap="round" stroke-linejoin="round"></path> <path d="M298.8 466.27L302.16 480.02" stroke="#192140" stroke-width="2" stroke-linecap="round" stroke-linejoin="round"></path> <path d="M246.93 603.46L254.15 593.27" stroke="#192140" stroke-width="2" stroke-linecap="round" stroke-linejoin="round"></path> <path d="M309.56 624.54L312.61 613.59" stroke="#192140" stroke-width="2" stroke-linecap="round" stroke-linejoin="round"></path> <path d="M421.84 620.71L419 610.69" stroke="#192140" stroke-width="2" stroke-linecap="round" stroke-linejoin="round"></path> <path d="M489.41 587.33L479.81 578" stroke="#192140" stroke-width="2" stroke-linecap="round" stroke-linejoin="round"></path> <path d="M470.3 487.33L462.94 496.82" stroke="#192140" stroke-width="2" stroke-linecap="round" stroke-linejoin="round"></path> <path d="M411.73 465.63L406.4 481.19" stroke="#192140" stroke-width="2" stroke-linecap="round" stroke-linejoin="round"></path> <path d="M747 296.42C745.53 295.286 743.871 294.419 742.1 293.86C735.36 291.86 729 295.33 726.71 296.75C728.26 291.01 739.99 246.65 727.43 240.35C724.9 239.08 722.16 239.76 720.51 240.17C710.32 242.71 708.2 255.86 693.91 280.62C692.09 283.78 690.54 286.3 689.6 287.81C690.94 282.03 703.89 224.13 686.15 215.13C683.329 213.793 680.147 213.413 677.09 214.05C672.01 215.13 665.09 219.73 655.92 249.41C651.313 264.306 647.932 279.553 645.81 295C644.241 291.696 642.097 288.696 639.48 286.14C631.22 278.14 620.67 277.26 608.18 276.42C594.26 275.49 582.74 274.72 569.59 281.01C561.687 284.83 554.74 290.373 549.26 297.23C547.62 296.43 540.76 293.29 534.5 296.34C531.945 297.743 529.822 299.818 528.36 302.34C522.02 313.34 533.67 338.09 539.09 353.56C551.15 387.96 538.73 394.72 549.7 425.49C554.16 437.98 562.81 455.38 581.44 473.77L645.37 482.71C647.673 473.848 650.662 465.179 654.31 456.78C672.91 413.93 696.64 406.26 725.47 360.84C746.88 327.11 752.84 301.32 747 296.42ZM589.68 372.71C587.336 370.367 585.158 367.864 583.16 365.22C581.16 362.55 575.37 354.52 568.16 332.14C566.74 327.71 564.91 321.63 563.09 314.28C567.153 312.94 571.371 312.127 575.64 311.86C580.89 311.54 583.64 312.22 588.92 312.35C594.35 312.465 599.777 311.979 605.1 310.9C608.27 313.4 616.7 320.78 618.3 332.32C620.52 348.05 609.15 365.31 589.68 372.71Z" fill="#F7FFAC" stroke="#192140" stroke-width="2" stroke-linecap="round" stroke-linejoin="round"></path> <path d="M596.09 387.67C595.195 382.226 592.996 377.079 589.68 372.67Z" fill="#F7FFAC"></path> <path d="M596.09 387.67C595.195 382.226 592.996 377.079 589.68 372.67" stroke="#192140" stroke-width="2" stroke-linecap="round" stroke-linejoin="round"></path> <path d="M651.94 364.79C655.14 356.49 661.67 336.01 654.4 312.96C652.387 306.59 649.496 300.531 645.81 294.96" fill="#F7FFAC"></path> <path d="M651.94 364.79C655.14 356.49 661.67 336.01 654.4 312.96C652.387 306.59 649.496 300.531 645.81 294.96" stroke="#192140" stroke-width="2" stroke-linecap="round" stroke-linejoin="round"></path> <path d="M675.33 354.87C677.66 346.87 679.89 338.51 681.94 329.71C685.37 314.92 687.85 300.89 689.62 287.81" fill="#F7FFAC"></path> <path d="M675.33 354.87C677.66 346.87 679.89 338.51 681.94 329.71C685.37 314.92 687.85 300.89 689.62 287.81" stroke="#192140" stroke-width="2" stroke-linecap="round" stroke-linejoin="round"></path> <path d="M696.17 361.48C709.451 341.505 719.747 319.699 726.73 296.75Z" fill="#F7FFAC"></path> <path d="M696.17 361.48C709.451 341.505 719.747 319.699 726.73 296.75" stroke="#192140" stroke-width="2" stroke-linecap="round" stroke-linejoin="round"></path> <path d="M547.81 296.55C554.855 300.456 560.282 306.741 563.12 314.28Z" fill="white"></path> <path d="M547.81 296.55C554.855 300.456 560.282 306.741 563.12 314.28" stroke="#192140" stroke-width="2" stroke-linecap="round" stroke-linejoin="round"></path> <path d="M570 476.71L569.87 477.93C569.25 483.72 574.19 489 580.87 489.71C599.218 498.57 620.075 500.776 639.87 495.95C643.006 496.377 646.187 495.605 648.78 493.79C649.963 493.003 650.963 491.97 651.712 490.762C652.46 489.555 652.941 488.2 653.12 486.79L653.25 485.57C653.86 479.77 648.92 474.5 642.25 473.79C622.413 477.923 601.78 475.738 583.25 467.54C581.542 466.803 579.672 466.521 577.823 466.722C575.974 466.924 574.209 467.602 572.7 468.69C571.493 469.598 570.589 470.85 570.107 472.282C569.625 473.713 569.588 475.257 570 476.71Z" fill="white" stroke="#192140" stroke-width="2" stroke-linecap="round" stroke-linejoin="round"></path> </g> <defs> <clipPath id="clip0_686_5408"> <rect width="1053" height="737" fill="white"></rect> </clipPath> </defs> </svg> 