<?xml version="1.0" encoding="UTF-8"?> <svg xmlns="http://www.w3.org/2000/svg" width="192" height="136" viewBox="0 0 192 136" fill="none"> <rect width="192" height="136" fill="white"></rect> <path fill-rule="evenodd" clip-rule="evenodd" d="M63.494 55.0684V34.2558H74.6601V90.9635H64.0351V85.959H63.9635C63.9295 86.0054 63.8993 86.0546 63.8734 86.106C62.7727 88.7679 60.764 90.4193 58.0929 91.3107C56.7655 91.7464 55.3885 92.0102 53.9948 92.0958C53.0931 92.1552 52.1882 92.2116 51.2865 92.1803C45.1236 91.977 40.7143 89.0806 38.118 83.4224C37.344 81.6612 36.8336 79.7945 36.6037 77.8829C36.4281 76.535 36.3461 75.1762 36.3581 73.8167C36.3581 71.5688 36.3581 69.321 36.3581 67.0731C36.3273 64.6802 36.649 62.296 37.3126 59.998C38.0461 57.3575 39.4375 54.9492 41.3549 53.001C43.4667 50.8812 46.2034 49.5053 49.1565 49.0786C51.7184 48.6808 54.3354 48.8408 56.8305 49.5478C59.7596 50.3705 61.9487 52.1189 63.2857 54.8996C63.3076 54.9464 63.3323 54.9902 63.3604 55.0372C63.3883 55.084 63.4132 55.0278 63.494 55.0684ZM47.6049 70.5544H47.5552C47.5552 71.2675 47.5552 71.9838 47.5552 72.697C47.5552 74.0232 47.5552 75.3463 47.5987 76.6724C47.6187 77.5819 47.7502 78.4854 47.9904 79.3624C48.1988 80.2414 48.6321 81.0504 49.2474 81.7089C49.8627 82.3672 50.6386 82.8523 51.4978 83.1158C51.6192 83.1564 51.7436 83.194 51.868 83.2316C52.6876 83.4686 53.5316 83.6103 54.3834 83.6538C55.9164 83.7901 57.4608 83.6973 58.9667 83.3786C61.5724 82.753 63.1956 81.164 63.7895 78.5273C64.002 77.5492 64.1063 76.5506 64.1004 75.5495C64.1004 72.2236 64.1004 68.8976 64.1004 65.5717C64.1084 64.4928 63.9842 63.4171 63.7304 62.3688C63.1924 60.245 61.9643 58.7311 59.8871 57.9899C59.498 57.8499 59.1002 57.7362 58.6962 57.649C57.1858 57.353 55.6402 57.2845 54.1098 57.4456C53.2642 57.5098 52.4292 57.6746 51.6222 57.9367C50.7361 58.1971 49.9342 58.6888 49.2981 59.3618C48.6618 60.0347 48.2139 60.865 47.9998 61.7682C47.7496 62.6699 47.6168 63.6004 47.6049 64.5364C47.5955 66.5289 47.6049 68.5432 47.6049 70.5544Z" fill="#B70204"></path> <path fill-rule="evenodd" clip-rule="evenodd" d="M16.2273 90.9541V49.9263H27.3746V90.9291C27.1009 91.0041 16.8989 91.0355 16.2273 90.9541Z" fill="#B70204"></path> <path fill-rule="evenodd" clip-rule="evenodd" d="M29.0637 35.4506C29.068 36.9668 28.6251 38.4502 27.791 39.7131C26.9569 40.976 25.7693 41.9615 24.3782 42.5451C22.987 43.1289 21.4551 43.2842 19.9762 42.9918C18.4972 42.6994 17.1378 41.9721 16.0698 40.9023C15.0018 39.8324 14.2734 38.4678 13.9766 36.9813C13.6799 35.4948 13.8281 33.9532 14.4026 32.5515C14.9772 31.1498 15.9521 29.951 17.2042 29.1069C18.4562 28.2627 19.929 27.8111 21.4362 27.8093C23.4545 27.8068 25.3913 28.6101 26.8214 30.0427C28.2514 31.4754 29.058 33.4204 29.0637 35.4506Z" fill="#B70204"></path> <path fill-rule="evenodd" clip-rule="evenodd" d="M90.2106 106.753H91.2305V106.302C91.2305 105.302 91.2305 104.302 91.2305 103.303C91.2305 103.172 91.2305 103.043 91.2305 102.912C91.2417 102.694 91.2965 102.48 91.3915 102.284C91.4866 102.088 91.6197 101.912 91.7834 101.769C91.9469 101.625 92.1375 101.516 92.3438 101.448C92.5501 101.38 92.7679 101.355 92.9841 101.373C93.2141 101.367 93.4382 101.447 93.6131 101.597C93.7882 101.747 93.902 101.957 93.9326 102.186C93.9699 102.393 93.9855 102.602 93.9791 102.812C93.9791 103.982 93.9791 105.151 93.9791 106.318C93.9791 106.459 93.9791 106.596 93.9791 106.762H95.0178C95.0178 106.59 95.0178 106.449 95.0178 106.284C95.0178 105.155 95.0178 104.022 95.0178 102.893C95.0178 101.686 96.0283 101.254 96.9239 101.401C97.1191 101.421 97.3022 101.506 97.4446 101.641C97.587 101.777 97.6806 101.957 97.7105 102.152C97.7489 102.358 97.7675 102.568 97.7665 102.777C97.7665 103.96 97.7665 105.142 97.7665 106.324V106.769H98.7801C98.7801 106.634 98.8019 106.518 98.8019 106.406C98.8019 105.067 98.8019 103.729 98.8019 102.393C98.8035 102.198 98.789 102.003 98.7584 101.811C98.7298 101.584 98.6463 101.367 98.5152 101.18C98.3839 100.993 98.2091 100.841 98.006 100.738C97.5267 100.489 96.9803 100.402 96.4479 100.49C95.9155 100.579 95.4259 100.838 95.0519 101.229L94.8374 101.464C94.7439 101.227 94.5932 101.017 94.3989 100.853C94.2045 100.689 93.9727 100.576 93.7243 100.525C93.2967 100.41 92.8452 100.419 92.4225 100.551C91.9997 100.683 91.623 100.934 91.3362 101.273C91.2989 101.317 91.2554 101.351 91.1403 101.461V100.622H90.2075L90.2106 106.753Z" fill="#1F1F1F"></path> <path fill-rule="evenodd" clip-rule="evenodd" d="M105.135 106.759V106.306C105.135 105.188 105.135 104.071 105.135 102.956C105.135 101.833 105.959 101.267 107.001 101.392C107.224 101.401 107.436 101.493 107.596 101.649C107.757 101.805 107.855 102.015 107.871 102.239C107.907 102.446 107.924 102.655 107.924 102.865C107.924 104.022 107.924 105.176 107.924 106.334V106.768H108.944V106.356C108.944 105.29 108.944 104.225 108.944 103.159C108.944 102.796 108.944 102.43 108.944 102.067C108.949 101.792 108.877 101.521 108.736 101.285C108.595 101.049 108.391 100.857 108.148 100.732C107.674 100.487 107.134 100.401 106.608 100.486C106.082 100.571 105.596 100.822 105.222 101.204L104.998 101.451L104.868 101.239C104.763 101.058 104.622 100.901 104.452 100.78C104.283 100.659 104.089 100.577 103.885 100.538C103.464 100.424 103.021 100.43 102.603 100.555C102.186 100.68 101.811 100.92 101.522 101.248C101.446 101.318 101.366 101.384 101.282 101.445V100.635H100.371V106.768C100.701 106.819 101.036 106.812 101.363 106.747V106.306C101.363 105.214 101.363 104.116 101.363 103.034C101.361 102.802 101.408 102.573 101.501 102.361C101.593 102.149 101.729 101.959 101.9 101.804C102.071 101.649 102.272 101.531 102.491 101.46C102.71 101.388 102.941 101.364 103.17 101.389C103.392 101.394 103.605 101.479 103.771 101.629C103.936 101.779 104.043 101.983 104.072 102.205C104.113 102.421 104.134 102.641 104.134 102.862C104.134 104.019 104.134 105.173 104.134 106.331V106.775L105.135 106.759Z" fill="#1F1F1F"></path> <path fill-rule="evenodd" clip-rule="evenodd" d="M70.5367 105.821H65.8229V102.884H70.1637V101.927H65.8104V99.1961H70.4745V98.2578H64.7097C64.6288 98.6894 64.6413 106.462 64.7097 106.744H70.5243L70.5367 105.821Z" fill="#1F1F1F"></path> <path fill-rule="evenodd" clip-rule="evenodd" d="M82.8689 100.829C82.8626 100.211 82.6487 99.6129 82.262 99.1325C81.8754 98.6521 81.3386 98.3173 80.7389 98.1826C80.0089 98.003 79.2478 97.9912 78.5126 98.1482C77.0417 98.461 76.2644 99.2993 76.137 100.81C76.0716 101.611 76.0934 102.418 76.0903 103.222C76.0839 103.624 76.1047 104.026 76.1525 104.426C76.3111 105.599 76.9237 106.418 78.071 106.775C78.9799 107.063 79.9527 107.078 80.8695 106.815C81.5415 106.619 82.1175 106.179 82.4866 105.581C82.8558 104.983 82.9919 104.268 82.8689 103.575H81.8085C81.7805 103.832 81.7618 104.063 81.7277 104.294C81.6852 104.733 81.4892 105.142 81.1748 105.448C80.8605 105.755 80.4482 105.939 80.0112 105.968C79.7012 106 79.3886 106 79.0784 105.968C78.6265 105.949 78.1967 105.766 77.8689 105.453C77.5411 105.139 77.3379 104.716 77.2967 104.263C77.1588 103.089 77.1588 101.903 77.2967 100.729C77.3323 100.356 77.4819 100.003 77.7246 99.7194C77.9672 99.4356 78.2915 99.2341 78.6525 99.1428C79.0995 99.0057 79.5718 98.9736 80.0331 99.049C80.4297 99.0847 80.804 99.2489 81.1001 99.5167C81.3961 99.7846 81.5977 100.142 81.6749 100.535C81.6966 100.622 81.7247 100.707 81.7526 100.804C81.8583 100.804 81.9609 100.823 82.0636 100.823L82.8689 100.829Z" fill="#1F1F1F"></path> <path fill-rule="evenodd" clip-rule="evenodd" d="M30.239 102.374C30.257 102.004 30.1547 101.637 29.9477 101.33C29.7409 101.024 29.4403 100.793 29.0917 100.672C28.5308 100.468 27.929 100.404 27.3379 100.485C26.8997 100.53 26.4786 100.68 26.1097 100.923C25.2018 101.548 25.1769 103.05 26.262 103.566C26.517 103.692 26.7823 103.797 27.0549 103.878C27.4779 103.997 27.9101 104.072 28.333 104.191C28.5932 104.268 28.8445 104.373 29.0823 104.504C29.215 104.576 29.3207 104.689 29.383 104.827C29.4454 104.965 29.461 105.12 29.4275 105.267C29.4069 105.415 29.3428 105.554 29.2437 105.665C29.1446 105.777 29.0149 105.856 28.8709 105.893C28.3539 106.069 27.7968 106.087 27.2695 105.946C27.0347 105.91 26.8174 105.8 26.6495 105.631C26.4816 105.462 26.372 105.244 26.3367 105.008C26.3209 104.955 26.2979 104.904 26.2682 104.857H25.3137C25.3129 105.165 25.384 105.468 25.5212 105.742C25.6585 106.016 25.8579 106.254 26.1035 106.437C27.0363 107.119 28.961 107.063 29.8876 106.381C30.6805 105.79 30.9262 104.113 29.5766 103.566C29.3632 103.473 29.1441 103.395 28.9207 103.331C28.5848 103.24 28.2397 103.181 27.9039 103.087C27.5803 103.003 27.2626 102.899 26.9524 102.774C26.8187 102.724 26.7049 102.631 26.628 102.51C26.5513 102.389 26.5157 102.246 26.5266 102.103C26.5374 101.96 26.5942 101.824 26.6884 101.716C26.7825 101.608 26.909 101.534 27.0487 101.504C27.3593 101.424 27.6796 101.387 28.0002 101.395C28.6003 101.423 29.073 101.673 29.2223 102.333C29.2223 102.355 29.2534 102.374 29.2688 102.393L30.239 102.374Z" fill="#1F1F1F"></path> <path fill-rule="evenodd" clip-rule="evenodd" d="M174.798 102.383C174.821 102.017 174.724 101.654 174.524 101.347C174.325 101.04 174.031 100.807 173.688 100.682C173.153 100.481 172.579 100.409 172.013 100.472C171.521 100.505 171.047 100.67 170.641 100.951C170.43 101.102 170.262 101.305 170.151 101.54C170.04 101.776 169.989 102.035 170.007 102.295C170.023 102.555 170.103 102.807 170.244 103.026C170.382 103.246 170.576 103.426 170.803 103.55C171.055 103.68 171.319 103.785 171.592 103.863C172.027 103.985 172.472 104.063 172.907 104.175C173.171 104.246 173.422 104.352 173.658 104.488C173.823 104.582 173.945 104.738 173.996 104.922C174.049 105.105 174.028 105.302 173.937 105.47C173.883 105.575 173.807 105.666 173.716 105.739C173.625 105.812 173.519 105.866 173.405 105.896C172.884 106.059 172.326 106.068 171.801 105.921C171.569 105.878 171.359 105.761 171.199 105.587C171.039 105.413 170.94 105.193 170.914 104.957C170.903 104.919 170.885 104.882 170.862 104.848H169.929C169.907 105.27 170.027 105.686 170.27 106.031C170.512 106.375 170.863 106.628 171.266 106.747C171.921 106.954 172.619 106.993 173.294 106.859C173.728 106.792 174.141 106.619 174.494 106.356C175.259 105.777 175.513 104.138 174.164 103.563C173.951 103.468 173.732 103.39 173.508 103.328C173.073 103.212 172.625 103.134 172.193 103.015C171.908 102.937 171.636 102.822 171.382 102.671C171.313 102.632 171.253 102.579 171.206 102.516C171.159 102.452 171.126 102.38 171.108 102.303C171.09 102.226 171.089 102.146 171.104 102.068C171.12 101.99 171.15 101.917 171.195 101.852C171.309 101.697 171.464 101.577 171.642 101.508C172.108 101.338 172.619 101.338 173.085 101.508C173.249 101.554 173.397 101.641 173.516 101.762C173.636 101.882 173.724 102.032 173.769 102.196C173.791 102.267 173.819 102.336 173.847 102.411L174.798 102.383Z" fill="#1F1F1F"></path> <path fill-rule="evenodd" clip-rule="evenodd" d="M37.3586 104.826C37.3352 105.214 37.4342 105.599 37.6413 105.927C37.8485 106.255 38.1533 106.509 38.5123 106.653C39.2046 106.924 39.9593 106.992 40.6889 106.85C41.0881 106.798 41.4701 106.655 41.8051 106.431C42.0658 106.257 42.2733 106.015 42.4045 105.73C42.5358 105.445 42.5856 105.129 42.5482 104.817C42.533 104.529 42.4325 104.253 42.2596 104.023C42.0867 103.793 41.8493 103.621 41.5781 103.528C41.3765 103.44 41.1686 103.367 40.9562 103.309C40.6204 103.218 40.2753 103.162 39.9395 103.065C39.5921 102.97 39.2515 102.852 38.9196 102.712C38.802 102.656 38.7038 102.567 38.638 102.454C38.5724 102.341 38.5422 102.211 38.5516 102.081C38.5611 101.951 38.6097 101.826 38.6909 101.724C38.7722 101.623 38.8823 101.548 39.0067 101.511C39.3101 101.422 39.6236 101.372 39.9395 101.364C40.5085 101.364 41.1086 101.608 41.2423 102.302C41.2423 102.324 41.2703 102.343 41.3045 102.389C41.5408 102.389 41.7988 102.389 42.057 102.389C42.119 102.384 42.1802 102.374 42.2404 102.358C42.2591 101.996 42.162 101.638 41.9632 101.336C41.7646 101.033 41.4749 100.803 41.1365 100.679C40.5654 100.463 39.9498 100.394 39.3456 100.478C38.9073 100.524 38.4862 100.674 38.1173 100.916C37.2031 101.542 37.1845 103.043 38.2635 103.559C38.4705 103.664 38.6858 103.751 38.9072 103.819C39.2802 103.925 39.6628 103.991 40.0328 104.097C40.3699 104.181 40.6997 104.293 41.0184 104.432C41.176 104.498 41.3042 104.62 41.3791 104.774C41.4541 104.928 41.4707 105.105 41.4258 105.27C41.4004 105.421 41.3313 105.561 41.2273 105.672C41.1233 105.783 40.989 105.861 40.8412 105.896C40.3371 106.057 39.7981 106.071 39.2864 105.936C39.0515 105.901 38.8338 105.791 38.6659 105.622C38.498 105.453 38.3884 105.234 38.3536 104.998C38.338 104.943 38.315 104.89 38.2852 104.842L37.3586 104.826Z" fill="#1F1F1F"></path> <path fill-rule="evenodd" clip-rule="evenodd" d="M57.1478 102.383C57.175 102.019 57.0831 101.656 56.886 101.35C56.689 101.043 56.3976 100.809 56.0564 100.685C55.4862 100.47 54.8717 100.401 54.2685 100.485C53.8301 100.53 53.409 100.68 53.0402 100.923C52.8196 101.071 52.6411 101.274 52.5224 101.513C52.4037 101.751 52.3488 102.017 52.3632 102.284C52.3778 102.55 52.4609 102.808 52.6047 103.032C52.7486 103.257 52.9479 103.439 53.1833 103.563C53.4372 103.692 53.7028 103.796 53.9762 103.875C54.4114 103.997 54.8592 104.069 55.2914 104.188C55.5642 104.262 55.8249 104.374 56.0657 104.523C56.2188 104.625 56.3269 104.782 56.3675 104.962C56.408 105.142 56.3779 105.331 56.2834 105.489C56.2246 105.591 56.1462 105.679 56.0527 105.75C55.9592 105.82 55.8526 105.871 55.7392 105.899C55.2164 106.053 54.6607 106.053 54.1379 105.899C53.9152 105.852 53.7125 105.736 53.5582 105.568C53.4037 105.4 53.3053 105.188 53.2766 104.961C53.2647 104.916 53.2469 104.873 53.2236 104.832H52.2908C52.2804 104.89 52.2742 104.949 52.2722 105.008C52.2888 105.401 52.4277 105.778 52.6693 106.088C52.9108 106.397 53.243 106.622 53.6186 106.731C54.2864 106.944 54.997 106.981 55.6833 106.841C56.1196 106.777 56.5308 106.596 56.8741 106.318C57.0914 106.143 57.2604 105.915 57.3648 105.655C57.4693 105.396 57.5059 105.114 57.4709 104.836C57.436 104.558 57.3308 104.294 57.1652 104.069C56.9998 103.844 56.7796 103.665 56.5259 103.55C56.3157 103.452 56.0972 103.374 55.8729 103.315C55.4377 103.2 54.9929 103.118 54.5577 103.003C54.284 102.936 54.0212 102.831 53.7772 102.69C53.6787 102.633 53.5975 102.55 53.5424 102.451C53.4874 102.351 53.4604 102.238 53.4646 102.124C53.4687 102.01 53.5038 101.899 53.566 101.804C53.6283 101.708 53.7152 101.632 53.8175 101.583C54.0666 101.457 54.3383 101.384 54.6162 101.367C54.894 101.351 55.1725 101.391 55.4345 101.486C55.6347 101.547 55.8131 101.665 55.9478 101.826C56.0825 101.987 56.1677 102.184 56.1931 102.393L57.1478 102.383Z" fill="#1F1F1F"></path> <path fill-rule="evenodd" clip-rule="evenodd" d="M143.638 106.762C143.638 106.634 143.638 106.559 143.638 106.481C143.638 105.196 143.638 103.912 143.638 102.627C143.646 102.511 143.646 102.394 143.638 102.277C143.562 101.62 143.357 101.026 142.721 100.713C141.938 100.313 140.461 100.278 139.706 101.339C139.671 101.386 139.631 101.426 139.528 101.545V100.644H138.596C138.521 101.17 138.543 106.487 138.62 106.781C138.945 106.826 139.275 106.816 139.597 106.75C139.597 106.6 139.597 106.459 139.597 106.318C139.597 105.242 139.578 104.163 139.612 103.087C139.606 102.845 139.652 102.604 139.748 102.382C139.843 102.159 139.986 101.96 140.165 101.798C140.345 101.637 140.557 101.516 140.788 101.446C141.018 101.375 141.261 101.355 141.5 101.389C141.788 101.39 142.065 101.501 142.274 101.701C142.483 101.9 142.609 102.172 142.625 102.462C142.633 102.591 142.633 102.72 142.625 102.849C142.625 104.017 142.625 105.185 142.625 106.353V106.778L143.638 106.762Z" fill="#1F1F1F"></path> <path fill-rule="evenodd" clip-rule="evenodd" d="M158.679 106.753V105.899C158.679 104.976 158.679 104.054 158.679 103.134C158.669 102.885 158.712 102.637 158.807 102.408C158.901 102.178 159.046 101.972 159.228 101.804C159.411 101.637 159.628 101.511 159.865 101.437C160.1 101.363 160.35 101.342 160.595 101.376C160.889 101.381 161.171 101.502 161.377 101.713C161.585 101.924 161.702 102.209 161.702 102.505C161.702 102.621 161.702 102.74 161.702 102.856V106.759H162.706C162.706 106.643 162.722 106.553 162.722 106.465C162.722 105.193 162.722 103.92 162.722 102.646C162.724 102.49 162.715 102.335 162.697 102.18C162.683 101.887 162.599 101.602 162.449 101.35C162.3 101.098 162.092 100.887 161.842 100.735C161.102 100.322 159.578 100.256 158.81 101.285C158.737 101.365 158.659 101.439 158.577 101.508V100.632H157.672C157.598 101.257 157.626 106.484 157.713 106.79C157.921 106.79 158.138 106.79 158.356 106.79C158.455 106.781 158.543 106.765 158.679 106.753Z" fill="#1F1F1F"></path> <path fill-rule="evenodd" clip-rule="evenodd" d="M124.05 104.538C124.022 104.645 123.994 104.742 123.972 104.851C123.826 105.58 123.49 105.918 122.769 106.015C122.539 106.04 122.306 106.032 122.079 105.99C121.771 105.967 121.482 105.831 121.269 105.607C121.056 105.382 120.933 105.086 120.925 104.776C120.882 104.065 120.882 103.351 120.925 102.64C120.926 102.342 121.036 102.055 121.233 101.833C121.43 101.611 121.701 101.468 121.995 101.433C122.302 101.372 122.617 101.365 122.927 101.411C123.174 101.441 123.404 101.547 123.588 101.715C123.771 101.884 123.898 102.105 123.95 102.349L124.019 102.59H125.026C125.017 102.114 124.849 101.654 124.55 101.285C124.251 100.916 123.837 100.658 123.375 100.554C122.77 100.405 122.138 100.412 121.537 100.575C121.122 100.66 120.743 100.874 120.455 101.187C120.167 101.501 119.984 101.897 119.933 102.321C119.802 103.208 119.802 104.111 119.933 104.998C119.967 105.478 120.169 105.931 120.504 106.275C120.839 106.619 121.285 106.832 121.761 106.875C122.245 106.953 122.739 106.953 123.223 106.875C123.67 106.822 124.088 106.621 124.41 106.303C124.732 105.985 124.94 105.569 125.001 105.12C125.066 104.935 125.074 104.734 125.023 104.545L124.05 104.538Z" fill="#1F1F1F"></path> <path fill-rule="evenodd" clip-rule="evenodd" d="M136.823 98.2578H135.937C135.876 98.2613 135.816 98.2686 135.757 98.2796C135.666 98.7081 135.688 106.478 135.778 106.765H136.823V98.2578Z" fill="#1F1F1F"></path> <path fill-rule="evenodd" clip-rule="evenodd" d="M117.451 106.759V106.356C117.451 105.552 117.451 104.748 117.451 103.941C117.46 103.579 117.511 103.219 117.604 102.868C117.687 102.531 117.872 102.229 118.133 102.002C118.394 101.774 118.719 101.633 119.062 101.598C119.252 101.567 119.441 101.545 119.653 101.514C119.679 101.16 119.67 100.805 119.628 100.454C119.294 100.435 118.961 100.488 118.648 100.607C118.123 100.843 117.687 101.244 117.404 101.748C117.375 101.557 117.363 101.363 117.367 101.17C117.367 100.982 117.367 100.794 117.352 100.594H116.618C116.571 100.598 116.524 100.605 116.478 100.616C116.397 101.048 116.413 106.475 116.478 106.753L117.451 106.759Z" fill="#1F1F1F"></path> <path fill-rule="evenodd" clip-rule="evenodd" d="M43.7276 100.616V106.756H44.7164V100.616H43.7276Z" fill="#1F1F1F"></path> <path fill-rule="evenodd" clip-rule="evenodd" d="M59.5919 106.759C59.6728 106.309 59.6573 100.894 59.5764 100.619H58.6684C58.5877 101.07 58.6063 106.481 58.684 106.759H59.5919Z" fill="#1F1F1F"></path> <path fill-rule="evenodd" clip-rule="evenodd" d="M177.24 106.756C177.323 106.246 177.298 100.879 177.217 100.619H176.307C176.222 101.138 176.247 106.496 176.332 106.756H177.24Z" fill="#1F1F1F"></path> <path fill-rule="evenodd" clip-rule="evenodd" d="M71.5843 103.919H74.9828V103.028C73.8511 102.947 72.7149 102.953 71.5843 103.046V103.919Z" fill="#1F1F1F"></path> <path fill-rule="evenodd" clip-rule="evenodd" d="M44.7185 98.2578H43.7327V99.4589H44.7185V98.2578Z" fill="#1F1F1F"></path> <path fill-rule="evenodd" clip-rule="evenodd" d="M59.6167 99.4869V98.2764H58.6497V99.4869H59.6167Z" fill="#1F1F1F"></path> <path fill-rule="evenodd" clip-rule="evenodd" d="M177.265 98.2795H176.27C176.27 98.7018 176.245 99.0959 176.27 99.4806H177.252L177.265 98.2795Z" fill="#1F1F1F"></path> <path fill-rule="evenodd" clip-rule="evenodd" d="M127.342 90.9885H84.5597C84.4789 90.6945 84.4478 34.9751 84.5224 34.284L84.5473 34.2526C84.5559 34.2437 84.5666 34.2373 84.5784 34.2338C84.642 34.2222 84.7065 34.2148 84.7712 34.212H126.518C126.557 34.2121 126.596 34.2174 126.633 34.2276C126.664 34.2411 126.693 34.2579 126.721 34.2776V44.7058H96.9445V56.8637H124.252V66.5852H96.9508V80.4853H127.346L127.342 90.9885Z" fill="#1F1F1F"></path> <path fill-rule="evenodd" clip-rule="evenodd" d="M151.152 34.2338H163.9L184.994 90.976H172.105L167.852 78.3803H146.748L142.336 90.9791H129.74L151.152 34.2338ZM150.001 68.9998C150.667 69.0874 164.279 69.053 164.574 68.9654C162.227 62.0716 159.869 55.1789 157.501 48.2873C157.501 48.2591 157.442 48.2435 157.349 48.1777C154.896 55.1247 152.454 62.0466 150.001 68.9998Z" fill="#1F1F1F"></path> <path fill-rule="evenodd" clip-rule="evenodd" d="M18.9503 23.2771V21C19.2613 21.0469 24.1617 23.7306 24.5473 24.0653L18.9503 27.5497C18.913 26.8866 18.9503 26.2986 18.9223 25.6323C17.1863 26.0624 15.5969 26.9536 14.3204 28.2128C12.5275 29.9356 11.4442 32.2735 11.2856 34.7625C11.138 36.7129 11.5483 38.6651 12.4681 40.3885C13.3878 42.1118 14.7786 43.5345 16.4761 44.4886C18.1737 45.4425 20.1072 45.888 22.0483 45.7724C23.9894 45.6567 25.8571 44.9847 27.431 43.8358C29.0046 42.6868 30.2186 41.1089 30.9298 39.2884C31.6408 37.4678 31.819 35.4805 31.4436 33.5613C31.0682 31.6421 30.1547 29.871 28.8109 28.4571C27.4671 27.0433 25.7493 26.0458 23.8601 25.5823C23.9264 25.5241 23.9959 25.4698 24.0684 25.4196C24.709 25.0287 25.3557 24.6471 25.99 24.2467C26.0713 24.1858 26.1684 24.15 26.2695 24.1439C26.3706 24.1378 26.4713 24.1616 26.559 24.2123C30.1039 25.9733 32.4298 28.7602 33.3345 32.6356C33.8883 35.0204 33.7275 37.5169 32.8725 39.8099C32.0174 42.1029 30.5065 44.0899 28.5302 45.5202C26.5539 46.9506 24.2008 47.76 21.7677 47.8466C19.3345 47.9332 16.9304 47.293 14.8586 46.0068C12.7867 44.7207 11.1399 42.8461 10.1259 40.6195C9.11193 38.393 8.77615 35.9143 9.16094 33.496C9.54574 31.0777 10.6339 28.8282 12.2881 27.0313C13.9423 25.2344 16.0885 23.9705 18.4559 23.3991L18.9503 23.2771Z" fill="#1F1F1F"></path> <path fill-rule="evenodd" clip-rule="evenodd" d="M90.2106 106.753L90.2101 100.622H91.1429V101.461C91.2549 101.354 91.3014 101.317 91.3388 101.273C91.6256 100.934 92.0024 100.683 92.4251 100.551C92.8479 100.419 93.2992 100.41 93.7268 100.525C93.9752 100.576 94.207 100.689 94.4014 100.853C94.5958 101.017 94.7465 101.227 94.84 101.464L95.0546 101.229C95.4286 100.838 95.9182 100.579 96.4504 100.49C96.9828 100.402 97.5293 100.489 98.0085 100.738C98.2116 100.841 98.3866 100.993 98.5177 101.18C98.649 101.367 98.7325 101.584 98.7609 101.811C98.7915 102.003 98.806 102.198 98.8045 102.393C98.8045 103.731 98.8045 105.069 98.8045 106.406C98.8045 106.521 98.8045 106.634 98.7828 106.769H97.7691V106.324C97.7691 105.142 97.7691 103.96 97.7691 102.777C97.7702 102.568 97.7514 102.358 97.7131 102.152C97.6831 101.957 97.5895 101.777 97.4473 101.641C97.3049 101.506 97.1216 101.421 96.9264 101.401C96.0278 101.251 95.0328 101.683 95.0203 102.893C95.0203 104.022 95.0203 105.155 95.0203 106.284C95.0203 106.437 95.0203 106.596 95.0203 106.762H93.9818C93.9818 106.596 93.9818 106.449 93.9818 106.318C93.9818 105.148 93.9818 103.978 93.9818 102.812C93.9881 102.602 93.9725 102.393 93.9351 102.186C93.9045 101.957 93.7908 101.747 93.6158 101.597C93.4407 101.447 93.2167 101.367 92.9868 101.373C92.7704 101.355 92.5526 101.38 92.3465 101.448C92.1401 101.516 91.9495 101.625 91.7859 101.769C91.6223 101.912 91.4891 102.088 91.3941 102.284C91.2992 102.48 91.2444 102.694 91.233 102.912C91.233 103.04 91.233 103.172 91.233 103.303C91.233 104.304 91.233 105.304 91.233 106.302V106.753H90.2106Z" fill="#1F1F1F"></path> <path fill-rule="evenodd" clip-rule="evenodd" d="M105.135 106.759L104.118 106.759V106.315C104.118 105.158 104.118 104.004 104.118 102.846C104.118 102.626 104.097 102.406 104.056 102.189C104.027 101.968 103.921 101.763 103.755 101.614C103.59 101.464 103.377 101.379 103.154 101.373C102.926 101.348 102.694 101.373 102.475 101.444C102.256 101.516 102.055 101.633 101.885 101.788C101.714 101.944 101.578 102.134 101.485 102.346C101.393 102.558 101.346 102.787 101.348 103.018C101.348 104.11 101.348 105.208 101.348 106.29V106.731C101.021 106.796 100.685 106.804 100.356 106.753V100.622H101.267V101.432C101.351 101.372 101.431 101.306 101.506 101.235C101.796 100.908 102.17 100.668 102.588 100.543C103.005 100.417 103.449 100.411 103.87 100.525C104.074 100.564 104.267 100.647 104.437 100.768C104.606 100.889 104.748 101.045 104.852 101.226L104.983 101.439L105.207 101.192C105.581 100.81 106.066 100.558 106.593 100.473C107.119 100.388 107.658 100.474 108.133 100.719C108.376 100.845 108.58 101.037 108.72 101.273C108.861 101.509 108.933 101.78 108.929 102.055C108.95 102.418 108.929 102.781 108.929 103.147C108.929 104.212 108.929 105.278 108.929 106.343V106.756H107.912V106.321C107.912 105.164 107.912 104.01 107.912 102.853C107.912 102.643 107.894 102.434 107.859 102.227C107.842 102.003 107.744 101.793 107.584 101.637C107.423 101.48 107.211 101.389 106.988 101.379C105.962 101.26 105.138 101.827 105.123 102.943C105.107 104.06 105.123 105.177 105.123 106.293L105.135 106.759Z" fill="#1F1F1F"></path> <path fill-rule="evenodd" clip-rule="evenodd" d="M70.5367 105.821L70.5362 106.759H64.7216C64.6407 106.478 64.6251 98.705 64.7216 98.2733H70.4957V99.2117H65.8316V101.917H70.1849V102.874H65.844V105.811L70.5367 105.821Z" fill="#1F1F1F"></path> <path fill-rule="evenodd" clip-rule="evenodd" d="M82.8689 100.829H82.0724C81.9699 100.829 81.8703 100.829 81.7614 100.81C81.7335 100.71 81.7055 100.625 81.6838 100.541C81.6066 100.148 81.4049 99.7908 81.1089 99.523C80.8129 99.2551 80.4385 99.091 80.0419 99.0553C79.5806 98.9799 79.1083 99.0119 78.6613 99.1491C78.3003 99.2404 77.9762 99.4418 77.7334 99.7257C77.4907 100.01 77.3413 100.362 77.3056 100.735C77.1678 101.909 77.1678 103.095 77.3056 104.269C77.3467 104.722 77.5501 105.145 77.8778 105.459C78.2056 105.772 78.6354 105.955 79.0873 105.974C79.3975 106.006 79.71 106.006 80.0202 105.974C80.457 105.945 80.8694 105.761 81.1838 105.454C81.4981 105.148 81.6941 104.739 81.7366 104.301C81.7708 104.069 81.7895 103.838 81.8174 103.581H82.8778C82.9987 104.275 82.8604 104.989 82.4897 105.586C82.1189 106.183 81.5422 106.621 80.8695 106.815C79.9527 107.078 78.9799 107.063 78.071 106.775C76.9236 106.421 76.311 105.599 76.1525 104.426C76.1047 104.026 76.0839 103.624 76.0903 103.222C76.0903 102.418 76.0687 101.608 76.137 100.81C76.2614 99.2993 77.0388 98.4516 78.5126 98.1482C79.2478 97.9912 80.0089 98.003 80.7389 98.1826C81.3386 98.3173 81.8754 98.6521 82.262 99.1325C82.6487 99.6129 82.8626 100.211 82.8689 100.829Z" fill="#1F1F1F"></path> <path fill-rule="evenodd" clip-rule="evenodd" d="M20.4804 98.2578H21.749L25.0482 106.753H23.7888L22.8778 104.251H19.2926L18.3597 106.753H17.1813L20.4804 98.2578ZM21.1334 99.3807C20.6017 100.663 20.1197 101.92 19.6875 103.212C20.6197 103.281 21.5561 103.268 22.486 103.172L21.1334 99.3807Z" fill="#1F1F1F"></path> <path fill-rule="evenodd" clip-rule="evenodd" d="M148.991 101.151V98.2828H149.964C150.042 98.5642 150.054 106.349 149.964 106.759H149.031L148.975 106.331C148.708 106.512 148.423 106.667 148.126 106.794C147.471 107.01 146.76 106.978 146.126 106.703C145.887 106.603 145.67 106.454 145.488 106.267C145.308 106.08 145.166 105.858 145.073 105.614C144.971 105.376 144.904 105.125 144.873 104.867C144.77 103.989 144.78 103.102 144.905 102.227C145.085 101.179 145.859 100.532 146.963 100.447C147.333 100.389 147.71 100.423 148.064 100.545C148.417 100.668 148.736 100.876 148.991 101.151ZM145.881 103.675C145.881 104.025 145.856 104.376 145.881 104.726C145.893 105.043 146.019 105.344 146.236 105.575C146.453 105.805 146.746 105.948 147.059 105.977C147.326 106.01 147.598 106.01 147.865 105.977C148.147 105.965 148.416 105.85 148.619 105.653C148.823 105.456 148.949 105.191 148.971 104.908C149.027 104.094 149.027 103.278 148.971 102.465C148.953 102.194 148.839 101.939 148.651 101.745C148.465 101.55 148.214 101.429 147.946 101.401C147.628 101.348 147.303 101.348 146.985 101.401C146.674 101.445 146.39 101.601 146.183 101.841C145.978 102.08 145.867 102.386 145.868 102.702C145.868 103.028 145.887 103.353 145.887 103.675H145.881Z" fill="#1F1F1F"></path> <path fill-rule="evenodd" clip-rule="evenodd" d="M51.0964 106.747H50.145L50.1076 106.077C50.0112 106.146 49.9397 106.193 49.8775 106.246C49.4972 106.572 49.0393 106.793 48.5488 106.887C48.0584 106.981 47.5518 106.946 47.079 106.784C46.7828 106.705 46.5192 106.533 46.3259 106.294C46.1327 106.054 46.0197 105.76 46.0031 105.452C45.9157 105.026 45.9832 104.584 46.1932 104.204C46.4032 103.824 46.7419 103.534 47.1474 103.384C47.89 103.079 48.6868 102.93 49.4889 102.946C49.6785 102.946 49.8681 102.946 50.0796 102.946C50.0796 102.79 50.1014 102.677 50.1045 102.562C50.1045 101.767 49.7935 101.414 49.0037 101.373C48.7081 101.357 48.4116 101.377 48.1207 101.432C47.8789 101.454 47.6541 101.566 47.4901 101.746C47.3262 101.926 47.235 102.161 47.2345 102.405C47.2345 102.455 47.2126 102.502 47.1909 102.596H46.2581C46.211 102.489 46.1867 102.373 46.1867 102.255C46.1867 102.138 46.211 102.022 46.2581 101.914C46.3246 101.648 46.4532 101.402 46.6333 101.197C46.8134 100.991 47.0398 100.832 47.2935 100.732C47.8912 100.48 48.5435 100.387 49.1871 100.463C49.4824 100.489 49.7742 100.545 50.0579 100.632C50.3513 100.704 50.612 100.873 50.7976 101.113C50.9833 101.352 51.0831 101.648 51.0808 101.952C51.1181 103.537 51.0964 105.12 51.0964 106.747ZM50.0609 103.835C49.4578 103.878 48.895 103.894 48.3352 103.963C47.9735 104.002 47.6331 104.154 47.3619 104.398C47.2263 104.508 47.1249 104.655 47.0699 104.821C47.0147 104.987 47.0082 105.166 47.0511 105.336C47.0913 105.502 47.1817 105.651 47.3098 105.763C47.4379 105.875 47.5973 105.944 47.7662 105.962C48.261 106.072 48.7784 106.01 49.2339 105.786C49.4493 105.696 49.6375 105.55 49.7793 105.363C49.9212 105.177 50.0118 104.956 50.0423 104.723C50.0658 104.428 50.0731 104.131 50.0641 103.835H50.0609Z" fill="#1F1F1F"></path> <path fill-rule="evenodd" clip-rule="evenodd" d="M183.621 106.743H182.716C182.716 106.521 182.693 106.321 182.679 106.065C182.566 106.146 182.488 106.199 182.417 106.259C182.034 106.581 181.576 106.798 181.085 106.889C180.596 106.98 180.09 106.942 179.618 106.778C179.315 106.695 179.046 106.516 178.853 106.268C178.658 106.019 178.549 105.714 178.539 105.399C178.467 104.984 178.541 104.557 178.75 104.191C178.958 103.825 179.286 103.544 179.677 103.397C180.416 103.088 181.21 102.936 182.009 102.949C182.202 102.949 182.391 102.949 182.616 102.949C182.634 102.673 182.634 102.396 182.616 102.12C182.594 101.964 182.526 101.817 182.421 101.701C182.315 101.584 182.176 101.502 182.022 101.467C181.5 101.307 180.94 101.321 180.426 101.508C179.947 101.683 179.783 102.07 179.758 102.593H178.776C178.733 102.326 178.756 102.052 178.845 101.796C178.934 101.541 179.083 101.311 179.283 101.129C179.512 100.921 179.779 100.76 180.069 100.654C180.871 100.369 181.743 100.35 182.557 100.597C182.877 100.665 183.164 100.844 183.367 101.103C183.569 101.362 183.674 101.685 183.663 102.014C183.663 103.544 183.663 105.076 183.663 106.609C183.653 106.655 183.638 106.7 183.621 106.743ZM182.612 103.888C182.036 103.837 181.455 103.862 180.884 103.96C180.543 104.017 180.221 104.162 179.951 104.379C179.81 104.494 179.705 104.649 179.65 104.823C179.594 104.998 179.591 105.185 179.64 105.361C179.685 105.525 179.781 105.671 179.912 105.78C180.041 105.888 180.203 105.954 180.371 105.968C180.727 106.04 181.095 106.026 181.444 105.927C181.732 105.875 182 105.737 182.21 105.531C182.421 105.324 182.564 105.059 182.622 104.77C182.646 104.476 182.643 104.181 182.612 103.888Z" fill="#1F1F1F"></path> <path fill-rule="evenodd" clip-rule="evenodd" d="M169.115 104.007H165.023C164.79 104.886 165.166 105.683 165.918 105.918C166.365 106.066 166.848 106.053 167.286 105.883C167.496 105.792 167.679 105.645 167.815 105.46C167.952 105.274 168.036 105.055 168.06 104.826H169.053C169.063 104.93 169.063 105.035 169.053 105.139C168.973 105.591 168.752 106.006 168.419 106.321C168.087 106.636 167.662 106.835 167.209 106.887C166.66 106.985 166.096 106.96 165.558 106.815C165.15 106.724 164.78 106.509 164.499 106.198C164.217 105.887 164.039 105.496 163.987 105.079C163.843 104.154 163.843 103.212 163.987 102.286C164.039 101.883 164.212 101.504 164.482 101.202C164.753 100.899 165.108 100.686 165.502 100.591C166.149 100.398 166.836 100.388 167.488 100.563C167.881 100.656 168.237 100.863 168.514 101.158C168.791 101.453 168.974 101.824 169.043 102.224C169.144 102.812 169.168 103.412 169.115 104.007ZM164.986 103.068H168.048C168.161 101.977 167.606 101.354 166.549 101.357H166.435C165.443 101.386 164.885 102.036 164.986 103.065V103.068Z" fill="#1F1F1F"></path> <path fill-rule="evenodd" clip-rule="evenodd" d="M114.264 104.826H115.281C115.263 105.152 115.173 105.469 115.018 105.756C114.862 106.042 114.645 106.29 114.382 106.481C114.158 106.632 113.91 106.745 113.648 106.815C113.021 106.987 112.36 106.987 111.733 106.815C111.332 106.725 110.968 106.514 110.69 106.21C110.413 105.906 110.234 105.523 110.178 105.114C110.04 104.24 110.03 103.351 110.147 102.474C110.287 101.314 110.918 100.716 112.069 100.503C112.578 100.41 113.101 100.423 113.605 100.541C114.04 100.63 114.436 100.856 114.733 101.188C115.03 101.52 115.213 101.939 115.256 102.383C115.289 102.927 115.289 103.472 115.256 104.016H111.201C110.999 104.992 111.407 105.765 112.199 105.965C113.235 106.215 113.935 105.843 114.264 104.826ZM111.155 103.056C112.184 103.128 113.218 103.119 114.245 103.028C114.317 101.736 113.512 101.342 112.691 101.351C111.634 101.361 111.061 102.08 111.17 103.053L111.155 103.056Z" fill="#1F1F1F"></path> <path fill-rule="evenodd" clip-rule="evenodd" d="M131.006 104.01H126.948C126.743 104.948 127.103 105.693 127.862 105.924C128.309 106.069 128.792 106.055 129.23 105.883C129.697 105.699 129.883 105.289 130.001 104.829H131.021C131.002 105.147 130.916 105.458 130.768 105.739C130.62 106.021 130.414 106.267 130.163 106.462C129.274 107.125 127.517 107.088 126.655 106.393C126.247 106.065 125.979 105.591 125.909 105.07C125.786 104.221 125.776 103.36 125.881 102.508C126.021 101.307 126.649 100.701 127.84 100.488C128.35 100.393 128.874 100.41 129.376 100.538C129.805 100.628 130.193 100.853 130.485 101.181C130.776 101.51 130.956 101.923 130.996 102.361C131.036 102.91 131.039 103.461 131.006 104.01ZM130.029 103.071C130.001 102.831 129.992 102.627 129.955 102.427C129.921 102.173 129.809 101.937 129.633 101.751C129.458 101.566 129.229 101.441 128.978 101.395C128.586 101.304 128.176 101.323 127.794 101.448C127.476 101.562 127.212 101.793 127.056 102.094C126.9 102.395 126.862 102.744 126.951 103.071H130.029Z" fill="#1F1F1F"></path> <path fill-rule="evenodd" clip-rule="evenodd" d="M31.2711 103.7C31.296 103.265 31.2991 102.849 31.3458 102.449C31.3782 102.004 31.5521 101.582 31.8415 101.244C32.131 100.906 32.5207 100.67 32.9533 100.572C33.5804 100.401 34.2417 100.401 34.8688 100.572C35.2776 100.662 35.6485 100.877 35.9304 101.188C36.2122 101.499 36.3912 101.891 36.4421 102.308C36.591 103.234 36.591 104.179 36.4421 105.105C36.3807 105.568 36.1665 105.997 35.8339 106.323C35.5012 106.649 35.0694 106.853 34.6076 106.903C34.0461 107.007 33.4688 106.98 32.9192 106.825C32.503 106.72 32.1296 106.488 31.8509 106.16C31.5722 105.832 31.4021 105.425 31.3644 104.995C31.2928 104.542 31.296 104.11 31.2711 103.7ZM35.4627 103.7C35.4627 103.35 35.4812 103 35.4627 102.649C35.4659 102.347 35.3598 102.053 35.1643 101.823C34.9687 101.593 34.6969 101.442 34.3992 101.398C34.0905 101.346 33.7752 101.346 33.4664 101.398C33.1611 101.441 32.8812 101.593 32.6781 101.826C32.4748 102.059 32.3617 102.358 32.3594 102.668C32.3283 103.341 32.3283 104.019 32.3594 104.692C32.3631 104.988 32.4681 105.274 32.6566 105.502C32.8451 105.73 33.1058 105.885 33.3949 105.943C33.646 105.998 33.9037 106.015 34.1598 105.993C34.3351 105.994 34.5087 105.958 34.6702 105.889C34.8315 105.82 34.9772 105.718 35.0981 105.591C35.2192 105.463 35.3132 105.312 35.3742 105.147C35.4353 104.982 35.4622 104.805 35.4533 104.629C35.4752 104.319 35.4627 104.007 35.4627 103.697V103.7Z" fill="#1F1F1F"></path> <path fill-rule="evenodd" clip-rule="evenodd" d="M83.746 103.65C83.7649 103.158 83.8097 102.667 83.8797 102.18C83.9472 101.784 84.1316 101.418 84.409 101.13C84.6863 100.841 85.0436 100.644 85.4344 100.563C86.0598 100.386 86.7207 100.378 87.3498 100.541C87.7498 100.633 88.1136 100.842 88.3944 101.143C88.6752 101.444 88.8605 101.823 88.9264 102.23C88.9802 102.484 89.0063 102.743 89.004 103.003C89.0214 103.651 89.0015 104.299 88.945 104.945C88.9127 105.431 88.7112 105.891 88.3756 106.243C88.0401 106.594 87.5922 106.816 87.1104 106.868C86.5484 106.973 85.9701 106.949 85.4189 106.797C84.9874 106.691 84.6007 106.45 84.3154 106.108C84.0301 105.766 83.861 105.341 83.8331 104.895C83.7958 104.482 83.8331 104.066 83.8331 103.644L83.746 103.65ZM87.9374 103.688C87.9374 103.337 87.9593 102.987 87.9374 102.637C87.9367 102.467 87.9024 102.299 87.8366 102.143C87.7709 101.986 87.6749 101.845 87.5542 101.726C87.4337 101.607 87.2907 101.514 87.1339 101.451C86.9773 101.388 86.8096 101.357 86.6409 101.36C86.4866 101.35 86.3319 101.35 86.1776 101.36C85.8298 101.364 85.4973 101.504 85.2495 101.749C85.002 101.995 84.8586 102.328 84.8499 102.677C84.8125 103.338 84.8125 104 84.8499 104.66C84.8507 104.97 84.9604 105.27 85.1594 105.506C85.3586 105.742 85.6344 105.9 85.9382 105.952C86.1913 106 86.4498 106.011 86.7061 105.987C86.873 105.987 87.0381 105.953 87.1916 105.888C87.3453 105.822 87.4842 105.726 87.6003 105.606C87.7163 105.485 87.8071 105.342 87.8672 105.186C87.9273 105.029 87.9553 104.862 87.9499 104.695C87.9561 104.363 87.9374 104.022 87.9374 103.688Z" fill="#1F1F1F"></path> <path fill-rule="evenodd" clip-rule="evenodd" d="M30.239 102.374L29.2845 102.374C29.2845 102.355 29.244 102.336 29.2377 102.314C29.0854 101.664 28.6159 101.414 28.0158 101.376C27.695 101.368 27.3748 101.405 27.0643 101.486C26.9246 101.515 26.7981 101.589 26.7039 101.697C26.6098 101.805 26.553 101.941 26.542 102.084C26.5312 102.227 26.5669 102.37 26.6437 102.491C26.7204 102.612 26.8342 102.705 26.9679 102.755C27.2781 102.88 27.5959 102.985 27.9193 103.068C28.2552 103.162 28.6003 103.222 28.9362 103.312C29.1597 103.376 29.3788 103.455 29.5923 103.547C30.9262 104.104 30.6837 105.78 29.9032 106.362C28.9704 107.053 27.0581 107.1 26.119 106.418C25.8689 106.236 25.6653 105.997 25.5253 105.72C25.3853 105.443 25.3128 105.137 25.3137 104.826H26.2839C26.3135 104.873 26.3365 104.923 26.3523 104.976C26.3875 105.213 26.4972 105.431 26.6651 105.6C26.8329 105.769 27.0502 105.879 27.2851 105.915C27.8124 106.056 28.3695 106.037 28.8864 105.861C29.0304 105.824 29.1602 105.745 29.2593 105.634C29.3584 105.522 29.4223 105.384 29.443 105.236C29.4766 105.088 29.461 104.933 29.3987 104.796C29.3362 104.658 29.2306 104.544 29.0979 104.473C28.8599 104.342 28.6088 104.237 28.3485 104.16C27.9256 104.041 27.4934 103.966 27.0706 103.847C26.7978 103.766 26.5326 103.661 26.2776 103.534C25.1924 103.018 25.2142 101.508 26.1252 100.891C26.4943 100.649 26.9152 100.499 27.3535 100.453C27.9445 100.372 28.5463 100.437 29.1071 100.641C29.4583 100.766 29.7593 101.002 29.9637 101.315C30.1682 101.628 30.2649 102 30.239 102.374Z" fill="#1F1F1F"></path> <path fill-rule="evenodd" clip-rule="evenodd" d="M174.8 102.383H173.835C173.807 102.308 173.779 102.239 173.757 102.167C173.712 102.003 173.625 101.854 173.505 101.733C173.385 101.613 173.237 101.526 173.074 101.479C172.607 101.309 172.096 101.309 171.63 101.479C171.452 101.549 171.297 101.669 171.183 101.823C171.138 101.888 171.108 101.962 171.093 102.04C171.077 102.117 171.079 102.197 171.097 102.274C171.114 102.352 171.147 102.424 171.195 102.488C171.241 102.551 171.301 102.604 171.37 102.643C171.624 102.794 171.896 102.909 172.181 102.987C172.614 103.115 173.061 103.193 173.496 103.3C173.72 103.362 173.94 103.44 174.153 103.534C175.502 104.11 175.25 105.749 174.482 106.327C174.129 106.591 173.717 106.764 173.282 106.831C172.607 106.964 171.911 106.926 171.255 106.718C170.852 106.6 170.5 106.347 170.258 106.003C170.016 105.658 169.895 105.241 169.918 104.82H170.85C170.873 104.854 170.891 104.89 170.903 104.929C170.928 105.164 171.028 105.385 171.187 105.559C171.347 105.732 171.558 105.85 171.789 105.893C172.316 106.04 172.873 106.031 173.394 105.868C173.507 105.838 173.613 105.784 173.704 105.711C173.795 105.638 173.871 105.546 173.925 105.442C174.016 105.274 174.037 105.077 173.986 104.894C173.933 104.71 173.811 104.554 173.646 104.46C173.41 104.323 173.159 104.218 172.897 104.147C172.461 104.025 172.017 103.947 171.581 103.835C171.307 103.757 171.044 103.652 170.791 103.522C170.564 103.398 170.371 103.218 170.232 102.998C170.093 102.779 170.011 102.527 169.995 102.267C169.979 102.007 170.028 101.748 170.139 101.512C170.25 101.277 170.42 101.074 170.63 100.923C171.035 100.642 171.509 100.477 172.001 100.444C172.569 100.381 173.142 100.453 173.676 100.654C174.027 100.778 174.326 101.015 174.528 101.328C174.732 101.64 174.826 102.011 174.8 102.383Z" fill="#1F1F1F"></path> <path fill-rule="evenodd" clip-rule="evenodd" d="M37.3586 104.826L38.2918 104.826C38.3216 104.875 38.3446 104.928 38.3602 104.983C38.395 105.219 38.5045 105.438 38.6724 105.607C38.8405 105.776 39.058 105.886 39.293 105.921C39.8046 106.055 40.3437 106.041 40.8477 105.88C40.9956 105.845 41.1299 105.767 41.2339 105.656C41.3378 105.545 41.4069 105.405 41.4323 105.255C41.4772 105.089 41.4606 104.913 41.3856 104.758C41.3107 104.604 41.1825 104.482 41.025 104.416C40.7062 104.277 40.3766 104.165 40.0392 104.082C39.6661 103.978 39.2836 103.91 38.9136 103.803C38.6923 103.735 38.477 103.648 38.27 103.544C37.191 103.028 37.2096 101.517 38.1239 100.901C38.4927 100.658 38.9138 100.508 39.3521 100.463C39.9564 100.379 40.5719 100.447 41.1432 100.663C41.4814 100.787 41.7711 101.018 41.9698 101.32C42.1685 101.622 42.2656 101.981 42.2469 102.343C42.1868 102.358 42.1254 102.369 42.0635 102.374C41.8055 102.374 41.5505 102.374 41.3111 102.374C41.2768 102.327 41.2519 102.308 41.2489 102.286C41.1151 101.601 40.515 101.348 39.946 101.348C39.6301 101.357 39.3166 101.406 39.0132 101.495C38.8888 101.533 38.7787 101.607 38.6974 101.709C38.6162 101.811 38.5676 101.935 38.5582 102.065C38.5487 102.196 38.5788 102.326 38.6446 102.438C38.7103 102.551 38.8084 102.641 38.9261 102.696C39.258 102.836 39.5987 102.954 39.946 103.05C40.2786 103.147 40.6239 103.203 40.9628 103.294C41.1752 103.351 41.3829 103.424 41.5846 103.512C41.8559 103.605 42.0932 103.778 42.2661 104.007C42.4391 104.237 42.5396 104.513 42.5549 104.801C42.592 105.113 42.5423 105.429 42.411 105.714C42.2797 105.999 42.0722 106.242 41.8117 106.415C41.4766 106.639 41.0946 106.783 40.6953 106.834C39.9659 106.977 39.2113 106.908 38.5188 106.637C38.1612 106.496 37.857 106.245 37.6488 105.92C37.4408 105.595 37.339 105.212 37.3586 104.826Z" fill="#1F1F1F"></path> <path fill-rule="evenodd" clip-rule="evenodd" d="M57.1478 102.383L56.1803 102.383C56.1549 102.174 56.0697 101.977 55.935 101.816C55.8002 101.655 55.6219 101.537 55.4215 101.476C55.1595 101.382 54.8812 101.341 54.6032 101.358C54.3253 101.375 54.0536 101.448 53.8047 101.573C53.7023 101.622 53.6153 101.699 53.5531 101.794C53.4909 101.89 53.4557 102 53.4516 102.115C53.4474 102.229 53.4744 102.342 53.5294 102.441C53.5846 102.541 53.6657 102.624 53.7642 102.68C54.0082 102.822 54.271 102.927 54.5447 102.993C54.9769 103.118 55.4247 103.197 55.8601 103.306C56.0842 103.364 56.3028 103.443 56.513 103.541C56.7668 103.656 56.9869 103.834 57.1523 104.059C57.3178 104.285 57.423 104.549 57.458 104.827C57.4929 105.104 57.4564 105.387 57.352 105.646C57.2474 105.906 57.0784 106.134 56.8613 106.309C56.5179 106.587 56.1066 106.767 55.6703 106.831C54.984 106.972 54.2734 106.934 53.6057 106.722C53.23 106.612 52.898 106.387 52.6563 106.078C52.4147 105.769 52.2759 105.391 52.2593 104.998C52.2612 104.939 52.2674 104.881 52.278 104.823H53.2108C53.234 104.863 53.2518 104.906 53.2636 104.951C53.2924 105.178 53.3908 105.391 53.5452 105.559C53.6996 105.727 53.9022 105.843 54.1249 105.89C54.6478 106.043 55.2034 106.043 55.7263 105.89C55.8397 105.861 55.9463 105.811 56.0398 105.74C56.1332 105.67 56.2117 105.581 56.2704 105.48C56.365 105.322 56.3952 105.133 56.3546 104.953C56.3141 104.773 56.206 104.615 56.0527 104.513C55.812 104.365 55.5512 104.252 55.2786 104.179C54.8463 104.054 54.3986 103.978 53.9632 103.866C53.6898 103.787 53.4244 103.682 53.1703 103.553C52.935 103.43 52.7356 103.247 52.5918 103.023C52.448 102.799 52.3648 102.541 52.3504 102.274C52.336 102.008 52.3907 101.742 52.5094 101.503C52.6282 101.265 52.8067 101.061 53.0273 100.913C53.3961 100.671 53.8173 100.52 54.2556 100.475C54.8588 100.391 55.4733 100.46 56.0435 100.675C56.3886 100.798 56.684 101.032 56.8835 101.341C57.0831 101.65 57.1764 102.016 57.1478 102.383Z" fill="#1F1F1F"></path> <path fill-rule="evenodd" clip-rule="evenodd" d="M151.208 103.666C151.22 103.187 151.255 102.708 151.316 102.233C151.376 101.824 151.56 101.443 151.843 101.143C152.125 100.842 152.493 100.636 152.896 100.553C153.506 100.385 154.148 100.379 154.762 100.535C155.166 100.617 155.534 100.822 155.817 101.123C156.1 101.423 156.284 101.805 156.345 102.214C156.498 103.146 156.498 104.097 156.345 105.029C156.296 105.508 156.08 105.955 155.736 106.289C155.392 106.624 154.941 106.824 154.463 106.856C153.976 106.913 153.484 106.895 153.002 106.803C152.509 106.73 152.059 106.481 151.733 106.102C151.408 105.723 151.228 105.239 151.226 104.738C151.205 104.376 151.226 104.01 151.226 103.647L151.208 103.666ZM155.433 103.647C155.408 103.272 155.412 102.865 155.352 102.471C155.318 102.171 155.176 101.894 154.955 101.69C154.733 101.487 154.446 101.371 154.145 101.364C154.069 101.364 153.991 101.364 153.913 101.364C152.841 101.364 152.281 101.902 152.265 102.974C152.265 103.441 152.265 103.909 152.265 104.376C152.269 104.557 152.289 104.737 152.327 104.914C152.37 105.172 152.491 105.411 152.674 105.598C152.858 105.784 153.093 105.909 153.35 105.955C153.603 106.009 153.861 106.024 154.118 105.999C154.438 105.999 154.746 105.876 154.978 105.654C155.209 105.432 155.347 105.129 155.362 104.807C155.415 104.426 155.415 104.05 155.437 103.647H155.433Z" fill="#1F1F1F"></path> <path fill-rule="evenodd" clip-rule="evenodd" d="M143.638 106.762L142.634 106.762V106.337C142.634 105.169 142.634 104.002 142.634 102.834C142.642 102.704 142.642 102.575 142.634 102.446C142.618 102.156 142.492 101.884 142.283 101.685C142.074 101.486 141.796 101.374 141.509 101.373C141.27 101.34 141.027 101.359 140.797 101.43C140.566 101.501 140.354 101.621 140.174 101.783C139.995 101.944 139.852 102.143 139.757 102.366C139.661 102.588 139.615 102.829 139.621 103.072C139.587 104.147 139.621 105.227 139.606 106.302C139.606 106.443 139.606 106.584 139.606 106.734C139.284 106.8 138.954 106.811 138.63 106.765C138.552 106.475 138.53 101.157 138.605 100.629H139.537V101.529C139.64 101.411 139.681 101.37 139.715 101.323C140.47 100.272 141.947 100.306 142.731 100.697C143.353 101.01 143.571 101.611 143.648 102.261C143.654 102.378 143.654 102.495 143.648 102.612C143.648 103.896 143.648 105.181 143.648 106.465C143.657 106.559 143.638 106.634 143.638 106.762Z" fill="#1F1F1F"></path> <path fill-rule="evenodd" clip-rule="evenodd" d="M158.679 106.753C158.543 106.753 158.455 106.781 158.368 106.784C158.151 106.784 157.933 106.784 157.725 106.784C157.64 106.471 157.61 101.248 157.684 100.625H158.589V101.501C158.671 101.432 158.749 101.358 158.822 101.279C159.59 100.25 161.114 100.316 161.854 100.729C162.104 100.88 162.312 101.092 162.461 101.344C162.611 101.596 162.695 101.881 162.709 102.174C162.728 102.328 162.736 102.484 162.734 102.64C162.734 103.912 162.734 105.185 162.734 106.459C162.734 106.546 162.734 106.637 162.718 106.753H161.713V102.852C161.713 102.737 161.713 102.618 161.713 102.502C161.713 102.206 161.597 101.921 161.389 101.71C161.183 101.499 160.902 101.378 160.607 101.373C160.362 101.339 160.112 101.36 159.877 101.434C159.64 101.508 159.423 101.633 159.24 101.801C159.058 101.969 158.913 102.175 158.819 102.405C158.724 102.634 158.68 102.882 158.691 103.131C158.67 104.054 158.691 104.976 158.691 105.896L158.679 106.753Z" fill="#1F1F1F"></path> <path fill-rule="evenodd" clip-rule="evenodd" d="M124.05 104.538L124.983 104.538C125.034 104.728 125.026 104.929 124.961 105.114C124.9 105.563 124.692 105.979 124.37 106.297C124.048 106.614 123.63 106.815 123.183 106.869C122.699 106.946 122.205 106.946 121.721 106.869C121.245 106.825 120.799 106.612 120.464 106.269C120.129 105.925 119.926 105.472 119.893 104.992C119.762 104.104 119.762 103.202 119.893 102.314C119.944 101.891 120.127 101.494 120.415 101.181C120.703 100.867 121.082 100.653 121.497 100.569C122.098 100.406 122.731 100.399 123.335 100.547C123.797 100.652 124.211 100.91 124.51 101.279C124.809 101.648 124.977 102.107 124.986 102.583H123.979L123.91 102.343C123.858 102.099 123.731 101.877 123.548 101.709C123.365 101.541 123.134 101.434 122.887 101.404C122.577 101.358 122.262 101.366 121.954 101.426C121.67 101.474 121.412 101.622 121.227 101.844C121.041 102.066 120.94 102.347 120.941 102.637C120.897 103.348 120.897 104.061 120.941 104.773C120.949 105.083 121.072 105.379 121.285 105.603C121.498 105.827 121.787 105.964 122.094 105.987C122.322 106.028 122.555 106.037 122.785 106.012C123.506 105.915 123.842 105.577 123.988 104.848C124.01 104.742 124.05 104.645 124.05 104.538Z" fill="#1F1F1F"></path> <path fill-rule="evenodd" clip-rule="evenodd" d="M136.823 98.2578L136.823 106.769H135.778C135.688 106.481 135.669 98.7112 135.757 98.2828C135.816 98.2718 135.876 98.2645 135.937 98.2608L136.823 98.2578Z" fill="#1F1F1F"></path> <path fill-rule="evenodd" clip-rule="evenodd" d="M117.451 106.759L116.493 106.759C116.413 106.481 116.397 101.051 116.493 100.622C116.539 100.611 116.586 100.604 116.633 100.6H117.383C117.383 100.801 117.383 100.988 117.398 101.176C117.394 101.37 117.406 101.563 117.436 101.755C117.718 101.25 118.154 100.849 118.679 100.613C118.992 100.494 119.325 100.442 119.659 100.46C119.701 100.811 119.71 101.167 119.684 101.52C119.472 101.548 119.283 101.57 119.093 101.604C118.749 101.64 118.425 101.78 118.164 102.008C117.903 102.235 117.718 102.538 117.635 102.874C117.542 103.225 117.491 103.585 117.482 103.947C117.46 104.751 117.482 105.555 117.482 106.362L117.451 106.759Z" fill="#1F1F1F"></path> <path fill-rule="evenodd" clip-rule="evenodd" d="M43.7276 100.616H44.7164V106.756H43.7276V100.616Z" fill="#1F1F1F"></path> <path fill-rule="evenodd" clip-rule="evenodd" d="M59.5919 106.759H58.684C58.6063 106.481 58.5877 101.067 58.6684 100.619H59.5764C59.6573 100.894 59.6852 106.309 59.5919 106.759Z" fill="#1F1F1F"></path> <path fill-rule="evenodd" clip-rule="evenodd" d="M177.24 106.756H176.332C176.247 106.496 176.222 101.126 176.307 100.619H177.221C177.302 100.879 177.327 106.246 177.24 106.756Z" fill="#1F1F1F"></path> <path fill-rule="evenodd" clip-rule="evenodd" d="M71.5843 103.919V103.049C72.7149 102.956 73.8511 102.95 74.9828 103.031V103.922L71.5843 103.919Z" fill="#1F1F1F"></path> <path fill-rule="evenodd" clip-rule="evenodd" d="M44.7185 98.2578V99.4589H43.7327V98.2578H44.7185Z" fill="#1F1F1F"></path> <path fill-rule="evenodd" clip-rule="evenodd" d="M59.6167 99.4869H58.6497V98.2764H59.6167V99.4869Z" fill="#1F1F1F"></path> <path fill-rule="evenodd" clip-rule="evenodd" d="M177.265 98.2795V99.4806H176.288C176.251 99.0959 176.288 98.7018 176.288 98.2795H177.265Z" fill="#1F1F1F"></path> </svg> 